<?xml version="1.0" encoding="UTF-8" standalone="no"?>
<!-- Created with Inkscape (http://www.inkscape.org/) -->

<svg
   version="1.1"
   id="svg1"
   width="3378.6079"
   height="3234.2175"
   viewBox="0 0 3378.6079 3234.2175"
   sodipodi:docname="building.svg"
   inkscape:version="1.4.3 (0d15f75042, 2025-12-25)"
   xmlns:inkscape="http://www.inkscape.org/namespaces/inkscape"
   xmlns:sodipodi="http://sodipodi.sourceforge.net/DTD/sodipodi-0.dtd"
   xmlns="http://www.w3.org/2000/svg"
   xmlns:svg="http://www.w3.org/2000/svg">
  <defs
     id="defs1" />
  <sodipodi:namedview
     id="namedview1"
     pagecolor="#ffffff"
     bordercolor="#000000"
     borderopacity="0.25"
     inkscape:showpageshadow="2"
     inkscape:pageopacity="0.0"
     inkscape:pagecheckerboard="0"
     inkscape:deskcolor="#d1d1d1"
     inkscape:zoom="0.16418858"
     inkscape:cx="791.77247"
     inkscape:cy="1650.5411"
     inkscape:window-width="1920"
     inkscape:window-height="1011"
     inkscape:window-x="0"
     inkscape:window-y="0"
     inkscape:window-maximized="1"
     inkscape:current-layer="g4">
    <inkscape:page
       x="0"
       y="0"
       width="3378.6079"
       height="3234.2175"
       id="page2"
       margin="0"
       bleed="0" />
  </sodipodi:namedview>
  <g
     inkscape:groupmode="layer"
     inkscape:label="Image"
     id="g1"
     transform="translate(-378.39203,-357.33539)">
    <g
       id="g4">
      <path
         id="path3"
         style="display:inline;fill:#af151d;fill-opacity:1;stroke:none"
         d="m 1415.332,357.34961 c -5.7418,0.11447 -11.5945,0.92065 -20.832,2.48437 -6.6,1.11726 -16.5,2.53455 -22,3.14844 -21.6334,2.41463 -39.0555,5.14662 -40.1797,6.30274 -2.571,2.64384 -5.2453,184.18832 -2.75,186.68359 0.5622,0.56218 7.9748,1.68163 16.4746,2.48633 33.6015,3.18112 56.6279,5.82838 60.1094,6.91015 3.1737,0.98614 7.9448,6.50625 36.2695,41.97461 17.9379,22.46197 36.0936,44.78662 40.3457,49.60938 4.2522,4.82277 15.5817,17.94488 25.1778,29.16016 18.2404,21.3182 38.9401,42.50399 55.0527,56.3457 13.902,11.94261 50.5424,42.5897 63.916,53.46094 6.3707,5.17867 15.634,12.99335 20.584,17.36523 10.4186,9.20181 15.9407,13.15831 19.6074,14.05078 3.9023,0.94982 38.1766,3.478 56.3926,4.16016 8.8,0.32955 29.05,1.24515 45,2.03515 45.6245,2.25978 89.7796,4.31584 117.5,5.47071 14.025,0.58431 28.2,1.18951 31.5,1.34375 13.626,0.63686 19.0698,0.58355 20.3008,-0.19727 1.5185,-0.96318 3.1006,-85.34806 3.1816,-169.64453 0.026,-27.5 0.4912,-63.7021 1.0332,-80.44922 1.1866,-36.66449 6.8012,-31.20781 -39.7695,-38.64844 -47.3207,-7.56044 -92.5056,-15.29019 -142.7461,-24.41601 -20.9,-3.79633 -43.625,-7.84895 -50.5,-9.00781 -18.72,-3.15546 -55.9952,-10.55242 -78,-15.47852 -33.3521,-7.46639 -93.5871,-19.36939 -126.5,-24.99609 -15.4953,-2.64904 -14.1002,-0.98567 -14.8242,-17.66407 -0.3423,-7.88665 -1.173,-31.78224 -1.8457,-53.09961 -1.4536,-46.06157 0.9736,-40.6711 -19.5156,-43.34179 -9.248,-1.20544 -24.0145,-3.17595 -32.8145,-4.38086 -8.7951,-1.20424 -14.4261,-1.78244 -20.168,-1.66797 z m 1277.8692,121.86133 c -9.8872,0.20101 -16.6107,0.68668 -17.0606,1.52734 -0.606,1.13233 -2.4549,11.56667 -4.1074,23.1875 -3.1619,22.23586 -6.2466,40.97777 -8.2168,49.91992 -1.9608,8.89959 1.5304,8.34801 -59.1309,9.32618 -29.252,0.47169 -54.1709,1.07879 -55.375,1.34765 -2.8523,0.63688 -3.0498,2.29914 -4.291,35.98047 -0.5472,14.85 -1.2364,31.725 -1.5312,37.5 -0.7231,14.16338 -3.6856,12.73101 32.1055,15.51367 52.1805,4.05688 79.0482,5.42339 127.9199,6.5 25.8423,0.56929 50.5863,1.15749 54.9863,1.3086 25.689,0.88226 29.2473,0.75418 29.6953,-1.07227 2.5016,-10.19839 -1.7502,-174.23268 -4.5898,-177.07227 -2.6119,-2.6119 -60.7427,-4.56983 -90.4043,-3.96679 z m -717.2637,78.99414 c -4.6217,0.016 -4.1471,3.03857 -2.6055,22.45312 0.9102,11.46257 2.1037,28.9418 2.6524,38.8418 4.0566,73.19735 5.6199,98.06388 8.5508,136 4.0853,52.87847 8.4895,125.85342 13.9433,231 1.9528,37.6512 1.908,37.3161 5.1504,38.5488 3.1084,1.1818 59.9348,5.3073 102.3711,7.4317 31.2791,1.5658 65.247,3.6536 122.1719,7.5078 30.0553,2.0349 68.9699,4.3569 134.3281,8.0176 19.8,1.1089 47.25,2.6618 61,3.4492 13.75,0.7875 34.675,1.9353 46.5,2.5508 11.825,0.6156 22.85,1.2501 24.5,1.4121 24.8341,2.4372 23.3921,10.2536 20.002,-108.418 -0.7935,-27.775 -1.9065,-102.475 -2.4727,-166 -0.5662,-63.525 -1.3115,-128.43602 -1.6563,-144.24609 -0.7228,-33.13885 1.3733,-29.71096 -19.373,-31.68946 -25.0011,-2.38426 -109.5174,-10.11313 -126.5,-11.56836 -9.9,-0.84833 -40.725,-3.55741 -68.5,-6.02148 -27.775,-2.46408 -58.375,-5.16764 -68,-6.00586 -9.625,-0.83822 -32.125,-3.07594 -50,-4.97461 -17.875,-1.89867 -40.15,-4.13103 -49.5,-4.96094 -53.0533,-4.70903 -110.2271,-9.73626 -125.5,-11.0332 -9.625,-0.81733 -19.975,-1.71292 -23,-1.99023 -1.6589,-0.15208 -2.996,-0.30838 -4.0625,-0.30469 z m -657.7891,10.08008 c -3.3295,-0.0559 -15.9566,15.05324 -29.7773,35.71484 -19.6624,29.39481 -31.5379,46.47678 -42.4434,61.05273 -6.0166,8.0416 -14.4243,19.62688 -18.6836,25.7461 -4.2593,6.11922 -12.9532,18.00604 -19.3203,26.41406 -6.367,8.40803 -15.2683,20.68711 -19.7793,27.28711 -4.5109,6.6 -11.3419,16.275 -15.1797,21.5 -3.8377,5.225 -9.8814,13.775 -13.4316,19 -8.7125,12.82242 -18.3136,25.99766 -41.5352,57 -19.1748,25.59949 -19.7791,24.44118 22.502,43.0918 18.0765,7.97371 14.2555,9.94233 33.1816,-17.0918 7.1233,-10.175 16.998,-24.125 21.9454,-31 4.9473,-6.875 12.3048,-17.45 16.3496,-23.5 4.0449,-6.05 15.008,-21.35 24.3613,-34 9.3533,-12.65 22.2459,-30.65 28.6523,-40 6.4064,-9.35 17.7203,-25.325 25.1407,-35.5 27.552,-37.77994 34.1293,-47.09626 51.2988,-72.6582 11.105,-16.53326 17.5703,-27.07924 17.5703,-28.66016 0,-2.27314 -35.6491,-32.45785 -40.5586,-34.3418 -0.088,-0.0337 -0.1856,-0.0529 -0.293,-0.0547 z m 1219.7344,113.79687 c -2.7998,1.46525 -3.0607,52.30425 -0.3769,73.41797 0.8728,6.86624 5.3645,91.57272 6.4687,122 0.5789,15.95 1.5002,38 2.0488,49 1.323,26.52954 3.7721,78.6688 4.9786,106 0.5342,12.1 0.9743,27.9928 0.9843,35.3164 0.019,19.1549 -2.893,17.3342 31.5137,19.7012 12.1,0.8324 26.275,1.9473 31.5,2.4785 38.9945,3.9636 68.7624,6.3752 154,12.4766 26.675,1.9094 63.35,4.5886 81.5,5.955 18.15,1.3664 42.45,2.9987 54,3.627 11.55,0.6284 26.175,1.4907 32.5,1.9141 50.4219,3.3751 49.4694,4.2928 45.0332,-43.4688 -5.1583,-55.5349 -10.5439,-135.83646 -11.4922,-171.3457 -0.5916,-22.15455 -1.0365,-22.96945 -27.9805,-51.18946 -12.1273,-12.7017 -41.1502,-46.3244 -62.0683,-71.90625 -39.869,-48.7579 -75.8911,-90.19242 -80.4141,-92.49804 -9.9925,-5.09373 -252.6728,-6.46221 -262.1953,-1.47852 z M 1585.9883,866.0957 c -2.5813,-0.0347 -9.0809,0.86295 -26.9883,3.30469 -19.3171,2.63395 -53.4126,6.71873 -92.5,11.08008 -32.2554,3.59904 -58.8259,6.91109 -96.5,12.03125 -35.0436,4.76266 -61.7527,7.98943 -74.5,8.99805 -4.4,0.34815 -13.4,1.25991 -20,2.02734 -27.79,3.23135 -81.4493,8.40212 -87.6777,8.44922 -4.99,0.0378 -4.8223,-2.93164 -4.8223,84.91797 0,44.969 0.2993,82.0631 0.666,82.4297 1.632,1.6321 26.3149,-1.3945 71.9649,-8.8242 43.9108,-7.1465 66.5006,-11.483 93.8691,-18.0157 18.0364,-4.3052 44.5109,-10.2246 69.5,-15.539 12.925,-2.7487 27.325,-5.9018 32,-7.0078 36.8864,-8.7267 51.9443,-12.1931 91.1992,-20.9981 43.9618,-9.86072 53.0124,-12.10525 55.6074,-13.78904 1.0654,-0.69131 0.8358,-5.99647 -1.2461,-28.75391 -1.4041,-15.34835 -3.4449,-41.18125 -4.5351,-57.40625 -2.2878,-34.04944 -2.8678,-40.1285 -4.0039,-41.9668 -0.3464,-0.56039 -0.4845,-0.91667 -2.0332,-0.9375 z m 217.5117,0.97071 c -28.05,0.54006 -75.8748,1.40273 -106.2773,1.91601 -30.4025,0.51327 -55.6454,1.16118 -56.0957,1.43946 -0.6682,0.41298 -1.726,28.19679 -2.4942,65.5039 -0.1323,6.42593 -0.1323,6.42593 26.9102,19.5 126.1472,60.98772 156.8328,71.66712 226.957,78.98442 8.25,0.8608 16.35,1.7375 18,1.9492 8.867,1.1375 11.8838,0.3522 12.623,-3.2871 0.6139,-3.0219 3.106,-118.13611 3.3028,-152.5723 0.084,-14.68963 -8.5635,-15.63546 -122.9258,-13.43359 z m 1204.7188,33.34765 c -2.2905,-0.0729 -2.2939,1.17274 -2.6348,3.33594 -1.8557,11.77412 -3.839,33.95806 -5.1211,57.25 -0.8023,14.575 -2.352,38.65 -3.4434,53.5 -4.5524,61.9448 -5.2696,90.9756 -2.2695,91.9121 2.2979,0.7174 43.5051,3.1968 84.25,5.0703 17.875,0.8219 39.25,1.9928 47.5,2.6016 8.25,0.6088 35.475,1.9049 60.5,2.8808 25.025,0.9759 46.1773,1.8323 47.0059,1.9043 6.719,0.5802 58.2163,-34.2807 97.7675,-66.1836 25.6394,-20.6814 26.781,-22.1879 30.6465,-40.496 4.7235,-22.37159 6.8797,-20.8009 -24.9511,-18.17778 -53.2961,4.39203 -51.1613,4.72735 -67.4688,-10.57422 -4.6676,-4.37971 -8.641,-5.67068 -57,-18.51367 -74.5862,-19.80829 -81.9366,-21.99765 -107,-31.88086 -14.9012,-5.87596 -29.4008,-10.90182 -72.0215,-24.95703 -16.0878,-5.30537 -22.8148,-7.57811 -25.7597,-7.67188 z m -1946.1661,5.38086 c -23.3037,0.83221 -30.5225,6.73939 -68.54293,25.67969 -80.94693,40.32464 -90.80867,43.43571 -187.00977,58.98828 -73.71317,11.91701 -74.15487,12.00401 -75.88867,14.77731 -3.90365,6.244 75.53893,70.3442 129.88867,104.8047 7.15,4.5334 16.825,10.8085 21.5,13.9434 4.675,3.1349 9.175,5.9599 10,6.2773 3.24848,1.25 45.52889,-1.7044 126,-8.8008 28.4175,-2.5061 76.7691,-6.232 116,-8.9414 33.0207,-2.2805 32.8971,-2.2621 33.6641,-5.3183 0.6626,-2.64 0.3409,-16.5332 -2.168,-93.7051 -0.8046,-24.75 -1.4705,-57.88179 -1.4805,-73.62695 -0.02,-34.50624 4.2466,-30.33269 -32.5156,-31.8125 -35.6918,-1.43673 -55.465,-2.76495 -69.4473,-2.26563 z m 383.461,322.64058 c -2.0552,-0.053 -5.0952,0.8416 -9.6485,1.9649 -12.0095,2.9627 -40.6976,9.3954 -67.3652,15.1035 -8.8,1.8836 -20.275,4.3608 -25.5,5.5059 -5.225,1.145 -20.975,4.3325 -35,7.084 -34.2357,6.7164 -46.7204,9.7332 -47.3789,11.4492 -0.7513,1.9578 0.6827,44.549 4.3984,130.707 2.5491,59.1075 3.0556,69.0632 3.5586,69.877 0.7551,1.2218 1.8508,1.1157 10.9219,-1.0547 8.9121,-2.1323 48.7673,-9.7497 99.5,-19.0157 55.4765,-10.1324 75.3791,-14.1533 77.8477,-15.7304 2.6639,-1.7019 2.7002,3.5428 -0.4024,-56.8262 -2.8833,-56.1027 -5.3686,-108.4389 -6.0449,-127.2578 -0.6101,-16.9787 -0.3654,-21.6891 -4.8867,-21.8067 z m 520.2422,23.6583 c -17.2053,0.7706 -12.5487,11.3723 -9.8008,59.4062 2.7417,47.926 4.3011,97.3746 3.5644,113 -0.3371,7.15 -0.2494,13.5283 0.1953,14.1738 1.3371,1.9407 27.4568,4.1341 117.7852,9.8887 22.55,1.4366 45.95,2.964 52,3.3945 32.9426,2.344 29.9006,10.9702 30.8398,-87.457 0.9065,-94.9986 0.7679,-100.224 -2.6699,-100.9785 -2.7355,-0.6004 -58.6766,-4.0354 -98.1699,-6.0274 -16.5,-0.8323 -41.025,-2.1587 -54.5,-2.9492 -19.0862,-1.1197 -31.4236,-2.8014 -39.2441,-2.4511 z m 370.8515,19.9003 c -2.3873,2.3901 0.2898,178.554 2.9746,195.7481 0.6459,4.1368 -0.053,4.0176 27.918,4.7168 12.65,0.3163 34.925,1.0494 49.5,1.6289 14.575,0.5795 37.3,1.4028 50.5,1.8281 40.8747,1.317 63.5028,1.2579 63.9883,-0.166 0.9343,-2.74 4.5156,-124.1877 4.5156,-153.0254 0,-36.4 3.0154,-31.8871 -22.5039,-33.625 -22.4132,-1.5264 -49.1129,-4.1205 -88.5,-8.5996 -71.1621,-8.0925 -87.2584,-9.6414 -88.3926,-8.5059 z m 399.7637,28.5118 c -2.828,3.8675 -1.922,176.035 0.9414,178.8984 2.6836,2.6836 3.8685,2.8932 31.6875,5.6094 27.0033,2.6366 53.1434,5.5354 76.5,8.4843 10.45,1.3193 30.7,3.5725 45,5.0079 14.3,1.4355 28.475,2.9524 31.5,3.3691 6.5013,0.8955 9,-0.046 9,-3.3926 0,-1.3465 0.6522,-17.6432 1.4492,-36.2148 0.797,-18.5717 1.938,-46.5926 2.5352,-62.2676 0.5972,-15.675 1.5336,-37.95 2.082,-49.5 2.5761,-54.2547 3.3088,-48.491 -6.1621,-48.582 -4.6221,-0.045 -9.7543,-0.2064 -11.4043,-0.3614 -19.0242,-1.7874 -181.9068,-2.7221 -183.1289,-1.0507 z M 1709.293,1587.7324 c -2.7314,-0.15 -8.5928,0.467 -21.293,1.6485 -10.175,0.9465 -30.65,2.8333 -45.5,4.1914 -25.7809,2.3579 -39.2894,3.8078 -78.5,8.4316 -32.7968,3.8675 -100.4308,10.8906 -130,13.4981 -16.225,1.4308 -43.45,4.1614 -60.5,6.0683 -34.9479,3.9085 -88.9158,9.3629 -187,18.8985 -36.85,3.5825 -81.4,8.0811 -99,9.998 -35.9441,3.9149 -73.7619,7.9406 -89.5,9.5254 -15.83097,1.5941 -43.4257,4.9616 -48.63867,5.9355 -5.74985,1.0742 -6.47669,2.1984 -5.86719,9.0723 1.21609,13.7149 2.60584,54.825 3.49805,103.5 1.90395,103.8717 7.81118,257.4778 10.1289,263.3516 0.89373,2.265 1.21461,2.329 8.6543,1.748 4.24876,-0.3318 23.69961,-1.2765 43.22461,-2.1016 19.525,-0.8251 45.175,-1.9447 57,-2.4863 11.825,-0.5415 36.35,-1.4497 54.5,-2.0195 18.15,-0.5698 51,-1.7016 73,-2.5137 22,-0.8122 56.875,-1.9176 77.5,-2.457 20.625,-0.5394 40.65,-1.212 44.5,-1.4961 3.85,-0.284 23.425,-0.9804 43.5,-1.5469 20.075,-0.5666 46.175,-1.4619 58,-1.9883 11.825,-0.5264 40.8373,-1.4483 64.4707,-2.0507 51.7536,-1.3194 38.9018,3.0452 93.8164,-31.8614 28.2022,-17.9268 37.6318,-23.8523 51.0449,-32.0683 18.623,-11.4073 15.3487,-4.1361 25.2325,-56.0098 2.5675,-13.475 7.2748,-36.875 10.4609,-52 3.186,-15.125 10.303,-50.45 15.8164,-78.5 26.8286,-136.4922 25.4903,-129.5072 31.2148,-162.8105 1.6838,-9.7962 2.9218,-19.2462 2.752,-21 -0.1829,-1.8889 0.2158,-2.8071 -2.5156,-2.9571 z m 39.9316,20.2832 c -7.5868,-0.02 -7.3802,-0.3727 -9.7031,16.6055 -2.093,15.2981 -6.4291,40.5597 -11.3985,66.3965 -2.1667,11.2649 -5.3651,29.2574 -7.1074,39.9824 -14.9154,91.8158 -26.9369,161.6179 -35.1328,204 -6.6002,34.1304 -8.9918,50.2229 -7.6621,51.5527 1.5572,1.5571 37.9193,6.436 118.7793,15.9375 42.9636,5.0484 151.0572,20.1516 193.5,27.0352 74.4946,12.0818 77.172,12.3241 148.5,13.4238 95.3337,1.4699 92.2778,1.5875 93.2812,-3.625 0.4962,-2.5772 -2.7737,-52.4789 -5.2636,-80.3242 -0.5656,-6.325 -2.1429,-27.475 -3.5059,-47 -2.3233,-33.2823 -3.3553,-47.5156 -6.9648,-96 -0.7984,-10.725 -1.7091,-23.55 -2.0215,-28.5 -0.8482,-13.4429 -4.3163,-62.3064 -5.9981,-84.5 -0.8127,-10.725 -1.9343,-27.6 -2.4921,-37.5 -2.6104,-46.3284 4.1526,-39.9706 -44.0352,-41.3906 -21.725,-0.6401 -59.75,-2.0442 -84.5,-3.1192 -24.75,-1.075 -71.775,-2.8568 -104.5,-3.959 -32.725,-1.102 -62.875,-2.2486 -67,-2.5488 -13.728,-0.999 -145.5708,-6.4378 -156.7754,-6.4668 z m 527.5977,53.8848 c -21.3714,-0.3275 -17.3671,5.4319 -17.9727,42.3945 -0.3624,22.1123 -1.1343,57.5301 -1.7148,78.7051 -0.5806,21.175 -1.3024,77.875 -1.6036,126 -0.3013,48.125 -0.8278,93.6246 -1.1718,101.1094 -0.7772,16.9139 -4.25,15.2085 32.6406,16.0234 91.2202,2.0148 130.1717,3.0532 164,4.3711 20.625,0.8034 54.6,1.9113 75.5,2.4629 20.9,0.5516 46.325,1.244 56.5,1.5371 10.175,0.2931 42.35,0.9847 71.5,1.5371 29.15,0.5525 69.425,1.4335 89.5,1.959 20.075,0.5256 56.075,1.4193 80,1.9863 23.925,0.567 54.075,1.4721 67,2.0098 12.925,0.5377 41.05,1.4724 62.5,2.0781 21.45,0.6058 46.2,1.4433 55,1.8613 34.7298,1.6495 31.5589,6.4539 28.0156,-42.4355 -0.7973,-11 -1.9364,-27.2 -2.5312,-36 -0.5947,-8.8 -2.4037,-32.65 -4.0196,-53 -1.616,-20.35 -3.8488,-50.275 -4.9628,-66.5 -1.114,-16.225 -3.1338,-43.9 -4.4864,-61.5 -2.2373,-29.1137 -4.105,-63.2897 -4.7636,-87.168 -0.3239,-11.7427 2.4043,-10.6986 -30.0723,-11.5078 -15.4988,-0.3861 -38.9797,-1.1743 -52.1797,-1.7519 -13.2,-0.5775 -41.325,-1.735 -62.5,-2.5723 -55.4534,-2.1929 -108.0967,-4.3569 -134,-5.5059 -22.9187,-1.0167 -76.7969,-2.8403 -162,-5.4863 -100.2643,-3.1138 -117.0537,-3.6637 -168.5,-5.5176 -29.15,-1.0505 -73.5826,-2.6984 -98.7383,-3.6621 -13.8736,-0.5315 -23.8156,-1.3186 -30.9394,-1.4277 z m 887.5527,3.0332 c -7.1408,-0.033 -16.0444,0.4605 -28.1562,1.0469 -14.1454,0.6849 -36.8196,1.5323 -50.3868,1.8828 -13.5672,0.3505 -24.9733,0.9435 -25.3476,1.3183 -0.3743,0.3748 -0.8286,26.6998 -1.0098,58.5 -1.0064,176.5688 -1.7222,256.4205 -2.4941,278.3184 -1.0122,28.7167 -1.9329,26.4852 11.3007,27.4141 13.2598,0.9309 131.5252,5.7899 184.7188,7.5898 49.3096,1.6685 114.3316,4.7928 156.1797,7.5039 21.8236,1.4138 47.0236,2.9349 56,3.3809 30.8228,1.5316 46.8184,1.2949 51.3457,-0.7617 7.5471,-3.4284 35.9425,-20.3768 48.4746,-28.9336 6.875,-4.6942 14.525,-9.899 17,-11.5664 6.4912,-4.3731 36.1138,-26.8738 45.5,-34.5606 4.4,-3.6034 13.4244,-11.0953 20.0547,-16.6484 6.6302,-5.5531 17.8802,-14.7275 25,-20.3887 18.038,-14.3429 24.9308,-20.9226 26.2519,-25.0547 2.9467,-9.2173 6.66,-53.0243 4.5918,-54.1719 -0.8951,-0.4967 -16.829,-0.1884 -139.3984,2.6993 -35.475,0.8357 -74.2255,1.5197 -86.1113,1.5097 -24.9971,-0.013 -20.9606,1.3774 -40.3887,-13.9297 -21.8446,-17.211 -29.379,-22.9617 -52.5,-40.0722 -74.882,-55.4155 -73.6472,-54.5222 -124.6172,-90.0098 -13.0342,-9.075 -31.1651,-22.0384 -40.291,-28.8086 -28.7359,-21.3181 -34.2944,-26.1591 -55.7168,-26.2578 z m -2245.03125,8.2031 c -4.1347,-0.059 -13.02682,7.3219 -32.34375,21.3457 -10.725,7.7862 -26.7,19.169 -35.5,25.2949 -8.8,6.126 -23.31762,16.4439 -32.26172,22.9297 -39.60294,28.7179 -81.82346,58.7275 -94.40039,67.0977 -7.51432,5.0009 -17.18932,11.6519 -21.5,14.7793 -4.31067,3.1274 -9.83224,7.0876 -12.26953,8.8008 -14.14009,9.9398 -33.82664,28.5789 -32.48242,30.7539 0.78641,1.2724 46.94358,0.6174 81.91406,-1.1621 10.45,-0.5318 35.65,-1.6391 56,-2.461 20.35,-0.8218 39.25,-1.722 42,-2 2.75,-0.2781 23.225,-0.9747 45.5,-1.5488 22.275,-0.5741 41.35656,-1.3032 42.4043,-1.6211 2.26533,-0.6873 1.93568,-35.0814 -0.91016,-94.8457 -0.86427,-18.15 -1.89193,-45.5629 -2.2832,-60.918 -0.45583,-17.8883 0.53427,-26.3825 -3.86719,-26.4453 z m -0.0859,211.377 c -7.49742,-3.0126 -134.05553,-1.5888 -221.25781,2.4883 -11.275,0.5272 -34.225,1.4333 -51,2.0156 -16.775,0.5822 -43.325,1.7258 -59,2.541 -48.46471,2.5207 -91.4992,2.8847 -128,1.082 -17.875,-0.8828 -37.675,-1.8553 -44,-2.1621 -15.99287,-0.7759 -14.27713,-5.6243 -15.38672,43.4707 -0.95063,42.0622 -0.94994,42.0636 1.46875,44.6485 5.38872,5.7591 67.34089,44.7853 99.91797,62.9433 11.68917,6.5153 25.06245,14.4475 54,32.0235 10.725,6.5142 22.875,13.8132 27,16.2207 8.36231,4.8806 20.62274,5.1405 78.5,1.6699 13.2,-0.7916 36.15,-2.1233 51,-2.961 14.85,-0.8378 40.05,-2.4261 56,-3.5293 15.95,-1.1033 43.625,-2.893 61.5,-3.9765 17.875,-1.0834 37.45,-2.432 43.5,-2.9981 6.05,-0.566 20,-1.2735 31,-1.5722 11,-0.2988 21.08508,-0.7683 22.41016,-1.041 2.94288,-0.6058 1.23266,-84.3301 -2.37696,-116.377 -0.27877,-2.475 -0.96594,-19.125 -1.52734,-37 -1.11984,-35.6555 -1.2019,-36.4633 -3.74805,-37.4863 z M 553.8184,2138.1426 c -3.72124,-0.044 -8.79285,0.1457 -15.69922,0.3242 -12.44059,0.3216 -45.11914,1.0333 -72.61914,1.582 -76.93496,1.535 -73.96791,0.8998 -72.5625,15.4961 0.52715,5.4748 1.21703,15.1301 1.53125,21.4551 3.86497,77.7978 8.08362,127.4672 11.00781,129.6055 1.18111,0.8636 21.08175,1.3342 74.81641,1.7675 40.26415,0.3246 75.90703,0.9931 79.20703,1.4844 12.7303,1.8955 12.01971,2.7849 11.85742,-14.8574 -0.0784,-8.525 -1.30838,-31.25 -2.73437,-50.5 -2.67229,-36.0741 -4.6191,-75.3254 -4.6211,-93.1777 -10e-4,-10.8273 0.98014,-13.0481 -10.18359,-13.1797 z m 1136.6796,114.9316 c -2.0619,2.0618 -2.4866,30.8284 -3.5585,241.4258 -0.6002,117.9263 -1.4142,194.3537 -2.3887,224 -3.994,121.5184 -5.1463,341.7797 -1.8008,344.2793 0.9414,0.7033 2.8448,1.0531 4.2305,0.7773 4.6237,-0.9205 29.2445,-2.5183 55.0195,-3.5703 41.0483,-1.6755 92.6264,-4.9691 95.75,-6.1133 2.25,-0.8242 2.2492,-0.8229 2.2832,-44.5976 0.019,-24.0762 0.4428,-53.4504 0.9414,-65.2754 2.3278,-55.2003 3.1403,-76.9333 4.5781,-122.5 0.8504,-26.95 1.9611,-62.05 2.4688,-78 1.3195,-41.4597 1.1686,-73.8722 -0.4942,-106 -0.7971,-15.4 -1.9219,-40.825 -2.5,-56.5 -0.5781,-15.675 -1.7165,-42.225 -2.5293,-59 -0.8128,-16.775 -1.9431,-45.35 -2.5117,-63.5 -0.5686,-18.15 -1.6966,-44.025 -2.5058,-57.5 -2.4857,-41.39 -5.3965,-101.3895 -6.0157,-124 -0.3238,-11.825 -0.8085,-22.5713 -1.0781,-23.8809 -0.6104,-2.9658 -136.924,-3.0097 -139.8887,-0.045 z m 1523.1661,14.7735 c -12.4964,-0.3437 -17.7015,0.5015 -18.086,2.4687 -2.2928,11.7316 -3.7921,508.5165 -1.5429,511.2266 0.6168,0.7432 8.1633,1.3721 21.705,1.8086 11.4177,0.368 30.6598,1.3484 42.7598,2.1796 12.1,0.8314 30.775,1.8849 41.5,2.3399 29.2971,1.2429 51.7813,1.2901 52.5098,0.1113 0.3457,-0.5593 -0.072,-15.2968 -0.9278,-32.75 -2.9773,-60.7121 -5.8619,-140.9456 -7.5957,-211.2324 -0.5766,-23.375 -1.712,-60.275 -2.5234,-82 -0.8114,-21.725 -1.9213,-65.6 -2.4649,-97.5 -1.6774,-98.4255 0.7571,-87.9646 -20.6621,-88.8105 -8.7099,-0.3439 -27.9859,-1.7717 -42.8359,-3.1739 -29.552,-2.7905 -49.3395,-4.3243 -61.8359,-4.6679 z m 249.6543,40.3398 c -1.2635,-0.016 -4.9823,4.0125 -28.3184,29.1426 -9.075,9.7726 -22.2537,23.9333 -29.2871,31.4687 -7.0334,7.5354 -18.1218,20.0012 -24.6406,27.7012 -6.5187,7.7 -13.2525,15.3221 -14.9629,16.9375 -5.7781,5.4574 -0.7837,11.5487 36.916,45.0293 7.4112,6.5817 22.4746,20.7884 33.4746,31.5703 11,10.7818 22.7,21.7149 26,24.2969 9.4538,7.3969 9.0291,8.6148 8.8125,-25.2422 -0.1033,-16.1511 -0.6616,-37.5162 -1.2402,-47.4785 -0.5785,-9.9622 -1.5153,-36.3383 -2.0821,-58.6133 -1.2368,-48.6031 -2.563,-72.983 -4.0488,-74.4336 -0.2041,-0.1993 -0.3608,-0.3756 -0.623,-0.3789 z m 26.9746,4.6563 c -3.2423,1.7351 -3.3195,4.6203 -2.293,86.1562 1.4141,112.3321 1.6834,119.7645 4.3594,120.3867 3.2855,0.7639 63.112,-0.2413 81.1406,-1.3633 8.8,-0.5476 29.8806,-1.6768 46.8457,-2.5097 16.9652,-0.8329 31.2527,-1.7649 31.75,-2.0723 2.2085,-1.3649 0.5212,-43.0957 -3.5566,-87.9414 -2.7358,-30.0877 -3.9732,-47.3688 -5.9864,-83.6953 -1.6009,-28.8878 -0.803,-26.6055 -9.3027,-26.6445 -3.7125,-0.017 -11.025,-0.5363 -16.25,-1.1524 -13.3084,-1.5692 -124.0493,-2.5864 -126.707,-1.164 z m 170.83,0.625 c -2.5569,0.1327 -2.034,6.3724 -1.2187,23.1835 0.6094,12.5663 1.5681,34.5477 2.1309,48.8477 1.4605,37.1126 7.7326,120.1915 9.5312,126.25 0.9845,3.3163 -3.2677,7.9685 57.7227,-63.166 16.8278,-19.6267 27.7109,-33.7216 27.7109,-35.8906 0,-13.341 -43.5857,-60.3056 -86.4297,-93.1289 -4.9044,-3.7574 -7.8082,-6.1808 -9.4473,-6.0957 z M 1993.8633,2436.416 c -1.201,-0.7423 -46.8264,47.0409 -87.6406,91.7852 -13.9122,15.2519 -14.8397,12.8346 19.2714,50.2988 5.0077,5.5 12.6609,14.275 17.0059,19.5 10.346,12.4415 43.2612,48.7069 47.9238,52.8008 7.3348,6.44 8.3116,0.045 7.2129,-47.2539 -0.3455,-14.8762 -0.8619,-52.4719 -1.1484,-83.5469 -0.5737,-62.2202 -1.218,-82.7144 -2.625,-83.584 z m 38.4101,3.1641 c -19.015,0.2562 -16.0121,3.0781 -15.1445,19.4199 0.3649,6.875 0.9534,30.5 1.3066,52.5 1.2,74.7638 3.6131,139.0024 5.2813,140.5703 0.4306,0.4048 1.6832,0.9027 2.7832,1.1074 9.9795,1.8566 141.5514,0.432 141.9492,-1.5371 0.4378,-2.1667 2.0591,-29.156 3.0723,-51.1406 3.1231,-67.7633 4.5164,-152.3131 2.5605,-155.4023 -1.6722,-2.6413 -50.4079,-4.9062 -114.5586,-5.3243 -12.1259,-0.079 -20.9116,-0.2787 -27.25,-0.1933 z m 161.1368,1.5957 c -1.2037,-0.276 -1.4122,10.2706 -1.4122,72 -9e-4,39.7778 -0.2988,88.1867 -0.6621,107.5742 -0.8133,43.4068 -5.5268,43.3576 38.4707,0.3945 19.6316,-19.1701 39.7434,-38.4507 44.6934,-42.8457 10.6392,-9.4465 21.5,-20.866 21.5,-22.6074 0,-6.2209 -16.3139,-25.8144 -51.0996,-61.373 -15.5053,-15.8498 -33.1154,-34.2184 -39.1348,-40.8184 -6.0194,-6.6 -11.5797,-12.1464 -12.3554,-12.3242 z m -758.5,66.7031 c -3.0273,-0.2624 -21.4082,0.1592 -69.9102,1.6035 -27.775,0.8271 -68.95,1.9464 -91.5,2.4883 -24.1851,0.5812 -43.2362,1.4749 -46.4531,2.1797 -4.1999,0.9197 -8.8437,0.9276 -20.1992,0.033 -8.1096,-0.6387 -15.4774,-0.8789 -16.3731,-0.5352 -3.8916,1.4934 -4.022,3.4354 -6.3769,93.8516 -2.0207,77.5843 -6.3232,205.4722 -7.6543,227.5469 -0.9215,15.2828 -12.337,13.3521 106.0566,17.9551 14.3,0.5559 42.65,1.9284 63,3.0507 20.35,1.1223 44.875,2.4018 54.5,2.8438 9.625,0.4419 19.3568,0.8711 21.627,0.9531 2.2889,0.083 4.56,-0.4064 5.0976,-1.0996 1.357,-1.7497 4.1953,-99.3385 5.3301,-183.25 0.5206,-38.5 1.3961,-81.475 1.9453,-95.5 2.2361,-57.0984 2.4248,-71.9899 0.9102,-72.1211 z m -306.4102,5.791 c -3.85,0.094 -20.275,0.8889 -36.5,1.7656 -29.8193,1.6114 -46.2437,2.2373 -134,5.1075 -60.04314,1.9638 -54.3385,0.6682 -55.13672,12.5175 -2.29899,34.1272 -1.6193,228.038 1,285.3692 0.79444,17.3887 -6.42261,15.4907 63.13672,16.6074 62.0698,0.9964 131.4448,2.8879 145.5,3.9668 20.8331,1.5993 21.9102,1.3144 22.7051,-6.0039 2.7996,-25.774 3.2989,-180.6786 0.9336,-290 -0.6383,-29.5 -0.6387,-29.5005 -7.6387,-29.3301 z m -583.32422,33.7559 c -4.41541,0.01 -11.11945,0.9203 -21.38086,1.918 -15.01215,1.4595 -38.76992,3.5447 -52.79492,4.6347 -42.25152,3.2838 -50.8136,3.9968 -67.34961,5.6113 -29.05386,2.8365 -27.06049,0.8688 -22.82031,22.5625 1.75745,8.9914 4.07693,22.4227 5.1543,29.8477 4.85738,33.4764 8.17872,55.3736 10.01367,66 1.0922,6.325 3.12406,18.925 4.51367,28 1.38961,9.075 2.77251,17.2875 3.07422,18.25 0.30689,0.979 1.53068,1.75 2.77734,1.75 6.93522,0 47.76575,-3.9653 77.63672,-7.5391 11.275,-1.3489 31.075,-3.5893 44,-4.9804 41.22759,-4.4373 37.73341,-1.9154 35.61914,-25.7285 -2.27889,-25.6671 -7.49727,-94.3798 -9.00195,-118.5254 -1.08805,-17.4601 0.2725,-21.8186 -9.44141,-21.8008 z m 3013.78512,102.7246 c -15.1481,0.4544 -14.9609,0.2911 -14.9609,13.0273 0,10.4395 -3.3881,73.1609 -5.0137,92.8223 -2.5746,31.1392 -3.4862,82.1624 -1.4941,83.6191 1.0394,0.76 2.6817,1.3809 3.6484,1.3809 5.1318,0 66.9277,-9.5442 75.7227,-11.6953 2.9108,-0.7119 2.9225,-0.5851 -2.7012,-33.3047 -2.2214,-12.925 -6.1003,-38.35 -8.6191,-56.5 -2.5188,-18.15 -5.2478,-37.5 -6.0645,-43 -0.8167,-5.5 -2.16,-15.9466 -2.9863,-23.2148 -2.5143,-22.1174 -5.7132,-24.0894 -37.5313,-23.1348 z m -855.5976,41.1582 c -0.9006,-0.3456 -17.8881,-0.099 -37.75,0.5488 -55.6964,1.8167 -171.196,4.9319 -210.1133,5.666 -41.8567,0.7895 -40.0815,0.319 -39.1465,10.3789 1.287,13.8474 -0.6025,445.6092 -2.25,514.0977 -2.1108,87.7534 -1.9249,111.9096 0.8789,114.1836 2.3991,1.9458 3.4248,1.9936 30.5,1.3965 15.4096,-0.3398 52.0926,-1.0548 81.5176,-1.5879 29.425,-0.533 57.325,-1.2101 62,-1.5039 4.675,-0.2938 29.1721,-0.9676 54.4375,-1.4981 26.1516,-0.5491 46.3438,-1.3731 46.8828,-1.9121 1.2731,-1.2731 3.3255,-54.6389 4.6367,-120.5781 1.0191,-51.2464 2.8894,-113.8042 5.0508,-169 0.5385,-13.75 1.4345,-36.7 1.9922,-51 3.2661,-83.7428 4.2431,-298.0863 1.3633,-299.1914 z m 275.0566,11.7246 c -1.0601,-1.0466 -101.7481,0.3872 -133.4199,1.9004 -11.275,0.5387 -39.175,1.4788 -62,2.0879 -22.825,0.6092 -42.5125,1.5187 -43.75,2.0215 -2.2516,0.9141 -2.252,0.914 -2.252,34.1855 -0.01,149.7492 11.9628,594.2354 16.0723,596.836 2.8339,1.7934 51.577,0.4354 111.4297,-3.1055 18.7,-1.1063 49.3,-2.9015 68,-3.9883 44.1867,-2.568 57.5114,-3.7356 59.2656,-5.1914 2.451,-2.0341 0.5835,-131.4412 -3.2285,-223.7793 -3.0932,-74.926 -3.5865,-93.3087 -4.5254,-168.5 -0.5289,-42.35 -1.4438,-96.8 -2.0332,-121 -0.5894,-24.2 -1.4229,-58.9757 -1.8535,-77.2793 -0.4306,-18.3037 -1.1988,-33.6876 -1.7051,-34.1875 z m -894.1426,60.1016 c -1.7133,-0.1035 -2.6359,0.6794 -3.2597,2.3203 -1.83,4.8133 -14.8791,75.8302 -19.0254,103.5449 -4.1157,27.5103 -13.4074,78.0872 -15.9824,86.9941 -0.5555,1.9214 -1.0098,3.9033 -1.0098,4.4043 0,1.8209 68.2141,-4.1583 83,-7.2754 4.6736,-0.9852 4.5983,-3.8446 -1.3477,-51.623 -2.5325,-20.35 -6.1999,-52.525 -8.1503,-71.5 -5.6474,-54.9427 -4.8972,-53.1185 -26.2227,-63.8652 -3.7844,-1.9071 -6.2886,-2.8966 -8.002,-3 z m 1275.0411,49.5625 c -0.9292,-0.5743 -36.1059,1.3918 -85.3184,4.7695 -11.825,0.8117 -28.925,1.7112 -38,2 -9.075,0.2887 -24.5866,0.7744 -34.4707,1.0781 -20.6684,0.6351 -19.8428,0.2047 -19.0938,9.9551 0.2958,3.85 0.7873,16.675 1.0918,28.5 0.3045,11.825 1.2148,32.075 2.0235,45 1.2419,19.85 3.7738,64.1811 5.9687,104.5 0.2995,5.5 1.6336,28.45 2.9649,51 1.3313,22.55 2.9095,51.8 3.5058,65 0.5962,13.2 2.3985,44.025 4.0059,68.5 3.0934,47.1035 4.5455,75.1434 5.5391,107 0.3345,10.725 0.8513,20.3555 1.1503,21.4004 1.0204,3.5653 138.8748,-4.5631 142.7305,-8.416 0.7383,-0.7377 1.2913,-19.4887 1.7344,-58.7832 0.3579,-31.7354 0.9316,-63.6668 1.2754,-70.959 0.3439,-7.2922 1.0719,-56.7922 1.6172,-110 0.5453,-53.2078 1.4348,-105.7422 1.9765,-116.7422 1.4766,-29.9886 2.4978,-143.0617 1.2989,-143.8027 z m -2451.58988,47.6172 c -1.29226,0.034 -2.02631,0.1697 -2.34766,0.3964 -1.57683,1.1125 -2.5324,119.9307 -0.97461,121.1836 1.61684,1.3004 6.26973,1.8795 37.09375,4.6192 15.4,1.3687 29.575,2.7111 31.5,2.9843 1.925,0.2732 21.725,2.0764 44,4.0059 53.9699,4.6747 104.3389,9.5009 104.8887,10.0508 4.7205,4.7205 5.7244,-0.2972 8.1113,-40.5547 4.6146,-77.8317 4.5849,-77.1844 3.4258,-78.7695 -1.2488,-1.7079 -58.0354,-8.598 -100.9258,-12.2461 -33.42419,-2.8429 -73.85846,-6.6913 -94,-8.9453 -17.97924,-2.0121 -26.89471,-2.826 -30.77148,-2.7246 z m 272.22268,25.9648 c -4.29,0.051 -4.7681,8.2005 -7.9981,79.5019 -1.3673,30.1853 -2.4962,27.6171 12.8223,29.1895 25.1124,2.5777 83.6763,9.1759 102.2246,11.5176 34.8901,4.4048 45.9796,5.6272 81.5,8.9844 44.397,4.1962 50.2448,4.3415 51.3926,1.2773 3.2418,-8.6549 8.0116,-119.4543 5.2168,-121.1816 -1.7575,-1.0861 -27.8683,-2.2951 -76.6094,-3.545 -23.65,-0.6065 -61,-1.7491 -83,-2.539 -22,-0.7898 -49.45,-1.697 -61,-2.0176 -11.55,-0.3207 -21.9393,-0.7729 -23.0879,-1.0039 -0.5327,-0.1071 -1.0171,-0.1889 -1.4609,-0.1836 z m 660.0332,203.3105 c -1.9166,0.049 -23.9594,0.6535 -48.9844,1.3438 -25.025,0.6903 -57.9666,1.5521 -73.2031,1.9141 -20.6508,0.4906 -28.033,0.9874 -29,1.955 -1.8731,1.8741 -1.5335,231.6049 0.3457,233.8692 1.0146,1.2225 2.881,1.3969 9.8047,0.9199 4.7038,-0.324 15.7527,-1.0598 24.5527,-1.6348 8.8,-0.5751 24.55,-1.693 35,-2.4843 10.45,-0.7913 27.775,-1.8779 38.5,-2.4141 10.725,-0.5363 25.2464,-1.2649 32.2695,-1.6191 16.0435,-0.8091 14.3221,5.0117 15.3575,-51.9395 2.2823,-125.5381 0.8756,-180.0519 -4.6426,-179.9102 z"
         sodipodi:nodetypes="ssssssssssssssssssscsssssssssssssssssssssssssssssssssssscsssssssssssssssssssssssssssssssssssssscscsssssssssssssssssscsssssssssssssssssssssssssssscsssssssssssssscsssscsscsssssssssssscssssssssssssssssssssssssssssssscsssssssssssssssssssssssssssssssssssssssssssssssssssssssssssssssssssssssssssssssssssssssssssssssssssssscssssssssssscssssssssssssssssssssssssssssssssssssssssssssssssssssssssssssssssssssssssssssssssssssssssssssssssssssssssssssssssssssssssssssssscsssssssssssssssssssssssssssssssssscssssssssssssscsssssssssssssssssssssssssssssccsssssssssssssssssssssssssssssssssssssssssssscsssssssssssssssssssssssssssss" />
      <path
         style="display:inline;fill:#020001;fill-opacity:1;stroke:none"
         d="m 1653.5,3587.9447 c -25.7564,-4.9307 -76.2541,-13.6469 -112.5,-19.418 -15.675,-2.4958 -39.525,-6.3232 -53,-8.5055 -13.475,-2.1822 -47.225,-7.5964 -75,-12.0314 -51.5293,-8.2281 -114.3841,-18.6616 -144,-23.9031 -9.075,-1.6061 -31.8,-5.6415 -50.5,-8.9675 -33.8547,-6.0215 -124.9548,-21.2765 -173.5,-29.0531 -87.80973,-14.0665 -105.61339,-17.0243 -231.5,-38.4601 -24.2,-4.1207 -55.925,-9.3322 -70.5,-11.581 -14.575,-2.2488 -43.375,-7.0301 -64,-10.625 -20.625,-3.595 -52.575,-8.9996 -71,-12.0103 -18.425,-3.0107 -34.0625,-5.6659 -34.75,-5.9004 -1.92396,-0.6565 -1.821,-178.7705 0.10427,-180.3684 1.0109,-0.8389 5.1309,-0.612 16.25,0.8953 8.19265,1.1105 25.92073,3.351 39.39573,4.9789 13.475,1.6278 26.075,3.1815 28,3.4526 1.925,0.2711 17.675,2.2929 35,4.4929 51.20843,6.5025 60.9698,7.7729 116,15.097 28.875,3.8431 57.675,7.8784 64,8.9675 20.19336,3.4771 43.63002,6.6158 89.5,11.9859 9.9,1.159 24.525,2.9832 32.5,4.0538 17.5167,2.3515 47.6214,6.3195 94.5,12.4556 19.25,2.5197 38.825,5.2223 43.5,6.0057 16.2148,2.7172 44.5997,6.4683 64,8.4577 19.1254,1.9612 46.0173,5.6086 123,16.6826 59.1715,8.5118 77.6784,11.0444 101,13.8215 11.825,1.4081 30.05,3.6675 40.5,5.0209 66.0756,8.5575 106.0425,13.9131 120,16.0803 8.8,1.3664 31.7091,4.7039 50.9092,7.4168 19.2,2.7128 35.2633,5.2883 35.6961,5.7233 0.7196,0.7232 2.209,28.361 4.8657,90.2908 0.5544,12.925 1.506,34.3 2.1146,47.5 1.4721,31.9265 1.7217,80.7487 0.4144,81.0461 -0.55,0.1251 -10,-1.4955 -21,-3.6014 z m 73.585,-1.221 c -0.986,-2.5934 -2.5147,-26.0803 -3.5943,-55.2237 -0.326,-8.8 -1.6954,-37.6 -3.0431,-64 -2.9455,-57.7007 -4.3808,-96.3986 -3.7062,-99.9275 0.659,-3.4473 0.179,-3.3911 33.7586,-3.9536 26.702,-0.4473 67.2929,-2.0941 113.5,-4.6046 28.9408,-1.5724 104.3671,-3.9851 188,-6.0135 23.375,-0.567 60.275,-1.4689 82,-2.0043 21.725,-0.5354 59.075,-1.435 83,-1.9992 23.925,-0.5642 70.151,-1.747 102.7245,-2.6284 32.5735,-0.8813 59.8541,-1.3608 60.6237,-1.0655 2.0959,0.8042 2.3582,3.3251 5.6391,54.1966 1.6671,25.85 4.1383,61.175 5.4914,78.5 6.5712,84.1373 6.7632,87.1581 5.6136,88.3077 -0.7372,0.7372 -9.8643,1.3716 -26.3599,1.8323 -13.8778,0.3876 -43.4574,1.2145 -65.7324,1.8376 -49.0015,1.3707 -84.0982,2.5048 -139,4.4917 -22.825,0.826 -63.775,1.9535 -91,2.5055 -161.017,3.2649 -172.2987,3.5967 -240.4939,7.0728 -21.4467,1.0932 -49.7967,2.4239 -63,2.9571 -13.2034,0.5332 -28.3806,1.2637 -33.7273,1.6233 -9.7211,0.6539 -9.7211,0.6539 -10.6938,-1.9043 z m 759.6764,-23.9561 c -1.9987,-1.5179 -3.7998,-77.972 -1.9016,-80.7144 0.8264,-1.1938 6.043,-1.4987 29.8209,-1.743 15.8506,-0.1628 42.5443,-0.7641 59.3193,-1.3363 16.775,-0.5721 57.275,-1.7061 90,-2.5198 32.725,-0.8138 75.7,-2.1406 95.5,-2.9486 19.8,-0.8079 44.55,-1.4781 55,-1.4892 10.45,-0.011 39.7,-0.6948 65,-1.5192 25.3,-0.8244 75.475,-1.9342 111.5,-2.4662 36.025,-0.532 72.6339,-1.4955 81.3532,-2.1411 19.6789,-1.4572 17.681,-5.6636 17.3887,36.6102 -0.2419,35 -0.2419,35 -6.7419,35.7071 -6.3337,0.689 -84.7141,3.8173 -146,5.8271 -16.775,0.5501 -37.025,1.4227 -45,1.9391 -7.975,0.5164 -24.625,1.2033 -37,1.5265 -12.375,0.3231 -37.8,1.2485 -56.5,2.0564 -18.7,0.808 -54.475,2.1377 -79.5,2.955 -25.025,0.8173 -51.35,1.9368 -58.5,2.4879 -7.15,0.5511 -31.675,1.9101 -54.5,3.0201 -36.4578,1.7729 -75.2329,3.7484 -107.5347,5.4786 -7.2713,0.3895 -10.4945,0.1884 -11.7039,-0.7302 z m 653.4491,-29.014 c -0.9785,-1.179 -0.9949,-4.6232 -0.078,-16.3733 5.5221,-70.7683 3.5763,-78.1032 -21.2043,-79.929 -34.8172,-2.5654 -61.8426,-6.2883 -63.6648,-8.7702 -1.3062,-1.7791 0.9682,-91.3195 2.3548,-92.7023 0.8191,-0.8169 6.4365,-0.8309 21,-0.053 51.356,2.7447 147.8492,4.5871 297.3818,5.6779 47.025,0.343 87.075,0.929 89,1.3023 4.1199,0.7988 4.0373,0.2493 5.9545,39.5936 1.5449,31.7023 6.7513,109.0121 8.4826,125.9562 0.7843,7.6759 1.2466,14.2466 1.0272,14.6016 -0.2193,0.3549 -16.2761,0.9387 -35.6816,1.2973 -69.9309,1.2923 -116.2778,2.9453 -187.2827,6.6797 -9.9,0.5206 -33.75,1.3913 -53,1.9348 -19.25,0.5435 -41.3113,1.2781 -49.0252,1.6326 -11.77,0.5409 -14.2244,0.4044 -15.2643,-0.8486 z m -702.7155,-77.4015 c -1.5057,-1.5057 -1.6695,-2.9224 -1.1335,-9.806 0.3446,-4.4254 0.6292,-20.0836 0.6325,-34.7961 0.01,-34.372 -5.0251,-30.2681 38.0954,-31.0639 18.9258,-0.3493 42.0606,-1.0855 51.4106,-1.636 44.0849,-2.5956 55.5213,-3.0558 76,-3.058 12.1,0 39.775,-0.6449 61.5,-1.4304 21.725,-0.7854 54.35,-1.7069 72.5,-2.0478 18.15,-0.3409 46.95,-1.2896 64,-2.1083 17.05,-0.8187 55.3,-1.9112 85,-2.4279 49.4479,-0.8602 76.8205,-1.8206 101.1234,-3.5481 11.3188,-0.8045 10.067,-4.9623 10.9276,36.2969 0.8585,41.1573 2.5636,37.274 -16.3661,37.2727 -6.4267,-5e-4 -25.6349,0.4435 -42.6849,0.9866 -55.4356,1.7658 -159.7476,3.9442 -215.5,4.5005 -29.975,0.2991 -59.9,0.9706 -66.5,1.4922 -6.6,0.5216 -25.95,1.4281 -43,2.0144 -17.05,0.5863 -45.175,1.9364 -62.5,3.0002 -17.325,1.0637 -37.35,2.2137 -44.5,2.5555 -7.15,0.3417 -17.5,1.233 -23,1.9807 -5.5,0.7476 -15.4,1.6212 -22,1.9414 -6.6,0.3202 -14.3051,0.8204 -17.1225,1.1117 -4.0449,0.4182 -5.4928,0.1594 -6.8825,-1.2303 z M 1884.6766,3332.25 c -1.2473,-2.1193 -1.767,-11.4308 -3.6415,-65.25 -3.4509,-99.0786 -3.9083,-109.3584 -6.5398,-147 -5.3785,-76.9356 -12.2582,-69.3436 64.0047,-70.631 36.85,-0.6221 77.575,-1.6424 90.5,-2.2672 50.5943,-2.4461 69.354,-3.0812 91,-3.0806 23.0064,6e-4 98.2438,-2.1855 139.5,-4.0532 75.7171,-3.428 97.6608,-4.1348 99.1382,-3.1933 0.7879,0.5021 1.4768,12.8804 2.2385,40.2253 0.6052,21.725 1.5505,55.475 2.1007,75 0.5501,19.525 1.4642,55.3 2.0312,79.5 0.5671,24.2 1.5166,50.6547 2.11,58.7881 1.484,20.3377 1.9533,19.3287 -9.3576,20.1219 -11.5611,0.8108 -54.8214,3.154 -94.261,5.1057 -16.5,0.8165 -36.075,1.9193 -43.5,2.4506 -7.425,0.5313 -24.975,1.437 -39,2.0127 -14.025,0.5757 -32.925,1.4703 -42,1.988 -9.075,0.5178 -22.125,1.199 -29,1.514 -41.5963,1.9054 -109.9207,5.7187 -118,6.5857 -5.225,0.5607 -28.175,1.4269 -51,1.925 -52.7215,1.1505 -55.79,1.1645 -56.3234,0.2583 z m 1145.0012,-19.9624 c -1.6263,-2.6313 -2.6034,-22.8207 -5.1684,-106.7876 -0.8232,-26.95 -1.9408,-57.325 -2.4836,-67.5 -2.5731,-48.2395 -2.5441,-86.841 0.066,-87.3772 2.6646,-0.5474 3.4201,-0.6051 53.9086,-4.1176 19.525,-1.3583 42.475,-3.161 51,-4.006 49.0752,-4.8643 42.8574,-11.8735 43.9738,49.5705 1.2461,68.5847 1.871,91.3308 3.569,129.9303 1.8225,41.4292 1.9438,83.5812 0.2436,84.632 -0.6676,0.4126 -9.7801,1.0965 -20.25,1.5199 -71.3471,2.885 -96.81,3.9257 -109.6452,4.4815 -9.1528,0.3964 -14.8346,0.2672 -15.2134,-0.3458 z M 1620.5,3302.2965 c -4.2575,-0.391 -26.7874,-3.1825 -90.5475,-11.2191 -43.7025,-5.5084 -42.2416,-5.2218 -43.7761,-8.5895 -1.9815,-4.349 -3.4427,-27.7319 -2.6714,-42.7486 1.1506,-22.3999 1.0485,-53.9574 -0.3609,-111.5589 -0.7176,-29.3258 -1.0577,-53.9633 -0.7558,-54.75 0.7365,-1.9192 10.5717,-1.8879 26.1497,0.083 10.8627,1.3745 87.3276,8.0609 120.462,10.5337 33.929,2.532 31.5676,-2.5976 28.5931,62.1113 -0.8762,19.0623 -1.5974,46.5123 -1.6027,61 -0.01,15.986 -0.57,31.452 -1.435,39.3414 -0.7839,7.15 -1.9113,20.875 -2.5054,30.5 -1.2444,20.1647 -1.7885,24.2122 -3.3918,25.2324 -1.1461,0.7293 -20.4367,0.7732 -28.1582,0.064 z m -187,-23.8705 c -17.0847,-1.5712 -78.5541,-6.0279 -102.5,-7.4316 -37.17,-2.179 -79.582,-5.5 -108.5,-8.4961 -7.7,-0.7977 -20.3,-1.9032 -28,-2.4566 -34.9248,-2.5101 -85.2333,-6.203 -109,-8.0012 -14.3,-1.0819 -30.5,-2.2359 -36,-2.5643 -5.5,-0.3284 -16.975,-1.2295 -25.5,-2.0024 -25.72477,-2.3323 -39.30931,-3.3655 -65.5,-4.9819 -13.75,-0.8486 -32.2,-2.1789 -41,-2.9562 -8.8,-0.7773 -20.725,-1.7029 -26.5,-2.0568 -15.81844,-0.9695 -14.37376,0.7695 -13.57222,-16.3373 0.37732,-8.0529 1.10731,-20.7166 1.6222,-28.1416 1.08385,-15.6296 3.35751,-54.2695 4.9697,-84.4579 0.61559,-11.5268 1.33353,-21.3046 1.59544,-21.7284 0.46518,-0.7526 3.31893,-52.8942 3.38312,-61.8137 0.0527,-7.3258 -1.01331,-7.0763 23.53344,-5.5076 36.40549,2.3266 91.40622,7.0788 132.46832,11.4456 21.1775,2.2521 43.994,4.5857 93,9.5116 18.975,1.9073 56.55,5.9664 83.5,9.0201 26.95,3.0537 62.5,6.8985 79,8.5441 51.4456,5.1306 77.3949,7.8069 106.1836,10.9514 15.299,1.671 34.3414,3.7131 42.3164,4.5378 26.3646,2.7265 23.3372,-0.1145 22.7278,21.3276 -0.2919,10.2682 -1.0066,21.1444 -1.5883,24.1694 -0.5817,3.025 -1.736,14.05 -2.5651,24.5 -0.8291,10.45 -1.9707,24.85 -2.5368,32 -0.5661,7.15 -2.4197,32.7891 -4.1191,56.9758 -3.8266,54.4623 -0.2389,48.4497 -27.4185,45.9502 z m -616,-50.411 c -56.01658,-7.6534 -61.5318,-8.1916 -108.43136,-10.5803 -17.28725,-0.8805 -33.26225,-1.9134 -35.5,-2.2953 -4.85059,-0.8278 -5.36619,-23.982 -3.56641,-160.1581 0.56322,-42.6147 1.45255,-177.1182 1.97628,-298.8967 0.55382,-128.7724 1.32955,-221.7927 1.85399,-222.3171 0.95002,-0.95 165.09989,-1.1144 167.56668,-0.1678 2.20639,0.8467 2.94686,8.9531 6.61331,72.4003 1.09651,18.975 2.89592,46.425 3.99869,61 1.10276,14.575 2.90312,40.225 4.00079,57 1.09767,16.775 3.19207,44.225 4.65422,61 2.65846,30.5 2.65846,30.5 0.98127,54 -0.92245,12.925 -2.12102,32.5 -2.6635,43.5 -0.9155,18.5642 -1.39357,25.894 -3.97853,61 -1.49396,20.2892 -4.87796,94.706 -7.00292,154 -0.55191,15.4 -1.68008,39.7 -2.50706,54 -0.82699,14.3 -1.74581,35.675 -2.04184,47.5 -0.29602,11.825 -0.77657,23.8625 -1.06787,26.75 -0.62727,6.2176 2.17606,5.9624 -24.88574,2.265 z m 664.8749,-172.1199 c -0.7424,-0.9324 -1.3324,-13.9981 -1.779,-39.3951 -0.3675,-20.9 -1.3348,-53.3 -2.1495,-72 -0.8147,-18.7 -1.9063,-56.275 -2.4258,-83.5 -0.5195,-27.225 -1.4134,-56.25 -1.9865,-64.5 -1.3238,-19.0552 -3.7744,-92.73 -5.0226,-151 -0.5302,-24.75 -1.5269,-63.45 -2.2149,-86 -1.9905,-65.2404 -3.4514,-58 11.7034,-58 16.4162,0 129.1317,2.4388 156.7538,3.3916 25.8634,0.8922 22.7194,-5.0932 24.3044,46.2688 0.7356,23.8368 1.8197,49.4146 2.409,56.8396 0.5894,7.425 1.5101,21.15 2.046,30.5 0.5359,9.35 1.7524,27.125 2.7032,39.5 1.9413,25.2653 2.1245,110.5134 0.3115,145 -0.5349,10.175 -1.4437,36.05 -2.0197,57.5 -0.5759,21.45 -1.7358,53.625 -2.5775,71.5 -0.8417,17.875 -1.8026,48.1464 -2.1354,67.2698 -0.5963,34.2604 -0.6358,34.776 -2.7002,35.1909 -1.1523,0.2316 -28.6451,0.6747 -61.0951,0.9846 -32.45,0.31 -71.1532,0.8519 -86.0072,1.2042 -22.4679,0.533 -27.1938,0.4062 -28.1179,-0.7544 z M 2119,2731.9142 c -62.7215,-1.2785 -101.1311,-2.6453 -102.1198,-3.634 -2.1344,-2.1344 -0.5716,-53.8023 1.6198,-53.5492 1.1,0.127 14.15,1.1513 29,2.2761 14.85,1.1248 33.975,2.695 42.5,3.4893 8.525,0.7943 27.868,2.388 42.9843,3.5416 32.651,2.4916 28.307,-0.8816 29.332,22.7771 0.4691,10.8267 0.9273,21.0349 1.0183,22.6849 0.2027,3.6759 4.932,3.4184 -44.3346,2.4142 z m 819.5,-56.9756 c -11.8232,-1.3544 -63.3729,-2.9365 -97.0409,-2.9782 -34.4103,-0.043 -59.0341,-0.7432 -136.9591,-3.8962 -27.5,-1.1127 -78.35,-2.493 -113,-3.0674 -95.685,-1.5861 -180.1542,-4.1175 -184.6129,-5.5326 -1.4351,-0.4555 -1.7797,-2.6993 -2.342,-15.2491 -0.7726,-17.245 -2.0875,-34.9477 -3.573,-48.1057 -2.5918,-22.9564 -4.6194,-21.6094 32.5279,-21.6094 37.1391,0 129.8824,1.9516 168.5,3.5457 14.025,0.579 46.2,1.4778 71.5,1.9975 25.3,0.5196 56.8,1.4116 70,1.9821 13.2,0.5705 62.025,1.4376 108.5,1.9268 149.6733,1.5755 139.2269,-0.5723 140.1534,28.8163 0.3941,12.5024 1.4464,31.3957 2.3385,41.9851 0.892,10.5895 1.3446,19.702 1.0059,20.25 -0.7355,1.1902 -46.4965,1.1381 -56.9978,-0.065 z m 629.5,-67.921 c -75.0556,-0.5931 -68,0.5898 -68,-11.4002 0,-5.0955 -0.4857,-17.5078 -1.0794,-27.5829 -1.2596,-21.3764 -2.2271,-19.5684 10.9621,-20.4846 5.2895,-0.3674 15.4673,-1.295 22.6173,-2.0613 7.15,-0.7662 18.175,-1.8937 24.5,-2.5054 6.325,-0.6117 14.2,-1.5233 17.5,-2.0258 3.3,-0.5024 16.125,-2.0578 28.5,-3.4562 12.375,-1.3985 25.1537,-2.969 28.3971,-3.4901 7.8558,-1.262 7.2925,-2.7074 8.0776,20.7297 0.3825,11.4176 1.3285,25.7092 2.1023,31.7592 2.5634,20.0432 2.1611,21.7862 -4.9088,21.2676 -1.7425,-0.1278 -32.6432,-0.4653 -68.6682,-0.75 z M 511,2516.978 c -18.425,-2.0873 -49.025,-4.9703 -68,-6.4066 -18.975,-1.4363 -37.82102,-2.8713 -41.88005,-3.1889 -7.38004,-0.5775 -7.38004,-0.5775 -6.75512,-6.73 2.46489,-24.2675 5.43895,-83.2925 6.26819,-124.4025 0.79208,-39.2674 -1.53199,-35.5237 20.36698,-32.8078 16.49622,2.046 46.0808,4.3052 79.5,6.0711 15.95,0.8429 33.05,1.9808 38,2.5289 4.95,0.548 13.89132,1.4444 19.86959,1.992 5.97828,0.5476 11.32817,1.279 11.88865,1.6254 1.12277,0.6939 1.12882,0.5797 -2.74424,51.8404 -2.5157,33.2957 -3.98137,59.9566 -5.16763,94 -0.80231,23.0248 3.58805,21.7013 -51.34637,15.478 z m 1844.4075,-1.7143 c -5.2579,-0.3029 -11.6588,-329.0214 -6.6605,-342.0467 0.7526,-1.9612 30.2814,-0.9288 164.253,5.7428 10.725,0.5341 33,1.447 49.5,2.0286 16.5,0.5816 42.15,1.493 57,2.0253 46.4724,1.666 113.6148,3.9172 149,4.9958 18.7,0.57 40.975,1.4709 49.5,2.0018 8.525,0.531 32.15,1.4221 52.5,1.9803 20.35,0.5581 44.051,1.4681 52.6688,2.022 8.6178,0.554 32.9178,1.4577 54,2.0083 21.0822,0.5505 47.5562,1.4321 58.8312,1.9591 11.275,0.527 33.1,1.4384 48.5,2.0254 15.4,0.587 28.4914,1.2343 29.092,1.4384 0.7136,0.2426 1.3201,7.5946 1.75,21.2132 1.5173,48.06 3.6319,136.895 4.6142,193.842 0.5788,33.55 1.3104,67.7783 1.6259,76.063 0.7189,18.8801 1.7507,17.7495 -15.8103,17.3248 -17.7172,-0.4285 -319.0302,1.8535 -417.2718,3.1603 -169.3883,2.253 -315.5632,3.2253 -333.0925,2.2156 z M 693.54511,2499.75 c -0.21567,-0.6875 -0.89927,-12.275 -1.51911,-25.75 -0.61985,-13.475 -1.54871,-32.15 -2.06414,-41.5 -2.42728,-44.0311 -3.10408,-84.8661 -2.46951,-149 0.41392,-41.8334 0.26563,-77.1417 -0.39477,-94 -2.62401,-66.9838 -3.14147,-63.9126 10.90242,-64.7076 21.27199,-1.2041 48.49333,-2.8294 72.5,-4.3286 12.65,-0.79 34.25,-2.1354 48,-2.9898 13.75,-0.8544 38.275,-2.6468 54.5,-3.9832 16.225,-1.3365 45.025,-3.3429 64,-4.4589 18.975,-1.1159 44.4,-2.7153 56.5,-3.5542 53.0199,-3.6757 66.1275,-4.5296 84.5,-5.505 10.725,-0.5694 27.375,-1.4618 37,-1.9832 41.1263,-2.2276 91.1829,-4.14 91.8155,-3.5076 0.3765,0.3762 0.7869,11.5592 0.9121,24.8511 0.4207,44.6746 4.3756,188.4799 6.7013,243.667 0.7996,18.975 1.9512,47.55 2.559,63.5 0.6078,15.95 1.3444,30.2352 1.6369,31.745 1.0365,5.3493 -30.7981,9.184 -114.1248,13.7471 -10.45,0.5722 -28,1.7048 -39,2.5168 -11,0.8119 -37.325,2.596 -58.5,3.9646 -21.175,1.3686 -55.825,3.6106 -77,4.9823 -21.175,1.3717 -47.275,2.9594 -58,3.5282 -10.725,0.5687 -27.375,1.4858 -37,2.0378 -9.625,0.552 -28.75,1.6458 -42.5,2.4305 -13.75,0.7848 -27.04569,1.8854 -29.54598,2.4458 -2.50029,0.5604 -10.60029,1.5053 -18,2.0997 -13.88232,1.1152 -26.20122,2.322 -40.95402,4.0121 -10.59479,1.2137 -9.98791,1.2287 -10.45489,-0.2599 z M 1481.5,2476.8753 c -22.55,-0.4361 -59,-1.2817 -81,-1.879 -22,-0.5973 -62.275,-1.5124 -89.5,-2.0337 -72.4977,-1.388 -64.1564,3.8518 -66.0055,-41.4626 -0.5387,-13.2 -1.4282,-35.025 -1.9768,-48.5 -3.3076,-81.2458 -5.0268,-142.2841 -4.0409,-143.4721 0.6122,-0.7376 5.7773,-1.7698 12.2896,-2.4559 37.1304,-3.9118 162.3798,-20.2187 165.9836,-21.6102 6.642,-2.5648 1.3479,-3.2934 -27.75,-3.8193 -13.75,-0.2485 -37.6,-0.9529 -53,-1.5654 -15.4,-0.6125 -41.5,-1.4956 -58,-1.9625 -31.0906,-0.8798 -34.4676,-1.3698 -36.6475,-5.3167 -1.6712,-3.0259 -2.6664,-125.384 -1.0331,-127.0173 0.5766,-0.5766 4.7906,-1.3966 9.3645,-1.8222 4.5738,-0.4255 21.1411,-1.9553 36.8161,-3.3994 44.0675,-4.0598 78.8488,-7.514 86,-8.5409 3.575,-0.5134 12.575,-1.4196 20,-2.0138 7.425,-0.5942 18.675,-1.5116 25,-2.0386 6.325,-0.5269 25.45,-2.097 42.5,-3.489 17.05,-1.392 43.15,-3.6505 58,-5.019 44.2249,-4.0754 80.0269,-7.023 133,-10.9498 18.7,-1.3862 45.3992,-3.4558 59.3316,-4.5992 13.9324,-1.1433 25.5753,-1.8352 25.873,-1.5374 0.5499,0.5498 -1.0005,68.7135 -2.7436,120.6287 -0.5263,15.675 -0.9578,34.1515 -0.9589,41.0589 0,17.6705 3.841,15.8696 -36.5349,17.1171 -18.682,0.5772 -34.3019,1.356 -34.711,1.7306 -0.4091,0.3745 -1.1998,58.9363 -1.7571,130.1372 -0.5573,71.2009 -1.2253,130.3953 -1.4843,131.5431 -0.7289,3.2296 -77.2201,4.2185 -177.0148,2.2884 z m 546.1116,-58.9715 c -3.2827,-10.3854 -1.1765,-52.8335 2.6441,-53.2895 13.61,-1.6243 137.3876,-5.3489 140.323,-4.2225 1.8105,0.6948 1.466,52.0697 -0.3602,53.7209 -0.3952,0.3572 -24.3435,1.3946 -53.2185,2.3052 -28.875,0.9106 -60.7001,1.9334 -70.7223,2.2727 -15.1564,0.5133 -18.2971,0.3809 -18.6661,-0.7868 z m 48.9422,-92.0141 c -0.3569,-4.6143 -0.965,-29.0173 -1.3514,-54.2289 -0.8046,-52.5091 -0.036,-48.815 -10.4151,-50.0503 -11.0066,-1.3099 -131.4186,-3.1071 -208.2873,-3.1087 -80,0 -80,0 -80.1994,-16.0018 -0.2664,-21.3796 -1.9979,-62.7796 -4.0361,-96.5 -0.9142,-15.125 -1.6852,-30.65 -1.7134,-34.5 -0.054,-7.3982 33.233,-8.6279 145.4489,-5.3731 17.325,0.5025 113.4246,1.2916 213.5547,1.7536 127.8595,0.59 182.6603,1.1642 184.0892,1.9289 2.0808,1.1136 3.1122,157.7679 1.0522,159.8278 -0.3926,0.3927 -13.1974,0.1612 -28.455,-0.5143 -15.2576,-0.6756 -44.1661,-1.6716 -64.2411,-2.2133 -20.075,-0.5417 -41.45,-1.3895 -47.5,-1.884 -61.4137,-5.0196 -57.698,-8.3913 -58.7181,53.2831 -0.9635,58.2544 0.2202,52.9814 -12.0802,53.8145 -5.061,0.3428 -13.0936,0.9681 -17.8503,1.3897 -8.6486,0.7666 -8.6486,0.7666 -9.2976,-7.6232 z m 1405.9368,-39.0536 c -0.2889,-0.7529 -0.405,-12.9786 -0.258,-27.1682 0.2674,-25.7992 0.2674,-25.7992 28.7674,-26.2552 26.2901,-0.4206 61.7393,-1.4626 104.75,-3.0789 17.25,-0.6483 17.25,-0.6483 17.25,25.3977 0,26.0459 0,26.0459 -3.25,26.6515 -1.7875,0.3331 -16.525,1.0588 -32.75,1.6128 -16.225,0.554 -39.4,1.4398 -51.5,1.9686 -49.1581,2.1482 -62.449,2.3321 -63.0094,0.8717 z m -329.8494,-51.5283 c -0.3527,-0.3526 -0.6412,-14.2753 -0.6412,-30.9393 0,-36.0994 3.0866,-31.8897 -24,-32.7329 -11.275,-0.351 -26.575,-1.0764 -34,-1.6118 -7.425,-0.5355 -26.775,-1.4463 -43,-2.0239 -16.225,-0.5776 -37.15,-1.4803 -46.5,-2.006 -9.35,-0.5256 -36.35,-1.4185 -60,-1.9842 -23.65,-0.5656 -59.2,-1.6858 -79,-2.4892 -19.8,-0.8034 -53.1,-1.9472 -74,-2.5419 -20.9,-0.5947 -38.6602,-1.3066 -39.4671,-1.5819 -0.8069,-0.2753 -27.8069,-0.9072 -60,-1.4042 -32.1931,-0.4969 -71.5829,-1.5857 -87.5329,-2.4193 -15.95,-0.8337 -43.4,-2.2131 -61,-3.0653 -56.9016,-2.7554 -128.6625,-6.502 -141.9359,-7.4105 -15.9875,-1.0942 -15.5662,-0.687 -15.5583,-15.0385 0,-5.8074 -0.4973,-20.8209 -1.1123,-33.3633 -0.6149,-12.5424 -0.9551,-22.9526 -0.7558,-23.1339 1.5506,-1.4102 175.9884,2.1849 216.3623,4.4592 26.2667,1.4797 61.4088,2.8497 102.4395,3.9936 20.5917,0.5741 50.0667,1.7175 65.5,2.5408 15.4333,0.8233 51.2355,1.9294 79.5605,2.4579 28.325,0.5285 66.125,1.6225 84,2.431 17.875,0.8086 48.7,2.148 68.5,2.9764 19.8,0.8285 47.025,1.9967 60.5,2.5961 13.475,0.5994 38.7151,1.7167 56.0891,2.4829 17.374,0.7662 31.999,1.4706 32.5,1.5652 2.7696,0.5231 3.4109,-0.315 3.4109,-4.4578 0,-2.6781 0.5066,-4.5874 1.2977,-4.891 1.8109,-0.6949 190.4989,1.2179 205.2023,2.0802 14.3646,0.8425 13.4432,-1.0878 11.0759,23.2038 -0.8844,9.075 -2.0307,25.5 -2.5474,36.5 -0.8204,17.4666 -2.0854,37.1993 -4.8082,75 -0.7203,10 -0.7203,10 -44.7203,10.1437 -24.2,0.079 -71.274,0.405 -104.6088,0.7245 -33.3349,0.3194 -60.8974,0.2923 -61.25,-0.06 z m 390.1386,-29.5578 c -1.3011,-1.0149 -1.825,-5.1056 -2.7858,-21.75 -0.6509,-11.275 -1.5916,-25.675 -2.0905,-32 -1.5413,-19.5413 -1.8953,-73.629 -0.4943,-75.5449 3.345,-4.5746 29.2798,-4.3982 36.4989,0.2482 2.4081,1.55 2.4081,1.55 1.8138,61.4623 -0.6782,68.3609 -0.4755,66.6843 -8.2219,68.0262 -6.9729,1.208 -22.9718,0.922 -24.7202,-0.4418 z M 3066.5,1642.9532 c -17.6,-0.3908 -43.7,-1.2001 -58,-1.7983 -14.3,-0.5982 -36.35,-1.3402 -49,-1.6489 -32.4423,-0.7915 -99.5394,-3.4701 -102.3662,-4.0865 -2.3535,-0.5132 -2.3627,-0.5705 -1.716,-10.7177 1.0491,-16.4622 2.5559,-63.8969 2.5696,-80.8928 0.015,-18.7412 -2.387,-16.9017 20.5799,-15.7605 10.413,0.5173 54.0327,2.3002 96.9327,3.9618 42.9,1.6617 84.975,3.5039 93.5,4.0938 8.525,0.5899 22.7915,1.3703 31.7033,1.7342 19.6846,0.8039 17.7712,-1.5603 19.1496,23.6617 0.6313,11.55 2.5302,34.2029 4.2199,50.3399 1.6897,16.1369 2.8287,29.9744 2.5311,30.75 -0.6059,1.5789 -4.3411,1.6015 -60.1039,0.3633 z m -246,-22.4659 c -0.55,-0.1951 -16.3,-1.0729 -35,-1.9507 -18.7,-0.8777 -45.475,-2.2547 -59.5,-3.06 -14.025,-0.8052 -30,-1.7031 -35.5,-1.9953 -17.7924,-0.9452 -83.7926,-3.4226 -132,-4.9548 -25.85,-0.8216 -51.95,-1.743 -58,-2.0474 -6.05,-0.3045 -33.95,-1.4303 -62,-2.5018 -51.8596,-1.981 -91.7607,-4.2077 -108,-6.027 -8.5893,-0.9623 -22.2425,-1.5849 -86.5,-3.9448 -38.4922,-1.4136 -66.1713,-2.7646 -92.5,-4.5149 -12.1,-0.8044 -41.8,-2.4119 -66,-3.5722 -52.7982,-2.5314 -45.8711,5.5343 -45.5944,-53.089 0.2545,-53.9155 0.019,-51.2472 4.4589,-50.4367 1.7245,0.3148 24.5105,1.0426 50.6355,1.6174 26.125,0.5747 54.925,1.4816 64,2.0151 9.075,0.5336 38.325,1.4197 65,1.9691 26.675,0.5494 62.675,1.6753 80,2.502 33.0516,1.5772 137.1015,4.9746 184,6.0079 25.2945,0.5573 114.6579,3.263 231.5,7.0091 25.85,0.8288 54.5201,1.9524 63.7114,2.4968 9.1912,0.5445 21.7912,0.9968 28,1.0052 16.2847,0.022 14.4723,-6.6936 15.861,58.7728 1.2408,58.4935 1.3586,57.5132 -6.5724,54.6992 z M 1011.7594,1619.25 c -0.7551,-1.5788 1.1706,-116.8649 2.3176,-138.75 0.6629,-12.65 1.4793,-60.35 1.8142,-106 0.6088,-83 0.6088,-83 39.1088,-83.6613 58.773,-1.0095 120.2714,-3.4972 160.25,-6.4824 8.75,-0.6534 8.75,-0.6534 8.7672,31.7452 0.016,29.4259 1.4721,210.1415 2.1889,271.5974 0.3635,31.1634 8.4732,27.1508 -57.2741,28.3383 -30.4876,0.5506 -72.982,1.6638 -94.432,2.4737 -43.4225,1.6396 -62.2042,1.8608 -62.7406,0.7391 z M 1983,1590.5012 c -7.6831,-1.5485 -37.6014,-4.9667 -92,-10.5113 -60.1023,-6.1259 -80.9654,-9.037 -81.0376,-11.3073 -1.9084,-60.0384 -3.3184,-169.625 -3.4419,-267.503 -0.1086,-86.0415 -0.3584,-103.4614 -1.4934,-104.1629 -0.7496,-0.4633 -7.9877,-1.1618 -16.0846,-1.5522 -19.2713,-0.9293 -17.1926,2.5978 -18.0579,-30.6403 -0.4055,-15.5783 -1.2003,-38.6742 -1.7661,-51.3242 -3.0014,-67.1001 -3.1818,-64.8846 5.1315,-63.0384 1.2375,0.2748 11.925,0.9675 23.75,1.5394 11.825,0.5719 26.9,1.4767 33.5,2.0107 6.6,0.534 22.8,1.6537 36,2.4882 35.422,2.2394 63.4327,4.3537 86.5,6.5292 17.9781,1.6955 53.5019,4.8072 74.5,6.5259 13.3331,1.0912 11.9182,-3.6944 11.1624,37.7545 -0.7285,39.9553 -2.4128,88.9805 -3.1732,92.3628 -1.0109,4.4972 -4.0149,4.6837 -63.1205,3.9201 -44.4338,-0.574 -55.3307,-0.4629 -55.9695,0.5707 -1.6745,2.7094 -2.5773,256.2226 -0.9168,257.4425 0.9945,0.7306 14.6167,1.3544 40.1616,1.8391 21.2612,0.4034 39.3363,0.9943 40.1669,1.313 1.5325,0.5881 1.0093,89.6046 -0.6861,116.7423 -0.7215,11.5481 -0.6685,11.5117 -13.1248,9.0012 z m -734.25,-0.068 c -1.0253,-1.0479 -0.926,-102.6074 0.1019,-104.2277 3.0991,-4.8854 217.6569,-0.3131 218.2823,4.6516 1.3563,10.7677 3.2375,81.1712 2.1967,82.212 -0.5662,0.5662 -8.8597,1.6825 -18.4301,2.4806 -9.5705,0.7982 -21.9008,1.8982 -27.4008,2.4444 -5.5,0.5462 -18.1,1.4554 -28,2.0205 -9.9,0.5651 -24.975,1.6862 -33.5,2.4914 -8.525,0.8052 -29,2.3715 -45.5,3.4808 -34.879,2.3449 -54.9632,3.8502 -62,4.6469 -2.75,0.3114 -5.3375,0.2211 -5.75,-0.2005 z m 243.8179,-6.6832 c -1.0358,-3.5064 -2.7251,-45.7743 -3.6068,-90.25 -0.5452,-27.5 -1.6731,-70.475 -2.5065,-95.5 -0.8335,-25.025 -1.9501,-86.45 -2.4815,-136.5 -0.931,-87.6941 -1.9916,-132.0882 -3.9656,-166 -1.5769,-27.0894 -2.5744,-24.9327 12.4925,-27.0117 29.0329,-4.0061 104.0994,-15.9969 131.5,-21.0053 10.175,-1.8598 28.625,-5.0074 41,-6.9947 12.375,-1.9873 31.4287,-5.1915 42.3416,-7.1205 10.9129,-1.929 21.7129,-3.5884 24,-3.6876 4.1584,-0.1802 4.1584,-0.1802 4.7881,89.8198 0.3463,49.5 1.1963,129.825 1.8889,178.5 2.3375,164.2743 1.9668,250.2344 -1.0853,251.7005 -1.4116,0.6781 -8.3866,1.9487 -15.5,2.8237 -22.5341,2.7716 -70.2003,9.2576 -90.9333,12.3732 -31.256,4.6971 -91.0548,13.8236 -112.1399,17.1149 -21.1826,3.3066 -25.2478,3.5805 -25.7922,1.7377 z M 3093,1521.9853 c -3.575,-0.4135 -25.4,-1.2997 -48.5,-1.9695 -23.1,-0.6697 -46.725,-1.5097 -52.5,-1.8667 -12.2921,-0.7599 -11.2259,10.0584 -9.2294,-93.6491 1.9979,-103.7764 3.5346,-186.9552 4.1569,-225 0.5725,-35 0.5725,-35 9.5725,-34.8601 10.2908,0.1599 36.6696,1.6926 66.5,3.864 11.275,0.8207 25.6395,1.8306 31.9212,2.2442 11.4212,0.7519 11.4212,0.7519 11.8652,173.9748 0.5209,203.2059 2.3931,179.1338 -13.7864,177.2624 z m -443,-42.5797 c -14.575,-1.2968 -34.9761,-2.9921 -45.3358,-3.7674 -23.2183,-1.7378 -20.802,2.7293 -19.561,-36.1627 0.5787,-18.1365 1.3547,-56.2261 1.7245,-84.6435 0.7866,-60.4528 -1.7885,-53.149 18.2987,-51.9006 9.0055,0.5598 25.5986,1.2681 36.8736,1.5742 48.6883,1.3216 43.5417,-2.5291 42.0797,31.4847 -1.5016,34.9376 -3.2448,87.0588 -3.9631,118.4977 -0.5245,22.9562 -0.8407,27.0094 -2.1166,27.1316 -0.825,0.079 -13.425,-0.9173 -28,-2.214 z m -401.5,-29.9845 c -48.0244,-3.4809 -48.2257,-3.5001 -49.9411,-4.7544 -1.6815,-1.2297 -1.445,-12.8198 1.4522,-71.1667 3.6658,-73.827 4.996,-89.1818 7.8199,-90.2654 0.7993,-0.3067 14.7767,0.4452 31.0611,1.6709 16.2843,1.2258 37.0541,2.5655 46.155,2.9772 9.101,0.4117 17.0885,1.0831 17.75,1.4919 1.4337,0.8861 1.5457,27.6319 0.1555,37.1254 -0.4832,3.3 -1.5472,19.05 -2.3643,35 -2.6585,51.8892 -4.7342,87.9736 -5.134,89.25 -0.532,1.6985 -8.1673,1.4824 -46.9543,-1.3289 z M 2932,1282.8567 c -31.0263,-2.3209 -96.1494,-8.4856 -120,-11.3595 -11.275,-1.3586 -32.2,-3.6096 -46.5,-5.0023 -14.3,-1.3927 -31.0621,-3.2742 -37.2492,-4.181 -13.2924,-1.9484 -12.6587,-2.3465 -13.1018,8.2303 -0.4576,10.9224 0.291,10.5651 -18.6609,8.9044 -8.7934,-0.7706 -27.4631,-2.3263 -41.4881,-3.4571 -14.025,-1.1308 -39,-3.1519 -55.5,-4.4914 -16.5,-1.3395 -45.75,-3.363 -65,-4.4967 -19.25,-1.1337 -51.65,-3.1878 -72,-4.5647 -20.35,-1.3768 -47.8,-3.1682 -61,-3.9809 -43.5695,-2.6823 -82.2472,-5.424 -83.6343,-5.9284 -0.7511,-0.2731 -17.3407,-1.6395 -36.8657,-3.0364 -19.525,-1.397 -44.725,-3.4169 -56,-4.4887 -11.275,-1.0719 -32.425,-2.8692 -47,-3.9941 -30.6306,-2.3641 -43.055,-3.4642 -62.5,-5.5342 -7.7,-0.8197 -21.112,-2.0966 -29.8045,-2.8377 -8.6925,-0.7411 -16.2335,-1.7763 -16.7577,-2.3005 -0.9876,-0.9876 -1.4102,-143.7644 -0.4303,-145.3499 0.2857,-0.4624 2.8759,-0.6292 5.756,-0.3708 25.2683,2.2669 109.1808,9.0853 146.7365,11.9232 25.575,1.9326 62.7,4.8608 82.5,6.507 35.5716,2.9576 83.8678,6.7708 113,8.9218 8.25,0.6091 25.8,1.9831 39,3.0533 13.2,1.0702 37.95,3.07 55,4.4439 17.05,1.374 33.025,2.7371 35.5,3.0291 5.6829,0.6705 23.4321,2.1776 99.5,8.4491 127.842,10.5399 200.4569,17.1254 243,22.0379 4.4,0.5081 20.825,2.083 36.5,3.4997 37.3193,3.373 36.8131,3.3002 37.9697,5.4614 1.3291,2.4833 -2.0545,118.7667 -3.5251,121.1461 -0.6591,1.0664 -11.2799,0.9763 -27.4446,-0.2329 z M 1008.5673,1268.75 c -0.2589,-1.2375 -1.6211,-15.975 -3.027,-32.75 -8.18117,-97.616 -8.52358,-91.2102 4.9597,-92.7838 29.2911,-3.4186 70.2474,-8.8098 112,-14.7428 25.3,-3.5952 62.875,-8.5528 83.5,-11.0169 20.625,-2.4642 38.625,-4.6967 40,-4.9612 1.375,-0.2645 14.875,-2.0781 30,-4.0302 15.125,-1.9521 49.55,-6.704 76.5,-10.5599 113.8887,-16.2946 103.1102,-16.5365 103.9586,2.3335 0.3773,8.3937 1.7989,30.7863 3.1589,49.7613 4.182,58.344 4.0504,52.7996 1.2776,53.824 -3.7652,1.3911 -22.7331,4.8032 -56.8951,10.2348 -17.325,2.7546 -41.175,6.5853 -53,8.5127 -30.3903,4.9534 -85.4076,12.7264 -127,17.9429 -49.7551,6.2403 -58.5906,7.4792 -110.5,15.4938 -98.7612,15.2485 -104.2683,15.9172 -104.9327,12.7418 z m 206.4364,-382.36916 c 0,-0.48446 0.9639,-2.45584 2.1374,-4.38084 1.1735,-1.925 5.2746,-9.1046 9.1137,-15.95467 3.8391,-6.85007 12.1726,-20.35007 18.519,-30 6.3464,-9.64993 13.8802,-21.37033 16.7418,-26.04533 2.8616,-4.675 8.9296,-14.35 13.4844,-21.5 4.5548,-7.15 10.7447,-17.05 13.7554,-22 5.0665,-8.33024 31.2106,-49.65088 52.6576,-83.22533 4.9979,-7.82393 15.0989,-24.13643 22.4468,-36.25 15.2928,-25.21131 13.8909,-24.2539 21.6343,-14.77467 6.9562,8.51551 30.1289,32.98736 65.0231,68.66858 13.7594,14.06978 29.2549,30.30642 34.4344,36.08142 5.1795,5.775 23.3156,24.95262 40.3024,42.61693 43.183,44.90506 44.3915,46.70653 32.0275,47.74189 -4.2798,0.35839 -14.3065,1.76112 -22.2815,3.11717 -29.5966,5.03254 -113.951,19.5847 -127,21.90905 -7.425,1.32257 -20.25,3.59437 -28.5,5.04843 -8.25,1.45407 -26.475,4.84922 -40.5,7.54478 -14.025,2.69556 -39.675,7.39001 -57,10.4321 -17.325,3.0421 -38.025,6.69421 -46,8.1158 -7.975,1.42159 -15.9625,2.84365 -17.75,3.16013 -1.7875,0.31647 -3.2483,0.17903 -3.2463,-0.30544 z"
         id="path2"
         sodipodi:nodetypes="sssssssssssssssssssssssssssssssssssssssssssssssssssssssssssssssssssssssssssssssssscssssssssssssscsscsssssssssssssssssssssssssssssssssssssssssssssssssssssssssssscssssssssssssssssssssssssssssssssssssssssssssssssssssssssssssssssssssssssssssssssssssssssssssssssssssssssssssssssssssssssssssssssssssssssssssssssssssssssssssssssssssssssssssssssssssssssssssssssssssscssssscssssscssscssssssssssssssssssssssssssssssssssssscssssssssssssssssssssssssssssssssssssssssssssssssssssssssssssssssssssssscsssssscsssssssssssssssssssssssssssssssssssssssssssssssssssssssssssssssssssssssssssssssssssssssssssssssssssssssssssssssssssssssscsssssscssssssssssssssssssssc" />
      <path
         id="path1"
         style="display:inline;fill:#af151d;fill-opacity:1;stroke:none;stroke-width:1.826;stroke-linecap:round;stroke-dasharray:none;stroke-dashoffset:13.2283"
         d="m 2424.8491,2233.0346 c -5.5915,0.038 -7.8062,0.4389 -8.0879,1.2149 -0.2496,0.6875 -0.5442,4.4 -0.6524,8.25 -0.1083,3.85 -0.6065,15.1 -1.1093,25 -1.1613,22.8661 -2.5151,136.7127 -1.6524,138.9609 1.1619,3.0278 3.2979,1.3194 26.8691,-21.4824 36.3557,-35.1689 61.0956,-58.5701 89.2833,-84.4532 32.0036,-29.3869 57.5,-53.9526 57.5,-55.4003 0,-2.7705 -37.0174,-6.4137 -92.5,-9.1036 -11.55,-0.56 -30.1371,-1.4687 -41.3047,-2.0195 -13.7876,-0.68 -22.7543,-1.005 -28.3457,-0.9668 z m 324.9062,46.9649 c -1.5506,0 -8.1219,7.1798 -21.0488,23 -6.0671,7.425 -13.7768,16.65 -17.1328,20.5 -3.3559,3.85 -8.3358,9.7 -11.0684,13 -2.7327,3.3 -10.3784,12.0773 -16.9883,19.5039 -41.4873,46.6136 -42.1154,47.3907 -39.6347,48.9238 2.132,1.3177 24.2964,2.1162 84.9824,3.0605 32.1004,0.4995 58.6122,1.1552 58.916,1.459 0.8015,0.8015 50.6755,0.515 57.4355,-0.3301 6.3362,-0.7921 7.6818,-1.5577 6.2481,-3.5566 -4.6776,-6.5217 -29.0185,-37.7004 -37.5215,-48.0605 -5.8682,-7.15 -13.7691,-17.0518 -17.5566,-22.004 -11.8533,-15.4983 -45.4616,-55.496 -46.6309,-55.496 z m 302.1992,4.6269 c -0.8217,-0.8941 -69.235,67.7118 -101.5234,101.8086 -9.8616,10.4141 -25.7598,27.0641 -35.3281,37 -25.5497,26.5313 -30.7207,33.3456 -26.5215,34.957 0.87,0.3339 24.8325,0.6675 53.25,0.7403 28.4175,0.073 58.643,0.4414 67.168,0.8203 33.6902,1.497 46.8162,1.2584 47.957,-0.8731 2.768,-5.1722 -1.9917,-171.1775 -5.002,-174.4531 z" />
    </g>
  </g>
</svg>
