<?xml version="1.0" encoding="UTF-8" standalone="no"?>
<!-- Created with Inkscape (http://www.inkscape.org/) -->

<svg
   version="1.1"
   id="svg1"
   width="3550.2107"
   height="3263.9387"
   viewBox="0 0 3550.2107 3263.9387"
   sodipodi:docname="handfan.svg"
   inkscape:version="1.4.3 (0d15f75042, 2025-12-25)"
   xmlns:inkscape="http://www.inkscape.org/namespaces/inkscape"
   xmlns:sodipodi="http://sodipodi.sourceforge.net/DTD/sodipodi-0.dtd"
   xmlns="http://www.w3.org/2000/svg"
   xmlns:svg="http://www.w3.org/2000/svg">
  <defs
     id="defs1" />
  <sodipodi:namedview
     id="namedview1"
     pagecolor="#ffffff"
     bordercolor="#000000"
     borderopacity="0.25"
     inkscape:showpageshadow="2"
     inkscape:pageopacity="0.0"
     inkscape:pagecheckerboard="0"
     inkscape:deskcolor="#d1d1d1"
     inkscape:zoom="0.10279532"
     inkscape:cx="-418.30699"
     inkscape:cy="953.35082"
     inkscape:window-width="1920"
     inkscape:window-height="1011"
     inkscape:window-x="0"
     inkscape:window-y="0"
     inkscape:window-maximized="1"
     inkscape:current-layer="g4">
    <inkscape:page
       x="0"
       y="0"
       width="3550.2107"
       height="3263.9387"
       id="page2"
       margin="0"
       bleed="0" />
  </sodipodi:namedview>
  <g
     inkscape:groupmode="layer"
     inkscape:label="Image"
     id="g1"
     transform="translate(-273.13846,-413.48267)">
    <g
       id="g4">
      <path
         id="path3"
         style="display:inline;fill:#af151d;fill-opacity:1;stroke:none"
         d="m 1785.1465,413.49805 c -1.6945,0.65026 -1.5373,6.48881 2.3945,89.00195 4.4036,92.41453 7.0669,142.75012 9.9453,188 0.8047,12.65 1.9346,34.475 2.5117,48.5 2.2956,55.78557 5.0137,102.01783 6.5997,112.26367 0.7776,5.02359 1.6594,5.37653 20.6406,8.28516 8.9444,1.37063 24.5867,3.82494 34.7617,5.45312 10.175,1.62819 37.85,5.69066 61.5,9.0293 72.4278,10.22451 104.0582,14.97723 125.5,18.85547 13.6002,2.45993 12.8919,2.46683 14.002,-0.13672 0.5277,-1.2375 2.7835,-12.6 5.0136,-25.25 6.7607,-38.34919 10.6464,-59.54605 15.4864,-84.5 1.8668,-9.625 4.582,-24.25 6.0332,-32.5 3.448,-19.6023 13.2076,-72.96409 19.5703,-107 4.4798,-23.96367 9.4349,-51.31674 14.5898,-80.53711 2.4525,-13.90155 4.6877,-11.93742 -26.6953,-23.44141 -21.4852,-7.87578 -79.0038,-31.74903 -108.5,-45.0332 -6.8268,-3.07459 -34.703,-14.30208 -66.9453,-26.96094 -12.0703,-4.739 -30.3459,-12.18628 -40.6113,-16.55078 -10.2653,-4.3645 -24.4635,-10.16852 -31.5528,-12.89648 -7.0893,-2.72796 -24.1183,-9.49937 -37.8418,-15.04883 -13.7235,-5.54945 -25.605,-9.83912 -26.4023,-9.5332 z m -400.4727,178.79883 c -0.277,-10e-4 -0.5595,0.0295 -0.8515,0.0879 -1.6641,0.33281 -17.0424,2.18883 -34.1739,4.12304 -62.456,7.05154 -102.2173,12.58535 -187,26.02344 -8.7188,1.38193 -30.8821,4.74973 -49.25,7.48437 -33.7579,5.02594 -50.5686,7.78573 -75.7148,12.43165 -7.5991,1.40398 -14.0116,2.55273 -14.25,2.55273 -1.206,0 -0.092,2.81054 2.9316,7.39648 1.8507,2.80693 6.8654,11.40352 11.1446,19.10352 4.2791,7.7 11.2495,19.4 15.4902,26 4.2407,6.6 19.7735,32.925 34.5176,58.5 14.7441,25.575 30.7122,52.8 35.4844,60.5 4.7721,7.7 11.0663,18.05 13.9863,23 2.9201,4.95 11.0509,18.45 18.0683,30 11.3511,18.68278 23.239,38.68383 40.7149,68.5 9.4668,16.1516 25.3321,41.38452 27.5078,43.75 3.0058,3.26807 6.6975,2.03466 41.3125,-13.79688 9.8492,-4.50464 24.4332,-11.07555 32.4082,-14.60156 7.975,-3.52602 17.425,-7.73459 21,-9.35351 9.9187,-4.49164 57.3371,-25.23056 67.5,-29.52149 16.376,-6.91421 38.7101,-17.49022 60.75,-28.76953 25.4739,-13.03673 23.5496,-9.63933 17.6895,-31.24023 -6.3274,-23.32308 -6.4301,-23.70752 -12.3907,-46.4668 -3.097,-11.825 -8.0591,-29.6 -11.0273,-39.5 -2.9683,-9.9 -8.7666,-29.7 -12.8848,-44 -4.1181,-14.3 -10.503,-35.9 -14.1894,-48 -3.6865,-12.1 -9.1319,-30.775 -12.1016,-41.5 -9.7742,-35.29882 -12.5172,-42.68742 -16.6719,-42.70312 z m 1597.8047,127.5625 c -0.6259,0.0942 -4.7055,7.3409 -9.1426,16.25 -8.4895,17.04585 -12.6815,26.25091 -31.3847,68.89062 -6.1519,14.025 -14.7985,33.375 -19.2129,43 -19.7149,42.98624 -19.649,42.62393 -16.8106,93.20898 1.0891,19.40957 2.2586,41.14102 2.5996,48.29102 0.3411,7.15 1.2627,21.2474 2.0469,31.3281 0.7842,10.0808 1.4258,23.8461 1.4258,30.5899 0,23.9952 4.1998,33.7342 37.9883,88.082 7.5226,12.1 15.5828,25.15 17.9101,29 2.3274,3.85 5.4884,9.025 7.0254,11.5 1.5371,2.475 6.0777,10.125 10.0899,17 4.0123,6.875 11.132,18.8 15.8222,26.5 4.6902,7.7 12.7703,21.425 17.9551,30.5 28.8842,50.5558 40.4291,71.1205 41.4629,73.8594 1.2243,3.2434 0.8923,8.6195 -3.2441,52.6406 -1.0853,11.55 -2.8759,31.125 -3.9786,43.5 -1.1025,12.375 -2.8979,31.95 -3.9902,43.5 -1.0923,11.55 -2.9174,31.35 -4.0547,44 -2.1951,24.4168 -5.5827,53.6072 -6.6133,56.9746 -1.0553,3.4481 -20.5259,26.9969 -36.1171,43.6816 -4.2887,4.5895 -10.4846,11.7188 -13.7676,15.8438 -16.9185,21.2577 -33.516,40.2127 -60.4199,69 -25.4539,27.2358 -33.828,34.8898 -49.9082,45.6152 -20.9607,13.9806 -36.7042,37.2651 -53.0137,78.4082 -2.7203,6.8623 -8.9989,21.9266 -13.9531,33.4766 -13.3644,31.1572 -13.2379,30.4854 -15.2539,81 -1.148,28.763 -0.8392,43.6887 1.5527,75 0.7563,9.9 1.656,23.175 2,29.5 0.7622,14.0142 2.202,27.6942 3.0586,29.0801 1.2415,2.0089 2.8386,0.2115 5.457,-6.1387 12.8519,-31.1698 16.8719,-41.1036 21.0137,-51.9414 4.4016,-11.5177 10.1793,-26.454 31.7265,-82 24.9372,-64.2851 33.4271,-74.8182 84.7754,-105.1816 81.9314,-48.4478 117.4114,-69.0551 134.2286,-77.961 30.6171,-16.214 47.2387,-33.091 96.8691,-98.3574 11.0368,-14.5139 58.6604,-85.7417 60.791,-90.9219 2.0726,-5.0397 2.0879,-5.874 2.0879,-110.5781 0,-123.7381 2.104,-105.7284 -16.9355,-145 -36.049,-74.3559 -42.7801,-88.3528 -47.6016,-99 -13.9422,-30.7884 -22.3667,-45.045 -34.0781,-57.666 -16.3255,-17.5935 -38.4054,-39.4428 -55.3848,-54.8067 -9.9,-8.9581 -21.1863,-19.6048 -25.0801,-23.6582 -17.7423,-18.4701 -55.7756,-90.87138 -74.789,-142.3691 -0.7696,-2.08468 -1.2639,-33.58673 -1.6192,-103.25 -0.335,-65.68405 -0.8565,-100.29882 -1.5117,-100.39062 -0.01,-9.1e-4 -0.014,-10e-4 -0.021,0 z M 1814.332,894.33398 c -1.0524,1.05241 1.5235,85.75001 4.1407,136.16602 3.1816,61.2859 4.5103,100.31 4.5273,133 0.015,28.4351 0.8005,46.1077 4.5391,102 3.2213,48.1592 6.2065,96.5274 7.0097,113.5938 0.8261,17.5527 -1.6137,15.7049 25.0957,19.0019 26.1111,3.2231 40.9981,5.504 112.3555,17.2207 1.375,0.2258 2.8045,0.4719 3.1777,0.5469 4.5207,0.9073 9.5926,-21.5207 29.2793,-129.4766 5.2268,-28.6619 10.8682,-58.8119 12.5352,-67 1.6671,-8.1882 5.0792,-25.9117 7.582,-39.3867 2.5028,-13.475 6.7297,-35.525 9.3946,-49 2.6648,-13.475 6.0439,-31.25 7.5097,-39.5 1.4659,-8.25 4.4135,-24.225 6.5488,-35.5 2.1353,-11.275 5.7228,-30.625 7.9727,-43 2.2499,-12.375 5.8434,-31.5 7.9844,-42.5 5.56,-28.56695 5.5126,-28.16371 3.3222,-29.33594 -1.0136,-0.54248 -8.134,-2.11766 -15.8242,-3.5 -7.6902,-1.38235 -27.7074,-5.21637 -44.4824,-8.52148 -85.3254,-16.81133 -191.4856,-35.99096 -192.668,-34.8086 z m -335.2461,7.86133 c -1.2639,-0.42128 -98.3871,47.87874 -134.0859,66.68164 -26.3513,13.87946 -68.4368,34.64555 -80.2188,39.58205 -11.3867,4.771 -11.3794,3.8793 -0.1679,22.1777 5.3455,8.7244 13.7571,22.6133 18.6933,30.8633 24.0522,40.1989 30.9009,51.3911 50.1758,82 28.7128,45.5965 36.6737,58.4292 53.0449,85.5 7.8165,12.925 24.0577,38.9237 36.0918,57.7754 12.0341,18.8517 25.2559,39.7563 29.3809,46.4551 4.125,6.6988 12.1744,19.6251 17.8887,28.7246 5.7143,9.0995 20.6127,33.6449 33.1074,54.5449 22.4823,37.6063 28.6524,47.749 39.3867,64.75 3.0385,4.8125 5.9818,8.75 6.5391,8.75 2.9229,0 47.2399,-22.6512 97.0781,-49.6172 14.4943,-7.8425 16.0997,1.2826 -16.7734,-95.3828 -12.0066,-35.306 -26.0912,-77.4357 -35.4356,-106 -23.2583,-71.0968 -72.8512,-217.4123 -89.4824,-264 -3.8287,-10.725 -8.8726,-25.575 -11.207,-33 -7.7751,-24.72993 -12.9582,-39.45219 -14.0157,-39.80469 z m -708.85152,80.28321 c -5.35492,-0.25154 -15.88685,7.16011 -47.23438,32.02738 -6.325,5.0174 -25.225,19.3279 -42,31.8007 -16.775,12.4727 -34.775,25.9713 -40,29.9981 -5.225,4.0268 -23.225,17.8322 -40,30.6777 -16.775,12.8455 -39.22903,30.3679 -49.89844,38.9375 -10.66942,8.5695 -25.29442,20.2108 -32.5,25.8711 -18.73287,14.7154 -28.62106,23.096 -29.28125,24.8164 -1.15352,3.006 -0.0842,3.7823 46.67969,33.9199 3.575,2.3039 16.625,10.2528 29,17.6641 12.375,7.4112 35.1,21.493 50.5,31.293 29.45624,18.7447 78.03687,49.0774 102.5,63.998 36.90692,22.5102 84.70419,51.9913 96.5,59.5215 20.76574,13.2565 42.83286,26.891 59,36.4531 8.25,4.8794 16.35,9.691 18,10.6914 4.83661,2.9323 6.12137,2.345 11.83008,-5.3984 7.39703,-10.0335 33.83425,-49.8244 42.35547,-63.75 3.87034,-6.325 13.10036,-20.725 20.50976,-32 7.40939,-11.275 15.72139,-24.325 18.47266,-29 2.75126,-4.675 7.40916,-12.325 10.35156,-17 12.09677,-19.2197 31.98047,-53.499 31.98047,-55.1348 0,-0.9666 -14.6517,-16.4886 -32.62305,-34.5605 -31.29477,-31.4699 -72.52986,-74.1707 -107.44336,-111.2656 -9.039,-9.6037 -24.87189,-26.1649 -35.18554,-36.8028 -10.31365,-10.6378 -25.38718,-26.6306 -33.4961,-35.539 -19.41471,-21.3289 -40.75549,-43.08185 -45.47656,-46.35355 -0.73596,-0.51002 -1.54936,-0.81865 -2.54101,-0.86523 z m 1762.48632,52.30858 c -1.3799,-0.01 -0.2657,6.7549 3.2422,23.6387 4.6687,22.4708 14.2994,73.025 16.4922,86.5742 7.9295,48.994 -20.3419,182.0724 -45.6094,214.6934 -19.745,25.4912 -23.7479,30.4218 -29.75,36.6543 -3.6275,3.7667 -11.0957,10.713 -16.5957,15.4355 -27.9118,23.9659 -40.7198,38.3101 -89.1406,99.832 -5.5775,7.0865 -16.0764,20.0848 -23.3321,28.8848 -27.4451,33.2868 -27.2093,32.8204 -31.4882,62.2344 -6.0587,41.649 -7.734,60.4768 -8.209,92.2656 -0.503,33.6637 -0.9763,28.9675 7.7129,76.5 3.091,16.9089 3.104,17.1126 2.2832,38 -1.9214,48.8958 -2.8447,44.8989 17.2109,74.5723 35.3014,52.2305 74.8257,106.4733 96.4961,132.4277 7.2299,8.6591 25.4846,33.3475 33.7363,45.627 14.3191,21.3085 32.4283,64.4054 41.25,98.1718 4.5602,17.4547 4.8273,23.6014 3.0117,69.2012 -1.2795,32.141 -2.137,85.0636 -1.4082,86.9629 0.9055,2.3597 2.128,0.985 6.0293,-6.7871 1.981,-3.9466 10.6737,-20.4508 19.3184,-36.6758 43.3724,-81.4043 43.9487,-82.7629 51.6602,-122 4.3167,-21.9633 4.3434,-21.7492 -7.3301,-57.5 -8.9795,-27.5001 -12.1985,-37.9797 -21.9297,-71.3906 -5.5181,-18.9457 -13.2372,-37.2464 -26.8281,-63.6094 -5.1037,-9.9 -12.9976,-26.1 -17.543,-36 -4.5454,-9.9 -13.7793,-29.025 -20.5195,-42.5 -20.0748,-40.1339 -19.8765,-39.0699 -17.086,-91.3281 4.5753,-85.681 8.3623,-145.3917 9.4629,-149.2012 2.108,-7.2959 13.4114,-24.3654 27.793,-41.9766 4.3177,-5.2873 10.5496,-12.926 13.8496,-16.9726 11.5923,-14.2149 13.6665,-18.0033 63.5078,-116.0215 7.8308,-15.4 16.7306,-32.4729 19.7774,-37.9395 24.9566,-44.7761 28.8476,-58.7396 26.3515,-94.5605 -0.594,-8.525 -1.5513,-30.35 -2.1269,-48.5 -2.6241,-82.7394 -2.1016,-78.7481 -13.1973,-100.8613 -3.3499,-6.6762 -9.5516,-19.5637 -13.7813,-28.6387 -22.1109,-47.4395 -37.0779,-73.4669 -55.4941,-96.5 -6.1565,-7.7 -12.4555,-15.9125 -13.998,-18.25 -1.8755,-2.842 -3.1445,-4.4596 -3.8184,-4.4629 z M 1059.668,1271.1484 c -1.3399,0.094 -3.5481,3.0661 -11.7754,15.4239 -18.1022,27.1903 -42.4904,63.7018 -55.18166,82.6113 -7.26598,10.826 -16.94075,25.676 -21.5,33 -4.55925,7.3239 -14.00925,21.7225 -21,31.9961 -18.84337,27.6923 -19.55575,29.2368 -15.21094,33 5.01041,4.3397 15.23782,10.8766 32.88672,21.0195 16.22448,9.3244 38.58098,22.871 72.88868,44.166 11.3989,7.0753 39.8496,24.3617 63.2246,38.416 23.375,14.0543 44.975,27.2076 48,29.2286 3.025,2.021 22.6,13.9511 43.5,26.5117 20.9,12.5607 45.2,27.3277 54,32.8144 8.8,5.4867 24.1166,14.812 34.0371,20.7227 9.9206,5.9107 25.6479,15.74 34.9492,21.8437 9.3013,6.1037 17.5665,11.0977 18.3672,11.0977 4.473,0 44.5971,-59.0372 64.3633,-94.7031 4.1111,-7.4179 6.3743,-4.3277 -37.2168,-50.8047 -10.725,-11.435 -25.4076,-27.3602 -32.6289,-35.3906 -25.013,-27.816 -125.4919,-127.2873 -170.3106,-168.6036 -10.1412,-9.3487 -29.7302,-27.573 -43.5332,-40.498 -24.8582,-23.2771 -55.8691,-51.2269 -57.4668,-51.7949 -0.1257,-0.045 -0.2539,-0.066 -0.3925,-0.057 z m -642.1348,341.0743 c -2.6512,0.3734 -8.63129,12.5142 -17.11914,34.7539 -12.18918,31.9379 -41.08202,104.1572 -51.41797,128.5234 -5.59933,13.2 -14.15549,33.9 -19.01367,46 -4.85817,12.1 -11.14801,27.4 -13.97851,34 -2.83049,6.6 -8.89567,21.225 -13.47852,32.5 -4.58285,11.275 -11.81082,29.05 -16.06055,39.5 -12.23493,30.0855 -14.88316,38.5057 -12.5664,39.9375 1.75198,1.0828 15.92354,2.5186 40.10156,4.0645 40.19883,2.5701 101.83831,7.0637 198.5,14.4707 47.60207,3.6477 75.11182,5.5571 152.5,10.582 12.925,0.8392 31.375,2.1247 41,2.8574 28.78942,2.1915 35.85808,2.0632 36.45312,-0.6621 0.27021,-1.2375 1.41825,-7.875 2.55079,-14.75 3.39593,-20.6146 18.69042,-105.3142 25.00976,-138.5 3.24672,-17.05 6.8084,-36.4 7.91406,-43 10.49313,-62.636 10.12554,-57.5909 4.36524,-60.0664 -10.15405,-4.3637 -48.05634,-18.3602 -66.5957,-24.5918 -11.44167,-3.8459 -29.89167,-10.3659 -41,-14.4883 -11.10833,-4.1224 -39.09727,-14.4019 -62.19727,-22.8437 -23.1,-8.4417 -49.23696,-18.0567 -58.08203,-21.3653 -40.69346,-15.222 -134.25297,-47.2924 -136.88477,-46.9218 z m 405.87305,137.8554 c -1.5528,1.2887 -3.91799,11.2851 -9.91406,41.9219 -2.52961,12.925 -7.02526,35.875 -9.99024,51 -23.34778,119.1021 -29.7146,153.6943 -29.30859,159.2402 0.37711,5.1511 0.27684,5.1257 24.80664,6.6543 76.69659,4.7792 109.8482,7.1297 135.5,9.6075 13.44533,1.2987 54.80353,4.6282 74.5,5.998 45.932,3.1945 98.2569,6.6435 114,7.5137 21.6514,1.1969 69.5657,5.0612 98,7.9043 21.9635,2.1961 26.6885,2.3931 27.459,1.1465 2.0876,-3.3779 8.2401,-74.471 11.2285,-129.7618 0.6962,-12.8813 2.5675,-10.8182 -16.6875,-18.3847 -16.5423,-6.5006 -96.8445,-34.7136 -214.5,-75.3633 -16.5,-5.7007 -54.075,-18.6883 -83.5,-28.8613 -93.00165,-32.1533 -119.31093,-40.5099 -121.59375,-38.6153 z m 2536.03715,103.2617 c -2.9325,-1.1253 -35.3032,18.6594 -87.9434,53.752 -23.65,15.7663 -58.3,38.8126 -77,51.2129 -50.8017,33.6877 -78.7747,53.3628 -79.8496,56.1641 -1.0665,2.7792 1.4122,6.6875 41.8984,66.0312 10.1311,14.85 20.5648,30.7972 23.1856,35.4375 2.6208,4.6403 6.1835,9.9278 7.916,11.75 5.8626,6.1662 7.8048,5.499 35.3496,-12.1328 9.625,-6.1611 20.2,-12.7214 23.5,-14.5781 8.3026,-4.6713 91.7389,-54.7908 98.5,-59.168 4.9951,-3.2339 18.6913,-11.5017 54,-32.6016 43.7688,-26.1556 41.2506,-24.006 36.8379,-31.4629 -1.7069,-2.8844 -7.6124,-13.3441 -13.1231,-23.2441 -18.7567,-33.6967 -60.2195,-99.9891 -63.2714,-101.1602 z M 3535.0234,2089 c -1.0228,0 -6.2837,1.9833 -11.6914,4.4062 -23.5967,10.5726 -80.7317,35.8182 -90.332,39.9141 -9.5628,4.0799 -57.6662,25.6961 -100.5,45.1621 -52.2751,23.7567 -79.721,36.1244 -85.5,38.5274 -10.6154,4.4141 -81.3837,37.1482 -82.8535,38.3242 -2.6357,2.1089 -0.3721,9.0097 8.9121,27.166 5.0623,9.9 11.7671,23.625 14.8984,30.5 3.1314,6.875 10.0808,20.0643 15.4453,29.3105 5.3644,9.2462 11.3796,20.2712 13.3653,24.5 1.9856,4.2288 4.2506,8.702 5.0351,9.9395 2.4705,3.8971 19.268,-2.0794 92.6973,-32.9805 14.3,-6.0178 37.025,-15.4467 50.5,-20.9531 13.475,-5.5063 36.875,-15.3168 52,-21.8008 15.125,-6.484 31.8474,-13.4061 37.1621,-15.3847 5.3146,-1.9786 19.4896,-7.8228 31.5,-12.9864 12.0103,-5.1637 27.4629,-11.5153 34.3379,-14.1133 31.9434,-12.0704 71.9194,-29.282 76.4824,-32.9296 3.4264,-2.7391 2.4833,-5.3626 -16.0176,-44.6016 -5.0568,-10.725 -13.1373,-28.275 -17.957,-39 -14.1459,-31.4783 -25.3066,-53 -27.4844,-53 z m -1845.7636,636.2422 c -0.6818,0.5421 -1.0238,1.9485 -0.7578,3.123 0.2659,1.1746 1.3875,10.3472 2.4921,20.3848 1.1045,10.0377 3.3675,27.5877 5.0274,39 1.66,11.4124 4.5556,31.55 6.4355,44.75 3.781,26.5476 9.3465,60.3736 10.1465,61.668 0.283,0.4579 1.0501,0.8235 1.7051,0.8125 1.5614,-0.026 69.3725,-33.9906 91.1914,-45.6758 9.35,-5.0075 28.025,-14.9416 41.5,-22.0762 47.2979,-25.0427 53.5703,-28.5288 62,-34.4531 8.086,-5.6828 42.9499,-27.9054 63.1035,-40.2227 19.3252,-11.811 36.0467,-24.8029 34.2442,-26.6054 -2.7501,-2.7501 -313.6451,-3.4414 -317.0879,-0.7051 z m 1276.4062,6.6992 c -0.4587,0.455 -1.2351,12.6921 -1.7265,27.1934 -0.4913,14.5014 -1.3481,32.8902 -1.9024,40.8652 -0.5544,7.975 -1.0343,34.3 -1.0683,58.5 -0.033,24.2 -0.475,64.025 -0.9805,88.5 -2.7894,135.0681 -2.6316,153.3346 1.332,155.0703 1.3058,0.5719 12.2049,0.7389 27.1797,0.4141 81.2244,-1.7617 162.4946,-2.5488 239.2324,-2.3145 55.2945,0.1688 87.5777,-0.087 88.1778,-0.7011 6.4666,-6.6134 42.6766,-148.709 49.166,-192.9356 3.6495,-24.872 6.8495,-162.7698 3.832,-165.1387 -1.4594,-1.1457 -45.44,-2.51 -143.4082,-4.4492 -27.5,-0.5444 -70.25,-1.667 -95,-2.4941 -58.8901,-1.968 -163.7708,-3.5647 -164.834,-2.5098 z m -534.4101,7.6406 c -15.1595,1.2677 -21.6537,4.7621 -36.7559,11.9297 -17.8975,8.4943 -69.2078,30.7907 -97,42.1504 -18.3578,7.5034 -35.5583,15.4995 -44.127,20.5137 -8.5169,4.9839 -15.1741,270.2466 -7.1582,285.2246 1.1194,2.0915 53.4865,1.8963 105.7852,-0.3945 11.825,-0.5179 69.65,-1.4236 128.5,-2.0137 58.85,-0.5901 122.975,-1.4884 142.5,-1.9961 34.6503,-0.901 134.7467,-2.4948 229.8711,-3.6582 53.9253,-0.6595 50.3495,0 51.4473,-9.4317 4.2085,-36.148 12.2862,-130.4809 14.164,-165.4062 0.8279,-15.4 2.4471,-42.4 3.5996,-60 2.2976,-35.0876 3.1903,-97.6234 1.418,-99.3652 -0.5567,-0.5471 -14.2976,-1.4651 -31,-2.0723 -43.7033,-1.5887 -97.8196,-3.8833 -131,-5.5547 -15.95,-0.8035 -43.625,-1.9248 -61.5,-2.4922 -85.3539,-2.7092 -102.3272,-3.2757 -180,-5.998 -49.76,-1.744 -73.5847,-2.7032 -88.7441,-1.4356 z m -237.2774,91.3184 c -3.9351,0.066 -10.9879,3.421 -23.8066,8.5254 -39.4677,15.7159 -96.3838,38.8099 -119.6719,48.5586 -40.6491,17.0164 -79.6808,32.9104 -105.5,42.959 -9.625,3.7459 -24.925,9.9544 -34,13.7968 -9.075,3.8424 -26.625,10.9007 -39,15.6836 -12.375,4.7829 -31.05,12.2259 -41.5,16.541 -10.45,4.3152 -29.8,11.898 -43,16.8497 -23.5365,8.8292 -49.122,19.4917 -50.8965,21.2109 -1.0391,1.0067 3.0259,17.2283 14.4063,57.4746 4.3547,15.4 8.3751,29.8142 8.9336,32.0312 2.4379,9.6778 -4.0141,9.1422 120.5566,10.0157 56.1,0.3934 124.5,1.0171 152,1.3867 78.429,1.054 180.8458,1.1341 182.4121,0.1426 2.7622,-1.7485 0.7538,-41.9331 -6.4258,-128.5762 -4.7959,-57.8774 -8.0416,-105.2103 -8.9824,-131 -0.6845,-18.7643 0.2259,-25.6954 -5.5254,-25.5996 z"
         sodipodi:nodetypes="sssssssssssssssssssssssssssssssssssssssssssssssssssssssssssssssssssssssssssssssssssssssssssssssssssssssssscsssssssssssssssssssssssssssssssssssssssssssssssssssssssssscsssssssssssssssssssssssssssssscssssssccssssssssssssssssssscccsssssssssssssssssssssssssssssssssssssssssssssssssssssssssssssssssssssssssssssssssssssssscsssscsssssssssssssscsssssssssssssssssssssssss" />
      <path
         style="display:inline;fill:#020001;fill-opacity:1;stroke:none"
         d="m 2706,3676.9515 c -10.725,-0.4363 -90.825,-1.2431 -178,-1.7928 -87.175,-0.5496 -166.825,-1.4525 -177,-2.0064 -10.175,-0.5539 -59.675,-1.3042 -110,-1.6675 -102.5946,-0.7405 -94.4885,0.034 -93.5715,-8.936 1.2086,-11.8208 0.8267,-36.2321 -0.783,-50.0488 -6.7379,-57.8362 -6.37,-52.3021 -3.5153,-52.889 1.3034,-0.268 14.9698,-0.7437 30.3698,-1.0572 27.1775,-0.5531 35.3048,-0.8787 101,-4.0458 17.05,-0.822 41.125,-1.9477 53.5,-2.5015 12.375,-0.5538 24.75,-1.2276 27.5,-1.4973 8.2046,-0.8047 49.4325,-2.4228 90.5,-3.5519 21.175,-0.5822 52.9,-1.7127 70.5,-2.5122 41.7614,-1.8972 84.7527,-3.1322 155.9522,-4.48 31.8737,-0.6034 58.2315,-1.2696 58.5728,-1.4806 0.3413,-0.2109 28.9378,-1.0736 63.5478,-1.9171 34.61,-0.8435 75.5272,-1.9924 90.9272,-2.5532 84.2136,-3.0665 73.025,-8.5425 72.0849,35.2802 -0.4035,18.8131 -1.05,49.7306 -1.4365,68.7056 -0.3865,18.975 -1.0546,35.0625 -1.4846,35.75 -0.6063,0.9693 -11.0417,1.2597 -46.4728,1.2931 -25.1301,0.024 -53.116,0.4598 -62.191,0.9691 -22.7736,1.2782 -116.2562,1.9054 -140,0.9393 z m -207,-166.6819 c -26.1293,-0.928 -76.5156,-1.4987 -142,-1.6083 -55.825,-0.094 -138.5629,-0.5773 -183.8621,-1.0752 -93.8722,-1.0317 -82.0213,1.1134 -102.6379,-18.5786 -5.5,-5.2533 -15.175,-14.1228 -21.5,-19.71 -85.9489,-75.9226 -193.6393,-194.2472 -214.8319,-236.046 -11.4159,-22.5158 -35.9676,-83.7256 -34.8017,-86.7639 0.3255,-0.8483 12.1427,-1.3617 43.2907,-1.8808 23.5636,-0.3926 47.3429,-1.1376 52.8429,-1.6555 16.7494,-1.577 130.444,-2.2947 171.5,-1.0826 108.0252,3.1893 193.1195,4.8314 320,6.1752 49.4054,0.5232 101.3106,1.5877 117.5,2.4098 15.95,0.8099 33.7642,1.4891 39.5871,1.5094 10.5871,0.037 10.5871,0.037 11.2516,51.2869 0.3655,28.1875 1.1136,63.7888 1.6624,79.1141 1.1898,33.2208 -2.3403,206.106 -4.5792,224.2697 -0.5518,4.4765 -2.5802,5.5573 -9.7969,5.2202 -1.7187,-0.08 -21.35,-0.7932 -43.625,-1.5844 z m 93.9096,0.6176 c -0.8632,-2.9231 0.8957,-161.0429 1.9288,-173.395 1.4379,-17.1916 4.0758,-102.9324 4.8534,-157.7494 0.7487,-52.7837 -8.3121,-45.5931 58.9411,-46.7751 30.7269,-0.54 68.6921,-1.5393 84.3671,-2.2206 33.3915,-1.4513 74.7826,-1.1815 119.5,0.7789 89.5277,3.9249 86.3047,3.8619 132,2.5794 82.9204,-2.3273 297.2735,-5.6652 298.2937,-4.6451 0.2601,0.2602 -3.3646,8.7006 -8.055,18.7564 -4.6904,10.0558 -9.7511,21.2083 -11.2459,24.7833 -33.325,79.6976 -63.749,121.427 -154.4774,211.8804 -115.4224,115.0725 -109.5332,110.4594 -143.0154,112.0263 -25.076,1.1735 -52.5266,2.4732 -86.5,4.0955 -19.6199,0.9369 -31.298,1.434 -93.75,3.9905 -13.3375,0.546 -43.375,1.4601 -66.75,2.0315 -36.8027,0.8995 -59.4426,1.7591 -123.0904,4.6737 -10.2386,0.4689 -12.6668,0.3174 -13,-0.8107 z M 1620.4965,3022.25 C 1615.9558,3011.522 1608,2987.5327 1608,2984.5689 c 0,-2.5306 -0.4777,-2.2772 33.5,-17.773 13.2,-6.02 32.2565,-15.2279 42.3479,-20.4621 10.0913,-5.2342 31.0163,-15.2825 46.5,-22.3296 59.5122,-27.0857 79.7739,-36.4164 97.6521,-44.9694 10.175,-4.8678 27.275,-12.7676 38,-17.555 29.0467,-12.966 89.2348,-40.8911 154.5,-71.6823 59.0714,-27.8691 57.6775,-27.8319 70.393,-1.875 3.6582,7.4676 9.7243,19.3265 13.4803,26.3531 7.7448,14.4886 7.7763,13.9951 -1.165,18.2392 -13.4237,6.3718 -76.902,32.7885 -126.2083,52.5222 -5.225,2.0911 -22.1,9.0445 -37.5,15.4519 -15.4,6.4074 -42.9697,17.6947 -61.266,25.0828 -18.2963,7.3882 -40.3463,16.4197 -49,20.07 -8.6537,3.6504 -24.74,10.1185 -35.7474,14.3737 -11.0074,4.2552 -27.8824,11.2321 -37.5,15.5043 -9.6176,4.2722 -23.1116,10.1031 -29.9866,12.9575 -6.875,2.8544 -23.975,9.9487 -38,15.765 -35.1595,14.5811 -46.3284,19.3944 -54.1907,23.3538 -9.1899,4.628 -9.071,4.6758 -13.3128,-5.346 z m 514.9785,-223 c -3.7145,-8.6625 -8.989,-20.475 -11.7212,-26.25 -9.9922,-21.1203 -11.0467,-24.1653 -9.0285,-26.0694 2.4786,-2.3386 37.2594,-18.7685 72.1324,-34.0744 16.1468,-7.0868 39.5468,-17.7798 52,-23.7622 21.9922,-10.5647 49.8119,-23.4521 67.1423,-31.1033 11.6049,-5.1235 43.4184,-19.8393 67,-30.992 10.725,-5.0722 24.225,-11.3641 30,-13.9818 5.775,-2.6178 19.275,-8.8063 30,-13.7522 10.725,-4.946 29.175,-13.3745 41,-18.7302 11.825,-5.3556 30.05,-13.8028 40.5,-18.7714 10.45,-4.9686 28,-13.0454 39,-17.9483 11,-4.903 29.9,-13.4673 42,-19.0319 12.1,-5.5645 24.25,-10.9774 27,-12.0285 2.75,-1.0512 17.6,-7.9154 33,-15.2539 15.4,-7.3384 32.05,-15.1122 37,-17.2749 4.95,-2.1628 20.7,-9.3398 35,-15.9489 14.3,-6.6091 32.75,-15.0723 41,-18.8071 8.25,-3.7349 23.2579,-10.7684 33.3508,-15.6301 10.093,-4.8617 18.5322,-8.8395 18.7538,-8.8395 0.2216,0 11.5387,-5.0025 25.1492,-11.1166 13.6104,-6.1141 32.1712,-14.3958 41.2462,-18.4037 9.075,-4.0079 23.25,-10.4335 31.5,-14.2791 8.25,-3.8457 22.425,-10.4529 31.5,-14.6827 9.075,-4.2299 23.025,-10.5376 31,-14.0173 7.975,-3.4796 24.4,-10.8986 36.5,-16.4865 32.9129,-15.1998 117.2505,-51.2118 119.0619,-50.8393 3.9799,0.8185 46.6046,96.9576 46.8453,105.6586 0.093,3.3528 0.093,3.3528 -11.9072,7.58 -6.6,2.3249 -13.8423,5.1814 -16.094,6.3476 -2.2517,1.1663 -16.4267,7.0541 -31.5,13.0841 -15.0733,6.03 -41.356,16.901 -58.406,24.1577 -17.05,7.2567 -38.425,16.1068 -47.5,19.6668 -9.075,3.56 -23.25,9.3287 -31.5,12.8195 -8.25,3.4907 -19.5,8.1428 -25,10.3379 -5.5,2.1951 -17.2,7.2335 -26,11.1965 -19.4735,8.7696 -27.0804,11.8862 -53.656,21.9834 -11.3608,4.3164 -29.5858,11.6481 -40.5,16.2926 -10.9142,4.6446 -28.9965,12.1217 -40.1828,16.6158 -11.1864,4.4942 -29.8614,12.1608 -41.5,17.0368 -11.6387,4.8761 -27.9112,11.5637 -36.1612,14.8614 -8.25,3.2977 -22.65,9.2517 -32,13.2311 -18.6268,7.9278 -73.7471,30.4295 -113,46.13 -13.75,5.4998 -33.325,13.5238 -43.5,17.8312 -10.175,4.3074 -30.2,12.5513 -44.5,18.3198 -14.3,5.7685 -38.6,15.7594 -54,22.2018 -15.4,6.4425 -40.825,16.8731 -56.5,23.1791 -15.675,6.306 -31.425,12.7223 -35,14.2585 -3.575,1.5361 -20.675,8.6615 -38,15.8341 -17.325,7.1726 -36,14.9055 -41.5,17.1843 -5.5,2.2787 -15.625,6.3897 -22.5,9.1355 -6.875,2.7459 -18.125,7.4138 -25,10.3732 -6.875,2.9593 -20.15,8.3807 -29.5,12.0474 -9.35,3.6667 -22.5534,8.8704 -29.3408,11.5636 -17.502,6.9449 -15.698,7.7716 -23.6842,-10.8531 z M 1998,2765.2029 c 0,-3.561 2.0157,-4.9614 146.7931,-101.9821 22.3888,-15.0035 45.623,-30.7535 51.6315,-35 19.7763,-13.9767 155.6925,-105.198 220.2602,-147.8294 79.2276,-52.3109 100.3511,-66.3405 137.8152,-91.5328 21.45,-14.4237 53.175,-35.6284 70.5,-47.1214 17.325,-11.4929 38.25,-25.4465 46.5,-31.0078 20.8669,-14.0664 78.7596,-52.5015 117.3663,-77.9198 17.8014,-11.7203 45.2514,-29.9436 61,-40.4962 74.5137,-49.9294 159.5727,-106.3877 182.7685,-121.3134 14.1033,-9.075 32.6342,-21.3151 41.1798,-27.2003 8.5455,-5.8851 15.9214,-10.4628 16.3908,-10.1727 0.4694,0.2901 3.9519,5.1052 7.7389,10.7002 3.787,5.595 9.2621,13.5478 12.167,17.6728 28.0881,39.886 54.8887,80.4955 54.8887,83.17 0,0.3859 -2.8125,2.1285 -6.25,3.8725 -3.4375,1.7439 -15.25,8.8838 -26.25,15.8664 -11,6.9826 -27.875,17.3478 -37.5,23.0337 -28.6238,16.9093 -79.2494,47.1805 -98,58.5984 -9.625,5.861 -22.45,13.4785 -28.5,16.9278 -6.05,3.4493 -21.3285,12.4614 -33.9522,20.027 -12.6237,7.5655 -35.3487,20.9506 -50.5,29.7445 -15.1513,8.794 -28.6728,16.775 -30.0478,17.7355 -3.8313,2.6765 -90.9152,54.9282 -126.6509,75.9926 -12.567,7.4076 -28.6991,17.1194 -35.8491,21.5816 -12.2581,7.6503 -37.0431,22.5307 -86.5,51.9331 -11.825,7.03 -26.225,15.7407 -32,19.3572 -25.5107,15.9755 -45.8711,26.45 -79,40.6417 -21.4931,9.2072 -31.4852,13.6531 -91,40.4894 -22.275,10.0442 -50.4,22.6604 -62.5,28.0361 -12.1,5.3757 -31.9,14.3756 -44,19.9999 -12.1,5.6242 -31.45,14.2747 -43,19.2232 -29.3382,12.5698 -35.1182,15.1882 -68.5,31.0313 -29.189,13.8531 -71.7528,33.307 -94,42.963 -31.5801,13.7068 -66.4934,30.1017 -82.1238,38.5645 -9.9388,5.3812 -10.8762,5.7616 -10.8762,4.4135 z m 544.1551,-53.4478 c -8.0644,-8.0644 6.0754,-20.6319 36.8575,-32.759 3.0181,-1.189 13.1374,-5.4776 22.4874,-9.5302 9.35,-4.0526 28.25,-12.0724 42,-17.8218 28.7595,-12.0254 172.9582,-73.7709 200.5,-85.8535 16.7396,-7.3437 30.6025,-13.3274 47.5,-20.5023 3.3,-1.4013 15.6862,-7.1893 27.5248,-12.8622 11.8387,-5.6729 36.3637,-16.3668 54.5,-23.7642 18.1364,-7.3974 36.3887,-15.0133 40.5608,-16.9241 13.9923,-6.4085 8.9338,-6.1066 81.8278,-4.8835 36.6226,0.6144 107.9866,1.4009 158.5866,1.7476 107.7467,0.7383 103.324,0.4944 105.1541,5.7993 3.7903,10.9868 4.8422,66.4469 2.4296,128.0988 -0.6672,17.05 -1.5332,42.8017 -1.9244,57.226 -0.4788,17.6551 -1.0897,26.6044 -1.8691,27.3838 -1.191,1.191 -15.4743,1.4173 -238.7902,3.7835 -153.2426,1.6237 -575.952,2.2547 -577.3449,0.8618 z M 2008.5,2695.8843 c -9.35,-0.4405 -52.1,-1.0028 -95,-1.2497 -74.3242,-0.4278 -206.771,-2.4019 -209.0957,-3.1165 -1.2107,-0.3723 -1.8355,-10.2884 -3.4036,-54.0181 -0.5522,-15.4 -1.7325,-41.725 -2.623,-58.5 -4.2417,-79.9096 -9.4599,-73.4201 59.6223,-74.1484 33.825,-0.3567 91.425,-1.3503 128,-2.2082 36.575,-0.8579 81.125,-1.8199 99,-2.1379 17.875,-0.3179 58.375,-1.2371 90,-2.0428 31.625,-0.8056 75.275,-1.9182 97,-2.4725 21.725,-0.5542 52.1,-1.4405 67.5,-1.9695 40.9347,-1.4062 93.5,-1.9546 93.5,-0.9756 0,0.4664 -6.6375,5.4018 -14.75,10.9674 -62.2036,42.6755 -61.2728,42.0269 -98.2964,68.4875 -9.2348,6.6 -20.3147,14.4432 -24.622,17.4293 -22.0929,15.3162 -47.8826,33.4222 -56.3316,39.5483 -5.225,3.7886 -15.35,11.0095 -22.5,16.0467 -41.1832,29.0133 -54.6199,38.5661 -60,42.6571 -12.7387,9.6863 -11.185,9.437 -48,7.7029 z M 430.28068,2386.366 c -3.6617,-5.1935 -10.5624,-22.0865 -27.31435,-66.866 -5.96687,-15.95 -13.85066,-36.2 -17.51953,-45 -8.06969,-19.3556 -28.77844,-72.7604 -43.04244,-111 -5.74445,-15.4 -14.89957,-39.7 -20.34472,-54 -5.44514,-14.3 -12.70754,-33.425 -16.13865,-42.5 -3.43111,-9.075 -9.58011,-25.05 -13.66444,-35.5 -17.12461,-43.8143 -17.10499,-40.8361 -0.25655,-38.9513 21.76194,2.4344 94.65086,9.3464 147.5,13.9874 52.72697,4.6302 68.97591,6.1661 100.5,9.4993 10.175,1.0759 34.7,3.5347 54.5,5.4639 66.97928,6.5262 69.7273,6.8647 71.32202,8.7862 1.16123,1.3992 4.65046,18.0308 9.17113,43.7145 1.69412,9.625 3.51137,19.525 4.03833,22 0.52695,2.475 3.41153,18 6.41017,34.5 2.99865,16.5 6.61181,36.075 8.02926,43.5 1.41745,7.425 3.7166,19.575 5.10923,27 1.39263,7.425 5.17893,27 8.414,43.5 6.7208,34.2784 7.66357,39.3501 12.54752,67.5 1.9562,11.275 4.42706,25.4415 5.49081,31.481 2.51248,14.2648 4.63093,12.9883 -26.55436,16.001 -25.80246,2.4927 -42.62009,4.3662 -80.97811,9.0207 -11,1.3348 -30.35,3.56 -43,4.9448 -44.54136,4.8762 -77.25315,8.5759 -101.5,11.4795 -40.49304,4.8492 -40.31905,4.8433 -42.71932,1.439 z M 1832,2384.8662 c -33.649,-8.7567 -78.1378,-22.7795 -78.8266,-24.846 -0.9913,-2.974 17.8295,-66.0883 36.834,-123.5202 10.8613,-32.823 26.0586,-82.4461 39.5069,-129 7.6424,-26.4558 19.615,-65.8134 27.9864,-92 4.0439,-12.65 8.9845,-29.525 10.979,-37.5 3.653,-14.6063 15.1772,-52.6667 20.4382,-67.5 1.5606,-4.4 5.1903,-15.875 8.066,-25.5 8.241,-27.583 16.7173,-55.081 22.5021,-73 2.9297,-9.075 8.0976,-25.95 11.4842,-37.5 3.3866,-11.55 8.7933,-29.55 12.0148,-40 3.2215,-10.45 7.5053,-24.625 9.5195,-31.5 2.0143,-6.875 5.6177,-18.8 8.0076,-26.5 2.39,-7.7 6.4394,-21.2 8.9988,-30 2.5593,-8.8 7.0592,-23.425 9.9998,-32.5 2.9405,-9.075 6.7047,-21 8.3647,-26.5 9.1198,-30.2159 13.0489,-43.4676 14.0835,-47.5 0.635,-2.475 5.3706,-17.55 10.5235,-33.5 5.1529,-15.95 10.3214,-32.2625 11.4856,-36.25 1.648,-5.6445 2.5288,-7.25 3.9777,-7.25 3.5732,0 20.6663,3.7935 35.0543,7.7796 7.975,2.2095 20.35,5.4501 27.5,7.2014 18.3116,4.4851 17.6942,1.0675 7.1397,39.519 -3.0194,11 -7.1245,26.525 -9.1225,34.5 -1.998,7.975 -5.3775,21.025 -7.51,29 -2.1325,7.975 -6.8837,26.2 -10.5581,40.5 -9.5873,37.3115 -16.6813,63.1909 -23.4371,85.5 -3.2478,10.725 -6.3372,21.3 -6.8652,23.5 -5.1565,21.482 -17.2388,68.4221 -21.1067,82 -6.8825,24.1598 -9.2132,33.1149 -15.0955,58 -6.1614,26.0659 -13.6893,52.752 -21.298,75.5 -8.7096,26.0395 -16.3749,50.2609 -20.2279,63.9176 -1.9524,6.9203 -6.869,22.9324 -10.9256,35.5824 -7.4026,23.0834 -12.8642,41.4301 -20.4259,68.6146 -2.2359,8.0381 -7.3901,24.9131 -11.4537,37.5 -4.0637,12.587 -11.3003,35.4854 -16.0812,50.8854 -4.781,15.4 -10.8739,34.975 -13.5399,43.5 -2.6659,8.525 -6.7086,21.8 -8.9837,29.5 -9.3299,31.5765 -34.4749,108.1518 -36.1939,110.2232 -1.3818,1.6649 -3.7267,1.5081 -12.8148,-0.857 z m 39.0024,-7.1162 c 0,-0.6875 1.7486,-5.3 3.883,-10.25 6.0517,-14.0347 13.2692,-34.831 21.5292,-62.0334 17.2664,-56.8629 27.5095,-88.8193 28.9225,-90.2323 1.9454,-1.9454 2.0825,-0.7754 4.132,35.2657 0.8758,15.4 2.239,36.325 3.0293,46.5 2.2059,28.399 3.9667,76.9349 2.8322,78.0694 -2.713,2.713 -64.3332,5.2808 -64.3282,2.6806 z m 81.6579,-19.5 c -1.3612,-5.021 -1.6684,-8.8829 -2.6465,-33.2736 -1.2901,-32.1695 -2.9064,-51.5665 -7.0391,-84.4764 -0.5525,-4.4 -1.6611,-16.55 -2.4636,-27 -0.8024,-10.45 -2.0034,-24.8725 -2.6688,-32.05 -1.4564,-15.7092 -1.3724,-16.0029 4.8282,-16.89 6.6571,-0.9523 64.2804,-12.4698 89.8295,-17.9546 11.55,-2.4796 33.375,-6.764 48.5,-9.5211 15.125,-2.7571 33.6959,-6.3336 41.2687,-7.9478 18.7642,-3.9998 18.5647,-4.6771 9.3882,31.8635 -2.4172,9.625 -4.6874,18.7375 -5.0449,20.25 -1.0281,4.349 -6.3158,3.5607 -31.112,-4.6384 -22.9997,-7.6051 -28.5,-8.9119 -28.5,-6.7712 0,0.4622 4.3875,2.7287 9.75,5.0367 30.5721,13.1578 46.7558,22.394 46.6489,26.6229 -0.083,3.2944 -23.2154,52.6498 -25.9648,55.3992 -0.7796,0.7796 -6.5463,-2.598 -15.6024,-9.1387 -20.8858,-15.0843 -28.1623,-20.0719 -41.3317,-28.33 -7.7,-4.8284 -15.9772,-10.2756 -18.3938,-12.1047 -4.2547,-3.2205 -7.1062,-4.2173 -7.1062,-2.4842 0,0.4629 7.2604,9.1254 16.1343,19.25 8.8738,10.1246 19.0923,21.7834 22.7076,25.9084 3.6154,4.125 11.0151,12.083 16.4439,17.6844 11.9121,12.291 11.9223,11.0886 -0.2118,25.005 -24.6995,28.3274 -33.5345,35.0942 -59.574,45.6283 -6.05,2.4475 -20.559,8.3272 -32.2422,13.0661 -22.27,9.0331 -24.8243,9.7182 -25.5975,6.8662 z M 751.74048,2340.3533 c -1.24799,-2.1076 -6.03297,-38.8316 -11.25147,-86.3533 -1.41934,-12.925 -6.81877,-57.7 -11.99876,-99.5 C 717.79369,2068.1839 715,2043.9255 715,2037.3605 c 0,-5.7433 -10.65214,-6.2335 112.5,5.1766 8.8,0.8153 25.675,2.5866 37.5,3.9361 11.825,1.3496 48.725,4.9449 82,7.9897 33.275,3.0448 61.85,5.7529 63.5,6.018 4.8132,0.7733 79.2536,8.1551 126,12.4946 23.65,2.1955 47.725,4.4581 53.5,5.0279 5.775,0.5699 17.8954,1.6951 26.9341,2.5005 19.3795,1.7268 17.4215,0.3519 19.9305,13.9961 1.1126,6.05 4.0986,20.9 6.6358,33 5.2456,25.0176 7.5458,36.5052 17.4194,87 9.368,47.9088 8.9083,44.2347 5.6889,45.4587 -3.0682,1.1665 -12.1847,2.7023 -44.6087,7.515 -12.925,1.9185 -35.65,5.5496 -50.5,8.0692 -14.85,2.5196 -42.975,7.0084 -62.5,9.9751 -59.7453,9.078 -81.5296,12.4839 -106,16.5728 -22.43104,3.7482 -35.99215,5.9243 -92.5,14.8433 -13.75,2.1702 -42.1,6.6913 -63,10.0467 -78.47521,12.5992 -94.86241,14.8876 -95.75952,13.3725 z M 1300.1067,2257.75 c -0.464,-1.2375 -1.8459,-6.975 -3.0707,-12.75 -1.2249,-5.775 -3.8125,-16.8 -5.7502,-24.5 -9.1087,-36.1951 -10.1988,-32.7613 11.885,-37.4401 8.4311,-1.7863 26.8042,-5.8804 40.8292,-9.0979 14.025,-3.2176 33.6,-7.498 43.5,-9.512 9.9,-2.0141 28.35,-5.8491 41,-8.5223 21.6359,-4.5722 79.2082,-16.4507 145,-29.9169 15.95,-3.2646 41.825,-8.4586 57.5,-11.5422 15.675,-3.0836 35.7,-7.1367 44.5,-9.007 8.8,-1.8702 29.5,-5.9058 46,-8.9679 16.5,-3.0621 39,-7.3771 50,-9.5889 44.5773,-8.9634 40.5805,-12.7756 28.9314,27.5952 -11.5779,40.1243 -19.5174,60.1834 -24.3225,61.4508 -18.4641,4.8701 -73.391,17.6209 -140.1813,32.5418 -15.2901,3.4158 -40.7927,7.9836 -60.9276,10.9129 -9.625,1.4003 -31.45,4.5933 -48.5,7.0956 -17.05,2.5023 -42.025,6.0914 -55.5,7.9757 -25.1362,3.5152 -73.5043,10.8358 -112.5,17.0271 -60.2927,9.5726 -57.2672,9.249 -58.3933,6.2461 z m 2328.4685,-58 c -2.8635,-4.3802 -20.4624,-41.4137 -25.0677,-52.75 -2.5695,-6.325 -8.8559,-20.275 -13.9698,-31 -8.753,-18.357 -19.5377,-42.4325 -19.5377,-43.6155 0,-0.6319 27.9782,-14.1827 57.5,-27.8492 26.8277,-12.4193 45.29,-21.098 74,-34.7856 44.3424,-21.1406 61.7289,-28.4085 63.2936,-26.458 3.4232,4.2675 24.2097,50.1119 32.7401,72.2083 2.3357,6.05 9.2771,23.9964 15.4255,39.8809 6.1484,15.8846 10.8103,29.2235 10.3599,29.6422 -0.4505,0.4187 -7.7287,3.3092 -16.1738,6.4233 -8.4451,3.1141 -20.3701,7.7116 -26.5,10.2167 -6.1299,2.5051 -19.0203,7.6975 -28.6453,11.5387 -9.625,3.8412 -27.625,11.1903 -40,16.3315 -57.9955,24.094 -79.0555,32.4667 -81.6645,32.4667 -0.1592,0 -0.9513,-1.0125 -1.7603,-2.25 z m -913.7711,-60.5 c -1.3539,-2.0625 -5.7564,-10.275 -9.7835,-18.25 -8.6549,-17.14 -11.3514,-22.1788 -18.9975,-35.5 -3.1569,-5.5 -12.1947,-22.825 -20.0839,-38.5 -7.8893,-15.675 -18.6694,-36.6 -23.9558,-46.5 -35.2561,-66.025 -39.4549,-78.5907 -42.9384,-128.5 -2.6757,-38.3357 -4.1202,-55.2041 -5.5236,-64.5 -3.1231,-20.688 -2.4578,-26.9043 5.4445,-50.8723 3.8312,-11.6202 8.7701,-27.9242 10.9752,-36.231 5.7936,-21.824 17.7676,-55.4821 26.8226,-75.3967 2.9143,-6.4093 10.7971,-19.4284 20.5299,-33.9069 11.9638,-17.7973 43.7064,-76.9522 43.7064,-81.4505 0,-0.65 7.284,-17.9259 19.455,-46.1426 8.0277,-18.6108 19.545,-46.3683 19.545,-47.1046 0,-0.2553 2.025,-5.5842 4.5,-11.8419 6.896,-17.4357 7.0451,-15.3075 -6.8684,-98.0535 -4.1617,-24.75 -8.95,-54.45 -10.6407,-66 -7.872,-53.7765 -8.9781,-58.461 -24.932,-105.5838 -6.5947,-19.4789 -16.6424,-49.1412 -22.3282,-65.9162 C 2652.8276,1009.6264 2636,944.84314 2636,920.64495 c 0,-9.27442 10.6122,-48.882 25.4926,-95.14495 4.5996,-14.3 11.0536,-35 14.3422,-46 3.2886,-11 8.6946,-29 12.0133,-40 3.3186,-11 8.1256,-27.65 10.6821,-37 9.8883,-36.16506 10.4162,-37.37642 23.0974,-53 4.0177,-4.95 9.9077,-12.2273 13.0887,-16.17178 41.7021,-51.71053 82.7941,-98.13667 100.3867,-113.41767 12.8165,-11.13255 17.7707,-15.03054 37.3797,-29.41055 11.668,-8.55663 44.0969,-32.85589 61.7998,-46.3071 10.1778,-7.73335 13.7778,-9.79866 12.1021,-6.9429 -0.4035,0.6875 -6.2054,10.025 -12.8932,20.75 -18.9909,30.45488 -24.1508,39.29163 -33.2829,57 -4.68,9.075 -12.2005,23.25 -16.7123,31.5 -24.362,44.54682 -75.9164,150.79382 -82.0814,169.15899 -2.9018,8.64453 -3.6148,23.10853 -5.4144,109.84101 -0.5592,26.95 -1.4547,66.55 -1.9899,88 -2.2044,88.3372 -3.3233,79.52735 14.7026,115.7619 29.3069,58.9111 37.1521,75.6399 51.463,109.7381 4.9629,11.825 11.9609,27.8 15.5512,35.5 3.5903,7.7 9.5646,20.975 13.2763,29.5 3.7116,8.525 11.8021,26.75 17.9789,40.5 11.2658,25.0786 19.237,44.2376 22.675,54.5 3.509,10.4746 2.7309,193.3149 -0.8603,202.1474 -5.5296,13.5999 -9.471,20.7673 -25.7038,46.7421 -32.7435,52.3941 -45.0726,69.5089 -56.7006,78.7098 -2.7113,2.1454 -9.8714,8.2208 -15.9112,13.5009 -6.0399,5.2801 -14.4098,12.4801 -18.5997,16 -50.3861,42.3282 -58.7514,52.8367 -75.1468,94.3998 -1.9527,4.95 -9.1904,23.175 -16.0838,40.5 -31.0375,78.0053 -33.7336,90.2513 -30.1528,136.9552 0.8242,10.7496 2.1913,28.5448 3.0379,39.5448 5.7665,74.9254 9.066,101.301 16.575,132.5 3.3827,14.0543 8.8681,39.8431 8.8805,41.75 0.015,2.3075 -1.7066,1.2797 -4.1878,-2.5 z m -766.3675,0.4453 c -0.2754,-0.7177 2.9048,-13.2052 7.067,-27.75 8.9621,-31.3178 17.4964,-64.5564 17.4964,-68.1435 0,-3.8647 1.7937,-4.692 12.5917,-5.8075 10.0312,-1.0363 38.7325,-5.2473 47.9083,-7.029 5.2139,-1.0124 8.0846,-1.4567 51.5,-7.9704 14.575,-2.1867 28.186,-4.2638 30.2466,-4.6157 5.4984,-0.9389 8.0997,6.9324 15.2418,46.1208 2.0048,11 4.4788,24.05 5.498,29 2.3418,11.3748 3.9192,10.2812 -22.2609,15.4335 -11.674,2.2974 -31.8005,6.4128 -44.7255,9.1452 -30.1877,6.3818 -59.5456,12.1526 -78.5,15.4306 -8.25,1.4267 -20.7404,3.6958 -27.7565,5.0424 -14.9936,2.8776 -13.6818,2.7728 -14.3069,1.1436 z m -668.8683,-29.8139 c -1.0246,-6.0606 -3.5683,-38.8032 -3.5683,-45.9314 0,-6.9131 0.015,-6.95 2.75,-6.9583 1.5125,0 20.975,-1.3428 43.25,-2.9737 36.6415,-2.683 51.0434,-3.7745 92.5,-7.0107 7.15,-0.5582 25.6,-1.6943 41,-2.5247 15.4,-0.8304 29.8,-1.7273 32,-1.9931 2.2,-0.2658 28.3,-1.8477 58,-3.5153 69.055,-3.8774 68.6286,-3.7762 39.8736,-9.4658 -9.2805,-1.8363 -33.7486,-7.4541 -54.3736,-12.4841 -20.625,-5.03 -42.675,-10.2628 -49,-11.6284 -6.325,-1.3655 -37.6,-8.9641 -69.5,-16.8855 -31.9,-7.9215 -62.95,-15.5303 -69,-16.9085 -6.05,-1.3782 -20,-4.5457 -31,-7.039 -24.7369,-5.6068 -24.2493,-5.4672 -24.8864,-7.1275 -0.2886,-0.7521 0.5561,-5.5453 1.8772,-10.6515 1.321,-5.1061 4.042,-17.3498 6.0465,-27.208 3.9449,-19.4009 4.8542,-22.5759 6.4659,-22.5759 2.4624,0 72.0773,15.8086 98.9968,22.4809 7.425,1.8403 27.45,6.3453 44.5,10.0111 17.05,3.6657 37.3,8.1714 45,10.0127 7.7,1.8412 23,5.4268 34,7.968 11,2.5412 28.55,6.6015 39,9.023 17.8124,4.1274 25.482,5.876 66,15.0476 28.0911,6.3586 32.7078,5.5486 12.9327,-2.2691 -11.5183,-4.5536 -25.5928,-11.2195 -91.4327,-43.3037 -59.4878,-28.9888 -96.3809,-46.7724 -115,-55.4335 -9.075,-4.2214 -25.3355,-12.3692 -36.1345,-18.1062 -10.799,-5.7369 -19.9363,-10.4308 -20.3051,-10.4308 -2.0276,0 -49.5604,-24.46 -49.5604,-25.5034 0,-0.6856 2.9656,-7.4903 6.5903,-15.1216 3.6246,-7.6312 8.6054,-18.6 11.0683,-24.375 2.463,-5.775 5.0099,-11.0215 5.6598,-11.6589 1.649,-1.6173 21.6834,6.1921 67.6816,26.3823 6.875,3.0177 18.575,8.0888 26,11.2692 7.425,3.1803 21.825,9.6024 32,14.2712 10.175,4.6688 37.625,17.1506 61,27.7372 39.7142,17.9868 79.9396,36.676 98.5,45.7643 17.7678,8.7001 23.9784,9.5111 12.9405,1.6896 -3.8173,-2.7049 -12.3757,-9.2013 -19.0188,-14.4365 -6.643,-5.2351 -17.668,-13.8578 -24.5,-19.1616 -33.9837,-26.3822 -41.969,-32.7017 -48.4217,-38.3209 -3.85,-3.3526 -11.725,-9.6629 -17.5,-14.0228 -5.775,-4.3599 -15.675,-12.4809 -22,-18.0467 -6.325,-5.5657 -15.325,-13.0009 -20,-16.5226 -4.675,-3.5217 -11.2,-8.6886 -14.5,-11.4821 -3.3,-2.7935 -13.2,-10.5722 -22,-17.2861 -23.1957,-17.6968 -60.0919,-48.9485 -61.2008,-51.8382 -0.3156,-0.8226 1.709,-3.7744 4.8847,-7.1212 2.9831,-3.1439 9.6244,-11.3412 14.7585,-18.2162 17.7779,-23.8064 17.3195,-23.5833 29.0576,-14.1434 4.675,3.7597 19.1295,14.8925 32.121,24.7396 12.9916,9.8471 33.7407,26.0038 46.1093,35.9038 24.5566,19.6555 39.7366,31.4369 73.2697,56.8656 12.1,9.1756 28.975,22.0763 37.5,28.6682 19.3972,14.9987 42.3528,31.7806 44.7086,32.6846 2.4538,0.9416 0.1203,-2.599 -8.7118,-13.2184 -3.6594,-4.4 -9.5204,-11.825 -13.0244,-16.5 -3.5041,-4.675 -9.3633,-12.1 -13.0206,-16.5 -7.3682,-8.8646 -28.8766,-36.7295 -42.0675,-54.5 -4.695,-6.325 -15.4145,-20.275 -23.821,-31 -8.4066,-10.725 -20.0723,-25.7733 -25.924,-33.4407 -5.8516,-7.6674 -18.0445,-23.1924 -27.0954,-34.5 -37.0368,-46.2718 -37.4696,-46.9906 -31.2939,-51.97 45.8624,-36.9783 44.4771,-36.1934 50.0133,-28.3393 5.67,8.0439 15.004,19.6761 34.7836,43.3483 9.3758,11.221 20.9994,25.3517 25.8301,31.4017 4.8308,6.05 12.4544,15.5 16.9413,21 4.487,5.5 13.9896,17.2 21.1171,26 7.1275,8.8 16.0692,19.825 19.8704,24.5 3.8013,4.675 15.6404,19.4125 26.3091,32.75 10.6687,13.3375 22.893,28.4125 27.1652,33.5 4.2721,5.0875 10.6754,13.075 14.2296,17.75 8.1163,10.6758 8.865,8.8577 2.1227,-5.1549 -2.7376,-5.6898 -6.397,-13.9451 -8.1319,-18.3451 -3.6293,-9.2046 -10.6095,-24.8497 -26.5461,-59.5 -6.1975,-13.475 -15.4139,-34.4 -20.4809,-46.5 -5.067,-12.1 -14.8367,-34.15 -21.7105,-49 -12.6914,-27.4183 -39.0886,-86.2384 -44.429,-99 -3.5361,-8.45 -3.962,-7.9034 12.666,-16.2557 26.3714,-13.2464 40.6461,-17.9756 43.7506,-14.4943 1.3634,1.5288 30.7494,60.3888 30.7494,61.5908 0,0.2524 7.6844,16.3665 17.0766,35.8091 25.4183,52.6183 28.9234,59.9347 28.9234,60.3727 0,0.2198 3.15,6.9913 7,15.0477 3.85,8.0564 7,14.7873 7,14.9576 0,0.554 8.998,19.4823 20.012,42.0974 12.4762,25.6176 15.1746,29.19 11.5567,15.2999 -2.584,-9.9208 -6.3452,-29.9669 -11.0559,-58.9252 -2.5498,-15.675 -6.4151,-38.625 -8.5894,-51 -2.1743,-12.375 -5.9777,-34.65 -8.452,-49.5 -2.4742,-14.85 -6.2875,-36.9 -8.474,-49 -7.043,-38.9761 -9.8957,-59.8315 -8.3161,-60.798 0.4503,-0.2755 5.0937,-1.0059 10.3187,-1.6231 5.225,-0.6172 17.7749,-2.2714 27.8887,-3.6761 21.8511,-3.0348 20.5402,-3.5933 22.649,9.6495 1.7379,10.9133 9.9065,51.8281 11.9685,59.9477 2.1848,8.6033 7.1655,33.2594 12.0193,59.5 9.3591,50.5976 12.8019,68.5303 16.1265,84 1.8912,8.8 5.1765,24.325 7.3008,34.5 5.833,27.9395 8.0071,35.3735 9.8162,33.5644 0.9465,-0.9466 5.2169,-46.694 8.1737,-87.5644 1.6514,-22.825 3.478,-46.45 4.0592,-52.5 0.5812,-6.05 2.8437,-30.125 5.0277,-53.5 2.1841,-23.375 4.1992,-44.075 4.4779,-46 0.2788,-1.925 1.3819,-13.1308 2.4514,-24.9017 2.3868,-26.2701 -1.668,-23.4577 33.0205,-22.9034 36.9707,0.5907 33.5283,-8.4785 27.0651,71.3051 -1.1138,13.75 -2.68,33.1 -3.4804,43 -0.8004,9.9 -1.9451,31.05 -2.5439,47 -1.7118,45.5999 -3.153,52.3046 -25.5789,119 -3.5137,10.45 -11.1063,35.2 -16.8724,55 -5.766,19.8 -12.0936,40.725 -14.0612,46.5 -3.8675,11.3515 -16.385,52.2014 -22.6755,74 -3.8505,13.3431 -15.0106,48.984 -25.3634,81 -2.9345,9.075 -8.5603,27.75 -12.5019,41.5 -10.0289,34.9853 -10.8496,37.385 -13.3175,38.9404 -3.6055,2.2725 -27.0767,7.1004 -87.6494,18.029 -14.025,2.5304 -33.825,6.1317 -44,8.0028 -10.175,1.8712 -32.225,5.695 -49,8.4974 -30.0834,5.0257 -63.9776,11.1789 -83.5,15.1588 -11.6574,2.3765 -39.9119,3.7353 -80,3.8473 -14.3,0.04 -36.8,0.5046 -50,1.0326 -124.4995,4.9797 -142.2192,5.088 -142.9317,0.8731 z m 2181.688,-150.7239 c -1.516,-2.1133 -7.7063,-12.2344 -13.7563,-22.4912 -12.7503,-21.6163 -23.792,-40.0998 -45.185,-75.6387 -8.4334,-14.0099 -15.1953,-25.9349 -15.0266,-26.5 0.2702,-0.9052 147.8454,-100.1851 171.2116,-115.1812 17.528,-11.2492 23.1653,-11.9641 38,-4.8188 19.5675,9.4248 47.7582,42.8439 67.4607,79.9724 5.9978,11.3026 9.8955,17.5488 15.8954,25.4731 2.2791,3.0102 4.1439,6.0609 4.1439,6.7794 0,1.3693 -20.2689,14.8253 -51.5874,34.2475 -10.1992,6.325 -23.8019,14.897 -30.2282,19.0489 -6.4264,4.1519 -20.2344,12.8751 -30.6844,19.3849 -10.45,6.5098 -25.975,16.2316 -34.5,21.6039 -15.7066,9.8982 -25.5439,15.7711 -54.6357,32.6182 -18.6165,10.7808 -17.5252,10.4963 -21.108,5.5016 z M 1254,1858.5437 c -22.7238,-7.8649 -75.2927,-25.4356 -100,-33.4241 -21.2605,-6.8741 -54.53,-18.3774 -87.5,-30.2541 -42.6099,-15.3492 -237.93172,-81.0212 -268.87148,-90.4011 -29.4053,-8.9148 -29.25868,-8.8279 -26.49032,-15.6954 2.23275,-5.5388 6.41696,-17.071 20.23463,-55.769 11.82303,-33.1118 27.94827,-76.5179 31.643,-85.1769 4.28286,-10.0373 16.58037,-42.7529 23.80262,-63.3231 7.94823,-22.6379 7.88826,-22.5 9.78449,-22.5 0.90884,0 4.63247,2.2004 8.27475,4.8898 3.64227,2.6894 17.87231,11.6305 31.62231,19.8692 36.74954,22.0195 46.23204,27.7866 64.5,39.2276 9.075,5.6836 25.95,16.0367 37.5,23.0068 11.55,6.9701 26.4,16.0749 33,20.2328 23.3716,14.7239 60.5267,37.771 102,63.27 23.1,14.2025 44.475,27.4895 47.5,29.5267 3.025,2.0372 15.4,9.9115 27.5,17.4985 12.1,7.587 28.075,17.6098 35.5,22.2728 17.6468,11.0826 67.5818,41.0221 71.75,43.0191 5.3533,2.5648 -5.9189,36.0741 -35.2156,104.6867 -7.2726,17.0325 -5.348,16.3765 -26.5344,9.0437 z M 730,1680.8879 c -5.225,-1.6481 -14.45,-4.348 -20.5,-5.9998 -6.05,-1.6517 -19.325,-5.6515 -29.5,-8.8884 -10.175,-3.2369 -30.65,-9.5463 -45.5,-14.0209 -14.85,-4.4746 -42.3,-12.7827 -61,-18.4626 -41.7109,-12.669 -72.90577,-21.9286 -94,-27.9021 -49.70665,-14.0758 -49.4022,-13.9289 -48.40267,-23.3639 0.69395,-6.5505 2.35128,-24.7235 5.44904,-59.7502 0.82692,-9.35 2.61645,-28.475 3.97674,-42.5 1.36029,-14.025 3.17889,-32.925 4.04135,-42 0.86245,-9.075 2.88053,-27.075 4.48462,-40 1.60409,-12.925 3.84639,-32.5 4.98288,-43.5 1.1365,-11 3.38261,-31.025 4.99136,-44.5 1.60876,-13.475 3.18925,-26.975 3.5122,-30 0.32295,-3.025 1.43184,-10.675 2.4642,-17 1.03235,-6.325 2.415,-15.9247 3.07254,-21.3328 1.68834,-13.886 7.40682,-11.6769 69.42774,26.8198 6.05,3.7552 21.125,12.8995 33.5,20.3205 12.375,7.4211 27.45,16.499 33.5,20.1733 29.30042,17.7947 69.28203,41.4043 80.5,47.5361 18.03968,9.8606 31.55831,17.7812 66.5,38.9623 17.05,10.3355 38.57905,23.3023 47.84233,28.8151 9.26328,5.5129 17.0808,10.6448 17.37227,11.4043 1.24045,3.2326 -5.84435,29.4743 -17.09026,63.3014 -6.57166,19.7672 -12.87547,41.0878 -20.99236,71 -2.46257,9.075 -6.76462,23.025 -9.56011,31 -2.7955,7.975 -7.81438,23.725 -11.15308,35 -9.26413,31.2856 -13.88681,45.568 -15.16102,46.8422 -1.54238,1.5424 -1.79476,1.5037 -12.75777,-1.9543 z m 654.0354,-143.1346 c -87.7437,-87.1994 -125.5883,-124.1968 -170.0354,-166.229 -5.225,-4.9411 -20.0757,-19.3429 -33.0016,-32.004 -12.9259,-12.6612 -33.1121,-32.0203 -44.8582,-43.0203 -25.1378,-23.541 -50.1402,-48.9144 -50.1402,-50.8841 0,-3.2049 55.4919,-54.4948 82,-75.7907 15.395,-12.368 21.9422,-17.7591 32,-26.3497 34.4027,-29.3841 62.9745,-52.4279 64.3075,-51.8653 1.4256,0.6017 13.9299,20.7968 28.9001,46.675 5.9768,10.3319 14.3686,24.2819 18.6484,31 4.2799,6.7181 12.2052,19.8648 17.6118,29.2148 16.2422,28.0885 39.0582,65.908 50.9776,84.5 6.1706,9.625 13.161,20.875 15.5342,25 2.3733,4.125 11.3836,19.2 20.023,33.5 8.6395,14.3 18.3877,30.5 21.6628,36 3.2751,5.5 12.4064,20.35 20.2919,33 21.7974,34.9679 47.738,78.804 59.1163,99.8986 4.1783,7.7463 4.1783,7.7463 0.8023,11.2823 -5.558,5.8216 -27.3424,22.3483 -43.8759,33.2864 -8.525,5.64 -20.7414,14.4796 -27.1475,19.6436 -15.7608,12.705 -8.8863,16.7385 -62.8171,-36.8576 z M 2091.5,1449.8516 c -17.6,-6.0192 -39.2,-12.9955 -48,-15.5027 -38.9884,-11.1084 -35.933,-5.0148 -25.9972,-51.8489 3.8957,-18.3634 10.2067,-52.6879 13.9735,-76 3.7225,-23.0376 9.7789,-55.6863 16.5096,-89 3.2226,-15.95 7.9581,-41.15 10.5235,-56 2.5654,-14.85 5.7684,-32.4 7.1178,-39 1.3495,-6.6 4.8973,-25.725 7.8839,-42.5 2.9867,-16.775 8.3428,-44.9 11.9024,-62.5 3.5596,-17.6 7.8688,-40.1 9.576,-50 4.2725,-24.77634 9.2382,-52.08414 14.0019,-77 4.0755,-21.31656 12.6243,-68.08345 18.0967,-99 1.6551,-9.35 6.179,-33.425 10.0533,-53.5 13.6625,-70.79374 15.9369,-82.76241 20.9032,-110 9.5919,-52.6063 15.2042,-80.15824 16.4234,-80.62611 0.6641,-0.25482 9.493,2.22644 19.6197,5.51393 10.1268,3.28749 28.3123,8.97106 40.4123,12.63016 12.1,3.6591 40.9,12.87569 64,20.4813 23.1,7.60562 53.3625,17.53096 67.25,22.05631 13.8875,4.52536 25.25,8.42108 25.25,8.65716 0,0.23608 -2.441,8.38479 -5.4244,18.10824 -2.9834,9.72346 -6.3885,21.27901 -7.567,25.67901 -1.1785,4.4 -4.7937,17 -8.0338,28 -11.1954,38.00807 -19.047,66.59016 -23.5581,85.75909 -10.0131,42.54802 -19.9585,81.57462 -27.0738,106.24091 -8.0699,27.97509 -9.7134,33.09475 -22.6313,70.5 -8.0365,23.27044 -16.9005,50.3182 -38.3428,117 -5.2173,16.225 -12.1936,37.375 -15.5027,47 -10.423,30.3162 -20.3564,60.3584 -31.7424,96 -20.1255,62.9989 -31.9116,99.3226 -37.4767,115.5 -3.0273,8.8 -13.6753,40.975 -23.6624,71.5 -21.5362,65.8245 -20.4757,63.0319 -23.8865,62.8979 -1.4289,-0.056 -16.9981,-5.027 -34.5981,-11.0463 z M 1693.2807,1424.75 c -1.4258,-1.8485 -3.5207,-7.5383 -10.6598,-28.9518 -3.5386,-10.614 -10.1394,-28.9732 -14.6685,-40.7982 -4.529,-11.825 -14.8646,-41.075 -22.9679,-65 -8.1033,-23.925 -16.8307,-49.5646 -19.3943,-56.9768 -2.5636,-7.4122 -7.8251,-24.0622 -11.6922,-37 -3.867,-12.9378 -10.3343,-33.8732 -14.3716,-46.5232 -4.0373,-12.65 -10.5782,-33.35 -14.5353,-46 -3.9572,-12.65 -11.395,-35.825 -16.5285,-51.5 -5.1335,-15.675 -12.9424,-40.2146 -17.3531,-54.53235 -4.4106,-14.31779 -11.8646,-37.55126 -16.5644,-51.62993 -9.7685,-29.2624 -9.7722,-29.28404 -5.2951,-30.73822 6.8322,-2.2191 100.3758,-22.61849 135.75,-29.60349 7.425,-1.46614 22.725,-4.62115 34,-7.01113 11.275,-2.38998 28.6,-5.74775 38.5,-7.46171 9.9,-1.71395 22.6353,-3.99533 28.3008,-5.06973 18.2926,-3.46903 15.7193,-8.41709 18.2264,35.04656 0.5869,10.175 1.9238,30.65 2.9709,45.5 1.0471,14.85 2.6346,37.575 3.5277,50.5 0.8931,12.925 2.7124,36.4418 4.0429,52.2596 1.3305,15.8177 3.5386,48.8927 4.9069,73.5 2.4057,43.2616 4.3816,73.4086 8.6017,131.2404 2.1109,28.9266 4.6512,56.635 11.3225,123.5 3.3525,33.6011 3.8633,30.5391 -5.3998,32.3709 -19.8292,3.9212 -110.282,16.1291 -119.5068,16.1291 -0.1366,0 -0.6822,-0.5625 -1.2125,-1.25 z M 942.10954,1110.2292 C 882.92429,1050.9553 825.3875,993.58861 814.25,982.74769 c -23.06309,-22.44893 -21.83713,-20.02577 -14.9128,-29.47591 2.91296,-3.97552 8.64125,-12.4271 12.72954,-18.78127 C 843.33533,885.89169 906.96761,791.807 940.90116,744 c 6.05107,-8.525 16.06171,-22.7 22.24587,-31.5 20.03045,-28.50314 32.91887,-44.85176 34.23059,-43.42061 1.39437,1.52132 38.08388,57.46544 44.73708,68.21508 4.4953,7.26304 16.3755,25.80553 26.4004,41.20553 10.0248,15.4 23.7583,37.225 30.5187,48.5 15.8808,26.48584 32.857,53.76775 44.8022,72 8.3276,12.71074 19.5517,30.80712 45.8978,74 15.9713,26.18395 53.2662,91.8319 53.2662,93.7612 0,3.2608 -6.8515,9.364 -32.5904,29.0306 -47.278,36.1245 -59.942,45.861 -72.3287,55.6084 -6.9195,5.4451 -17.7559,13.7311 -24.0809,18.4133 -10.5593,7.8168 -42.0801,32.9296 -54.8346,43.6871 -2.9341,2.4747 -6.2598,4.4994 -7.3905,4.4994 -1.396,0 -36.5907,-34.5866 -109.66536,-107.7708 z M 1519.5894,883.09874 c -3.1279,-3.45626 -8.0092,-15.98664 -22.0484,-56.59874 -4.5632,-13.2 -13.0285,-37.05 -18.812,-53 -5.7834,-15.95 -12.0993,-33.95 -14.0353,-40 -1.936,-6.05 -9.2125,-27.425 -16.1702,-47.5 -23.3832,-67.46807 -31.624,-92.29597 -31.3229,-94.36971 0.514,-3.53965 23.8629,-16.46513 93.2994,-51.64872 22,-11.14743 46.975,-23.97515 55.5,-28.50604 19.93,-10.59245 80.9473,-41.08697 92,-45.97872 4.675,-2.06908 14.0632,-6.4023 20.8628,-9.62938 6.7995,-3.22709 12.5833,-5.86743 12.8528,-5.86743 0.2696,0 9.5563,-4.48698 20.6373,-9.97106 27.5295,-13.62472 24.6547,-14.58707 26.7994,8.97106 3.2607,35.81822 4.9158,51.2546 9.3278,87 2.41,19.525 5.5525,45.85 6.9835,58.5 1.4309,12.65 4.3899,36.05 6.5756,52 3.5519,25.92012 8.1672,63.86301 11.0083,90.5 2.8864,27.06196 6.1823,54.93894 7.0142,59.32534 2.293,12.09109 3.9578,10.89343 -27.2923,19.63486 -24.3032,6.79824 -36.241,10.36204 -74.7694,22.32099 -15.125,4.6947 -39.65,11.97656 -54.5,16.18192 -14.85,4.20536 -38.925,11.40421 -53.5,15.99746 -45.8897,14.46192 -48.2293,15.04848 -50.4106,12.63817 z"
         id="path2"
         sodipodi:nodetypes="sssssssssssssssssssssssssssssssssssssssssssssssssscssssssssssssssssssssssssssssssssssssssssssssssssssssssssssssssssssssssssssssssssssssssssssssssssssssssssssssssssssssssssssssssssssssssssssssssssssssssssssssssssssssssssssssssssssssssssssssssssssssssssssssssscsssssssssssscsssssscssssssssssssssssssssssssssssssssssssssssssssssssssssssssssssssssssssssssssssssssssssssssssssssssssssssssssssssssssssssssssssssssssscssssssssssssssssssssssscssssssssssssssssssssssssssssssssssssssssssssssssssssssssssssssssssssssssssssssssssssssssssssssssssssssssssssssssssssssssssssssssssssssssssssssssssssssssssssssssssssssssssssssssssssssssssssssssssssssssssssssssssssssssssssssssssssssssssssssssssssssssssssssssssssssssssssssssssssssssssssssssssssssssssssssssssss" />
      <path
         id="path1"
         style="display:inline;fill:#af151d;stroke:none;stroke-width:1.826;stroke-linecap:round;stroke-dashoffset:13.2283"
         d="m 1885.2029,2075.7444 c -35.6276,0.1322 -46.5692,53.4609 -13.209,64.3789 5.1272,1.6781 18.1477,0.4225 24.1543,-2.3301 30.1336,-13.8091 21.6029,-62.1695 -10.9453,-62.0488 z" />
    </g>
  </g>
</svg>
