<?xml version="1.0" encoding="UTF-8" standalone="no"?>
<!-- Created with Inkscape (http://www.inkscape.org/) -->

<svg
   width="198.30278mm"
   height="99.732643mm"
   viewBox="0 0 198.30278 99.732643"
   version="1.1"
   id="svg1"
   xml:space="preserve"
   sodipodi:docname="leaf.svg"
   inkscape:version="1.4.3 (0d15f75042, 2025-12-25)"
   xmlns:inkscape="http://www.inkscape.org/namespaces/inkscape"
   xmlns:sodipodi="http://sodipodi.sourceforge.net/DTD/sodipodi-0.dtd"
   xmlns="http://www.w3.org/2000/svg"
   xmlns:svg="http://www.w3.org/2000/svg"><sodipodi:namedview
     id="namedview1"
     pagecolor="#ffffff"
     bordercolor="#000000"
     borderopacity="0.25"
     inkscape:showpageshadow="2"
     inkscape:pageopacity="0.0"
     inkscape:pagecheckerboard="0"
     inkscape:deskcolor="#d1d1d1"
     inkscape:document-units="mm"
     inkscape:zoom="0.6586726"
     inkscape:cx="-100.20153"
     inkscape:cy="537.44455"
     inkscape:window-width="1920"
     inkscape:window-height="1011"
     inkscape:window-x="0"
     inkscape:window-y="0"
     inkscape:window-maximized="1"
     inkscape:current-layer="layer1"><inkscape:page
       x="0"
       y="0"
       width="198.30278"
       height="99.732643"
       id="page2"
       margin="0"
       bleed="0" /></sodipodi:namedview><defs
     id="defs1" /><g
     inkscape:label="Layer 1"
     inkscape:groupmode="layer"
     id="layer1"
     transform="translate(-5.8486062,-122.09213)"><path
       style="fill:#af151d;fill-opacity:1;stroke:none;stroke-width:0.295;stroke-dasharray:none"
       d="m 141.14674,219.85266 c -2.25842,-4.54562 -4.74475,-7.89708 -8.19707,-11.04923 -1.76502,-1.61157 -2.895,-2.49531 -4.98369,-3.89768 -1.94773,-1.30773 -3.18874,-2.04637 -6.46805,-3.84976 -3.33157,-1.83212 -5.07555,-2.94332 -6.82977,-4.35168 -0.76665,-0.61549 -2.47777,-2.16822 -3.15512,-2.86306 -0.46656,-0.47861 -0.54763,-0.5281 -1.17082,-0.71481 -2.55864,-0.76657 -3.05199,-0.93227 -5.66503,-1.90274 -5.331267,-1.98 -9.184997,-3.71777 -13.137367,-5.92407 -5.42462,-3.02815 -11.54403,-7.48092 -16.78749,-12.21539 -1.11497,-1.00674 -1.19037,-1.0309 -0.63039,-0.20201 1.11934,1.65686 3.16133,5.92128 4.11025,8.5837 1.06964,3.00115 1.74644,5.7128 2.66988,10.69717 1.15723,6.24623 1.64813,8.08639 2.83036,10.60967 1.52326,3.25115 4.25681,5.96218 7.37176,7.31104 2.14129,0.92723 4.19721,1.31304 6.93838,1.30202 2.418247,-0.01 4.407177,-0.27865 6.784707,-0.91739 0.55477,-0.14905 1.03773,-0.25304 1.07324,-0.23109 0.0355,0.022 0.0646,0.12429 0.0646,0.22742 0,0.15474 -0.058,0.20294 -0.33173,0.27572 -0.18246,0.0485 -0.61273,0.1691 -0.95617,0.26797 -0.34344,0.0989 -1.08105,0.26966 -1.63914,0.37953 -4.848607,0.95451 -9.346827,0.54595 -12.772907,-1.16014 -1.0811,-0.53835 -1.22869,-0.62615 -2.21355,-1.31684 -1.44022,-1.01005 -2.33138,-1.78091 -4.06342,-3.51487 -5.7065,-5.71284 -10.96315,-13.1109 -16.365652,-23.03258 -0.707417,-1.29917 -2.376732,-4.65471 -2.855818,-5.74057 -1.426419,-3.23301 -2.520239,-6.68386 -3.017276,-9.51909 -0.325094,-1.85442 -0.43854,-3.23434 -0.414349,-5.03998 l 0.02189,-1.63367 -0.21161,-0.41015 c -0.327047,-0.63389 -0.561001,-0.88648 -1.772571,-1.91377 -0.619071,-0.5249 -1.391809,-1.18449 -1.717201,-1.46575 -1.017059,-0.87912 -3.101873,-2.56812 -4.769271,-3.8638 -1.480662,-1.15057 -2.61771,-1.92838 -4.408338,-3.01556 -0.595809,-0.36174 -0.699272,-0.45452 -0.681294,-0.61093 0.01165,-0.10142 0.03451,-0.19772 0.05078,-0.21399 0.0512,-0.0512 0.801693,0.35752 1.787416,0.97345 2.351078,1.46908 4.484887,3.12256 9.497534,7.35961 1.773577,1.49915 2.056954,1.79301 2.404436,2.49341 l 0.288446,0.5814 0.0062,2.15051 c 0.009,3.14009 0.320802,5.12638 1.325771,8.44593 0.853742,2.82003 1.69296,4.86693 3.387268,8.26174 3.626069,7.26538 8.671139,15.25147 12.845149,20.3332 0.70348,0.85646 2.50682,2.98898 2.83825,3.35634 1.01777,1.1281 2.16391,2.32269 2.29661,2.39371 0.17129,0.0917 0.19132,0.13412 -0.30083,-0.63748 -1.02893,-1.6132 -1.92502,-3.81941 -2.53584,-6.24339 -0.16781,-0.66595 -0.5012,-2.24699 -0.74086,-3.51343 -1.33379,-7.04809 -1.72611,-8.81681 -2.50176,-11.27887 -0.90961,-2.88725 -2.21703,-6.0043 -3.45402,-8.23475 -0.90883,-1.63874 -1.8745,-3.26042 -2.32399,-3.90272 -0.38525,-0.55051 -0.96802,-1.19242 -0.96802,-1.06625 0,0.0314 0.20506,0.38078 0.4557,0.77634 1.50208,2.37067 3.05452,5.55425 4.33041,8.88038 2.00196,5.21889 3.8791,12.62781 3.8775,15.30422 -5.9e-4,0.88771 -0.0979,1.27116 -0.39945,1.5727 -0.20008,0.20007 -0.26582,0.22234 -0.51951,0.17596 -0.99655,-0.18221 -1.63741,-0.95291 -4.54545,-5.46627 -0.44257,-0.68688 -1.25072,-1.9338 -1.79589,-2.77093 -4.259978,-6.54139 -6.465847,-10.66503 -8.390318,-15.68482 -1.253724,-3.27022 -2.109029,-6.53348 -2.415145,-9.21456 -0.185883,-1.62805 -0.151434,-2.35132 0.126181,-2.64931 0.210321,-0.22575 0.449122,-0.20036 0.843546,0.0897 l 0.340438,0.25036 -0.04769,-0.29388 c -0.06383,-0.39335 -0.003,-0.51905 0.251142,-0.51905 0.677063,0 2.185923,1.60677 4.737996,5.04546 1.374604,1.85215 2.78921,3.37196 5.17996,5.56519 4.81362,4.41592 8.26943,7.15816 12.95704,10.28162 4.79407,3.19439 9.64941,5.7033 15.649917,8.08683 1.41713,0.56291 6.00983,2.20651 7.12985,2.55157 0.44409,0.13682 0.8279,0.2283 0.85291,0.20329 0.025,-0.025 -0.0433,-0.1417 -0.15168,-0.2593 -0.14956,-0.16222 -1.19853,-1.44631 -1.27476,-1.56049 -0.007,-0.0109 -0.39652,-0.12703 -0.86506,-0.25819 -3.1535,-0.88278 -7.26265,-2.42577 -10.530627,-3.95426 -8.91556,-4.16993 -20.18275,-12.15388 -27.25256,-19.3112 -3.024124,-3.06155 -4.117177,-4.52999 -4.122829,-5.53871 -0.0045,-0.80737 0.372591,-1.10449 1.460378,-1.1506 0.82558,-0.035 1.768697,0.11406 3.415511,0.53977 5.40679,1.3977 11.17643,4.53737 16.39144,8.91974 1.54627,1.29939 3.51245,3.24326 3.51245,3.47259 0,0.32975 -0.27926,0.15871 -1.19838,-0.73397 -1.49373,-1.45075 -3.81939,-3.42735 -5.24111,-4.45448 -2.1894,-1.58173 -3.37324,-2.33062 -5.50954,-3.4853 -2.30575,-1.24627 -3.90173,-1.93581 -6.23766,-2.69497 -3.268331,-1.06219 -5.435034,-1.378 -5.974841,-0.87088 -0.276412,0.25968 -0.245708,0.58177 0.123735,1.2979 0.400897,0.7771 0.930353,1.43382 2.584678,3.20594 2.747728,2.94336 7.222028,6.86183 11.306038,9.90151 2.43339,1.81114 3.12872,2.30537 5.1516,3.66164 6.08776,4.08165 10.7989,6.6007 16.352397,8.74363 1.82985,0.70609 6.0259,2.11544 6.09438,2.04696 0.0189,-0.0189 -0.0825,-0.18923 -0.22552,-0.37841 -0.89276,-1.18126 -2.43945,-3.79909 -3.69987,-6.2622 -0.77362,-1.51179 -0.88843,-1.69099 -1.57967,-2.46553 -0.40999,-0.45939 -1.16692,-1.32401 -1.68208,-1.92139 -1.827367,-2.11903 -2.185597,-2.50947 -3.427497,-3.73566 -2.36319,-2.33328 -4.94004,-4.40025 -7.42015,-5.95193 -1.13709,-0.71142 -3.63491,-2.03817 -3.62682,-1.92643 0.003,0.0351 0.30396,0.30979 0.66982,0.6103 0.36586,0.30051 1.1485,1.04131 1.73921,1.64623 1.93003,1.97647 3.60671,4.11907 6.13313,7.83739 1.06496,1.56738 2.54635,3.59814 3.61561,4.95646 0.79048,1.00416 1.000725,1.35729 0.92525,1.55399 -0.19399,0.50553 -2.06913,-0.68738 -4.4236,-2.81417 -0.66542,-0.60106 -1.98391,-1.8279 -2.92999,-2.7263 -4.48704,-4.26089 -6.28203,-5.89073 -8.85624,-8.04139 -3.07909,-2.57247 -4.55905,-3.65716 -6.45987,-4.73454 -2.52517,-1.43127 -5.82602,-2.69221 -7.159931,-2.73515 -0.597267,-0.0192 -0.738488,0.071 -0.59709,0.38129 0.420757,0.92346 3.119511,3.60113 6.489501,6.4388 4.89144,4.11879 9.8642,7.68452 15.95969,11.44392 1.41534,0.87291 2.60085,1.63626 2.63446,1.69633 0.0769,0.13751 -0.003,0.35679 -0.12986,0.35679 -0.0903,0 -3.51424,-2.10733 -5.66336,-3.48563 -3.17025,-2.03319 -7.83974,-5.36767 -10.4593,-7.46898 -1.89334,-1.51877 -3.40163,-2.76392 -3.94707,-3.25845 -0.30343,-0.27512 -0.98475,-0.88658 -1.51405,-1.35881 -1.99914,-1.78361 -3.749546,-3.76732 -3.874199,-4.39057 -0.07423,-0.37116 0.142327,-0.69966 0.530054,-0.80407 1.302335,-0.35068 6.100465,1.49373 9.312625,3.57978 1.76232,1.1445 4.46952,3.29884 7.76642,6.18038 1.50082,1.31174 1.45973,1.27381 4.52756,4.18061 4.50709,4.27051 5.66004,5.31257 6.93286,6.26601 0.95702,0.71688 1.30706,0.90361 0.93951,0.50119 -0.67752,-0.74179 -2.52453,-3.25099 -4.12244,-5.60041 -3.4789,-5.11508 -5.66175,-7.60936 -9.25317,-10.57333 -0.89065,-0.73505 -0.9685,-0.90303 -0.41536,-0.89612 0.66421,0.008 4.07167,1.80691 6.53663,3.45035 1.44656,0.96445 1.88498,1.29673 3.67456,2.78491 1.90682,1.58567 4.720201,4.43372 6.312097,6.38989 0.27272,0.33513 0.5123,0.59288 0.5324,0.57277 0.0201,-0.0201 -0.25578,-0.50504 -0.61307,-1.07765 -2.027887,-3.24991 -4.761847,-6.22348 -7.948627,-8.64526 -6.60823,-5.02191 -14.82431,-8.54495 -22.47969,-9.63925 -1.816562,-0.25968 -2.870688,-0.34676 -5.63592,-0.46561 l -2.31861,-0.0997 -0.413299,-0.27793 c -0.227316,-0.15287 -0.957729,-0.79371 -1.623145,-1.42409 -2.42496,-2.2973 -3.873364,-3.50268 -5.781338,-4.81128 -1.722697,-1.18153 -1.889639,-1.28988 -3.371635,-2.18823 -2.408071,-1.4597 -3.817176,-2.3864 -4.428506,-2.91242 -0.321976,-0.27704 -1.182526,-0.88011 -1.912337,-1.34014 -2.30837,-1.45508 -3.25062,-2.1651 -4.595006,-3.46246 -1.320248,-1.27407 -2.066804,-2.33108 -2.812758,-3.98244 -0.431563,-0.95537 -0.491842,-1.03322 -0.928373,-1.199 -0.455217,-0.17287 -4.680402,-1.22624 -4.727934,-1.1787 -0.02127,0.0213 -0.0059,0.0693 0.03418,0.10672 2.086821,1.94934 4.282759,3.81297 7.839271,6.65295 4.018693,3.20906 4.778764,3.86254 5.162078,4.43819 0.160694,0.24133 0.221737,0.41317 0.19506,0.54913 -0.03339,0.17022 0.01227,0.22664 0.326631,0.40353 0.771991,0.43438 2.497441,1.8473 4.618102,3.78162 5.413461,4.93777 8.741957,10.21498 9.521519,15.09602 0.09295,0.58201 0.157874,1.21425 0.144268,1.40498 -0.02221,0.31127 -0.04472,0.34679 -0.219873,0.34679 -0.186455,0 -0.199137,-0.0304 -0.285076,-0.68392 -0.342412,-2.60367 -1.344968,-4.77993 -2.986457,-6.48271 -0.737033,-0.76456 -1.471128,-1.33564 -3.285042,-2.55557 -0.665416,-0.44752 -1.56109,-1.09142 -1.99039,-1.43089 -0.909071,-0.71886 -2.804298,-2.56006 -3.503959,-3.40408 -1.830405,-2.20804 -2.779428,-4.22014 -2.779428,-5.89288 0,-0.36431 -0.04347,-0.67745 -0.112605,-0.81114 -0.208277,-0.40277 -1.413755,-1.43041 -5.778582,-4.92609 -3.566705,-2.85649 -4.942509,-4.0228 -6.885345,-5.83687 -0.972981,-0.90849 -1.058445,-0.96925 -1.56109,-1.10971 -1.668867,-0.46637 -2.550286,-1.03487 -5.849432,-3.77281 -2.183628,-1.81217 -6.827761,-5.22179 -6.948281,-5.10126 -0.05513,0.0551 0.29957,1.84466 0.642969,3.24398 0.453131,1.84648 0.834572,2.68314 2.338602,5.1296 0.09795,0.15932 0.115986,0.16061 0.750621,0.0538 0.963884,-0.16222 2.73413,-0.0861 3.928548,0.16882 3.195102,0.68203 6.296742,2.08781 9.210432,4.17453 3.458843,2.47715 6.215086,5.51828 8.211368,9.0601 1.486336,2.63707 2.279435,4.45817 4.742041,10.8886 0.724873,1.89281 0.696871,1.79336 0.547089,1.94314 -0.269697,0.2697 -0.194001,0.41585 -1.32981,-2.56757 -0.96208,-2.52709 -1.180552,-2.97728 -1.864746,-3.84254 -1.092581,-1.38173 -2.213548,-2.11085 -6.208083,-4.03802 -2.346092,-1.13187 -6.182576,-3.06893 -6.533038,-3.29856 -0.09881,-0.0647 -0.179649,-0.0982 -0.179649,-0.0744 0,0.0238 0.719551,0.61083 1.599002,1.30449 2.499834,1.97175 5.954558,5.18544 7.75845,7.21715 2.038752,2.29623 4.590539,5.56622 6.852486,8.78113 0.558789,0.7942 1.381433,1.9606 1.828101,2.59199 0.446667,0.63138 1.251178,1.7875 1.787802,2.56914 1.801261,2.62368 3.575127,4.95461 5.041782,6.6251 0.940256,1.07093 1.149247,1.2622 2.217286,2.02929 1.490442,1.07047 2.653851,2.14047 2.653851,2.44076 0,0.10296 -0.02201,0.20922 -0.04894,0.23614 -0.196547,0.19655 -2.05218,-1.1292 -3.424483,-2.4466 -0.343438,-0.3297 -0.870306,-0.75721 -1.170817,-0.95003 -0.56127,-0.36013 -2.567597,-1.44703 -5.65895,-3.06564 -5.115449,-2.67842 -7.858798,-4.42513 -11.356927,-7.23105 -3.905605,-3.13277 -7.862795,-7.26008 -10.513891,-10.9659 -2.231189,-3.11885 -3.815598,-5.84582 -5.709093,-9.82607 -1.653225,-3.47518 -2.293238,-4.66906 -2.373658,-4.4278 -0.07996,0.23986 1.069686,3.95783 1.815834,5.87246 1.494109,3.83389 2.707081,6.2084 5.343258,10.45996 3.37945,5.45029 4.465662,7.73685 6.544461,13.77662 1.051413,3.05479 1.197731,3.4499 1.806547,4.8784 1.171532,2.74883 2.888538,5.61807 4.594277,7.67739 1.271484,1.53505 3.485568,3.62298 5.184806,4.88939 0.354675,0.26433 0.480897,0.54754 0.295186,0.66231 -0.100114,0.0619 -0.263316,-0.0328 -1.372562,-0.79664 -2.099017,-1.44532 -4.617763,-3.58392 -6.444828,-5.47212 -3.950897,-4.0831 -6.987715,-8.60531 -9.496381,-14.14134 -1.46275,-3.22794 -2.140058,-5.04858 -4.544382,-12.21553 -1.424351,-4.24579 -1.730488,-5.13513 -1.907665,-5.54187 -0.0561,-0.12879 -0.162476,-0.42084 -0.236387,-0.649 -0.07391,-0.22817 -0.146464,-0.40277 -0.161223,-0.38801 -0.01475,0.0148 0.200314,0.72831 0.477941,1.58566 0.899344,2.77731 1.41638,4.70942 1.743501,6.51528 0.08943,0.4937 0.372316,2.56605 0.628635,4.60522 0.256319,2.03917 0.538457,4.25202 0.626968,4.91743 0.287268,2.15958 0.530126,4.45504 0.635877,6.0102 0.13246,1.94792 0.133392,7.22086 0.0015,8.78113 -0.243159,2.87771 -0.609536,5.3782 -1.223728,8.35183 -0.60129,2.91116 -0.748222,3.87878 -0.796672,5.24643 -0.06983,1.9712 0.07248,2.80631 0.87069,5.10963 0.5432,1.56746 0.785659,2.62915 0.724445,3.17224 -0.04473,0.39686 -0.137536,0.51666 -0.348391,0.44973 -0.187915,-0.0596 -0.462326,-0.92344 -1.072989,-3.37761 -0.283778,-1.14047 -0.619393,-2.23367 -0.982472,-3.20023 -3.602451,-9.59014 -5.104902,-15.11673 -5.961033,-21.92697 -0.519287,-4.13073 -0.681424,-7.10136 -0.676914,-12.40202 0.0036,-4.26059 0.07145,-5.98801 0.322655,-8.2181 0.279949,-2.48526 0.68294,-3.90821 1.740014,-6.14393 1.199769,-2.53752 1.330473,-3.28881 0.957348,-5.50284 -0.649787,-3.8557 -0.94235,-5.22958 -1.113644,-5.22969 -0.03439,-2e-5 -0.03442,0.57076 -6.2e-5,1.26839 0.272208,5.52801 -0.8409,11.79618 -3.087539,17.38667 -1.718932,4.27736 -3.902206,8.17881 -6.9722533,12.45923 -0.8588015,1.19738 -3.9120415,5.31008 -4.1042755,5.52843 -0.03619,0.0411 -0.06494,-0.098 -0.06451,-0.31222 8.85e-4,-0.37991 0.02785,-0.42299 1.619629,-2.57662 4.3411978,-5.87349 6.4659418,-9.3462 8.4534088,-13.81636 1.336521,-3.00607 2.540415,-6.90608 3.080904,-9.9806 0.464551,-2.64252 0.519393,-3.30282 0.554727,-6.67859 0.0182,-1.73866 0.04915,-3.23604 0.06879,-3.3275 0.01965,-0.0915 0.105112,-0.18445 0.189941,-0.20663 0.135548,-0.0354 0.148732,-0.0868 0.108806,-0.42392 -0.04659,-0.39332 0.07792,-0.64717 0.317429,-0.64717 0.209802,0 0.767738,2.54598 1.325653,6.04923 0.343456,2.15663 0.349943,2.22596 0.270178,2.88801 -0.09996,0.8297 -0.333552,1.51316 -1.005016,2.9406 -1.403683,2.98402 -1.795363,4.61741 -2.075548,8.65544 -0.180853,2.6065 -0.182711,9.59106 -0.0033,12.32766 0.239123,3.64693 0.531158,6.23848 1.025927,9.10417 0.927438,5.37172 1.969023,8.99891 4.871969,16.96604 l 0.469265,1.28789 0.0029,-1.07632 c 0.0042,-1.54041 0.09909,-2.23987 0.743302,-5.48025 1.09677,-5.51678 1.445176,-8.64278 1.445176,-12.96657 0,-3.87389 -0.148169,-5.56123 -1.2466,-14.1964 -0.795347,-6.25251 -1.052745,-7.59815 -2.075335,-10.84957 -0.943301,-2.99931 -1.392561,-4.74118 -1.3461,-5.21909 0.01767,-0.18178 0.06265,-0.24472 0.174869,-0.24472 0.111455,0 0.238347,0.174 0.483821,0.66346 0.596393,1.18917 1.114447,2.60761 3.036063,8.3128 2.264835,6.7242 2.790057,8.16973 3.88734,10.69883 2.152676,4.96165 4.652674,9.13904 7.539503,12.59822 1.288869,1.5444 4.313125,4.69712 4.411431,4.59881 0.02189,-0.0219 -0.147773,-0.26601 -0.377054,-0.54247 -1.283756,-1.54789 -2.573226,-3.55656 -3.604687,-5.61521 -1.079264,-2.15406 -1.680696,-3.64101 -2.762453,-6.82977 -1.325338,-3.90677 -1.992377,-5.55679 -3.328989,-8.23475 -0.84652,-1.69603 -2.321105,-4.23865 -3.870384,-6.67366 -2.3098,-3.63033 -4.422339,-8.14985 -5.709839,-12.21553 -0.956791,-3.02135 -1.123055,-3.82307 -0.806189,-3.88746 0.07832,-0.0159 0.210038,0.0323 0.292705,0.10708 0.277385,0.25103 0.172551,-0.0649 -0.17191,-0.51803 -0.405128,-0.53296 -1.166611,-2.09999 -1.462493,-3.00962 -0.277138,-0.85198 -0.636459,-2.63671 -0.658024,-3.26835 -0.01472,-0.43134 -0.0021,-0.47029 0.15888,-0.49317 0.121467,-0.0173 0.200087,0.0304 0.257458,0.15611 0.127063,0.27838 0.777517,0.66812 0.777517,0.46587 0,-0.0365 -0.199193,-0.3965 -0.442656,-0.80006 -1.382518,-2.29162 -1.845892,-3.64967 -2.637313,-7.7294 -0.448414,-2.31154 -1.083509,-4.33769 -1.437821,-4.58707 -0.112478,-0.0792 -0.624411,-0.35931 -1.137629,-0.62253 l -0.933123,-0.47858 h 0.559653 c 0.487751,0 0.607093,0.0301 0.928892,0.23416 0.410588,0.26039 0.534775,0.29171 0.464106,0.11708 -0.02605,-0.0644 -0.0687,-0.16977 -0.09475,-0.23416 -0.03573,-0.0883 0.0091,-0.11708 0.182357,-0.11708 0.205066,0 0.250639,0.0482 0.424426,0.44881 0.185794,0.4283 0.230087,0.46986 0.968946,0.90927 1.905965,1.13351 4.218819,2.82139 7.291805,5.32141 5.78917,4.70977 8.553464,6.51907 11.371724,7.44309 1.503446,0.49293 2.474374,0.66875 3.692791,0.66869 1.202466,-6e-5 1.327479,-0.0413 1.852297,-0.61063 0.375576,-0.40745 0.519659,-0.67448 1.007306,-1.86681 0.499368,-1.221 0.829722,-1.85833 1.384864,-2.67173 0.605574,-0.8873 2.189808,-2.52799 3.119482,-3.23067 2.851095,-2.15493 6.434638,-3.98482 10.978855,-5.60619 2.300292,-0.82075 2.225174,-0.80157 3.122182,-0.79705 0.450765,0.002 0.784447,0.0167 0.741517,0.0321 -0.04293,0.0154 -0.604922,0.19309 -1.248871,0.39491 -3.012769,0.94426 -5.199969,1.80683 -7.891906,3.11233 -4.436595,2.1516 -7.269797,4.40675 -8.83054,7.02887 -0.17887,0.30051 -0.487877,0.93275 -0.686681,1.40498 -0.663528,1.5761 -0.957511,2.13694 -1.327479,2.53247 -0.533117,0.56994 -0.912799,0.7263 -1.866729,0.76872 -0.999264,0.0444 -1.907874,-0.0735 -3.242312,-0.42096 -2.008407,-0.52291 -3.567575,-1.26836 -5.854087,-2.79887 -2.127077,-1.4238 -3.001402,-2.09214 -7.415177,-5.66826 -1.594244,-1.29169 -3.874195,-2.9747 -5.2755,-3.89427 -0.721669,-0.47358 -1.343192,-0.86105 -1.381159,-0.86105 -0.03797,0 -0.05088,0.0439 -0.02867,0.0976 0.173465,0.41944 0.564633,1.71619 0.705275,2.33802 l 0.171306,0.75742 0.933624,0.60853 c 2.447,1.59495 4.423532,3.07236 7.138719,5.33602 1.921016,1.60155 2.800828,2.23631 3.744591,2.7016 0.450889,0.2223 0.837767,0.38549 0.859725,0.36264 0.108109,-0.11249 -4.627011,-4.59492 -6.664323,-6.30869 -1.954645,-1.64423 -2.165786,-1.84424 -2.069427,-1.96034 0.04934,-0.0594 0.115077,-0.1081 0.146071,-0.1081 0.124139,0 1.498566,1.03947 2.198988,1.66308 0.409641,0.36472 0.990013,0.86856 1.289712,1.11965 0.708093,0.59325 2.066728,1.85418 3.729092,3.46093 0.732467,0.70796 1.595191,1.53978 1.917167,1.84848 l 0.58541,0.56128 1.277086,0.2833 c 1.176033,0.2609 5.66213,1.38058 8.100958,2.02192 1.548574,0.40723 1.914323,0.62533 3.366927,2.00775 3.871172,3.68413 10.632745,6.62522 19.608612,8.52918 5.820048,1.23455 9.916911,1.71255 14.752301,1.72123 3.91146,0.007 7.84589,-0.37356 12.05941,-1.16651 2.60701,-0.49061 3.97523,-0.73438 5.22966,-0.93171 3.32124,-0.52247 6.457417,-0.72123 9.238877,-0.58554 0.95817,0.0468 1.7543,0.0728 1.76916,0.058 0.0381,-0.0381 -3.20443,-1.5544 -4.60759,-2.15458 -5.707917,-2.4415 -12.261477,-4.73175 -18.108627,-6.32836 -3.37835,-0.92249 -3.18827,-0.80548 0.93666,0.57663 1.76013,0.58976 3.79735,1.29897 4.52716,1.57604 0.72981,0.27707 1.85379,0.6969 2.49774,0.93297 3.70829,1.35944 6.62951,2.68578 7.05665,3.20397 0.488821,0.59303 0.381885,1.06057 -0.32353,1.41453 -0.40971,0.20558 -0.94001,0.30528 -3.37678,0.63482 -0.94446,0.12772 -2.52506,0.35494 -3.51245,0.50492 -4.35755,0.66191 -8.43987,1.14523 -10.92763,1.29376 -1.84368,0.11007 -5.91817,0.11046 -7.49323,7e-4 -3.838427,-0.26747 -7.900516,-0.92987 -12.004707,-1.9576 -5.727185,-1.43415 -11.336441,-3.69547 -14.842937,-5.98379 -1.771326,-1.15595 -3.080538,-2.36841 -2.890115,-2.67651 0.104746,-0.16949 0.312827,-0.0491 0.896901,0.51885 1.176538,1.14408 2.710063,2.15095 5.151325,3.3822 5.231582,2.63856 11.620116,4.59124 18.498914,5.65425 3.215639,0.49693 5.490179,0.67153 8.742099,0.67107 4.04646,-5.6e-4 7.40516,-0.29113 13.19121,-1.14117 1.30936,-0.19236 3.50465,-0.5051 4.87841,-0.69497 3.21954,-0.44499 3.5916,-0.53283 3.78463,-0.89351 0.29766,-0.55619 -1.82458,-1.56016 -8.78012,-4.1536 -2.23373,-0.83287 -4.36223,-1.56786 -7.49323,-2.58751 -2.09172,-0.6812 -2.83285,-0.89689 -5.11257,-1.48795 -5.29311,-1.37232 -7.19686,-1.72875 -11.163351,-2.09004 -1.602395,-0.14595 -2.420965,-0.17391 -5.071982,-0.17324 -5.300895,0.001 -7.879389,0.33094 -14.088835,1.80096 -2.685052,0.63565 -3.546582,0.74816 -4.444005,0.58036 -0.669449,-0.12517 -1.136891,-0.36831 -1.136891,-0.59134 0,-0.38134 0.236104,-0.42677 3.044125,-0.58572 4.237773,-0.23988 8.305591,-1.01229 12.410664,-2.35658 1.108673,-0.36305 4.140072,-1.47486 4.630796,-1.69841 0.179114,-0.0816 0.606659,-0.25966 0.9501,-0.39569 0.821984,-0.32558 2.595239,-1.15885 4.527159,-2.12735 4.19838,-2.1047 9.57145,-5.55341 12.83996,-8.24132 0.51937,-0.42711 0.62391,-0.48143 0.9267,-0.48152 0.30852,-9e-5 0.33101,0.0123 0.23424,0.12889 -0.12907,0.15552 -1.28617,1.08939 -2.40981,1.94492 -2.68026,2.0407 -5.01886,3.57205 -8.50794,5.57109 -1.373764,0.78709 -5.505741,2.84049 -6.946848,3.45226 -1.889905,0.8023 -4.729483,1.90281 -5.50284,2.13269 -0.92563,0.27515 -1.613166,0.52062 -1.572405,0.56138 0.01803,0.018 0.414332,-0.0128 0.880656,-0.0685 1.34874,-0.16109 7.331867,-0.13645 9.16066,0.0377 1.923666,0.18322 4.006197,0.4626 6.283387,0.84294 1.81377,0.30294 5.67951,1.04881 6.63463,1.28011 0.25758,0.0624 1.17082,0.27247 2.02942,0.46688 1.61409,0.36546 3.66537,0.90038 4.95646,1.2925 0.40783,0.12386 1.16301,0.34802 1.67817,0.49812 4.17922,1.21767 10.92772,3.72077 15.688937,5.81922 1.28508,0.56638 4.56774,2.10541 4.68962,2.19866 0.0464,0.0355 0.52061,0.15149 1.05374,0.2577 1.40853,0.28063 2.23739,0.53828 3.45241,1.07321 1.69682,0.74705 2.9901,1.67474 2.63806,1.89231 -0.11523,0.0712 -3.13365,-0.86688 -4.28102,-1.3305 -0.58949,-0.23819 -1.44117,-0.62101 -1.89262,-0.85071 -0.75656,-0.38493 -0.89413,-0.42722 -1.75747,-0.54029 -1.6049,-0.21018 -3.80883,-0.28772 -5.69797,-0.20047 -3.145797,0.1453 -3.954337,0.25334 -10.147077,1.3558 -5.30289,0.94404 -7.82313,1.23322 -11.7472,1.34788 -4.84276,0.1415 -11.815744,-0.64333 -17.196261,-1.93549 -2.267992,-0.54467 -2.242698,-0.54327 -1.497785,-0.0831 0.343441,0.21218 0.870309,0.54003 1.170817,0.72855 0.654162,0.41039 2.855072,1.91251 3.794681,2.58987 4.188028,3.01915 5.048268,3.59077 6.430458,4.27291 0.70133,0.34613 1.7192,0.7706 2.32165,0.96818 1.13146,0.37107 3.39255,0.86598 4.31298,0.94402 0.30051,0.0255 0.62154,0.0614 0.71339,0.0799 0.20898,0.042 0.29593,0.25155 0.16821,0.40545 -0.0794,0.0957 -0.23026,0.10719 -0.84043,0.0642 -3.34255,-0.23566 -6.89572,-0.85003 -11.320042,-1.95733 -3.769491,-0.9434 -7.872112,-2.20603 -10.25454,-3.15594 -0.338145,-0.13482 -0.629328,-0.23062 -0.647073,-0.21287 -0.01776,0.0177 0.153546,0.18541 0.380647,0.37258 0.84016,0.69246 2.231375,1.93039 3.181535,2.83098 1.235474,1.17103 1.970439,1.80879 2.245562,1.94859 0.155921,0.0792 0.711576,0.1238 2.010717,0.16129 3.359469,0.097 5.553574,0.32697 8.291744,0.86922 1.65518,0.32778 2.48073,0.53619 4.23862,1.07004 1.35055,0.41015 1.3747,0.41437 1.83428,0.32059 0.54371,-0.11095 1.61727,-0.48179 2.31663,-0.80023 0.26989,-0.1229 0.78927,-0.35571 1.15418,-0.51737 0.3649,-0.16165 1.03227,-0.47742 1.48303,-0.70169 1.54675,-0.76958 4.05674,-1.78481 5.85409,-2.36784 4.12176,-1.33701 8.21192,-1.59519 12.472667,-0.78729 2.49128,0.47238 5.31135,1.46682 8.02742,2.83069 2.10053,1.05478 4.05519,2.29403 4.142,2.62602 0.0228,0.087 0.27904,0.22793 0.7123,0.39167 0.91214,0.34473 2.70352,1.26675 3.56478,1.83478 1.03197,0.68062 1.89432,1.56792 2.27166,2.3374 0.2628,0.53589 0.30768,0.70567 0.33013,1.24887 0.0235,0.56853 0.005,0.66961 -0.19847,1.05655 -0.66591,1.26938 -2.58945,1.67922 -4.96556,1.05797 -0.75603,-0.19767 -2.49683,-0.84357 -2.68692,-0.99694 -0.0589,-0.0475 -0.0976,-0.0492 -0.0976,-0.004 0,0.10522 1.04182,1.09385 1.60012,1.51845 3.14099,2.38874 7.84058,3.91191 13.23023,4.28801 2.25044,0.15704 5.24418,-0.0122 7.87529,-0.44521 1.09178,-0.17968 1.21283,-0.18656 1.32414,-0.0752 0.20721,0.20721 -0.0272,0.32441 -1.0037,0.50197 -5.01035,0.91096 -10.29779,0.67918 -14.95981,-0.65576 -2.781,-0.79633 -5.2055,-1.98017 -6.97783,-3.40717 -1.36017,-1.09514 -2.31039,-2.48283 -1.70011,-2.48283 0.0837,0 0.54533,0.17056 1.02587,0.37902 1.18383,0.51356 2.45833,0.94409 3.17143,1.07131 1.76281,0.3145 3.27328,-0.0824 3.73766,-0.982 0.25056,-0.4853 0.20648,-1.21285 -0.11209,-1.85123 -0.67752,-1.35765 -2.97968,-2.93331 -5.84518,-4.0006 -3.68295,-1.37175 -7.41292,-1.83652 -11.86428,-1.47835 -2.11142,0.16989 -3.647617,0.46386 -7.532247,1.44139 -4.06823,1.02372 -5.18832,1.22792 -7.5503,1.37647 -1.13862,0.0716 -1.76035,0.0731 -2.57482,0.006 -0.59055,-0.0485 -1.08814,-0.0737 -1.10574,-0.0561 -0.0176,0.0176 0.48475,0.28257 1.11636,0.5888 l 1.14837,0.55678 1.02915,-0.23914 c 1.46033,-0.33931 2.13103,-0.41306 4.03426,-0.44356 2.30522,-0.0369 3.85716,0.13961 5.90882,0.67218 2.470597,0.64132 4.939077,1.91434 7.321397,3.77571 1.16935,0.91364 1.87069,1.56169 4.56619,4.21923 4.41632,4.35413 6.20547,5.75122 9.44459,7.37497 3.06593,1.53694 6.01009,2.35599 9.13238,2.54061 1.12025,0.0662 3.11559,-0.0737 4.56619,-0.3203 0.93159,-0.15835 1.10872,-0.16979 1.201,-0.0775 0.17979,0.17976 0.0523,0.31282 -0.50957,0.53207 -2.20955,0.8621 -5.49533,0.98509 -8.63091,0.32305 -3.90727,-0.82497 -13.91955,-4.5151 -18.44259,-6.7972 -2.81814,-1.42189 -5.24968,-3.06411 -7.238257,-4.88861 -3.60431,-3.30691 -5.27566,-4.42716 -7.98504,-5.35215 -0.91755,-0.31325 -3.37699,-0.91088 -3.44964,-0.83824 -0.0201,0.0201 0.1161,0.11392 0.30272,0.20845 0.18661,0.0945 0.8486,0.49027 1.47108,0.87944 6.65228,4.15892 10.250415,7.8779 13.884247,14.35054 0.58171,1.03615 3.8431,3.66934 6.61347,5.33961 3.95353,2.38361 8.37086,3.85111 13.26084,4.40546 1.28493,0.14566 1.78018,0.16326 3.70759,0.13178 3.99312,-0.0652 6.56724,-0.58129 10.38124,-2.08124 0.23612,-0.0929 0.90969,-0.40002 1.49682,-0.68257 1.06654,-0.51325 1.31314,-0.5635 1.31314,-0.26759 0,0.36828 -3.59584,1.90476 -5.93637,2.53657 -2.31965,0.62617 -4.26782,0.90026 -6.82553,0.96027 -4.84031,0.11358 -9.00141,-0.65923 -13.56443,-2.51923 -2.94713,-1.20133 -6.12879,-3.18521 -8.90616,-5.55334 -0.21344,-0.18199 -0.40272,-0.31623 -0.42063,-0.29832 -0.0916,0.0916 1.96922,3.7966 2.95806,5.31807 0.55108,0.84792 0.65754,0.97005 0.87473,1.00356 0.13601,0.021 0.49317,0.0761 0.79368,0.12255 0.3005,0.0464 1.42449,0.27984 2.49774,0.5187 2.98518,0.6644 5.02,1.36946 6.81572,2.36164 1.58904,0.87798 2.74702,1.28144 4.8144,1.6774 1.58754,0.30407 2.59389,0.39195 4.48813,0.39195 1.85368,0 2.71543,-0.0719 4.68327,-0.39088 2.80769,-0.4551 4.4727,-0.90309 9.65876,-2.59885 5.86776,-1.91867 6.89147,-2.22029 8.99626,-2.65063 2.41916,-0.49462 3.80254,-0.63628 6.20533,-0.63544 3.13511,0.001 4.92837,0.26801 7.76807,1.15618 1.62516,0.5083 2.89838,1.06377 4.74017,2.06798 0.72658,0.39616 0.87811,0.50985 0.87811,0.65881 0,0.30306 -0.2092,0.28583 -0.80061,-0.0659 -1.88558,-1.12155 -4.35714,-2.11878 -6.77068,-2.73183 -2.00321,-0.50883 -4.77329,-0.74277 -7.23625,-0.61114 -3.57209,0.19091 -6.11476,0.78527 -12.78929,2.98959 -5.09058,1.68119 -6.06484,1.96735 -8.5424,2.50906 -4.59924,1.00561 -8.6942,1.0537 -12.56677,0.14757 -0.31477,-0.0736 2.0305,1.24851 3.47342,1.95817 2.93363,1.44282 5.57084,2.23673 8.82016,2.65522 1.09235,0.14069 4.76421,0.28892 5.50284,0.22214 0.66685,-0.0603 4.86665,0.0987 6.44599,0.24397 3.66851,0.33751 7.50504,1.18208 10.21865,2.24954 4.69835,1.84821 8.18476,4.25722 9.31006,6.43301 0.91681,1.77268 0.42602,3.07986 -1.38753,3.69552 -1.45088,0.49253 -4.64604,-0.0562 -6.88838,-1.18293 -2.15359,-1.08216 -3.11908,-2.17609 -2.6763,-3.03233 0.14209,-0.27477 0.55797,-0.44795 1.35384,-0.56378 0.81815,-0.11906 1.02982,-0.23428 1.02982,-0.56053 0,-0.69145 -1.22841,-1.84581 -2.78903,-2.62092 -1.64131,-0.81519 -3.84059,-1.51601 -5.88955,-1.87677 -2.32792,-0.40987 -4.37612,-0.54945 -8.06802,-0.54982 -3.52099,-3e-4 -4.9309,-0.1029 -7.09904,-0.51629 -1.44532,-0.27557 -4.26833,-1.11853 -4.98225,-1.48771 -0.51232,-0.26493 -0.2166,-0.004 0.86536,0.76414 0.63295,0.44925 1.23863,0.87437 1.34595,0.94471 0.10733,0.0703 0.38832,0.26796 0.62444,0.43916 0.79997,0.58002 4.94914,3.34943 6.24436,4.16785 1.66878,1.05448 3.7755,2.32468 4.95646,2.9884 0.51516,0.28952 1.49864,0.84334 2.18552,1.2307 2.50659,1.41359 6.26425,3.2187 9.13238,4.38705 0.77274,0.31478 1.54014,0.62981 1.70534,0.70006 0.47694,0.20282 0.59868,0.11421 0.20131,-0.14652 -1.42829,-0.93716 -2.27406,-1.66972 -5.38705,-4.66593 -2.36883,-2.27999 -3.36911,-3.04813 -5.06962,-3.89314 -1.46655,-0.72875 -2.02239,-0.93161 -3.82162,-1.39468 -1.4383,-0.37018 -2.86881,-0.62224 -3.94175,-0.69455 -0.7721,-0.052 -0.78081,-0.0549 -0.8046,-0.26055 -0.0285,-0.24639 -0.0806,-0.22652 1.28264,-0.48867 3.0239,-0.58146 5.2755,-0.41616 8.06893,0.59239 1.00012,0.36109 2.90245,1.31519 3.82608,1.91894 1.27999,0.8367 3.23127,2.43981 4.91602,4.03885 1.6479,1.56406 4.06134,3.45964 5.81506,4.56731 1.16386,0.7351 3.70035,2.00587 5.07354,2.54182 7.55065,2.94696 17.81681,4.22073 26.96783,3.34601 3.03465,-0.29007 5.59283,-0.74958 8.94069,-1.60594 2.33068,-0.59618 2.26384,-0.58436 2.32992,-0.41215 0.0297,0.0774 0.009,0.18103 -0.0474,0.23557 -0.15786,0.1531 -4.08384,1.16703 -5.68134,1.46727 -3.64747,0.68552 -7.71543,1.06272 -11.43498,1.06031 -5.09901,-0.003 -10.62684,-0.65591 -15.29668,-1.80588 -5.70741,-1.40548 -9.51098,-3.11727 -13.42737,-6.04295 -1.27842,-0.95502 -1.83355,-1.42537 -3.7813,-3.20385 -2.94654,-2.69047 -4.04135,-3.53008 -5.93649,-4.55271 -2.28827,-1.23477 -4.28905,-1.84128 -6.59721,-1.99988 -0.73284,-0.0504 -2.86747,0.0772 -3.03609,0.18139 -0.0398,0.0246 0.41659,0.12771 1.0143,0.22907 2.74033,0.46473 5.45023,1.47772 7.33407,2.74156 1.00605,0.67494 2.54972,2.01436 4.56322,3.95946 0.96593,0.93311 2.08991,1.97773 2.49775,2.32138 1.09695,0.9243 2.669,1.92815 4.25397,2.71642 0.77274,0.38431 1.43951,0.75012 1.48171,0.8129 0.0538,0.08 0.0417,0.14919 -0.0405,0.23139 -0.10429,0.10429 -0.34134,0.041 -2.14518,-0.57265 -3.45895,-1.17672 -5.72984,-2.1243 -9.36505,-3.90777 -5.88276,-2.88614 -12.08601,-6.68033 -19.08432,-11.67284 -4.21093,-3.00403 -6.26795,-4.30676 -8.79811,-5.5719 -1.73803,-0.86906 -3.208,-1.4839 -5.05656,-2.11499 -2.09337,-0.71466 -5.54814,-1.70065 -5.63934,-1.60945 -0.0413,0.0413 0.66429,0.88171 1.30205,1.55087 0.33109,0.34738 0.42677,0.39559 1.37093,0.69072 1.20673,0.3772 2.71151,0.96352 4.52744,1.76405 4.26439,1.87989 8.21743,4.31818 11.62585,7.17095 2.10208,1.75939 3.5708,3.20354 5.49463,5.40272 1.10175,1.25943 1.24706,1.50971 0.90512,1.55887 -0.11756,0.0169 -0.30203,-0.14732 -0.70138,-0.62443 -1.17964,-1.40933 -3.73104,-4.02085 -5.10869,-5.22909 -2.06698,-1.81281 -4.89824,-3.84316 -7.37615,-5.28958 -1.50669,-0.8795 -5.05731,-2.62615 -6.51755,-3.20616 -1.4074,-0.55904 -3.13749,-1.17819 -3.17827,-1.13741 -0.0155,0.0155 0.40346,0.43318 0.93107,0.92814 2.69848,2.53144 4.38588,3.66504 10.24779,6.88444 3.38707,1.8602 6.35159,3.84854 8.89821,5.96812 1.81433,1.51008 4.22716,4.06617 5.78969,6.13342 1.22288,1.61789 2.65701,4.01454 3.79312,6.3389 0.54727,1.11965 0.68893,1.47489 0.62724,1.57287 -0.20326,0.3228 -0.30827,0.18064 -1.21568,-1.64574 z m 23.10663,-8.83725 c 0.49304,-0.13125 0.99064,-0.41353 1.29689,-0.73569 0.19107,-0.20099 0.2305,-0.31693 0.26319,-0.77385 0.0645,-0.90212 -0.28424,-1.72141 -1.17709,-2.76492 -0.97439,-1.13881 -3.50004,-2.84784 -5.86741,-3.97029 -3.88722,-1.84307 -8.03938,-2.88177 -13.08034,-3.27215 -1.70152,-0.13178 -5.38785,-0.25627 -6.16009,-0.20805 -0.97209,0.0607 -3.82024,-0.0637 -5.1516,-0.22508 -1.97008,-0.23877 -4.66413,-0.85768 -6.1488,-1.4126 -1.7395,-0.65016 -3.99052,-1.76828 -6.00198,-2.98129 -1.10289,-0.6651 -2.85527,-1.61754 -4.90923,-2.66824 -1.0844,-0.55472 -2.30395,-0.98908 -4.18807,-1.49164 -1.34025,-0.35749 -4.0311,-0.92782 -4.37815,-0.92796 -0.11972,-4e-5 -0.10193,0.055 0.11585,0.35824 0.14152,0.19705 0.31054,0.38599 0.37561,0.41986 0.0651,0.0339 0.46955,0.14034 0.89885,0.2366 2.03011,0.45521 5.94908,1.69646 7.74966,2.45453 2.13888,0.90051 4.45958,2.0902 6.14404,3.1497 0.51516,0.32403 1.21765,0.76335 1.56109,0.97627 0.60839,0.37719 2.49228,1.19628 4.35922,1.89533 1.09094,0.4085 2.3324,0.74924 3.70354,1.01653 2.03302,0.39631 2.49253,0.42904 7.00176,0.49872 4.02168,0.0621 5.08448,0.11331 6.63463,0.31945 4.13634,0.55006 7.65325,1.85762 9.42745,3.50507 0.80285,0.74549 1.07088,1.15695 1.07088,1.6439 0,0.66344 -0.36426,0.94551 -1.40498,1.08801 -1.17147,0.16039 -1.33288,0.3847 -0.78008,1.08405 0.73954,0.93559 2.74466,2.00736 4.70247,2.51355 1.50499,0.38912 3.09146,0.49855 3.94269,0.27195 z M 79.804323,196.4097 c 0.13827,-0.30349 0.10836,-1.47063 -0.0705,-2.74836 -0.55237,-3.9472 -2.54087,-10.86191 -4.32049,-15.02382 -0.63914,-1.49473 -1.5423,-3.45233 -1.90008,-4.11844 -1.53429,-2.85647 -3.502031,-5.92001 -4.157246,-6.47232 -0.225137,-0.18977 -0.691224,-0.63795 -1.035757,-0.99594 -0.344532,-0.358 -0.641718,-0.6356 -0.660416,-0.6169 -0.0187,0.0187 0.234518,0.38855 0.5627,0.8219 0.689847,0.91092 1.965949,2.84427 2.733239,4.14097 1.91561,3.23736 4.11721,8.03173 5.3174,11.57961 1.06085,3.136 1.57468,5.03653 1.94457,7.19261 0.36891,2.15033 0.2846,2.84899 -0.34379,2.84899 -0.37085,0 -0.56978,-0.15077 -1.16495,-0.88294 -0.70721,-0.86998 -1.23556,-1.66334 -2.37493,-3.56617 -0.57837,-0.96592 -1.60608,-2.66946 -2.28378,-3.78564 -3.313086,-5.45665 -5.26083,-9.3519 -6.911902,-13.82296 -1.040252,-2.81698 -1.728921,-6.18697 -1.603592,-7.84716 l 0.05145,-0.68161 -0.247262,-0.28162 c -0.322716,-0.36755 -0.535105,-0.48388 -0.624856,-0.34225 -0.104645,0.16515 -0.08099,1.19242 0.05103,2.21635 0.336836,2.61242 1.194324,5.87681 2.377526,9.05107 0.775151,2.07957 2.893918,6.53547 4.119725,8.66405 1.429371,2.48207 2.725711,4.60266 3.817261,6.24436 0.59667,0.8974 1.97584,3.02268 2.93783,4.52716 1.52776,2.3893 2.43864,3.59867 2.96387,3.93509 0.35933,0.23016 0.70858,0.21486 0.8229,-0.036 z m -1.84513,-3.98028 c 0.26168,-0.57435 -0.58833,-4.61852 -1.6645,-7.91937 -1.32872,-4.07541 -2.9288,-7.77585 -5.0458,-11.66914 -1.300809,-2.39227 -4.199217,-6.71044 -5.46529,-8.14242 -0.834127,-0.94342 -1.676186,-1.80953 -1.75929,-1.80953 -0.113186,0 -0.0049,1.65895 0.183012,2.80459 0.694127,4.23114 2.9531,9.69846 6.774798,16.39682 0.28167,0.49369 0.99091,1.67036 1.57609,2.61482 0.58517,0.94446 1.46272,2.38457 1.9501,3.20024 1.57018,2.62783 2.24755,3.64297 2.95572,4.42959 0.31132,0.34581 0.37507,0.35796 0.49516,0.0944 z m -1.77031,-2.94339 c -0.0179,-0.0537 -0.10622,-0.44881 -0.19625,-0.87811 -0.58814,-2.80427 -1.38894,-5.35052 -2.50574,-7.96732 -0.74225,-1.73918 -2.2854,-4.92926 -3.2066,-6.62887 -0.279226,-0.51516 -1.058082,-2.00795 -1.7308,-3.31732 -0.744709,-1.44948 -1.428859,-2.66929 -1.749109,-3.11858 -0.527261,-0.73971 -1.585196,-1.87691 -1.746085,-1.87691 -0.136495,0 -0.01322,0.75333 0.36402,2.22456 0.798985,3.11601 1.674581,5.04256 4.079608,8.97626 2.138156,3.4972 3.293496,5.51436 3.751066,6.54913 0.0931,0.21055 0.18614,0.36596 0.20675,0.34535 0.0575,-0.0575 -0.3116,-1.41462 -0.6558,-2.41118 -0.66816,-1.93454 -1.22136,-3.02623 -3.339784,-6.59077 -1.967533,-3.31064 -2.331427,-3.94995 -2.936237,-5.15856 -0.890337,-1.7792 -1.104549,-2.41649 -0.876009,-2.60616 0.170796,-0.14175 0.278123,-0.0166 0.467242,0.54468 0.331307,0.98334 1.757584,3.65914 3.307621,6.20534 3.183047,5.22869 4.063467,7.28298 4.698737,10.96368 0.12099,0.70098 0.14138,0.97722 0.0778,1.05384 -0.17467,0.21047 -0.3652,0.0377 -0.58433,-0.5299 -0.22422,-0.58075 -1.54039,-3.12211 -2.28962,-4.42097 -0.23612,-0.40934 -1.03187,-1.72773 -1.768345,-2.92977 -2.089685,-3.4107 -2.623554,-4.38212 -3.326104,-6.05219 -0.950752,-2.26009 -1.795039,-5.31269 -1.688685,-6.10562 0.09681,-0.72173 0.461088,-0.7167 1.294707,0.0179 1.118031,0.98519 1.727815,1.91893 3.437106,5.2631 0.568247,1.11175 1.292651,2.50634 1.609791,3.09907 2.37026,4.43001 4.00652,8.31551 4.94366,11.73932 0.35998,1.31521 0.81406,3.452 0.76224,3.58702 -0.0554,0.14424 -0.35465,0.16142 -0.40084,0.023 z m 41.172157,-9.22882 c 0,-0.0209 -0.21952,-0.14796 -0.48784,-0.28248 -3.40688,-1.70803 -7.17691,-4.3813 -11.80574,-8.37128 -1.44374,-1.24448 -2.90802,-2.3891 -3.78997,-2.96259 -1.21313,-0.78884 -3.430057,-1.94209 -3.430057,-1.78432 0,0.0346 0.38666,0.35214 0.85925,0.70568 0.51991,0.38895 1.606497,1.37412 2.751407,2.4946 2.03981,1.99627 3.34947,3.14154 4.98845,4.36225 1.3835,1.03044 1.74062,1.26698 3.51318,2.32699 2.72139,1.62743 7.40132,3.84756 7.40132,3.51115 z m -1.48303,-1.39925 c 0,-0.0177 -0.23709,-0.20135 -0.52687,-0.40811 -1.50358,-1.07282 -3.05899,-2.46219 -6.09947,-5.44834 -3.36291,-3.30281 -4.44162,-4.22085 -6.40555,-5.45147 -2.949942,-1.84847 -5.991147,-2.75556 -9.735667,-2.90384 -1.01881,-0.0403 -1.46278,0.0495 -0.74555,0.15088 0.57311,0.081 2.68858,0.57713 3.70785,0.86958 1.8732,0.53745 3.760305,1.44502 5.692117,2.73751 1.2761,0.85378 1.64583,1.14542 4.08192,3.21977 3.23315,2.75306 4.91954,4.03579 7.72861,5.87869 1.78323,1.16989 2.30261,1.4756 2.30261,1.35533 z m -59.019135,-1.19424 c -0.05892,-0.0735 -0.45909,-0.55647 -0.889266,-1.07325 -0.430179,-0.51678 -0.977218,-1.20303 -1.215644,-1.52501 -0.238426,-0.32197 -0.796171,-1.07578 -1.239434,-1.67512 -0.44326,-0.59935 -1.366963,-1.91652 -2.05267,-2.92705 -1.305215,-1.9235 -1.596949,-2.30885 -1.302394,-1.72036 0.580799,1.16038 2.78139,4.49938 4.320679,6.55586 0.501356,0.6698 0.554924,0.77641 0.559845,1.11419 l 0.0055,0.37351 0.892184,0.50154 c 0.94279,0.52998 1.094528,0.59186 0.921257,0.37569 z m 53.470765,-0.1259 c -0.0179,-0.014 -0.34865,-0.21277 -0.73502,-0.44178 -2.91459,-1.72756 -5.40526,-3.69465 -8.51158,-6.7223 -0.94246,-0.91859 -1.959417,-1.86598 -2.259927,-2.1053 -2.33985,-1.8635 -4.10585,-2.61392 -7.23005,-3.07225 -0.92094,-0.1351 -2.09493,-0.16467 -1.97647,-0.0498 0.0408,0.0396 0.4259,0.1582 0.85581,0.26366 2.82034,0.69183 5.33947,2.23322 8.6239,5.27674 1.735177,1.60792 2.318227,2.07657 3.878257,3.11738 1.98783,1.32623 4.58945,2.69036 7.12742,3.73718 0.17054,0.0703 0.31933,0.068 0.22766,-0.004 z m -55.665721,-1.28916 c -0.333953,-0.35151 -1.920196,-2.5293 -2.772569,-3.80652 -0.685026,-1.02646 -1.699745,-2.6998 -2.57979,-4.25426 -1.178582,-2.08177 -5.165786,-7.80946 -6.849229,-9.83904 -2.239679,-2.70019 -6.255254,-6.49069 -9.5172,-8.98376 -2.992082,-2.28681 -5.042342,-3.47114 -7.468886,-4.31436 -1.028296,-0.35734 -1.664722,-0.66006 -2.146124,-1.02084 -0.136657,-0.10242 -0.266496,-0.18621 -0.288533,-0.18621 -0.04491,0 1.076922,2.33344 2.646034,5.50381 2.002232,4.04549 4.515226,7.87256 7.316502,11.14241 4.245128,4.9552 9.244624,9.13537 14.844374,12.41165 2.752403,1.61036 7.011304,3.85212 7.058338,3.7153 0.01561,-0.0454 -0.09369,-0.21111 -0.242917,-0.36818 z m -3.922367,-2.69015 c -0.558089,-0.31361 -1.488887,-0.86293 -2.068441,-1.22071 -0.579558,-0.35778 -1.545479,-0.94814 -2.146501,-1.3119 -2.081281,-1.25967 -4.888148,-3.23702 -6.555303,-4.618 -2.925903,-2.42367 -5.200645,-4.86305 -8.183965,-8.77633 -3.522129,-4.62004 -6.701268,-9.76747 -6.892,-11.15902 -0.06208,-0.45293 0.07674,-0.81798 0.335794,-0.88299 0.625175,-0.15691 3.660913,1.40198 6.057168,3.11043 2.34557,1.67232 3.810748,2.93733 6.301067,5.44022 5.354725,5.38178 9.062252,10.14337 11.765273,15.11019 0.256994,0.47223 0.721972,1.27686 1.03329,1.78805 0.602786,0.98981 1.180794,2.09266 1.125961,2.14837 -0.01823,0.0185 -0.148464,-0.0781 -0.289386,-0.21465 -0.140923,-0.13659 -0.289676,-0.25006 -0.330564,-0.25217 -0.04089,-0.002 -0.34822,-0.43238 -0.682964,-0.95616 l -0.608627,-0.95235 -0.866209,-0.30362 c -0.88123,-0.30888 -1.00306,-0.38048 -2.951052,-1.73418 -4.248757,-2.95256 -5.34371,-3.8279 -7.795406,-6.23186 -2.76702,-2.71316 -5.695588,-6.10192 -8.392242,-9.71099 -2.423686,-3.24375 -3.013757,-4.19289 -3.013757,-4.84772 0,-1.29791 2.495975,-0.17701 6.168177,2.77002 2.514056,2.0176 5.696301,5.25217 9.091475,9.24097 2.138509,2.51242 3.209027,3.90563 4.696864,6.11266 1.384938,2.05439 1.62219,2.46774 1.85892,3.2387 l 0.101094,0.32924 -0.284619,-0.16381 c -0.207937,-0.11967 -0.336597,-0.28198 -0.477549,-0.60242 -0.316365,-0.71924 -2.427058,-3.83202 -3.89643,-5.74633 -2.853918,-3.7181 -8.019516,-9.25363 -10.740382,-11.50954 -1.299638,-1.07755 -2.935768,-2.28543 -3.942519,-2.91058 -0.988257,-0.61367 -2.029034,-1.02835 -2.138093,-0.85188 -0.08327,0.13473 0.522446,1.20304 1.397343,2.46453 2.870692,4.13916 6.307914,8.27432 9.640166,11.59763 2.6049,2.5979 4.061871,3.75509 9.053885,7.19094 0.834356,0.57426 2.248795,1.3578 2.32091,1.28569 0.02605,-0.026 -0.02375,-0.12625 -0.110661,-0.22268 -0.08691,-0.0964 -0.419559,-0.68462 -0.739219,-1.3071 -1.592624,-3.10139 -4.888796,-7.56562 -8.41329,-11.39468 -1.334256,-1.44956 -4.459547,-4.57051 -5.539569,-5.53188 -2.38747,-2.12518 -5.207695,-4.09295 -7.543427,-5.26331 -0.699286,-0.35039 -1.668326,-0.71168 -1.733647,-0.64636 -0.16083,0.16083 0.59493,1.88843 1.507785,3.44668 2.068162,3.53037 5.324947,8.09378 7.98874,11.19383 1.162581,1.35298 3.354575,3.55945 4.652064,4.68278 1.341934,1.16182 3.486007,2.76648 5.268679,3.94317 1.496794,0.98799 5.552832,3.51088 6.0678,3.77421 0.800372,0.40929 0.95016,0.49789 1.075114,0.63596 0.14359,0.15867 0.109802,0.38928 -0.05702,0.3892 -0.05501,-3e-5 -0.556638,-0.25664 -1.114727,-0.57025 z m -6.33753,-7.11323 c -1.062174,-0.60333 -3.687133,-2.87113 -6.165708,-5.32678 -2.944004,-2.91679 -7.876975,-8.59791 -8.812612,-10.14916 -0.212683,-0.35262 -0.267635,-0.52067 -0.249911,-0.76423 0.01988,-0.27334 0.04866,-0.31522 0.230957,-0.3363 0.423787,-0.049 1.331996,0.54481 3.187137,2.08384 1.290101,1.07027 1.927769,1.62359 3.150532,2.73379 0.595148,0.54037 1.126424,1.00812 1.180611,1.03946 0.143935,0.0832 2.64999,2.8587 3.386681,3.75075 0.346839,0.41998 0.881995,1.11815 1.189232,1.55148 0.30724,0.43333 0.716866,0.98216 0.91028,1.21962 0.536365,0.65852 1.50703,2.01163 1.949161,2.71716 0.589608,0.94086 0.72022,1.43992 0.424653,1.62259 -0.03441,0.0213 -0.205866,-0.0427 -0.381013,-0.14222 z m -0.633116,-1.50053 c -1.62309,-2.32493 -5.981725,-6.94654 -8.530332,-9.04499 -0.154196,-0.12696 -0.57569,-0.47827 -0.936654,-0.7807 -0.360965,-0.30242 -0.961931,-0.78696 -1.33548,-1.07676 -0.702874,-0.54529 -0.806879,-0.75404 -0.375679,-0.75404 0.149398,0 0.421993,0.16302 0.881006,0.52687 1.379474,1.09347 2.635567,2.18543 3.900956,3.3912 0.719075,0.6852 1.307412,1.22176 1.307412,1.19234 0,-0.12634 -1.315938,-1.55291 -2.200305,-2.3853 -1.564206,-1.47226 -4.092885,-3.67373 -5.292926,-4.60802 -0.708358,-0.55149 -1.469042,-1.04512 -1.524728,-0.98943 -0.04695,0.0469 0.926801,1.39503 1.668002,2.30924 2.018266,2.48936 5.611642,6.47199 7.51756,8.33189 1.890265,1.84464 4.137845,3.84205 4.827883,4.29052 0.150257,0.0976 0.376004,0.28654 0.501666,0.41975 0.427418,0.45309 0.292584,0.18151 -0.408381,-0.82257 z m 23.32739,-0.17359 c -1.098463,-1.45045 -3.291827,-3.77029 -2.923463,-3.09204 0.428161,0.78835 0.537199,0.94815 1.038567,1.52206 0.687832,0.78736 2.671874,2.80996 2.756388,2.80996 0.03717,0 -0.355005,-0.55799 -0.871492,-1.23998 z m 21.577737,-1.49681 c 1.68378,-0.12681 3.50064,-0.46845 6.40047,-1.20353 1.45962,-0.37001 3.19828,-0.79077 3.86369,-0.93504 4.012227,-0.8699 7.744247,-1.02127 11.507457,-0.46673 1.19427,0.17599 2.82797,0.53387 3.35942,0.73593 0.14919,0.0567 0.19763,0.05 0.19763,-0.0272 0,-0.24556 -3.062,-1.58344 -4.84314,-2.11612 -2.48053,-0.74183 -4.34226,-1.00478 -7.06017,-0.99717 -3.460007,0.01 -5.357387,0.35573 -9.678737,1.76518 -4.82548,1.57387 -6.69952,1.98636 -9.34703,2.05734 l -1.54158,0.0413 v -0.24412 -0.24413 l 0.68298,-0.001 c 1.5038,-0.003 3.58116,-0.26412 5.32722,-0.67034 0.99008,-0.23034 3.87778,-1.09232 4.95535,-1.47917 2.01909,-0.72486 4.54951,-1.32771 6.51866,-1.553 3.020937,-0.34564 6.219107,-0.17354 8.728857,0.4697 0.57874,0.14832 1.06735,0.25458 1.08581,0.23613 0.12815,-0.12815 -3.07413,-1.26809 -4.70211,-1.67385 -4.574457,-1.14014 -8.876437,-1.01027 -13.425357,0.4053 -1.83396,0.5707 -3.33521,1.17903 -6.04922,2.45122 -2.55356,1.19698 -3.09776,1.43649 -3.88301,1.70896 -0.35407,0.12285 -0.64384,0.24229 -0.64395,0.26542 -2.3e-4,0.0478 1.17096,0.52312 1.99018,0.80777 0.69372,0.24104 2.32352,0.57708 3.21558,0.66301 1.00068,0.0964 2.09992,0.0978 3.341,0.004 z m -30.410935,-0.24879 c -0.739909,-1.40848 -2.129104,-3.61057 -2.942134,-4.66376 -2.256855,-2.92349 -5.823618,-6.42182 -8.704102,-8.53711 -0.810263,-0.59502 -0.836073,-0.60263 -0.784866,-0.2314 0.121096,0.87792 0.552343,1.9503 1.234734,3.07041 0.592659,0.97282 1.122669,1.66127 2.091898,2.71724 1.504564,1.63923 2.910981,2.80556 5.288513,4.38573 0.665414,0.44225 1.463195,1.01076 1.772848,1.26335 0.578932,0.47226 1.581868,1.52799 1.842243,1.93922 0.170654,0.26953 0.337438,0.31629 0.200866,0.0563 z m 5.666281,-0.95104 c -0.206795,-0.27113 -0.337877,-0.37662 -0.22459,-0.18075 0.158951,0.27481 0.364507,0.53143 0.39848,0.49746 0.02112,-0.0211 -0.05713,-0.16364 -0.17389,-0.31671 z m 10.811924,-4.05519 c 0,-0.0166 -0.28977,-0.145 -0.64395,-0.28524 -1.67856,-0.66467 -3.16212,-1.53166 -5.327214,-3.11319 -3.154051,-2.30393 -5.20966,-3.72091 -7.024904,-4.84245 -0.643949,-0.39787 -1.48935,-0.93047 -1.878668,-1.18357 -0.625174,-0.40643 -0.853092,-0.5018 -1.951361,-0.81655 -1.316272,-0.37723 -3.823212,-1.22126 -4.198941,-1.41368 -0.122939,-0.063 -0.368812,-0.16376 -0.546384,-0.22398 l -0.322858,-0.10951 0.234164,0.19466 c 0.128792,0.10706 1.147402,0.65589 2.263581,1.21963 7.819954,3.94956 11.001756,5.73775 12.089703,6.79449 0.50535,0.49085 0.612471,0.78189 0.375139,1.01922 -0.22957,0.22957 -0.636768,0.20066 -1.888459,-0.13409 -1.235604,-0.33045 -5.226308,-1.64209 -7.181014,-2.36021 -2.346326,-0.862 -6.307067,-2.55546 -7.532258,-3.2205 -0.690746,-0.37494 -1.699869,-0.8223 -1.45328,-0.64426 0.102224,0.0738 1.033025,0.63853 2.068445,1.25495 1.035417,0.61642 2.248621,1.35022 2.696008,1.63067 0.447385,0.28046 1.202561,0.69615 1.678171,0.92376 3.192146,1.52769 10.690366,3.7915 16.39759,4.95066 1.9164,0.38923 2.14649,0.42773 2.14649,0.35919 z m -29.590545,-3.76488 c -2.489207,-5.98096 -5.435731,-9.91185 -9.983075,-13.31819 -3.706571,-2.77653 -8.40675,-4.6475 -11.710221,-4.6614 -0.558697,-0.002 -1.872384,0.12874 -1.936932,0.19328 -0.05632,0.0563 0.852706,1.47776 1.322393,2.06782 1.149119,1.44362 3.240005,3.289 5.299856,4.67756 2.902639,1.95669 5.101111,3.21204 8.625021,4.92499 1.073249,0.5217 2.52034,1.22645 3.215759,1.56612 0.695416,0.33966 1.285119,0.61756 1.310448,0.61756 0.02534,0 -0.157278,-0.16403 -0.405797,-0.36452 -0.248515,-0.20048 -0.674804,-0.57129 -0.947306,-0.82402 -0.859583,-0.79722 -2.127833,-1.55644 -4.474592,-2.67866 -4.38218,-2.09556 -5.108274,-2.47493 -6.934826,-3.62335 -2.421635,-1.52258 -3.764204,-2.62955 -4.711098,-3.88438 -0.68915,-0.91326 -0.974698,-1.45734 -0.860226,-1.63905 0.338573,-0.53745 3.707117,0.001 6.188686,0.99015 0.861102,0.34306 2.230635,1.01107 3.091793,1.50806 0.78147,0.45101 2.565656,1.65122 3.161205,2.12653 2.414809,1.92726 4.782295,4.79444 6.442344,7.80209 0.645828,1.1701 0.804042,1.67991 0.521343,1.67991 -0.09308,0 -0.262576,-0.12973 -0.405859,-0.31064 -0.168532,-0.21279 -0.344783,-0.33723 -0.55954,-0.39505 -0.806862,-0.21727 -4.524192,-1.93292 -7.052022,-3.25471 -4.598548,-2.40455 -8.301626,-4.91084 -10.459302,-7.079 -0.601019,-0.60394 -1.233262,-1.29928 -1.404981,-1.5452 -0.171719,-0.24592 -0.338915,-0.44789 -0.371543,-0.44881 -0.03263,-9.2e-4 0.09515,0.30589 0.283949,0.68181 0.864963,1.72225 3.211923,4.13119 5.876433,6.03164 2.838286,2.02439 4.520953,2.95872 11.578284,6.42902 3.321894,1.63348 4.207447,2.15916 4.993233,2.96406 0.277804,0.28456 0.530757,0.51739 0.562116,0.51739 0.03136,0 -0.08363,-0.33795 -0.255543,-0.75101 z m 22.253427,0.68364 c 0,-0.11971 -0.725542,-0.74981 -1.326924,-1.15238 -1.666943,-1.11584 -3.578909,-2.16048 -9.015295,-4.92565 -3.849002,-1.95777 -5.768009,-3.05413 -7.041487,-4.02294 -0.420178,-0.31965 -0.939583,-0.68012 -1.154235,-0.80106 -2.046519,-1.15298 -3.254298,-2.019 -4.636186,-3.32429 -1.078396,-1.01862 -1.932899,-1.55143 -2.767725,-1.72577 -0.445272,-0.093 -0.461081,-0.0905 -0.612976,0.0971 -0.403941,0.49884 0.02387,1.2651 1.572257,2.81616 2.170332,2.17406 5.54628,4.36273 10.352483,6.71165 1.848421,0.90337 4.649031,2.15052 5.854181,2.60694 0.796392,0.30162 1.126569,0.49711 1.126569,0.66702 0,0.0885 -0.05246,0.15452 -0.122833,0.15452 -0.564644,0 -5.862895,-2.3246 -8.853432,-3.88443 -4.579653,-2.3887 -8.214278,-5.01379 -9.789021,-7.07008 -0.725575,-0.94745 -0.950039,-1.7221 -0.637303,-2.19939 0.07458,-0.11383 0.124016,-0.21525 0.109853,-0.22537 -0.06005,-0.0429 -2.190679,-0.59983 -2.21035,-0.57774 -0.05105,0.0573 1.047949,2.18337 1.404055,2.71619 0.788326,1.17951 2.742684,3.01169 4.488132,4.20756 1.008017,0.69063 3.235507,2.01128 4.761326,2.82292 4.647995,2.47247 8.446108,4.03281 15.259652,6.26898 2.323769,0.76265 3.239259,1.00007 3.239259,0.84006 z m -8.976265,-4.14193 c -4.710753,-2.13459 -6.272911,-2.93507 -8.898212,-4.55965 -2.105374,-1.30284 -4.214942,-2.8356 -4.214942,-3.06249 0,-0.058 0.06696,-0.14124 0.148811,-0.18505 0.124199,-0.0665 0.288784,0.0249 0.995196,0.55279 1.983582,1.48216 3.13579,2.23481 5.182498,3.38533 2.018629,1.13472 5.527621,2.81935 9.263171,4.44713 0.567883,0.24745 1.068936,0.49381 1.113452,0.54744 0.05775,0.0696 0.04148,0.14272 -0.05683,0.25528 -0.136572,0.15639 -0.1673,0.14438 -3.533141,-1.38078 z m 55.18451,-0.5941 c 0,-0.15497 -2.99054,-1.2864 -3.10298,-1.17396 -0.0225,0.0225 0.0431,0.074 0.1456,0.11457 0.10254,0.0405 0.44988,0.18617 0.77185,0.32359 0.57141,0.2439 2.01035,0.76788 2.12699,0.77454 0.0322,0.002 0.0585,-0.0156 0.0585,-0.0387 z m -72.278443,-0.46844 c 0,-0.0232 -0.06744,-0.13736 -0.14988,-0.25368 -0.08243,-0.11632 -0.418193,-0.62888 -0.746134,-1.13902 -2.446796,-3.80626 -5.236998,-6.40022 -9.133986,-8.49158 -2.46858,-1.32479 -4.934794,-2.11123 -6.976921,-2.22483 l -0.88867,-0.0494 0.392111,0.57801 c 1.695984,2.50008 5.339305,4.89371 12.283356,8.07005 1.962598,0.89773 3.880018,2.16602 4.751797,3.14312 0.322604,0.36157 0.468327,0.47588 0.468327,0.36737 z m -4.621368,-3.89915 c -0.157606,-0.10709 -0.929718,-0.49861 -1.715805,-0.87004 -4.264593,-2.01502 -6.693975,-3.36667 -8.549744,-4.75688 -1.03914,-0.77845 -1.172676,-0.94274 -1.022195,-1.25764 0.09746,-0.20395 0.140657,-0.22039 0.636122,-0.24202 1.618193,-0.0706 4.978349,1.43368 8.274799,3.70455 1.911001,1.31646 3.407685,2.69736 3.407685,3.14405 0,0.34821 -0.157877,0.3828 -0.386167,0.0846 -0.622708,-0.8134 -1.454628,-1.54038 -3.009202,-2.62963 -2.338487,-1.6385 -4.314024,-2.70721 -6.276837,-3.3956 -0.803561,-0.28181 -1.956035,-0.56178 -2.024601,-0.49183 -0.0925,0.0944 0.779376,0.81915 1.774985,1.47552 1.444869,0.95255 2.575048,1.57271 5.277579,2.89593 3.670639,1.79723 3.734013,1.82964 3.922238,2.00605 0.188579,0.17674 0.239559,0.52766 0.07666,0.52766 -0.05443,0 -0.227912,-0.0876 -0.385517,-0.19472 z m -8.534716,-0.18197 c -0.04078,-0.0355 -0.372709,-0.28772 -0.737615,-0.56057 -1.272067,-0.95117 -3.150791,-2.66349 -3.952216,-3.60216 -0.958012,-1.12206 -1.683454,-2.36466 -2.294085,-3.92949 -0.235385,-0.60321 -0.375517,-0.81897 -0.533901,-0.82205 -0.07019,-10e-4 -0.195801,-0.0541 -0.279132,-0.11709 -0.332316,-0.25134 -0.347007,-0.12754 -0.118139,0.99554 0.461234,2.26331 1.326425,4.03257 2.601759,5.32044 0.738233,0.74549 1.517966,1.21739 2.664625,1.61263 0.514475,0.17734 1.321779,0.50941 1.794009,0.73793 0.909375,0.44008 0.971976,0.4668 0.854695,0.36482 z m 17.379106,-7.81687 c 1.384186,-0.26832 1.073002,-0.2981 -1.256951,-0.12028 -0.794206,0.0606 -1.461569,0.11548 -1.483034,0.12194 -0.02148,0.006 0.04878,0.0399 0.156107,0.0742 0.382532,0.1225 1.770736,0.0817 2.583878,-0.0759 z M 23.73472,193.60878 c -0.652415,-0.69176 -2.126626,-5.82142 -2.928927,-10.19149 -1.083798,-5.90336 -1.840738,-16.52731 -1.568274,-22.01136 0.210448,-4.23581 0.843487,-8.25674 1.564852,-9.93962 0.165636,-0.38641 0.502359,-0.61643 0.791639,-0.54078 0.640223,0.16742 1.366509,2.94593 2.719105,10.40234 0.999181,5.50815 1.414764,8.54876 1.761494,12.88798 0.400212,5.00849 0.33662,9.58966 -0.18921,13.6307 -0.343621,2.64076 -0.873021,5.28841 -1.138408,5.69344 -0.12255,0.18704 -0.405773,0.33661 -0.637397,0.33661 -0.06727,0 -0.235957,-0.12052 -0.374874,-0.26782 z m 0.682165,-0.49322 c 0.451673,-1.0973 1.178242,-5.87491 1.391035,-9.14685 0.11865,-1.82438 0.05356,-6.75948 -0.115369,-8.74714 -0.386904,-4.55243 -0.667824,-7.03236 -1.06518,-9.40331 -0.695661,-4.15089 -1.720691,-9.57436 -2.140819,-11.32714 -0.373653,-1.55889 -0.877903,-3.07617 -1.022331,-3.07617 -0.06369,0 -0.187283,0.16671 -0.274869,0.37076 -0.561986,1.30932 -1.067319,4.14109 -1.368517,7.66885 -0.406576,4.76201 0.06473,14.80219 0.99295,21.15277 0.58867,4.02747 1.445675,7.7418 2.494314,10.81055 0.494521,1.44717 0.739452,1.99039 0.897447,1.99039 0.04997,0 0.145071,-0.13172 0.211339,-0.29271 z m -1.097325,-4.64669 c -0.24848,-0.2994 -0.958794,-3.53509 -1.297429,-5.91018 -0.442213,-3.10154 -0.988785,-8.92917 -1.384732,-14.76424 -0.353317,-5.20684 -0.162591,-11.06046 0.410263,-12.59155 0.304078,-0.81272 0.699013,-0.87849 1.043775,-0.17382 0.153998,0.31476 0.285123,0.90783 0.547915,2.47818 0.634712,3.79281 1.948004,12.79779 2.17935,14.94338 0.421025,3.90472 0.362831,8.65789 -0.152426,12.44969 -0.196361,1.44502 -0.497438,2.97165 -0.657371,3.3332 -0.126155,0.28519 -0.182599,0.33536 -0.37734,0.33536 -0.125946,0 -0.266349,-0.045 -0.312005,-0.10002 z m 0.523859,-1.40253 c 0.953399,-5.08411 1.072176,-10.45959 0.353997,-16.02068 -0.151673,-1.17445 -0.944705,-6.64262 -1.0471,-7.22004 -0.04187,-0.23612 -0.18397,-1.16692 -0.315775,-2.06845 -0.395427,-2.70465 -0.920328,-5.74561 -1.077842,-6.24436 -0.143008,-0.45281 -0.150679,-0.46145 -0.231638,-0.26073 -0.146056,0.36209 -0.316108,1.31515 -0.457388,2.56344 -0.212941,1.88147 -0.193063,7.21232 0.03871,10.38115 0.751223,10.2708 1.303433,14.95705 2.20973,18.75259 0.130698,0.54735 0.265759,0.99519 0.300134,0.99519 0.03438,0 0.136604,-0.39515 0.227172,-0.87811 z m -0.719409,-6.32241 c 0.09285,-2.39466 0.07072,-7.28824 -0.04014,-8.8787 -0.231369,-3.31931 -0.408729,-4.83807 -0.878743,-7.52478 -0.331874,-1.89707 -0.34814,-2.17603 -0.129309,-2.21753 0.191889,-0.0364 0.235005,0.1147 0.552715,1.93686 0.864223,4.95659 1.16987,9.62604 0.99595,15.21538 -0.05134,1.64992 -0.111082,3.02856 -0.132763,3.06364 -0.02168,0.0351 -0.127756,0.0638 -0.235718,0.0638 h -0.196299 z m 77.56239,5.72671 c -0.748072,-0.29522 -1.575997,-0.74868 -2.551477,-1.39747 -0.85719,-0.57012 -3.16272,-2.34484 -4.07523,-3.13698 -0.52365,-0.45458 -1.99558,-1.5062 -2.80786,-2.00607 -5.96312,-3.66968 -10.20694,-6.6268 -13.42537,-9.35491 -2.67314,-2.26589 -3.91341,-3.61622 -4.06046,-4.4208 -0.0453,-0.24767 -0.0266,-0.30285 0.13903,-0.41138 0.16157,-0.10587 0.25674,-0.1119 0.61236,-0.0388 1.30574,0.26833 4.20842,2.13162 7.15503,4.59294 2.12404,1.77423 6.80847,6.10081 6.80847,6.28836 0,0.0841 -0.15763,0.19715 -0.27482,0.19715 -0.0574,0 -0.83375,-0.69723 -2.69125,-2.41691 -2.91483,-2.69856 -4.21749,-3.81893 -6.1663,-5.30342 -2.13457,-1.62599 -4.4542,-2.96365 -4.99742,-2.88188 -0.16119,0.0243 -0.14916,0.0566 0.1983,0.53318 1.0963,1.50372 4.64127,4.53214 8.5269,7.28442 1.85243,1.31212 5.23298,3.54945 7.3779,4.88287 2.29108,1.42428 3.196,2.06111 4.46619,3.14298 1.12046,0.95435 3.24528,2.54432 4.0198,3.00795 1.323537,0.79228 2.275917,1.19541 2.824107,1.19541 0.25709,0 0.31433,-0.0319 0.38546,-0.21466 0.23156,-0.59506 -0.25538,-2.41037 -1.01376,-3.7793 -0.80433,-1.45187 -2.579207,-3.54833 -3.957667,-4.6747 -0.44159,-0.36084 -0.55657,-0.49654 -0.52454,-0.61904 0.0226,-0.0863 0.10035,-0.1569 0.17285,-0.1569 0.36371,0 2.47883,2.0538 3.572997,3.46943 1.64095,2.12303 2.63543,4.83445 2.17623,5.93346 -0.22906,0.54822 -0.94786,0.65668 -1.88947,0.28509 z M 5.6820842,175.22085 c 0.02154,-0.49465 -0.07804,-0.33272 3.226951,-5.24853 2.9529148,-4.39213 4.3685888,-6.70529 5.5727988,-9.10572 2.139521,-4.26486 3.399381,-8.30954 3.916558,-12.57383 0.200232,-1.65097 0.106386,-4.39778 -0.16527,-4.83733 -0.105073,-0.17001 -0.520871,-0.10688 -0.963343,0.14628 -1.054115,0.60311 -3.701984,3.15471 -5.147083,4.95996 -0.696395,0.86995 -1.908098,2.65566 -2.5893448,3.81597 -1.072343,1.82642 -2.41374,4.8457 -3.369526,7.58427 l -0.490349,1.40498 -0.0042,-1.09569 -0.0042,-1.09569 0.380072,-1.12886 c 1.602404,-4.75934 3.488352,-8.595 5.5826218,-11.354 0.672311,-0.88571 2.15603,-2.39011 2.931367,-2.97223 0.362619,-0.27225 1.110278,-0.73349 1.661461,-1.02497 1.657895,-0.87674 2.151136,-1.36123 2.48642,-2.4423 0.184481,-0.59483 0.218091,-2.14507 0.07188,-3.31557 -0.164621,-1.3179 -0.862265,-4.44048 -1.378065,-6.16805 -0.960095,-3.21567 -2.631926,-6.54696 -4.211015,-8.39086 l -0.367647,-0.4293 0.302007,-0.0252 c 0.367847,-0.0307 0.451857,0.058 1.391248,1.46924 1.971702,2.96208 3.368269,6.58882 4.298141,11.16179 0.453019,2.22788 0.535412,2.95308 0.493541,4.34402 -0.03091,1.02696 -0.05971,1.22544 -0.253094,1.74423 -0.411753,1.10464 -0.858818,1.55536 -2.290775,2.30949 -2.394099,1.26085 -3.868318,2.69553 -5.928155,5.76915 -0.71645,1.06907 -2.6386228,4.7223 -2.4846688,4.7223 0.01847,0 0.244005,-0.39515 0.501188,-0.87811 1.6669038,-3.13028 4.7898648,-6.85464 7.3978898,-8.82252 1.129088,-0.85195 1.759723,-1.07334 2.160168,-0.75835 0.336553,0.26473 0.451081,0.64707 0.537663,1.79493 0.14305,1.89644 -0.114328,4.58905 -0.673001,7.04077 -1.307513,5.73795 -3.43865,10.20029 -8.4357693,17.66348 -2.0684425,3.08921 -4.0372125,6.00533 -4.1082295,6.08506 -0.03764,0.0423 -0.05866,-0.10965 -0.04825,-0.34878 z m 0.04743,-2.31422 c -0.03485,-0.43203 -0.28104,-0.007 3.134035,-5.41245 4.0209888,-6.36466 5.1398988,-8.35195 6.4629678,-11.47882 1.423006,-3.36305 2.028279,-5.86767 2.103674,-8.70501 0.04487,-1.68842 -0.01617,-2.13976 -0.289413,-2.13976 -0.456927,0 -2.604709,2.14778 -3.937728,3.93772 -2.348786,3.15387 -3.9752948,6.12959 -5.5485488,10.15112 -0.621073,1.58758 -1.586393,4.58867 -1.933218,6.01019 -0.02094,0.0859 -0.04216,-0.23236 -0.04714,-0.70717 -0.0087,-0.82872 0.0067,-0.91434 0.384987,-2.13863 1.792313,-5.80098 4.3083648,-10.64979 7.6768998,-14.79451 1.128611,-1.38867 2.711423,-2.78041 3.291293,-2.89397 0.327245,-0.0641 0.701626,0.25229 0.821957,0.69463 0.142324,0.52318 0.04081,3.32429 -0.161742,4.46292 -0.8255,4.64052 -2.847749,9.11865 -7.208249,15.96214 -0.5607523,0.88007 -1.8234238,2.88217 -2.8059348,4.44911 -0.98251,1.56694 -1.814952,2.87856 -1.849866,2.91471 -0.03491,0.0361 -0.0772,-0.10435 -0.09397,-0.31222 z m -0.06443,-3.2167 c 0,-0.79789 0.118703,-1.5426 0.499288,-3.13241 1.039987,-4.3443 2.62038,-8.616 4.5915538,-12.41066 1.45623,-2.80335 3.018445,-5.15831 4.206641,-6.34128 1.292538,-1.28686 1.7082,-1.22065 1.7082,0.27208 0,3.06123 -1.512264,7.37905 -4.39511,12.54893 -1.083734,1.94349 -1.45205,2.562 -3.1367438,5.26747 -2.445542,3.92733 -2.855971,4.48813 -3.284681,4.48813 -0.185941,0 -0.189148,-0.0117 -0.189148,-0.69226 z m 2.507108,-3.17143 c 3.3591678,-5.38837 4.7989658,-7.96235 5.9378988,-10.61541 1.003497,-2.33757 1.569829,-4.05105 1.896165,-5.73701 0.156496,-0.80851 0.255935,-2.80996 0.139607,-2.80996 -0.174524,0 -1.660249,1.66101 -2.285058,2.55465 -1.34907,1.92953 -2.103356,3.23795 -3.360227,5.8288 -1.6288338,3.35759 -2.9551298,7.08063 -3.8537948,10.81795 -0.379786,1.57944 -0.678725,3.12213 -0.622596,3.21295 0.05773,0.0934 0.141722,-0.0337 2.148005,-3.25197 z m -0.425654,-0.94967 c -0.221779,-0.22178 0.503486,-3.12768 1.409135,-5.64594 0.7008625,-1.94882 2.4325268,-5.46865 3.5082738,-7.13101 0.742441,-1.1473 1.628194,-2.34663 1.905246,-2.57975 0.406378,-0.34195 0.774741,-0.23578 0.774546,0.22324 -2.39e-4,0.56157 -0.745048,3.12977 -1.291429,4.45301 -1.373822,3.32715 -3.913133,7.95288 -5.4631608,9.95194 -0.566052,0.73004 -0.713556,0.85757 -0.842611,0.72851 z m 1.328102,-2.25302 c 0.497904,-0.7401 1.7778898,-2.96308 2.5828518,-4.48568 1.175915,-2.22428 2.309068,-4.89654 2.747171,-6.47852 0.136719,-0.4937 0.281029,-0.99946 0.32069,-1.12393 0.03966,-0.12446 0.07193,-0.30008 0.07172,-0.39027 -2.95e-4,-0.14777 -0.01947,-0.14083 -0.19334,0.0702 -0.360531,0.43754 -1.579509,2.26016 -2.088125,3.12218 -0.767903,1.30146 -1.094888,1.92283 -1.663515,3.1612 -1.1405458,2.48391 -1.7122648,4.10153 -2.5793818,7.2981 -0.02331,0.0859 0.04091,0.0156 0.142666,-0.15611 0.101757,-0.17172 0.398424,-0.62944 0.659263,-1.01716 z m -3.3802,-8.15424 c 0.02635,-0.79675 0.04124,-0.85554 0.534937,-2.11106 0.279312,-0.71031 0.534489,-1.37768 0.567061,-1.48303 0.132943,-0.43001 0.942224,-2.18218 1.347578,-2.91763 1.331579,-2.41594 2.5591918,-3.84664 5.1704088,-6.02577 1.389254,-1.15937 2.131399,-1.87879 2.61376,-2.5337 0.460022,-0.6246 0.627139,-0.95044 0.917319,-1.78858 0.834359,-2.40994 -0.148472,-6.23232 -2.808997,-10.92461 -0.754212,-1.33018 -2.551369,-3.98478 -3.391319,-5.00934 -0.163258,-0.19914 -0.296835,-0.38567 -0.296835,-0.4145 0,-0.0288 0.131719,-0.0415 0.292705,-0.0282 0.267874,0.0221 0.33765,0.0838 0.822524,0.72672 0.903554,1.19802 2.586522,3.76997 3.252626,4.97074 0.766377,1.38153 1.682767,3.39225 2.058334,4.51634 0.975814,2.92069 1.077639,4.97739 0.337328,6.81333 -0.517218,1.28268 -1.415837,2.33086 -3.473127,4.05118 -2.657256,2.22201 -3.9974028,3.82553 -5.3664308,6.42109 -0.418632,0.79369 -1.370367,3.11082 -2.003758,4.87841 -0.192289,0.53662 -0.406227,1.13374 -0.475413,1.32693 l -0.125794,0.35124 z m -0.02478,-3.87498 c -0.0039,-0.4753 0.04261,-0.67704 0.314878,-1.36595 0.5469,-1.38385 1.360119,-2.97271 2.031466,-3.96907 0.833474,-1.23698 1.928415,-2.37783 3.6592888,-3.81272 2.129901,-1.76567 2.802044,-2.50887 3.355083,-3.70978 0.771286,-1.67483 0.598718,-3.79046 -0.541997,-6.64459 -0.99826,-2.49771 -2.852475,-5.60955 -5.2324548,-8.78136 -0.879413,-1.172 -0.842071,-1.09276 -0.514977,-1.09276 0.262992,0 0.311704,0.0489 1.1066505,1.11227 3.0961373,4.14138 5.3022393,8.35336 5.8927053,11.25058 0.517712,2.54024 0.09224,4.40432 -1.384014,6.06372 -0.506911,0.56981 -1.688122,1.64683 -2.407805,2.19543 -1.891976,1.44223 -3.5407108,3.40466 -4.5496598,5.41528 -0.430929,0.85875 -1.173281,2.50843 -1.507603,3.35023 l -0.216997,0.54638 z m -0.0018,-3.56166 c -0.0024,-0.4549 0.03674,-0.60764 0.279772,-1.09276 0.419943,-0.83823 1.343073,-2.18659 2.052821,-2.99843 0.344892,-0.3945 1.110857,-1.13211 1.702146,-1.63914 1.3828878,-1.18582 2.6709418,-2.43553 3.1222678,-3.02934 0.825751,-1.08643 1.126256,-2.21951 0.957422,-3.61002 -0.276754,-2.2793 -1.732237,-5.55273 -4.1499368,-9.33333 -0.63388,-0.9912 -1.799998,-2.62944 -2.482177,-3.48712 -0.543602,-0.68345 -0.525936,-0.62484 -0.187216,-0.62106 0.296579,0.003 0.317952,0.0242 1.136835,1.11228 1.586117,2.10748 2.8663528,4.13029 4.0116548,6.33855 1.448619,2.79308 2.139648,4.96339 2.139648,6.71996 0,2.09734 -0.767387,3.29497 -3.746616,5.8472 -1.1883288,1.01801 -1.9837728,1.79291 -2.5030248,2.43837 -0.704051,0.87519 -1.454589,2.05736 -1.913724,3.0143 l -0.417113,0.86936 z m 68.7632428,0.28119 c -4.05969,-0.14893 -7.717084,-0.59767 -11.421747,-1.4014 -5.762666,-1.25022 -10.724465,-3.08166 -14.56449,-5.37588 -1.266689,-0.75678 -1.957267,-1.35366 -1.957267,-1.69171 0,-0.54674 0.257879,-0.69494 1.949987,-1.12062 2.474763,-0.62256 5.064674,-1.02563 8.860559,-1.37895 1.437167,-0.13377 7.024943,-0.13408 8.507942,-4.7e-4 5.430716,0.48929 9.206686,1.23725 15.884086,3.14638 3.90804,1.11735 9.75751,3.14811 11.66915,4.05117 0.96559,0.45615 1.37745,0.75512 1.55465,1.12854 0.11265,0.23739 0.12083,0.32795 0.0459,0.50872 -0.23895,0.57688 -0.71009,0.72948 -3.35683,1.08727 -6.4716,0.87484 -12.25369,1.22736 -17.17199,1.04694 z m 8.46892,-0.60946 c 2.06953,-0.13756 3.00605,-0.22242 4.80034,-0.43496 4.82151,-0.57113 6.23991,-0.78244 6.53061,-0.97291 0.64732,-0.42414 0.21401,-0.79312 -2.04691,-1.74302 -1.67879,-0.70532 -5.93914,-2.189 -8.64882,-3.01197 -7.06222,-2.14493 -12.15293,-3.22458 -17.573049,-3.72695 -1.673248,-0.15508 -7.25656,-0.13115 -9.132375,0.0392 -2.891978,0.26256 -6.449032,0.84442 -8.626379,1.41111 -0.971285,0.25279 -1.137632,0.31998 -1.200991,0.48509 -0.0741,0.1931 0.152588,0.39633 1.163321,1.04294 3.669087,2.34724 9.489151,4.53684 15.142572,5.69688 3.758363,0.77118 7.065171,1.18567 10.849571,1.35991 1.35074,0.0622 7.04438,-0.0324 8.74211,-0.14527 z m -6.12728,-0.90665 c -6.46327,-0.20992 -11.970469,-0.97867 -18.313294,-2.55636 -3.680705,-0.91553 -5.553685,-1.53938 -7.210524,-2.4017 -0.989319,-0.51491 -1.326927,-0.86249 -1.326927,-1.36613 0,-0.7033 1.062254,-1.09585 4.175915,-1.54315 2.023586,-0.2907 3.927964,-0.41021 6.595604,-0.4139 5.122411,-0.007 9.606056,0.55331 16.118246,2.01453 3.33252,0.74776 6.66083,1.68191 10.14709,2.84797 2.62511,0.87802 3.47342,1.36104 3.47342,1.9777 0,0.50227 -0.42822,0.80552 -1.37265,0.97205 -2.03042,0.35804 -8.31593,0.59795 -12.28688,0.46899 z m 7.85533,-0.54072 c 3.98485,-0.22837 5.33588,-0.45708 5.33588,-0.90327 0,-0.30012 -0.63554,-0.65096 -2.10748,-1.16341 -7.13573,-2.48427 -14.88507,-4.25669 -21.738169,-4.97192 -1.524401,-0.15909 -2.115941,-0.17923 -5.26868,-0.17938 -2.895688,-1.3e-4 -3.782084,0.0256 -4.800349,0.13951 -3.296081,0.36863 -5.449199,0.83431 -5.657552,1.22362 -0.391161,0.73089 3.659535,2.34024 9.05292,3.59675 5.834829,1.35935 10.284253,1.99007 16.11825,2.28482 1.2495,0.0631 7.8362,0.0437 9.06518,-0.0267 z m -6.68451,-0.78675 c -6.99897,-0.30248 -17.157448,-1.73926 -21.425961,-3.03042 -2.383119,-0.72086 -3.267568,-1.31137 -2.745727,-1.83321 0.244929,-0.24493 0.555381,-0.32481 1.848099,-0.47553 5.650876,-0.65884 14.495169,0.0904 22.530259,1.9085 1.82417,0.41277 4.67115,1.22697 5.74968,1.64434 0.88847,0.34382 1.45882,0.76067 1.45882,1.06619 0,0.21722 -0.29442,0.46499 -0.67133,0.56497 -0.85627,0.22713 -3.61161,0.29053 -6.74384,0.15516 z m 5.77603,-0.4619 c 0.89766,-0.11479 1.0265,-0.15269 0.99928,-0.29401 -0.0385,-0.20015 -0.454,-0.39734 -1.85817,-0.88198 -2.19765,-0.7585 -6.39644,-1.73379 -10.02971,-2.32968 -4.240646,-0.69551 -9.346395,-1.17413 -12.527749,-1.17438 -2.550174,-1.9e-4 -6.057561,0.33564 -6.141703,0.58807 -0.06148,0.18443 1.344687,0.74261 3.132486,1.24343 4.224274,1.18337 14.162766,2.551 20.883696,2.87379 1.24401,0.0597 5.01146,0.0426 5.54187,-0.0252 z m -8.85919,-0.94484 c -4.01886,-0.22299 -10.124323,-1.02421 -14.283969,-1.8745 -2.567966,-0.52492 -2.302608,-0.4411 -2.302608,-0.72739 v -0.24938 l 2.244069,0.45446 c 4.066987,0.82365 7.727649,1.35332 12.039908,1.74208 1.89923,0.17122 4.94382,0.33733 5.0182,0.27378 0.11557,-0.0987 -1.22854,-0.54596 -2.67657,-0.89057 -3.06394,-0.72916 -5.848128,-1.08072 -9.522646,-1.20244 l -1.600118,-0.053 v -0.19513 -0.19514 l 1.912335,0.0163 c 3.180655,0.0271 6.508589,0.44541 9.561669,1.20191 1.02131,0.25307 2.28361,0.64834 2.65386,0.83103 0.56353,0.27806 0.72866,0.61252 0.41193,0.83437 -0.1966,0.1377 -1.37411,0.14916 -3.45606,0.0336 z m -69.1953008,0.89231 c 0,-0.44572 0.01092,-0.46845 0.55485,-1.15642 0.739771,-0.93564 1.287237,-1.49158 2.684412,-2.72597 1.4509078,-1.28185 1.7890378,-1.60984 2.2140638,-2.14765 1.217222,-1.54022 1.326142,-3.12589 0.399354,-5.81368 -0.927123,-2.68876 -2.3499098,-5.18382 -4.9871618,-8.74569 -0.768728,-1.03824 -0.865282,-1.20409 -0.863417,-1.48303 l 0.0021,-0.31407 0.232405,0.27319 c 0.127824,0.15026 0.651861,0.82153 1.164528,1.49172 2.917356,3.81376 4.9515858,7.86796 5.4390348,10.83996 0.144599,0.88163 0.103448,1.61493 -0.13386,2.38535 -0.379916,1.23338 -0.982307,1.96693 -3.2795748,3.99361 -1.301539,1.14823 -2.390512,2.30817 -2.944486,3.13637 l -0.482248,0.72097 z m 0,-2.45214 c 0,-0.33307 0.02652,-0.37177 0.722005,-1.05345 0.397103,-0.38923 1.155448,-1.08759 1.68521,-1.55192 1.8362995,-1.60948 2.3541108,-2.4951 2.3541108,-4.02625 0,-2.38263 -1.5118448,-5.81922 -4.2279468,-9.61058 -0.509811,-0.71164 -0.540831,-0.77894 -0.518307,-1.12443 l 0.02396,-0.36748 0.942418,1.35859 c 1.288031,1.85682 1.918692,2.88027 2.575524,4.1796 0.58382,1.15491 1.1900928,2.70069 1.4496248,3.69603 0.222622,0.85378 0.28045,2.39172 0.114239,3.03813 -0.267506,1.04036 -0.9416153,1.94666 -2.3725898,3.18979 -0.589428,0.51205 -1.448911,1.31052 -1.909966,1.77438 l -0.838277,0.84337 z m 0,-2.16217 c 0,-0.27071 0.04731,-0.33782 0.526869,-0.74733 0.882127,-0.75328 1.873219,-1.76003 2.136399,-2.17016 0.298989,-0.46594 0.537988,-1.27919 0.534244,-1.81792 -0.0065,-0.93534 -0.508702,-2.72082 -1.164607,-4.14053 -0.366909,-0.79417 -1.061422,-2.043 -1.617402,-2.90829 -0.367791,-0.57242 -0.415282,-0.69341 -0.413591,-1.05374 l 0.0018,-0.40707 0.488278,0.75207 c 1.334388,2.05529 2.229829,3.86904 2.738304,5.54654 0.766242,2.5279 0.464825,3.89331 -1.211402,5.48762 -0.839504,0.79848 -1.91609,1.75623 -1.974139,1.75623 -0.02466,0 -0.04486,-0.13384 -0.04486,-0.29742 z m 0,-1.83569 c 0,-0.22985 0.07992,-0.35072 0.532568,-0.80538 0.72882,-0.73207 0.980422,-1.2598 1.01792,-2.13506 0.05029,-1.17374 -0.289466,-2.43872 -1.131764,-4.21388 -0.379151,-0.79907 -0.422928,-0.94336 -0.402554,-1.32692 l 0.02286,-0.43037 0.601447,1.20985 c 0.939483,1.88982 1.290756,2.98301 1.36734,4.25524 0.04912,0.81594 -0.0451,1.34804 -0.348364,1.96737 -0.214711,0.4385 -0.93638,1.24596 -1.405772,1.57289 l -0.253678,0.17669 z M 43.65745,136.68904 c -0.562166,-0.23315 -0.514472,-0.87914 0.164807,-2.23225 1.346952,-2.68311 3.697706,-4.93981 7.618061,-7.31324 3.000877,-1.81678 7.616784,-3.67711 12.191782,-4.91363 1.071128,-0.2895 1.265713,-0.31902 2.068444,-0.31375 l 0.886087,0.006 -1.756228,0.46429 c -8.150408,2.15473 -14.078881,5.053 -17.94278,8.77176 -1.218506,1.17273 -2.002209,2.21436 -2.661378,3.53728 -0.732613,1.47031 -0.699307,1.62578 0.342763,1.59998 0.685494,-0.017 5.273877,-0.72544 7.265324,-1.12181 2.991381,-0.59539 7.065368,-1.80003 9.873893,-2.91962 1.230205,-0.49041 3.730705,-1.59382 4.644242,-2.04939 3.753546,-1.87184 8.280266,-4.83272 11.574346,-7.57066 0.83796,-0.69649 0.89685,-0.73099 1.20879,-0.70829 l 0.32792,0.0239 -0.77949,0.66944 c -3.57196,3.06766 -7.95151,5.95657 -12.175456,8.03138 -4.83804,2.37646 -9.448722,3.94473 -14.830355,5.04439 -2.045354,0.41794 -6.892861,1.13618 -7.560041,1.12014 -0.09204,-0.002 -0.299373,-0.0588 -0.460731,-0.1257 z m -37.9815268,-2.09483 0.0046,-1.95136 0.192826,0.58541 c 0.351746,1.06787 0.315333,2.36428 -0.08724,3.10594 -0.103424,0.19054 -0.11428,0.0191 -0.110162,-1.73999 z m 39.6213468,0.97903 c -0.437333,-0.34796 -0.25782,-0.89898 0.714957,-2.19457 1.764928,-2.35061 4.50915,-4.42692 8.482223,-6.41775 1.735004,-0.86937 3.328561,-1.48817 5.964904,-2.31622 2.23162,-0.70094 4.105219,-1.16114 9.087826,-2.23218 2.326583,-0.50012 2.341073,-0.50214 3.551473,-0.4962 l 1.21537,0.006 -2.10747,0.41616 c -5.786178,1.14258 -10.405914,2.29518 -13.303897,3.31923 -4.543362,1.60546 -8.307294,3.77355 -11.121625,6.40621 -0.862421,0.80675 -2.068008,2.40254 -2.193841,2.9039 -0.04402,0.17539 -0.02189,0.21247 0.153045,0.25637 0.537456,0.13489 3.038148,-0.32595 6.640478,-1.22376 5.228788,-1.30316 10.560892,-3.42964 15.474708,-6.17142 3.246682,-1.81156 7.646932,-4.85893 8.159932,-5.65111 0.12647,-0.19529 0.22878,-0.26583 0.38663,-0.26654 0.46829,-0.002 0.13038,0.57646 -0.78575,1.34536 -2.02829,1.70232 -5.952159,4.21631 -9.380849,6.01023 -3.274778,1.71339 -7.471447,3.40231 -11.224453,4.51721 -2.796143,0.83064 -7.431834,1.85084 -8.718469,1.91872 -0.719323,0.038 -0.79738,0.0278 -0.995192,-0.12961 z m -9.249951,-0.82632 c -1.208222,-0.3196 -3.170392,-1.37404 -5.053536,-2.7157 -0.88136,-0.62793 -2.980916,-2.23947 -3.629532,-2.7859 -0.913799,-0.76982 -3.995635,-3.21571 -5.073543,-4.02658 -1.233049,-0.92759 -3.067489,-2.17777 -4.175915,-2.84591 l -0.702491,-0.42345 0.41078,-0.0236 c 0.381632,-0.022 0.461934,0.008 1.13179,0.42165 2.121718,1.31032 4.202496,2.86096 7.902025,5.88872 2.535055,2.07474 4.928068,3.83727 6.501541,4.78858 1.058186,0.63977 1.423988,0.81113 2.452458,1.14885 0.788931,0.25906 1.024516,0.30358 1.606731,0.30358 2.097093,0 4.104485,-1.35339 6.029691,-4.06522 1.364848,-1.92252 2.908442,-5.06637 3.814984,-7.77003 0.22795,-0.67983 0.237096,-0.69293 0.500046,-0.71617 l 0.267848,-0.0237 -0.410001,1.1626 c -1.659512,4.70572 -3.977321,8.55675 -6.239301,10.36656 -0.77115,0.61699 -2.003749,1.24663 -2.73777,1.3985 -0.825845,0.17087 -1.748094,0.14146 -2.595805,-0.0828 z m 11.884288,-0.24791 c -0.522677,-0.12723 -0.572418,-0.63694 -0.128545,-1.31719 0.357761,-0.54828 1.750322,-1.91592 2.628555,-2.58153 2.359557,-1.78828 5.237934,-3.2373 8.817893,-4.43905 2.709018,-0.90939 7.291037,-2.08232 10.656728,-2.72796 1.254585,-0.24067 2.380425,-0.2516 2.523235,-0.0245 0.15917,0.25313 -0.0408,0.54914 -0.70676,1.04637 -0.70673,0.52764 -3.356552,2.14091 -4.850092,2.95285 -1.398812,0.76045 -4.806403,2.45224 -5.983967,2.97091 -0.558089,0.24582 -1.207894,0.53447 -1.444011,0.64146 -0.846451,0.38352 -3.109531,1.26395 -4.543862,1.76774 -2.931323,1.0296 -6.335182,1.86523 -6.969174,1.7109 z m 2.33992,-0.84069 c 3.192137,-0.7496 7.549932,-2.34862 11.436698,-4.19653 0.450765,-0.21431 1.065443,-0.50226 1.365954,-0.6399 1.172499,-0.53702 4.732887,-2.48141 6.448344,-3.52155 1.07098,-0.64938 2.33279,-1.51859 2.33279,-1.60697 0,-0.41419 -9.293698,1.79006 -12.73972,3.02157 -4.813359,1.72015 -7.795541,3.44986 -10.17912,5.90403 -0.774588,0.79754 -1.092761,1.23471 -0.982239,1.34961 0.101669,0.10569 1.135342,-0.0327 2.317293,-0.31026 z m 0.127745,-0.65704 c -0.212132,-0.13435 -0.0018,-0.48859 0.716046,-1.20642 1.80029,-1.80004 5.522547,-3.69999 10.241663,-5.22763 1.82636,-0.59122 4.700973,-1.30053 5.270621,-1.30053 0.719485,0 0.845171,0.34538 0.290761,0.799 -1.942264,1.58916 -9.068539,4.86402 -13.465263,6.18793 -1.002063,0.30174 -1.217184,0.30682 -1.175428,0.0278 0.0216,-0.14427 0.274532,-0.24877 1.859268,-0.76813 3.750734,-1.22923 8.035706,-3.12007 10.971285,-4.84132 1.066272,-0.6252 1.497971,-0.93694 1.297465,-0.93694 -0.0542,0 -0.738154,0.15991 -1.519893,0.35536 -3.838101,0.9596 -6.929784,2.07147 -9.560755,3.43838 -2.160473,1.12246 -3.438679,2.04542 -4.31028,3.11236 -0.359354,0.43988 -0.427044,0.47949 -0.61549,0.36015 z m -13.473348,0.17798 c -1.248567,-0.15998 -2.357403,-0.57944 -3.763756,-1.4238 -1.602711,-0.96226 -2.846265,-1.89785 -5.095426,-3.83355 -2.420582,-2.08323 -4.995325,-4.07252 -6.751714,-5.21648 -0.55809,-0.3635 -1.048076,-0.69109 -1.088861,-0.72799 -0.04236,-0.0383 0.09918,-0.0671 0.330118,-0.0671 0.384978,0 0.464875,0.0408 1.674268,0.85404 1.708533,1.14894 4.185568,3.09536 6.421596,5.04599 2.396609,2.09073 4.284535,3.40703 6.144579,4.28414 1.004285,0.47358 1.587618,0.61833 2.480442,0.61553 1.184595,-0.004 1.973818,-0.34344 3.239262,-1.39432 1.364069,-1.13278 2.643597,-2.8997 3.786952,-5.22947 0.548853,-1.11837 1.374778,-3.11903 1.667536,-4.03932 0.0482,-0.15151 0.516679,-0.19875 0.516679,-0.0521 0,0.0465 -0.206772,0.63481 -0.459497,1.30741 -1.399854,3.72562 -2.899234,6.23136 -4.812286,8.04222 -0.800513,0.75775 -1.190341,1.03471 -1.934622,1.37446 -0.774025,0.35333 -1.730839,0.54033 -2.35527,0.46032 z m -0.429298,-1.80231 c -1.608253,-0.18288 -3.943422,-1.62472 -7.490782,-4.62515 -2.567977,-2.17204 -3.962509,-3.26325 -5.488942,-4.29506 l -0.750568,-0.50736 0.389913,-0.0237 c 0.364127,-0.0221 0.432274,0.006 1.03057,0.42296 0.352365,0.24566 1.045229,0.75393 1.5397,1.12947 0.851072,0.64638 1.467835,1.15187 4.134901,3.38891 3.138197,2.63222 5.292649,3.90169 6.901345,4.06651 0.881959,0.0904 1.951591,-0.30464 2.896709,-1.06971 1.419779,-1.1493 3.36806,-4.19554 4.52195,-7.07028 0.321462,-0.80088 0.351252,-0.84541 0.580988,-0.86862 0.133184,-0.0135 0.242155,0.009 0.242155,0.0492 0,0.0405 -0.200117,0.56081 -0.444706,1.15625 -1.281563,3.11993 -3.078591,5.86279 -4.694388,7.1652 -0.680651,0.54864 -1.317664,0.86255 -2.058143,1.01423 -0.590145,0.12088 -0.761339,0.12965 -1.310702,0.0672 z m -0.312219,-1.78826 c -0.394779,-0.0758 -1.222686,-0.36941 -1.678172,-0.5952 -1.339179,-0.66384 -2.697607,-1.6599 -5.208093,-3.81882 -0.999246,-0.85932 -2.316417,-1.93654 -2.927051,-2.39384 l -1.11024,-0.83145 0.350574,-0.0238 c 0.322416,-0.0219 0.405316,0.0157 1.032184,0.46817 0.71083,0.51312 1.728839,1.35564 2.976485,2.46339 1.186235,1.05322 2.875814,2.38411 3.716805,2.92775 1.004996,0.64965 1.557896,0.92563 2.379181,1.18754 0.925455,0.29514 1.428029,0.24767 2.380661,-0.22486 0.812334,-0.40293 1.523392,-1.03988 2.282323,-2.04443 0.824317,-1.0911 1.743781,-2.72191 2.405138,-4.26588 0.212419,-0.4959 0.240577,-0.52686 0.479057,-0.52686 0.297012,0 0.318043,-0.0976 -0.258962,1.20133 -1.482969,3.33836 -3.351424,5.61536 -5.164471,6.29371 -0.438643,0.16411 -1.273666,0.25657 -1.655419,0.18329 z m -0.624434,-1.93062 c -1.37163,-0.39986 -3.438638,-1.82003 -6.207098,-4.26468 -0.559089,-0.49369 -1.173779,-1.02865 -1.365978,-1.1888 l -0.349456,-0.29118 0.362322,-0.001 c 0.34958,-10e-4 0.396244,0.028 1.326927,0.83826 3.040284,2.64689 4.708316,3.85311 6.001305,4.33979 0.700305,0.26359 1.127684,0.31221 1.611945,0.18336 1.321649,-0.35166 2.906497,-2.04458 4.049312,-4.32544 0.232134,-0.4633 0.42268,-0.88627 0.423436,-0.93993 8.85e-4,-0.0592 0.108775,-0.0976 0.274562,-0.0976 0.150254,0 0.273042,0.0263 0.272859,0.0585 -1.8e-4,0.0322 -0.259732,0.58647 -0.576781,1.23171 -0.685032,1.39415 -1.44283,2.45139 -2.414516,3.36863 -0.917759,0.86633 -1.449103,1.12699 -2.372517,1.16387 -0.416703,0.0166 -0.822677,-0.0128 -1.036322,-0.075 z m -0.267948,-1.8047 c -1.130856,-0.32146 -2.909427,-1.55301 -4.942515,-3.42239 l -0.56622,-0.52062 h 0.341099 c 0.31278,0 0.392176,0.0459 0.95649,0.55317 2.262389,2.03364 3.956933,3.05685 5.062477,3.05685 0.358646,0 0.590408,-0.0533 0.92937,-0.21363 0.827374,-0.39141 2.01583,-1.69037 2.62515,-2.86924 0.250392,-0.48443 0.292281,-0.5266 0.523403,-0.52686 0.292713,-3e-4 0.291631,0.007 -0.118874,0.78025 -0.694024,1.30772 -1.806784,2.52813 -2.711054,2.97335 -0.451205,0.22215 -0.636715,0.2686 -1.127195,0.28224 -0.322905,0.009 -0.760365,-0.0329 -0.972131,-0.0931 z m 0.05745,-1.67901 c -0.862477,-0.18146 -1.849976,-0.74953 -2.942728,-1.69283 l -0.616454,-0.53215 0.330614,-0.0243 c 0.30334,-0.0223 0.37673,0.0137 0.889647,0.43645 1.753894,1.44567 2.9453,1.75431 3.990054,1.03366 0.393,-0.27109 1.103086,-0.97712 1.274386,-1.2671 0.09921,-0.16794 0.187198,-0.2177 0.384961,-0.2177 0.140999,0 0.256363,0.0313 0.256363,0.0695 0,0.13514 -0.684324,0.98985 -1.119527,1.39828 -0.728543,0.68372 -1.613576,0.97168 -2.447316,0.79626 z m -0.49199,-1.70884 c -0.303656,-0.0985 -0.842183,-0.3874 -0.901739,-0.48376 -0.06392,-0.10343 0.551177,-0.0662 1.216484,0.0736 0.321723,0.0676 0.530689,0.0685 0.819571,0.004 0.213259,-0.0479 0.580932,-0.10248 0.817045,-0.12125 l 0.429301,-0.0341 -0.195137,0.15771 c -0.395637,0.31977 -0.729145,0.42929 -1.365954,0.44856 -0.343438,0.0104 -0.712247,-0.01 -0.819571,-0.0444 z"
       id="path1" /></g></svg>
