<?xml version="1.0" encoding="UTF-8" standalone="no"?>
<!-- Created with Inkscape (http://www.inkscape.org/) -->

<svg
   version="1.1"
   id="svg1"
   width="2426.2188"
   height="2164.2268"
   viewBox="0 0 2426.2187 2164.2268"
   sodipodi:docname="Gemini_Generated_Image_r18cd1r18cd1r18c.png"
   xmlns:inkscape="http://www.inkscape.org/namespaces/inkscape"
   xmlns:sodipodi="http://sodipodi.sourceforge.net/DTD/sodipodi-0.dtd"
   xmlns="http://www.w3.org/2000/svg"
   xmlns:svg="http://www.w3.org/2000/svg">
  <defs
     id="defs1" />
  <sodipodi:namedview
     id="namedview1"
     pagecolor="#ffffff"
     bordercolor="#000000"
     borderopacity="0.25"
     inkscape:showpageshadow="2"
     inkscape:pageopacity="0.0"
     inkscape:pagecheckerboard="0"
     inkscape:deskcolor="#d1d1d1">
    <inkscape:page
       x="0"
       y="0"
       width="2426.2188"
       height="2164.2268"
       id="page2"
       margin="0"
       bleed="0" />
  </sodipodi:namedview>
  <g
     inkscape:groupmode="layer"
     inkscape:label="Image"
     id="g1"
     transform="translate(-152,-284.3874)">
    <path
       style="fill:#005463;fill-opacity:1;stroke:none"
       d="m 574.00002,2448.0552 c -5.13334,-0.5805 -25.83334,-1.4447 -46,-1.9204 -20.16667,-0.4757 -39.06667,-1.131 -42.00001,-1.4561 -2.93333,-0.3251 -10.43333,-0.9346 -16.66666,-1.3544 -32.98941,-2.2217 -82.36662,-10.1799 -95.66667,-15.4187 -3.17834,-1.2519 -4.289,-7.2536 -1.51354,-8.1788 1.08478,-0.3616 1.05358,-2.5807 -0.11545,-8.2119 -1.41602,-6.8209 -1.33823,-8.0077 0.67035,-10.2272 4.75236,-5.2513 27.45645,-10.4886 69.92611,-16.1305 16.48211,-2.1895 30.11451,-4.128 30.29422,-4.3077 0.17971,-0.1797 -1.11045,-8.0944 -2.86703,-17.5881 -3.94837,-21.3396 -11.9513,-77.9816 -14.3072,-101.2613 -1.28829,-12.7302 -1.69209,-40.8804 -1.52052,-106 0.12849,-48.7667 0.6127,-90.4667 1.07602,-92.6667 0.46333,-2.2 1.19715,-37.6 1.63072,-78.6667 0.93868,-88.9093 -0.52978,-122.0041 -9.61375,-216.6666 -2.1654,-22.5654 -4.65048,-70.7766 -4.65627,-90.3334 -0.002,-6.7833 -0.15366,-12.3638 -0.33699,-12.4011 -0.18334,-0.037 -3.03334,-0.3509 -6.33334,-0.6971 -3.3,-0.3461 -11.90676,-1.2564 -19.12614,-2.0229 -32.51941,-3.4525 -85.64369,-21.3133 -107.07447,-35.9991 -7.61223,-5.2165 -39.90979,-31.8741 -43.87424,-36.2128 C 250.00233,1572.9078 220.65822,1533.812 214.63601,1522 l -2.71916,-5.3333 4.93039,-4.3333 c 4.03259,-3.5443 6.04321,-4.3324 11.04158,-4.3284 7.88252,0.01 12.49226,2.8898 21.53312,13.4688 20.27938,23.7296 48.25805,47.8488 72.80337,62.7605 27.04684,16.4316 47.15081,25.5277 93.7747,42.4288 13.56667,4.9179 25.63501,9.3634 26.81854,9.879 1.76713,0.7697 2.313,-0.2773 3.05305,-5.856 0.49564,-3.7364 1.58032,-8.284 2.4104,-10.1058 2.33643,-5.1279 9.33673,-8.8091 15.83315,-8.3259 l 5.54469,0.4123 5.13449,24.6667 c 9.42651,45.2859 21.34629,109.5091 24.49912,132 0.4626,3.3 1.67696,11.4 2.69857,18 1.02161,6.6 2.2087,15 2.63798,18.6667 0.42927,3.6666 1.61747,12.9666 2.64044,20.6666 1.02297,7.7 2.27764,19.8591 2.78817,27.0203 0.93802,13.1575 3.26383,19.33 3.28764,8.7251 0.0216,-9.6469 2.95037,-58.5907 4.65214,-77.7454 0.32576,-3.6666 0.92205,-11.7666 1.32509,-18 0.40304,-6.2333 1.04176,-16.1333 1.41937,-22 3.64162,-56.5768 10.40712,-98 16.00599,-98 3.71961,0 4.43221,3.9729 8.07158,45 0.47162,5.3167 1.00453,9.6667 1.18424,9.6667 0.17971,0 2.65219,-0.8145 5.49439,-1.81 11.80496,-4.1346 30.65469,-5.6436 94.50097,-7.5652 24.2,-0.7284 51.8,-1.7581 61.33333,-2.2883 26.53125,-1.4756 100.47996,-0.9689 120.66667,0.8269 29.79696,2.6507 45.23334,6.8833 47.60046,13.0519 1.23664,3.2226 -3.81805,6.7159 -14.09432,9.7405 -12.05707,3.5488 -25.52664,5.3362 -55.50614,7.3657 -6.6,0.4468 -15.3,1.0643 -19.33333,1.3722 -88.72173,6.7722 -202.84589,3.964 -228.66667,-5.6266 -5.95953,-2.2135 -6.73738,-2.9671 -7.33334,-7.105 -0.38717,-2.6882 -1.42724,-4.6288 -2.48081,-4.6288 -1.49845,0 -1.81515,8.9328 -1.81993,51.3334 -0.003,28.2333 -0.50042,58.5333 -1.10498,67.3333 -2.1077,30.6798 -3.83125,81.7073 -4.54863,134.6667 -0.69841,51.5587 -1.39987,83.967 -2.75608,127.3333 -0.96744,30.9351 -1.72639,45.1014 -5.21456,97.3333 -0.36731,5.5 -0.68444,32.15 -0.70475,59.2223 -0.0203,27.0722 -0.34078,48.9183 -0.71215,48.547 -1.64396,-1.644 -8.32123,-65.1292 -12.66724,-120.4359 -1.49826,-19.0667 -2.97138,-36.7667 -3.2736,-39.3334 -0.30222,-2.5666 -0.97679,-11.8666 -1.49904,-20.6666 -1.5991,-26.9449 -2.88538,-11.9896 -3.72704,43.3333 -0.71192,46.7952 -2.19319,85.5226 -4.20732,110 -2.99565,36.4054 -10.38792,98.1383 -12.0794,100.8752 -0.30662,0.4961 -0.93314,4.3471 -1.39227,8.5577 -0.71853,6.5894 -0.54551,7.5446 1.24234,6.8586 11.59651,-4.45 217.2018,-5.7233 258.2788,-1.5995 3.3,0.3313 21.9,0.9024 41.33334,1.2691 31.88015,0.6017 57.96533,1.3452 94.66667,2.6986 89.68259,3.307 716.29557,3.3161 776.66667,0.011 3.6667,-0.2007 45.0667,-0.7411 92,-1.2008 46.9334,-0.4597 94.3334,-1.1221 105.3334,-1.472 51.0832,-1.625 96.5942,-2.1466 205.7453,-2.358 117.6568,-0.2279 117.7446,-0.2301 116.89,-2.9341 -3.908,-12.3647 -4.7637,-19.1488 -6.6483,-52.706 -0.4325,-7.7 -1.0205,-16.7123 -1.3067,-20.0274 -1.6272,-18.85 -2.6803,-50.0083 -2.6803,-79.3059 0,-18.3334 -0.4026,-33.6394 -0.8946,-34.0135 -1.7909,-1.3618 -48.9102,-1.4006 -66.3972,-0.055 -27.6013,2.1244 -95.1178,3.4188 -168.7082,3.2346 -66.4114,-0.1663 -84.6907,-1.1175 -98.6667,-5.1346 -3.6667,-1.0539 -9.9784,-2.8188 -14.026,-3.9219 -8.9381,-2.436 -13.3073,-6.1804 -13.3073,-11.4044 0,-5.6859 6.0387,-9.3882 18.458,-11.3164 5.6147,-0.8717 11.8327,-2.2662 13.8177,-3.0988 4.3583,-1.8282 43.4012,-7.2787 64.3708,-8.9864 5.8555,-0.4768 11.1103,-1.1537 11.6773,-1.5041 0.5669,-0.3503 0.7272,-2.2486 0.3562,-4.2184 -0.8901,-4.7265 -2.1201,-18.9301 -2.5038,-28.9148 l -0.3075,-8 -11.2677,-0.3403 c -18.0871,-0.5464 -22.0358,-1.3951 -26.6811,-5.7345 -3.4144,-3.1894 -4.0403,-4.5975 -3.3198,-7.468 1.0271,-4.0924 -0.7617,-5.7394 -6.2668,-5.7701 -3.5242,-0.02 -3.6706,0.2517 -3.7687,6.9796 -0.056,3.85 -0.2765,7.9 -0.4898,9 -0.2133,1.1 -0.7859,7.7 -1.2726,14.6667 -1.1624,16.6423 -1.8675,19.7627 -4.823,21.3444 -8.5164,4.5579 -10.6505,-0.09 -16.2283,-35.3444 -3.39,-21.4267 -4.1248,-70.529 -1.7159,-114.6667 0.8805,-16.1333 1.9919,-37.7333 2.4698,-48 0.7773,-16.6976 2.2817,-39.6916 4.1001,-62.6667 2.3547,-29.7511 2.4139,-38.7847 0.281,-42.9092 -2.0751,-4.0128 -2.0233,-4.2946 1.7468,-9.4991 3.6644,-5.0585 4.3794,-5.4164 12.5715,-6.2937 4.7774,-0.5116 17.8608,-0.6643 29.0743,-0.3392 11.2135,0.3251 27.8881,0.1369 37.0548,-0.4182 9.1667,-0.5551 25.3667,-1.406 36,-1.8907 10.6333,-0.4848 40.3333,-2.9278 66,-5.4288 25.6667,-2.501 51.8639,-4.5489 58.216,-4.5509 14.1639,0 29.6834,2.8393 39.1506,7.1735 7.7019,3.5261 15.3001,12.2299 15.3001,17.5264 0,1.6336 0.9395,3.7498 2.0879,4.7029 4.7603,3.9507 6.1098,8.9278 4.6022,16.9745 -2.5325,13.5181 -1.3944,48.3471 3.1557,96.5763 2.9978,31.7755 3.7512,46.7262 3.7445,74.3097 -0.01,33.0549 -0.8494,51.6647 -3.0777,68.0665 -2.2818,16.7968 -7.9445,40.2832 -11.3172,46.9387 -4.8423,9.5559 -4.6355,9.8773 7.4967,11.6513 5.8806,0.8598 14.1306,2.7141 18.3333,4.1206 4.2027,1.4065 8.9398,2.5719 10.5269,2.59 7.4616,0.085 20.3798,32.1003 27.72,68.6994 10.7371,53.5359 15.4124,121.4941 10.0303,145.7953 -0.8683,3.9207 -1.0666,7.6061 -0.4407,8.1897 0.6259,0.5836 13.2233,1.4851 27.994,2.0032 l 26.856,0.9421 -3.0406,-11.7985 c -9.0454,-35.0984 -10.6217,-68.62 -7.8592,-167.1318 0.5655,-20.1666 1.0386,-42.3666 1.0512,-49.3333 0.025,-13.6662 -1.6555,-64.9429 -2.5559,-78 -0.5335,-7.736 -1.0092,-18.781 -2.7562,-64 -0.4533,-11.7333 -1.0695,-23.1333 -1.3692,-25.3333 -1.1378,-8.3505 -1.6805,-132.4888 -0.6237,-142.6667 0.6091,-5.8667 1.5199,-17.2667 2.0239,-25.3333 1.4334,-22.9393 3.3074,-44.4173 4.828,-55.3334 0.7662,-5.5 2.854,-20.8 4.6396,-34 1.7857,-13.2 4.4073,-31.2793 5.826,-40.1762 2.6573,-16.6651 9.4386,-41.0235 13.2211,-47.4905 3.1061,-5.3103 8.9396,-4.9877 15.3092,0.8465 l 4.9272,4.5132 v 13.4868 c 0,12.6678 0.1645,13.4869 2.7087,13.4869 11.6961,0 77.8849,-30.7175 117.2913,-54.4335 12.446,-7.4904 28.4458,-17.843 29.3333,-18.9799 0.3667,-0.4698 2.0622,-1.5894 3.7679,-2.4881 1.7056,-0.8987 6.9293,-4.8815 11.6082,-8.8508 l 8.5071,-7.2168 1.3843,4.9846 c 2.3113,8.3223 1.6752,10.5019 -5.6159,19.2419 -3.8584,4.6251 -9.1892,11.1092 -11.8464,14.4092 -9.3074,11.559 -29.8144,31.022 -43.5616,41.3439 -17.8884,13.4313 -48.4382,28.6123 -70.8268,35.1957 -10.556,3.104 -30.4387,6.3503 -35.97,5.873 l -4.7801,-0.4125 -0.121,94 c -0.1234,95.8143 0.4147,118.4112 4.1436,174 2.5569,38.1173 4.6212,77.2981 5.2335,99.3333 0.3973,14.3 1.0996,38.6 1.5605,54 0.9199,30.7342 -0.7345,70.1331 -4.8708,116 -1.455,16.1333 -2.886,30.8333 -3.1801,32.6667 -0.2941,1.8333 -0.9318,6.9333 -1.4171,11.3333 -2.5364,22.9962 -14.9322,87.0808 -18.787,97.1263 -0.5662,1.4757 1.5135,2.0674 9.6921,2.7575 35.2111,2.9712 55.9907,6.4795 80.5661,13.6023 9.0824,2.6324 17.5994,5.8274 18.9266,7.1001 3.0173,2.8934 1.865,8.7463 -2.2435,11.3964 -2.6666,1.72 -24.0202,7.3 -38.8362,10.1484 -19.124,3.6767 -74.6476,8.5893 -111.6053,9.8746 -13.4171,0.4666 -26.7947,1.2156 -29.7281,1.6643 -2.9333,0.4488 -202.4333,0.8915 -443.3333,0.9838 -240.9,0.092 -445.8,0.5686 -455.3334,1.0583 -9.5333,0.4897 -66.5333,1.2468 -126.6666,1.6824 -60.1334,0.4356 -115.6334,1.0388 -123.3334,1.3403 -7.7,0.3016 -47,0.8711 -87.3333,1.2657 -40.33334,0.3946 -88.33334,1.0076 -106.66667,1.3622 -18.33334,0.3547 -52.23334,0.9684 -75.33334,1.3638 -23.1,0.3953 -47.1,0.9944 -53.33333,1.3312 -21.64414,1.1694 -162.05309,1.7137 -171.33334,0.6642 z M 2008.0001,2143.4104 c 19.4333,-0.2158 37.636,-0.4714 40.4505,-0.568 l 5.1172,-0.1757 -0.927,-5.4866 c -0.5098,-3.0177 -0.9586,-12.3872 -0.9973,-20.8212 l -0.07,-15.3346 -33.2912,0.9644 c -18.3102,0.5303 -34.2641,1.154 -35.4532,1.3858 -1.1891,0.2318 -10.887,0.4674 -21.5509,0.5235 l -19.389,0.1021 0.038,20.6607 0.038,20.6607 15.351,-0.7594 c 8.443,-0.4177 31.2509,-0.936 50.6843,-1.1517 z m 108.8392,-1.7437 c -2.023,-9.2142 -4.7185,-33.0949 -5.3621,-47.504 -0.389,-8.7105 -0.9728,-16.1027 -1.2972,-16.4271 -0.8507,-0.8508 -23.5133,3.7961 -23.5133,4.8214 0,0.4722 2.5435,1.7401 5.6521,2.8175 8.0028,2.7736 8.039,5.7885 0.1128,9.3994 -3.5218,1.6043 -9.8595,3.5738 -14.084,4.3766 -7.3379,1.3945 -7.6805,1.6395 -7.6734,5.488 0,2.2155 0.6139,6.2117 1.3552,8.8804 0.7412,2.6687 1.514,9.9948 1.7172,16.2803 0.2033,6.2854 0.6434,11.6955 0.9782,12.0225 0.3347,0.3269 8.7086,1.0227 18.6086,1.5461 9.9,0.5235 18.25,1.1799 18.5556,1.4587 0.3055,0.2788 1.7255,0.5069 3.1554,0.5069 2.1425,0 2.4582,-0.6451 1.7949,-3.6667 z m -54.381,-65.6828 4.4581,-5.4353 -1.5216,-13.6076 c -3.3005,-29.5169 -3.8054,-40.0279 -3.2645,-67.9676 0.509,-26.2994 1.8265,-45.895 3.999,-59.4812 l 0.7943,-4.9674 -10.1276,-2.1978 c -13.138,-2.851 -22.7428,-9.0342 -21.5314,-13.861 0.4494,-1.7904 0.3487,-3.9777 -0.2237,-4.8606 -0.5725,-0.8829 -1.6408,-3.9172 -2.3742,-6.7428 l -1.3333,-5.1374 -31.4993,-0.3863 c -17.3246,-0.2124 -32.7241,-0.775 -34.2211,-1.2501 -3.2009,-1.0159 -3.8287,-0.188 -6.2449,8.2353 -6.2796,21.8925 -8.928,24.5737 -25.3306,25.6441 l -10.7041,0.6985 0.6667,18 c 1.3624,36.7859 0.2,78.2057 -2.8053,99.9635 -2.6899,19.4733 -2.7204,20.7071 -0.5444,22.0001 5.7133,3.3949 8.8879,6.6126 10.6244,10.7685 l 1.8743,4.4857 36.9944,0.071 c 20.3469,0.039 37.1716,0.2483 37.3882,0.4649 0.2166,0.2166 11.6605,0.5298 25.4311,0.6961 l 25.0373,0.3024 z m -169.5314,-13.3172 h 15.42 l -0.8279,-6.3333 c -0.8162,-6.2436 -1.5755,-23.796 -2.783,-64.3333 -0.5809,-19.5014 -3.335,-65.6372 -3.9585,-66.3106 -0.1581,-0.1709 -6.3977,-0.711 -13.8658,-1.2005 l -13.5783,-0.8898 -0.063,31.2004 c -0.035,17.1603 -0.2802,33.9005 -0.5454,37.2005 -0.2652,3.3 -0.8594,18 -1.3203,32.6666 -0.461,14.6667 -1.1773,29.1741 -1.5919,32.2387 -0.9681,7.157 -0.024,8.6958 4.3214,7.0437 1.8551,-0.7053 10.3119,-1.2824 18.7928,-1.2824 z m 215.0732,-1.091 4.6666,-0.909 1.4899,-18.6666 c 1.2217,-15.3056 1.229,-66.3587 0.015,-108.6667 l -0.172,-6 -12.8274,-0.3795 -12.8273,-0.3796 -0.9729,21.4668 c -0.8495,18.745 -0.5847,39.0878 1.3269,101.959 0.2453,8.0666 0.4883,14.7127 0.54,14.769 0.1197,0.1303 12.6293,-1.999 18.7607,-3.1934 z m -209.6667,-161.9206 c 1.0805,-0.8524 1.6667,-5.0016 1.6667,-11.7973 0,-9.6761 0.2965,-10.8142 3.8556,-14.7976 3.8192,-4.2744 3.9576,-4.3114 14.6298,-3.907 5.9258,0.2246 12.5429,0.02 14.7048,-0.4551 3.8487,-0.8453 3.9406,-1.0633 4.4019,-10.4473 0.2591,-5.2713 0.393,-9.748 0.2975,-9.9483 -0.1859,-0.3899 -6.4812,-0.9865 -24.5563,-2.3269 -15.2537,-1.1313 -32.7531,-2.9195 -39.6667,-4.0535 -3.3553,-0.5504 -5.6666,-0.4109 -5.6666,0.3421 0,0.6994 0.8722,7.5261 1.9382,15.1704 1.0661,7.6443 2.3539,20.9455 2.8619,29.5582 l 0.9237,15.6595 11.4714,-0.8411 c 6.3093,-0.4626 12.2214,-1.4328 13.1381,-2.1561 z m 216.7485,-16.59 c 0.5253,-10.7588 1.8533,-20.7604 3.5935,-27.065 1.5182,-5.5 3.1152,-11.3916 3.5489,-13.0924 l 0.7886,-3.0923 -21.1731,0.7206 c -11.6452,0.3964 -27.6231,1.1151 -35.5064,1.5972 l -14.3333,0.8766 0.018,8.1618 c 0.026,11.8537 0.8689,13.9901 5.7953,14.6956 13.5109,1.935 17.4945,2.9762 17.1865,4.4922 -0.1834,0.9024 0.1841,1.6407 0.8166,1.6407 0.6325,0 3.4825,1.8488 6.3334,4.1085 4.9076,3.89 5.2188,4.5815 5.85,13 l 0.6666,8.8915 6,0.6666 c 3.3,0.3667 9.0559,0.8459 12.791,1.065 l 6.7909,0.3984 z m -181.6609,14.2214 c 1.788,-0.9569 2.5791,-2.7972 2.5791,-6 v -4.6198 h -8.6667 c -8.4148,0 -8.6667,0.1 -8.6667,3.421 0,5.9467 2.2915,8.579 7.4679,8.579 2.5891,0 5.868,-0.6211 7.2864,-1.3802 z m 137.2457,1.0381 c 0,-0.1882 0.5581,-2.2882 1.2403,-4.6667 l 1.2402,-4.3245 h -7.145 c -8.3972,0 -12.1911,2.5766 -9.9526,6.7593 1.0771,2.0125 2.8216,2.574 7.9974,2.574 3.6408,0 6.6197,-0.1539 6.6197,-0.3421 z m -41.746,-33.3245 c 0.5928,-0.9167 1.7177,-5.478 2.4996,-10.1362 1.6394,-9.767 1.1934,-10.2863 -7.7699,-9.0474 -3.1077,0.4296 -18.5503,1.1651 -34.317,1.6346 -15.7667,0.4695 -29.1814,1.3299 -29.8106,1.9119 -0.6338,0.5864 -0.5386,3.0452 0.2136,5.5143 0.7466,2.4509 1.7228,6.1061 2.1693,8.1228 l 0.8118,3.6666 h 32.5626 c 24.5863,0 32.8266,-0.4082 33.6406,-1.6666 z m -248.0949,501.533 c -5.3253,-1.4728 -10.1591,-6.3616 -10.1591,-10.2747 0,-1.8023 1.1421,-5.1477 2.538,-7.4343 1.396,-2.2865 3.2514,-6.5756 4.1234,-9.5312 1.035,-3.5086 5.4061,-9.6572 12.5931,-17.714 6.8515,-7.6807 13.166,-16.4757 16.7235,-23.2928 7.1452,-13.6921 9.138,-16.1263 11.5577,-14.1181 0.9887,0.8206 1.8003,0.9685 1.8036,0.3287 0.01,-1.8035 9.8001,-1.8835 10.9406,-0.089 0.5569,0.876 1.0218,8.4947 1.033,16.9303 0.041,30.9408 -9.9082,50.5983 -30.8857,61.0225 -9.4115,4.6769 -14.5906,5.7432 -20.2681,4.173 z m -98.1591,-2.65 c -14.0706,-8.5739 -29.1349,-33.2763 -34.8923,-57.2164 -1.0069,-4.1867 -1.7312,-14.4846 -1.6879,-24 0.097,-21.4067 1.6546,-25.9302 10.6893,-31.0477 6.3065,-3.5723 7.1701,-3.6999 22.5576,-3.3334 13.6117,0.3242 15.9538,0.083 15.6908,-1.6189 -0.1701,-1.1 -1.4542,-6.5 -2.8537,-12 -2.9207,-11.4786 -5.6401,-31.728 -9.4899,-70.6666 -3.5705,-36.1129 -4.8874,-60.8545 -5.216,-98 -0.1492,-16.8667 -0.5012,-33.9667 -0.7821,-38 -2.3508,-33.7499 -3.8282,-165.6203 -2.2032,-196.6667 0.8444,-16.1333 1.8493,-36.8333 2.2332,-46 1.4132,-33.7442 2.888,-42.635 7.6225,-45.9512 1.6088,-1.1268 4.2762,-2.0488 5.9275,-2.0488 8.2483,0 10.4623,19.4545 11.7597,103.3333 0.397,25.6667 0.9798,49.9667 1.2951,54 0.3154,4.0334 0.8679,13.9334 1.2278,22 0.36,8.0667 1.2506,21.5667 1.9791,30 0.7286,8.4334 1.9781,24.9334 2.7767,36.6667 0.7987,11.7333 1.8011,26.1333 2.2277,32 1.4924,20.5231 2.7027,70.9239 2.4174,100.6667 -0.3208,33.4482 -4.0517,75.231 -9.5245,106.6666 -1.8512,10.6334 -3.4533,20.8334 -3.5603,22.6667 l -0.1945,3.3333 14,0.385 c 13.3696,0.3677 43.3826,-3.1129 56.4817,-6.5501 4.9076,-1.2877 5.1069,-1.5493 4.2596,-5.5929 -0.4888,-2.3331 -3.1976,-18.042 -6.0195,-34.9086 -6.264,-37.4402 -7.3919,-50.1289 -8.7903,-98.8866 -0.4241,-14.7877 -0.9981,-28.8877 -1.2756,-31.3334 -0.2775,-2.4457 -1.1378,-20.6467 -1.9119,-40.4467 -1.3925,-35.6162 -1.6993,-42.3407 -3.7118,-81.3333 -2.1721,-42.0872 -0.9528,-116.7449 2.402,-147.0688 1.9641,-17.7526 7.0492,-42.3308 10.2937,-49.7521 2.0908,-4.7826 3.5336,-6.3153 6.4737,-6.8773 4.6316,-0.8854 5.2753,-0.5144 7.8945,4.5506 1.6398,3.1711 2.1715,9.9594 2.5257,32.2488 0.5081,31.9795 1.5881,55.6203 4.7311,103.5654 1.8556,28.3048 3.8077,52.0658 5.258,64 4.2246,34.7628 9.3848,118.2744 10.2984,166.6667 0.5574,29.5263 0.2195,43.5005 -1.5156,62.6667 -1.8929,20.91 -5.5921,47.7251 -8.0152,58.1019 -0.4995,2.1392 0.3934,3.2645 3.9273,4.9497 8.9672,4.2762 12.5891,18.815 7.372,29.5922 -3.5204,7.2721 -9.3702,11.4952 -20.6778,14.9277 -12.3053,3.7354 -58.9167,3.3066 -82.6666,-0.7605 -9.5334,-1.6325 -19.1334,-3.0829 -21.3334,-3.223 l -4,-0.2547 0.4385,11.8098 c 0.6888,18.5539 7.7508,41.4668 17.1653,55.693 2.341,3.5376 3.1228,6.3201 2.818,10.0298 -0.3957,4.8161 -0.7108,5.1566 -5.0884,5.4974 -2.9478,0.2295 -6.3856,-0.6841 -9.3334,-2.4803 z m -733.33334,-2.5759 c -22.42765,-2.101 -43.83209,-17.0307 -51.45039,-35.887 -4.95449,-12.263 -5.06851,-26.9706 -0.29067,-37.4916 3.93261,-8.6598 9.45921,-15.3179 17.12331,-20.6291 l 5.48999,-3.8046 -0.37592,-11.8749 c -0.45565,-14.3933 -0.65703,-14.2123 16.9842,-15.2648 10.8145,-0.6452 12.5338,-1.0613 11.84133,-2.8659 -0.85408,-2.2257 -5.26784,-30.8198 -6.50715,-42.1559 -2.5176,-23.0288 -4.7826,-73.1365 -5.54487,-122.6667 -0.4853,-31.5333 -1.34978,-71.4333 -1.92107,-88.6666 -1.39746,-42.1554 -1.285,-159.3533 0.17913,-186.6667 1.05087,-19.604 4.00557,-50.6953 5.31764,-55.9557 0.28084,-1.1259 -1.20935,-2.8269 -3.5122,-4.0091 -19.17835,-9.8451 -27.88519,-16.7284 -34.80643,-27.5168 -6.95023,-10.8336 -10.3907,-23.1799 -10.3621,-37.1851 0.0298,-14.6149 2.94321,-24.2671 9.52296,-31.55 2.57741,-2.8529 4.36812,-5.5052 3.97935,-5.894 -0.38877,-0.3888 -36.62291,-0.7824 -80.52032,-0.8748 -43.8974,-0.092 -88.21346,-0.5905 -98.48013,-1.1071 -10.26667,-0.5166 -31.26667,-1.3162 -46.66667,-1.777 -15.4,-0.4608 -29.8,-1.0855 -32,-1.3882 -2.2,-0.3028 -12.4,-0.9037 -22.66666,-1.3353 -25.30948,-1.0641 -52.80893,-3.583 -80.66667,-7.3891 -5.5,-0.7514 -15.1,-1.9631 -21.33334,-2.6927 -6.23333,-0.7296 -14.03333,-1.9002 -17.33333,-2.6013 -12.08619,-2.5677 -34.9443,-5.5693 -36.84829,-4.8386 -1.07695,0.4132 -3.27667,-0.084 -4.88824,-1.1056 -1.61158,-1.0213 -11.03014,-4.2827 -20.93014,-7.2476 -9.9,-2.9649 -26.4,-8.5003 -36.66667,-12.3008 -10.26666,-3.8006 -24.96667,-9.1212 -32.66667,-11.8236 -7.7,-2.7025 -15.28528,-5.6112 -16.85618,-6.4639 -4.0485,-2.1975 -9.81048,-9.3727 -9.81048,-12.2167 0,-1.321 -1.29264,-3.26 -2.87252,-4.309 l -2.87252,-1.9073 3.66588,-6.2554 c 2.01624,-3.4404 4.16844,-6.2553 4.78267,-6.2553 0.61423,0 1.49765,-1.2 1.96315,-2.6667 0.77086,-2.4288 1.99814,-2.663 13.75652,-2.6255 11.50983,0.037 23.67652,1.1156 35.57682,3.1548 8.56603,1.4678 21.66598,3.3468 28.66667,4.1117 4.03333,0.4407 10.33333,1.3628 14,2.0493 3.66666,0.6864 8.16666,1.5026 10,1.8138 1.83333,0.3112 8.43333,1.5487 14.66666,2.7501 16.48862,3.1777 79.02825,11.7083 102.66667,14.0039 34.96417,3.3956 81.20424,6.4315 117.8739,7.739 60.68557,2.1639 334.58532,0.9408 362.12612,-1.6171 3.3,-0.3065 14.4,-0.9121 24.6667,-1.3459 10.2666,-0.4338 31.5666,-1.6646 47.3333,-2.7353 15.7667,-1.0706 37.9667,-2.5658 49.3333,-3.3226 126.3105,-8.4103 195.6753,-14.7329 233.3334,-21.2684 58.6704,-10.1822 92.4699,-17.0517 140.96,-28.6493 45.0571,-10.7765 56.3387,-14.0423 108.3733,-31.3721 44.5608,-14.8406 80,-30.0944 80,-34.4338 0,-1.1589 0.9164,-1.4748 2.6667,-0.9193 1.6417,0.5211 2.6667,0.2396 2.6667,-0.7322 0,-1.054 -1.2187,-1.276 -3.6667,-0.6681 -14.4971,3.5998 -30.2243,1.4422 -44.4056,-6.0919 -11.0795,-5.8861 -28.7937,-20.7255 -38.9418,-32.6219 -20.8529,-24.4452 -32.5523,-64.5866 -23.927,-82.0952 3.2668,-6.6314 8.9932,-10.4573 15.6518,-10.4573 5.4312,0 11.9505,7.5928 13.971,16.2715 3.3137,14.2338 16.3909,35.7187 30.2906,49.7652 8.5576,8.648 29.4279,25.6333 41.9193,34.116 l 8.1414,5.5288 9.4835,-2.2334 c 23.775,-5.599 22.499,-4.8801 41.4166,-23.3342 10.2283,-9.9776 18.9445,-17.3784 21.106,-17.921 4.9761,-1.2489 8.4411,0.875 9.421,5.7745 0.4958,2.4789 2.04,4.6214 3.9622,5.4972 2.7917,1.272 3.1584,2.3531 3.2258,9.5106 0.081,8.6241 -3.1788,20.0654 -7.4302,26.0763 -1.4063,1.9883 -4.5214,8.3487 -6.9224,14.1341 -11.1297,26.8171 -38.5456,51.3057 -84.3714,75.3628 -23.0511,12.1011 -60.8545,27.8398 -78.9242,32.8585 -4.4,1.2221 -10.8727,3.6421 -14.3838,5.3779 -3.5111,1.7357 -9.5111,3.4504 -13.3333,3.8104 -3.8222,0.3599 -12.0495,2.1872 -18.2829,4.0607 -17.0898,5.1363 -48.5615,13.2967 -74.6666,19.3607 -12.8334,2.981 -24.2334,5.6667 -25.3334,5.9682 -4.2916,1.1763 -47.9779,10.0344 -59.3333,12.0308 -23.8063,4.1854 -57.2296,9.5452 -66,10.5839 -3.3,0.3908 -13.2,1.6052 -22,2.6985 -16.8241,2.0903 -51.7208,5.3286 -72,6.6813 -6.6,0.4402 -14.7,1.0561 -18,1.3685 -3.3,0.3125 -11.4,0.9139 -18,1.3365 -18.3985,1.178 -28.6937,1.94 -36,2.6646 -8.4762,0.8405 -57.1444,4.2908 -74.6667,5.2934 -7.3333,0.4196 -19.0333,1.3238 -26,2.0092 -6.9666,0.6855 -25.8666,1.6185 -42,2.0735 -16.1333,0.4549 -30.7331,1.0472 -32.4439,1.3161 -1.7109,0.269 -26.3109,0.8547 -54.66671,1.3015 -28.35581,0.4469 -52.95886,1.1023 -54.67343,1.4565 -2.98691,0.617 -3.02762,0.781 -0.97271,3.9171 1.76934,2.7004 1.98909,5.4866 1.25565,15.9207 -0.86816,12.3505 -0.78937,12.8499 3.35504,21.2684 4.93343,10.0212 12.45025,17.2066 23.68189,22.6376 10.71715,5.1823 15.65869,9.1263 20.66938,16.4971 2.35306,3.4613 5.0695,6.7731 6.03655,7.3596 3.2103,1.9468 2.09125,9.9429 -1.98902,14.2125 -3.33765,3.4925 -4.7588,3.9649 -13.00001,4.3212 l -9.2527,0.4 0.41401,40 c 0.2277,22 0.96965,51.7 1.64878,66 4.86281,102.3932 5.87134,121.6227 7.93693,151.3334 0.6628,9.5333 1.58135,24.2333 2.04124,32.6666 0.45988,8.4334 1.08097,16.8334 1.38019,18.6667 2.755,16.8799 3.33701,129.4657 0.80989,156.6667 -2.10233,22.6286 -2.95807,30.3024 -3.60335,32.313 -1.07006,3.334 5.21458,4.4311 30.16419,5.2656 24.71409,0.8267 25.50109,0.7728 24.76909,-1.6958 -1.633,-5.5074 -3.4465,-19.1769 -4.2297,-31.8828 -0.4521,-7.3334 -1.0475,-15.7334 -1.3231,-18.6667 -2.1144,-22.5 -3.4635,-310.4049 -1.6183,-345.3333 2.2976,-43.4907 4.9162,-71.7284 8.2645,-89.1173 1.1068,-5.7479 2.0123,-10.6279 2.0123,-10.8445 0,-0.2167 -1.1389,-0.6917 -2.5309,-1.0557 -1.392,-0.364 -3.5506,-2.2183 -4.797,-4.1205 -2.1553,-3.2893 -2.1353,-3.6725 0.4073,-7.827 1.4705,-2.4026 3.6577,-9.6675 4.8605,-16.1441 1.2028,-6.4767 4.2083,-17.3598 6.6788,-24.1848 2.4706,-6.8249 5.7563,-17.1258 7.3017,-22.8909 4.869,-18.164 5.8732,-21.0243 9.1657,-26.106 3.9296,-6.0651 6.2913,-6.9068 13.9606,-4.9757 8.6633,2.1815 9.6339,4.8043 9.5514,25.8096 -0.054,13.8702 -0.6786,19.6111 -3.0376,27.9419 -4.0219,14.2037 -14.1567,34.3386 -20.5851,40.8966 l -5.2717,5.3779 -0.1852,55.6202 c -0.1639,49.224 1.3355,127.4513 2.5686,134.0142 0.2474,1.3166 1.0675,18.4166 1.8225,38 1.59,41.242 2.3287,57.761 3.7387,83.6061 0.5601,10.2666 0.9979,47.1666 0.973,82 -0.044,61.8348 -0.8725,78.0868 -5.4325,106.6035 l -0.863,5.3965 h 7.9038 c 4.347,0 8.5732,0.6695 9.3915,1.4877 0.8183,0.8183 2.8702,2.177 4.56,3.0194 4.4254,2.2064 8.7322,9.2314 10.3855,16.9406 3.1268,14.5797 0.7654,46.1064 -4.5905,61.2866 -2.4009,6.8049 -10.1663,19.9691 -16.2804,27.599 -3.6951,4.6111 -5.3631,5.6667 -8.955,5.6667 -7.3165,0 -7.8766,-2.0027 -4.7166,-16.8648 5.6019,-26.3469 6.2473,-33.7695 4.4398,-51.0622 l -0.8694,-8.3181 -9.4639,0.7644 c -5.2052,0.4204 -17.8639,1.4525 -28.1306,2.2935 -16.72492,1.3701 -35.65097,1.664 -52.59581,0.8169 -5.59644,-0.2798 -5.97803,-0.072 -6.80042,3.7036 -0.47921,2.2 -2.19512,6.2072 -3.81314,8.9049 l -2.94184,4.9049 2.90868,5.7015 c 3.63896,7.133 15.92799,19.5144 24.12163,24.303 3.41685,1.9969 9.57345,6.8601 13.68134,10.8071 l 7.46889,7.1765 -2.83336,4.8021 c -1.55835,2.6413 -4.09078,5.4752 -5.62761,6.2977 -3.40606,1.8228 -19.36018,2.3447 -32.9017,1.0761 z m 317.30864,-3.1041 c -0.3802,-0.3833 -9.6802,-1.0508 -20.6666,-1.4833 -41.885,-1.6491 -114.1867,-7.2169 -121.9754,-9.3931 -1.1,-0.3073 -5,-0.9276 -8.6666,-1.3784 -17.133,-2.1065 -31.5927,-6.7508 -33.7352,-10.8354 -1.418,-2.7035 -0.2186,-7.0527 2.586,-9.3768 1.7888,-1.4824 23.5868,-2.599 72.4825,-3.7131 12.4667,-0.2841 22.5738,-1.0054 22.4604,-1.603 -1.0477,-5.5178 -7.1174,-45.2541 -7.7016,-50.4199 -2.7654,-24.4525 -3.6246,-32.2186 -4.9417,-44.6667 -1.0335,-9.7684 -1.1754,-36.1657 -0.4693,-87.3333 0.5566,-40.3334 1.1311,-104.8334 1.2767,-143.3334 0.2415,-63.8622 0.8088,-82.6237 2.9029,-96 1.4075,-8.9905 5.847,-22.3742 8.0204,-24.1787 1.3506,-1.1214 5.83,-1.8818 11.6562,-1.9787 5.2045,-0.087 14.2627,-1.1281 20.1293,-2.3144 30.3155,-6.1305 52.6556,-8.6026 134,-14.8283 16.6006,-1.2706 87.4407,-1.7029 106.6667,-0.6511 26.2524,1.4363 45.7042,5.7268 61.1188,13.481 6.1153,3.0763 12.0343,6.9906 13.1533,8.6984 1.119,1.7078 2.4852,3.1052 3.0359,3.1052 0.5508,0 2.2783,-3.5022 3.839,-7.7825 2.747,-7.5339 6.2697,-10.8842 11.4443,-10.8842 3.0148,0 10.0736,9.1213 10.0963,13.0464 0.033,5.7304 3.8939,69.4437 4.5746,75.4935 0.3378,3.003 0.9736,11.7601 1.4126,19.4601 1.4034,24.609 5.9433,83.7848 8.5926,112 1.4115,15.0333 2.956,33.6333 3.4322,41.3333 0.4761,7.7 1.0745,15.3542 1.3298,17.0093 2.0473,13.2757 3.3151,69.7817 2.1163,94.3241 -0.7577,15.5115 -4.8816,41.4201 -9.476,59.5338 -4.077,16.074 -4.7874,21.0872 -3.003,21.191 3.456,0.2008 29.4393,2.7767 38.4058,3.8074 21.3757,2.457 47.5918,10.6376 49.4285,15.4238 1.0863,2.8308 -1.6676,6.857 -5.7834,8.4553 -5.0902,1.9768 -35.1005,7.8276 -45.7176,8.913 -4.7667,0.4874 -10.1667,1.0916 -12,1.3428 -1.8333,0.2511 -14.7333,1.1094 -28.6667,1.9073 -13.9333,0.7978 -30.4333,1.7636 -36.6666,2.1462 -15.6318,0.9593 -253.8348,2.3458 -254.6914,1.4824 z m 30.6914,-38.9011 c 17.2333,-0.3712 36.9296,-1.0409 43.7695,-1.488 12.1424,-0.7939 12.4179,-0.8855 11.6676,-3.8752 -0.4227,-1.6841 -1.3713,-8.9593 -2.1079,-16.167 -0.7367,-7.2078 -1.6063,-15.2051 -1.9325,-17.7717 -0.3262,-2.5667 -1.2286,-17.8667 -2.0053,-34 -0.7767,-16.1334 -1.7521,-35.3334 -2.1675,-42.6667 -1.2599,-22.2384 -1.675,-115.1458 -0.5749,-128.6667 0.5669,-6.9666 1.406,-27.0666 1.8646,-44.6666 1.6817,-64.5275 2.2498,-82.8227 2.7948,-90 0.3063,-4.0334 0.965,-14.6951 1.4638,-23.6927 l 0.9068,-16.3593 -53.1728,0.7097 c -75.8623,1.0125 -95.2333,1.7325 -97.5127,3.6243 -1.5444,1.2817 -1.7775,4.0433 -1.1529,13.6622 0.4306,6.6307 1.1132,18.3558 1.517,26.0558 0.4037,7.7 1.015,16.1 1.3583,18.6666 1.02,7.6264 4.3833,61.545 5.4061,86.6667 1.6888,41.4826 0.8794,135.0446 -1.4282,165.094 -3.432,44.6905 -9.2289,94.2571 -12.2454,104.7044 -0.684,2.3689 0.7098,2.4334 35.7533,1.655 20.0557,-0.4454 50.5649,-1.1136 67.7983,-1.4848 z m 118,-4.1846 c 20.5333,-0.5739 57.2833,-0.8803 81.6666,-0.6809 33.4134,0.2733 44.3334,-0.025 44.3334,-1.2129 0,-0.8665 -1.1531,-3.4463 -2.5625,-5.7328 -5.8348,-9.4664 -11.7367,-31.5746 -13.9238,-52.1574 -2.7096,-25.5013 -4.6209,-49.2212 -5.5329,-68.6667 -0.3956,-8.4333 -1.3172,-28.1965 -2.048,-43.9182 -2.2814,-49.0746 -0.9559,-141.2254 2.6765,-186.0818 1.728,-21.3382 6.4005,-65.1932 7.4227,-69.6666 0.377,-1.65 0.2902,-3 -0.193,-3 -1.2233,0 -4.3546,4.0882 -5.8316,7.614 -0.8546,2.0399 -3.6115,3.6819 -8.9544,5.3333 -7.0496,2.1789 -13.3527,2.3521 -72.6109,1.9955 -60.3103,-0.3629 -64.9225,-0.2297 -65.3334,1.8864 -0.2431,1.2523 0.2517,16.7281 1.0995,34.3905 5.0637,105.483 4.9952,300.4933 -0.1218,346.7803 -0.4864,4.4 -1.1556,10.7 -1.4871,14 -0.3315,3.3 -0.9545,8.8223 -1.3844,12.2719 -0.8912,7.1514 -0.1983,9.006 3.1197,8.35 1.2826,-0.2536 19.132,-0.9307 39.6654,-1.5046 z m -851.30957,27.8965 c -1.08691,-0.4267 -2.72619,-1.5257 -3.64286,-2.4424 -0.91667,-0.9167 -2.29899,-1.8774 -3.07184,-2.1351 -2.82268,-0.9409 -4.96711,-10.4242 -3.78636,-16.7444 0.79509,-4.2559 0.14033,-15.2239 -2.20133,-36.8748 -1.83317,-16.9494 -3.64917,-33.7928 -4.03556,-37.4298 -1.12846,-10.6219 -0.75503,-43.4044 0.58535,-51.3873 2.08158,-12.3973 5.34875,-25.2466 7.45517,-29.3199 1.10382,-2.1346 2.00695,-6.69 2.00695,-10.1232 0,-11.7371 7.15449,-18.8119 22.75758,-22.5041 11.99076,-2.8373 65.35976,-7.2509 89.05363,-7.3647 3.96703,-0.019 4.39463,-0.3637 3.74815,-3.0215 -0.89297,-3.6711 -3.54883,-27.8251 -3.80079,-34.5666 -0.22189,-5.9372 -1.40728,-6.3898 -16.80139,-6.4152 -16.85613,-0.028 -22.83248,-3.4335 -24.21621,-13.8002 -0.68165,-5.1069 -1.08788,-5.5848 -5.0743,-5.9691 -2.96833,-0.2862 -4.33333,0.153 -4.33333,1.3944 0,9.9781 -4.42709,48.6757 -5.70981,49.9101 -1.5353,1.4774 -5.04781,2.2745 -8.52013,1.9335 -2.31932,-0.2278 -3.99928,-6.5545 -7.8298,-29.4869 -5.86913,-35.1371 -5.44755,-95.4887 1.39708,-200 1.03259,-15.7666 2.23402,-35.5666 2.66986,-44 0.43583,-8.4333 1.05871,-18.2102 1.38417,-21.7264 0.41191,-4.45 -0.0602,-7.3881 -1.55315,-9.6667 -1.97291,-3.011 -1.97074,-3.5394 0.027,-6.5883 5.074,-7.7439 6.26704,-7.9655 44.04872,-8.1798 48.15584,-0.2733 110.17196,-4.1416 160.08606,-9.9856 27.59714,-3.231 55.30319,-2.9401 66.55405,0.6989 14.13746,4.5727 23.42855,12.7398 23.44097,20.6052 0.003,1.7366 1.85745,5.2672 4.12158,7.8459 3.77316,4.2974 4.0524,5.2576 3.34709,11.5093 -2.42995,21.5384 -2.31674,41.0563 0.39917,68.8209 5.65861,57.8475 6.89623,77.3206 6.85083,107.7934 -0.0255,17.1198 -0.30777,31.5498 -0.62725,32.0667 -0.31948,0.5169 -0.7048,6.3099 -0.85627,12.8732 -0.5768,24.9941 -7.92807,60.2747 -14.64227,70.2719 l -3.71416,5.5302 3.89647,3.9854 c 4.68132,4.7882 5.14701,10.8631 1.21586,15.8607 -2.86012,3.6361 -16.21023,8.5583 -39.98607,14.743 -12.6175,3.2822 -44.08486,8.0049 -72,10.8059 -27.80477,2.79 -81.48189,3.6988 -104,1.7608 -6.23334,-0.5364 -23.03334,-1.302 -37.33334,-1.7012 -26.11769,-0.7291 -36.53699,-1.2655 -54.2182,-2.791 l -9.55154,-0.8241 -0.61433,9.8125 c -1.79743,28.7098 0.97821,78.5219 6.34188,113.8126 3.86655,25.4403 2.15522,47.172 -3.89761,49.4947 -1.13311,0.4348 -2.0602,1.6264 -2.0602,2.6479 0,1.9101 -9.13887,2.5082 -13.30952,0.8712 z m 8.97619,-1.2663 c -1.28334,-0.3353 -3.38334,-0.3353 -4.66667,0 -1.28333,0.3354 -0.23333,0.6098 2.33333,0.6098 2.56667,0 3.61667,-0.2744 2.33334,-0.6098 z M 719.33335,2124.602 c 11.00001,-0.4938 34.70001,-1.2813 52.66667,-1.7499 28.12025,-0.7335 32.59107,-1.1304 32.12344,-2.852 -0.29877,-1.1 -0.73183,-10.6982 -0.96235,-21.3292 l -0.41913,-19.3292 -13.70431,0.3479 c -20.31453,0.5159 -53.41342,1.9301 -55.70431,2.3802 -1.1,0.2161 -10.58268,0.4388 -21.07261,0.4949 l -19.07261,0.102 0.61251,14.3334 c 0.33688,7.8833 0.1355,17.3333 -0.44751,21 -1.24156,7.8084 -0.73833,9.1272 3.12567,8.1913 1.57,-0.3803 11.85454,-1.0955 22.85454,-1.5894 z m 149.33381,-6.6019 c -2.54755,-8.4679 -4.70999,-25.0897 -5.50738,-42.3334 -0.86949,-18.8028 -1.03207,-19.6646 -3.70126,-19.6198 -3.81993,0.064 -18.6727,3.3101 -20.60205,4.5025 -2.34526,1.4495 -0.47654,3.4507 3.22224,3.4507 1.79006,0 4.50964,1.255 6.04352,2.7888 2.68473,2.6848 2.69718,2.8499 0.33333,4.4237 -3.71294,2.4719 -13.75913,5.9235 -20.1222,6.9134 -6.30437,0.9808 -6.81373,2.3569 -4.26684,11.5277 1.49123,5.3695 2.32339,13.578 2.49343,24.5953 l 0.10674,6.9156 21.40137,-0.2489 c 20.72427,-0.2411 21.37599,-0.3333 20.5991,-2.9156 z m -54.79419,-63.1672 5.20628,-5.3678 -1.61529,-9.7325 c -4.28376,-25.8107 -5.10384,-96.2989 -1.45175,-124.7825 0.77924,-6.0774 1.10905,-11.5479 0.73292,-12.1565 -0.37613,-0.6086 -3.45103,-1.4184 -6.8331,-1.7996 -6.7611,-0.7621 -20.40178,-7.1697 -21.9848,-10.3273 -1.81719,-3.6246 -4.47202,-13.6342 -4.28272,-16.1472 0.10221,-1.3568 -0.32355,-2.7818 -0.94613,-3.1665 -0.62257,-0.3848 -14.23439,-1.0214 -30.24849,-1.4146 -16.01409,-0.3933 -31.49673,-0.8403 -34.40585,-0.9933 l -5.28932,-0.2784 -1.57454,7.0327 c -0.866,3.868 -2.16653,7.768 -2.89006,8.6667 -0.72353,0.8987 -1.734,3.591 -2.24549,5.9828 -0.58152,2.7194 -2.67071,5.6766 -5.57561,7.8923 -3.89155,2.9683 -6.37644,3.6436 -15.30877,4.1607 l -10.66315,0.6173 1.02996,18.8237 c 2.10522,38.4756 0.90637,75.9447 -3.32453,103.9058 -2.51082,16.5934 -2.60023,16.1625 4.0429,19.4848 1.9683,0.9843 4.27313,3.4661 5.12183,5.5151 0.8487,2.0489 2.57107,4.6556 3.82748,5.7927 2.41369,2.1843 -0.54636,2.0776 89.47195,3.2257 l 34,0.4337 z m -168.8834,-13.976 13.99557,-0.1183 -1.08711,-11.3693 c -0.59791,-6.2531 -1.17678,-24.8692 -1.28637,-41.3692 -0.1096,-16.5 -0.63161,-36 -1.16002,-43.3334 -1.75218,-24.3168 -3.22707,-40.8871 -3.67552,-41.2941 -0.24352,-0.221 -6.32756,-0.6203 -13.52008,-0.8872 l -13.07732,-0.4853 -0.48299,52.6666 c -0.26564,28.9667 -0.77662,54.1667 -1.1355,56 -0.35889,1.8334 -1.04924,9.8185 -1.53411,17.7448 l -0.88159,14.4115 4.92473,-0.9239 c 2.70861,-0.5081 11.22275,-0.9771 18.92031,-1.0422 z m 211.54036,-0.7122 c 2.85811,-0.4611 5.66521,-1.7323 6.238,-2.8249 2.46534,-4.7023 4.29799,-42.0257 3.44992,-70.2601 -0.48007,-15.9828 -0.87548,-36.4096 -0.87867,-45.393 l -0.006,-16.3333 h -13.33333 -13.33334 l -0.2,13.6667 c -0.4727,32.3016 0.50089,112.2672 1.50181,123.3491 0.0298,0.33 4.72924,-0.2956 16.56143,-2.2045 z M 647.66669,1878.5059 c 2.76022,-1.0181 3,-1.938 3,-11.5095 0,-10.5755 1.6745,-15.2273 6.58619,-18.2963 1.14426,-0.715 7.18047,-1.1164 13.41381,-0.8921 6.23333,0.2243 13.00971,-0.2358 15.05863,-1.0226 3.66091,-1.4059 3.71852,-1.5978 3.33333,-11.108 l -0.39196,-9.6773 -23.44572,-1.5342 c -12.89515,-0.8437 -28.06037,-2.2785 -33.7005,-3.1884 -5.64013,-0.9098 -10.62503,-1.284 -11.07754,-0.8315 -0.69518,0.6952 1.60446,33.3062 2.93027,41.5541 0.23576,1.4666 0.47324,6.409 0.52774,10.983 l 0.0991,8.3163 10.33333,-0.8435 c 5.68334,-0.4639 11.68334,-1.3414 13.33334,-1.95 z m 217.83923,-16.0174 c 0.53904,-9.7343 2.08902,-19.8476 4.33333,-28.2739 1.92176,-7.2154 3.49411,-13.7595 3.49411,-14.5424 0,-1.4218 -42.99745,-0.3963 -62.66667,1.4947 l -8.66667,0.8332 0.41517,8.6666 c 0.62438,13.0343 0.48477,12.8479 10.76699,14.374 7.18493,1.0664 10.4259,2.3622 15.39482,6.1551 3.46167,2.6423 7.14799,4.8043 8.19182,4.8043 1.3531,0 1.94315,1.8179 2.05562,6.3333 0.29611,11.8878 1.32554,14.2565 6.519,15 2.56112,0.3667 7.95659,0.5865 11.98992,0.4885 l 7.33333,-0.1782 z m -42.50808,9.6987 c 0.63481,-2.4638 0.97,-4.6299 0.74486,-4.8137 -0.22514,-0.1838 -4.15934,-0.046 -8.74268,0.3065 -8.08288,0.6213 -8.33333,0.7526 -8.33333,4.3692 0,4.4557 1.44777,5.2185 9.25514,4.8768 5.52456,-0.2419 5.99924,-0.5598 7.07601,-4.7388 z m -136.99782,-1.9368 v -5.0831 l -8.33333,-0.5325 c -9.03426,-0.5774 -9.0518,-0.5604 -7.48776,7.2598 0.84157,4.2079 0.88096,4.226 8.33333,3.8333 l 7.48776,-0.3945 z m 77.33334,-24.8087 c 8.06666,-0.082 15.4361,-0.6374 16.37652,-1.2341 1.58114,-1.0033 3.32124,-9.6407 3.53379,-17.5409 0.0687,-2.5521 -0.53532,-3.2753 -2.57698,-3.0859 -1.46667,0.136 -17.96667,0.9751 -36.66667,1.8645 -18.7,0.8895 -34.16051,1.7386 -34.35669,1.8871 -0.42631,0.3226 3.72002,16.8926 4.5914,18.3486 0.33386,0.5579 8.21763,0.7658 17.51949,0.4621 9.30186,-0.3038 23.51247,-0.6194 31.57914,-0.7014 z m 1440.71814,272.0826 c -0.7616,-2.8283 -2.547,-13.4783 -3.9675,-23.6666 -1.4205,-10.1884 -3.7889,-26.9243 -5.2631,-37.191 -1.4742,-10.2666 -3.3498,-27.2903 -4.168,-37.8303 -0.8182,-10.54 -1.8,-21.04 -2.1819,-23.3333 -1.2342,-7.4124 -1.7231,-142.4884 -0.5556,-153.503 0.6218,-5.8667 1.5498,-25.6667 2.0621,-44 0.5123,-18.3334 1.3529,-42.6334 1.8679,-54 0.5149,-11.3667 0.4904,-21.2067 -0.055,-21.8668 -0.5755,-0.697 -7.3063,-0.032 -16.0574,1.5856 -17.8971,3.3089 -23.8687,4.004 -42.4,4.9359 -7.7,0.3872 -25.7,1.3027 -40,2.0346 -73.1167,3.7419 -100.1443,2.663 -188.6667,-7.5311 -43.1109,-4.9646 -56.4579,-8.2548 -58.858,-14.5095 -1.1588,-3.0198 3.1559,-8.6307 8.2847,-10.7737 2.504,-1.0462 12.5073,-2.819 22.2297,-3.9394 9.7223,-1.1205 21.277,-2.5844 25.677,-3.2531 31.1062,-4.7276 110.0367,-1.0846 200.6666,9.2615 12.1,1.3813 26.2,2.8919 31.3334,3.3569 5.1333,0.465 18.6333,2.2894 30,4.0543 11.3666,1.7648 22.4666,3.3818 24.6666,3.5934 l 4,0.3847 1.6102,-17.0132 c 1.6876,-17.8326 5.1257,-28.9868 8.9346,-28.9868 3.1584,0 4.325,3.4524 6.9839,20.6667 2.1267,13.7686 2.4679,24.0886 2.447,74 -0.025,59.334 -1.8742,187.9006 -2.7707,192.6269 -0.274,1.4448 -0.5762,37.7448 -0.6714,80.6667 -0.1736,78.2392 -0.5003,89.373 -2.6222,89.373 -0.6281,0 -1.765,-2.314 -2.5266,-5.1424 z M 1194.6667,1822.4956 c -25.1355,-1.6218 -44.9768,-7.2642 -51.9808,-14.7821 -1.4986,-1.6085 -4.6492,-3.5521 -7.0014,-4.319 -8.8019,-2.8699 -13.2878,-17.0061 -15.6746,-49.3944 -0.8106,-11 -2.2797,-26.0096 -3.2646,-33.3546 -0.985,-7.345 -1.4911,-16.645 -1.1247,-20.6667 1.2767,-14.0158 1.3571,-13.6071 -2.9539,-15.0178 -5.6575,-1.8513 -8.2733,-4.4929 -7.8879,-7.9656 0.1828,-1.6475 0.3823,-3.4454 0.4435,-3.9954 0.061,-0.55 1.1611,-1.0003 2.4444,-1.0006 1.2833,-4e-4 5.4673,-1.1919 9.2977,-2.6477 12.1366,-4.6129 35.3023,-8.4918 59.7023,-9.9966 40.5051,-2.4981 67.2195,-3.5722 117.1657,-4.7109 30.8922,-0.7042 57.6676,-1.538 59.501,-1.8529 1.8333,-0.3148 20.4333,-0.956 41.3333,-1.4249 20.9,-0.4689 38.9,-1.0696 40,-1.335 2.7824,-0.6713 68.1499,-2.6299 86,-2.5769 19.8632,0.059 51.8826,4.0393 58.7543,7.3037 2.9815,1.4163 7.9177,2.5752 10.9693,2.5752 6.3273,0 7.6422,1.4265 12.2908,13.3333 1.5746,4.0333 3.6393,8.2334 4.588,9.3334 0.9488,1.1 2.4782,5.2206 3.3987,9.1569 2.3319,9.9723 0.8115,25.671 -4.6363,47.8729 -2.4702,10.0669 -5.3934,24.3035 -6.4961,31.6368 -2.0734,13.7891 -4.7826,23.5611 -6.5522,23.6332 -0.5592,0.023 -5.0592,-0.3408 -10,-0.8079 -10.4159,-0.9847 -17.1551,0.4308 -16.6234,3.4914 0.2229,1.2831 -1.2098,2.6179 -3.7667,3.5092 -2.2695,0.7912 -3.7889,1.9846 -3.3763,2.6522 0.8308,1.3442 -6.9669,3.5355 -17.2168,4.8381 -7.0281,0.8932 -39.4972,6.5054 -50.4536,8.7208 -3.5496,0.7177 -16.7496,1.907 -29.3334,2.6428 -12.5838,0.7358 -24.6796,1.6115 -26.8796,1.946 -2.2,0.3346 -13.6,0.9848 -25.3334,1.445 -11.7333,0.4602 -22.8333,1.1764 -24.6666,1.5917 -4.8183,1.0914 -174.042,1.2391 -190.6667,0.1664 z m 16,-35.8763 c 33.9994,-2.2643 58.9856,-3.8632 72,-4.6073 6.9667,-0.3983 15.9667,-0.9958 20,-1.3278 14.8243,-1.2201 88.5388,-2.4862 130,-2.2328 53.4087,0.3263 94.165,2.7588 129.224,7.7126 5.6163,0.7936 6.4429,0.6285 5.7602,-1.1507 -1.198,-3.122 -8.4435,-33.7006 -10.5078,-44.3466 -1.1398,-5.8786 -1.7216,-17.1659 -1.5717,-30.4938 l 0.238,-21.1605 -6.9047,0.7972 c -3.7975,0.4384 -18.9047,1.7085 -33.5713,2.8224 -14.6667,1.114 -33.8667,2.6614 -42.6667,3.4389 -25.7729,2.277 -153.3203,3.0757 -197.3333,1.2358 -21.2667,-0.889 -44.6667,-1.8428 -52,-2.1196 -28.7604,-1.0854 -65.6549,-3.4616 -71.8487,-4.6274 -3.5834,-0.6745 -8.2738,-1.2263 -10.4232,-1.2263 -3.4367,0 -3.7967,0.3616 -2.9863,3 0.5069,1.65 4.4029,9.3 8.6577,17 11.2743,20.403 13.9338,32.1708 13.9338,61.6538 v 18.3205 L 1176,1788.6073 c 8.4334,-0.3853 24.0334,-1.2799 34.6667,-1.988 z m 539.9473,-53.6258 c -3.7677,-1.0592 -5.1792,-2.4385 -7,-6.8407 -1.2543,-3.0328 -2.2806,-6.9152 -2.2806,-8.6276 0,-5.7775 11.5473,-19.392 31.3185,-36.9249 19.1485,-16.9807 25.6071,-25.3369 32.7675,-42.3952 2.3491,-5.5962 5.1128,-10.8735 6.1416,-11.7273 1.3439,-1.1154 4.3906,-1.2135 10.8215,-0.3484 8.432,1.1342 9.086,1.4745 11.2821,5.8706 3.3102,6.6262 3.0908,23.172 -0.4951,37.3525 -8.1082,32.0634 -30.7074,54.1014 -62.7185,61.1608 -6.1147,1.3485 -12.0176,2.7566 -13.1176,3.1293 -1.1,0.3726 -4.1237,0.081 -6.7194,-0.6491 z m -62.9688,-13.5689 c -16.4178,-5.8581 -32.801,-21.8903 -38.7014,-37.872 -6.943,-18.8058 -7.8377,-39.4573 -2.2242,-51.3388 3.0256,-6.4039 9.5156,-11.3202 16.4241,-12.4412 5.5346,-0.8982 6.5846,-1.937 8.7467,-8.6534 2.0161,-6.2631 6.1438,-7.9687 33.443,-13.8185 27.5102,-5.8952 43.7594,-7.763 61.2609,-7.0419 12.9755,0.5346 15.4336,1.0504 23.1795,4.8637 11.6255,5.7232 16.2316,11.1292 17.3416,20.3533 1.011,8.4006 -0.6443,11.4607 -9.6418,17.8243 -6.2218,4.4005 -8.8696,4.6796 -28.8069,3.0366 -12.1899,-1.0046 -23.2345,-1.7119 -46,-2.9459 -17.6975,-0.9593 -31.6407,-2.893 -38.5742,-5.3494 -3.6908,-1.3077 -6.3782,-1.6223 -7.1619,-0.8385 -0.69,0.6899 -1.0109,5.0814 -0.713,9.7587 0.8087,12.7008 5.9902,22.304 18.186,33.7051 22.4445,20.982 29.1818,28.1239 29.8555,31.6479 0.4292,2.2455 -0.5233,6.3012 -2.5129,10.6986 l -3.2042,7.0821 h -7.5091 c -4.7042,0 -7.7106,0.6047 -8.0487,1.619 -0.7087,2.1262 -9.0075,1.9695 -15.339,-0.2897 z M 991.98033,1667.971 c -4.72634,-6.9598 -9.31363,-16.7991 -9.31363,-19.9768 0,-1.7463 7.55832,-4.2167 11.51349,-3.7632 2.65083,0.3039 4.40799,1.6455 5.80999,4.4357 3.24622,6.4606 2.25412,27.3333 -1.2992,27.3333 -0.69204,0 -3.71183,-3.613 -6.71065,-8.029 z m 1152.68637,-34.8285 c -32.0908,-0.8973 -71.1582,-3.5703 -84.6666,-5.7929 -1.8334,-0.3016 -6.9334,-0.9066 -11.3334,-1.3444 -49.2791,-4.9034 -140.3226,-29.5721 -188.6666,-51.1202 -22.2646,-9.9239 -30.423,-14.8369 -40.9264,-24.6461 -8.3466,-7.7949 -15.0283,-18.3361 -15.0606,-23.7599 -0.01,-1.2033 -1.1999,-4.8033 -2.6504,-8 -1.4918,-3.2876 -2.6501,-8.7445 -2.6667,-12.5628 -0.025,-5.6859 0.549,-7.2773 3.6374,-10.0905 8.2016,-7.4708 10.4128,-8.1625 24.1788,-7.5639 14.1852,0.6169 20.2013,2.8633 37.8362,14.1282 4.9582,3.1673 10.9582,6.6513 13.3333,7.7424 4.0826,1.8755 11.5732,6.7241 15.3825,9.9571 4.2079,3.5711 30.5446,15.0029 46.9727,20.3892 30.0108,9.8394 74.7124,20.2519 106.4302,24.791 10.5235,1.506 19.5235,2.9773 20,3.2695 0.4764,0.2922 8.9663,1.1963 18.8663,2.0091 9.9,0.8129 23.7,2.0519 30.6667,2.7533 52.3028,5.2665 131.7138,7.3783 172.6666,4.5918 60.241,-4.0988 91.5064,-9.4788 131.3334,-22.5994 25.6319,-8.4442 36.9081,-13.0628 42.6218,-17.4572 l 4.9885,-3.8368 -32.8052,-0.1091 c -28.8072,-0.096 -35.4393,-0.539 -54.4196,-3.6368 -64.8806,-10.5893 -120.18,-30.8628 -164.3855,-60.2661 -30.1057,-20.0248 -54.2133,-41.9052 -63.5968,-57.7215 -2.7506,-4.6362 -3.2705,-6.8973 -2.7162,-11.8147 0.5819,-5.1622 0.053,-7.1166 -3.5008,-12.9331 -2.3024,-3.7686 -4.8775,-7.5861 -5.7223,-8.4833 -0.8448,-0.8972 -2.8566,-3.768 -4.4707,-6.3796 -1.9874,-3.2157 -3.6434,-4.5258 -5.1306,-4.059 -1.5327,0.4812 -3.1291,-0.9404 -5.2854,-4.7066 -2.8634,-5.001 -3.4002,-5.3276 -7.3334,-4.4612 -18.0237,3.9706 -72.1606,3.9898 -116.2438,0.041 -4.4,-0.3941 -14.3,-1.0654 -22,-1.4918 -26.1712,-1.4492 -60.4546,-5.0329 -113.3334,-11.8472 -17.8789,-2.3039 -45.7322,-6.4837 -58.6666,-8.8036 -8.4334,-1.5127 -19.8334,-3.3526 -25.3334,-4.0888 -16.7405,-2.2407 -48.3054,-7.925 -54.6666,-9.8446 -3.3,-0.9958 -9.9,-2.4981 -14.6667,-3.3384 -11.3645,-2.0035 -28.3846,-7.5215 -36.3979,-11.8004 -6.1659,-3.2924 -6.3835,-3.6097 -6,-8.7472 0.3455,-4.6292 0.9243,-5.4861 4.3979,-6.5102 5.6681,-1.6711 13.0948,-1.3277 36.6667,1.6956 68.3614,8.7678 118.2579,13.2408 222.6666,19.9611 12.1,0.7788 25.3,1.6797 29.3334,2.0021 4.0333,0.3224 12.4333,0.9419 18.6666,1.3767 61.1414,4.2648 104.2815,11.3077 125.7772,20.5339 8.3787,3.5962 9.2519,3.502 8.3517,-0.9009 -1.0876,-5.3199 -1.6755,-9.5298 -4.2361,-30.3333 -1.2636,-10.2667 -2.6564,-19.0699 -3.0951,-19.5626 -0.4387,-0.4928 -8.8977,-1.2605 -18.7977,-1.7062 -20.055,-0.9027 -63.2402,-5.0752 -82.6666,-7.9871 -6.9667,-1.0443 -22.5667,-3.4454 -34.6667,-5.3359 -12.1,-1.8904 -30.1,-4.6446 -40,-6.1204 -9.9,-1.4758 -22.2,-3.563 -27.3333,-4.6382 -10.3045,-2.1584 -14.714,-2.9532 -22.6667,-4.0858 -10.8076,-1.5391 -82.117,-17.4138 -104,-23.1521 -54.078,-14.1808 -88.8991,-27.2434 -111.978,-42.0068 -6.1044,-3.9049 -7.3554,-5.3531 -7.3554,-8.5151 0,-5.0861 4.147,-8.7354 8.9475,-7.8734 2.0455,0.3673 8.2192,1.9178 13.7192,3.4456 8.6869,2.4131 59.6575,15.8855 63.3334,16.74 8.1746,1.9005 27.5974,4.9783 28.1197,4.456 0.3721,-0.3721 -0.2342,-6.8974 -1.3475,-14.5006 -1.5281,-10.4372 -1.8789,-21.5009 -1.4317,-45.1574 0.3257,-17.2334 0.9014,-34.3334 1.2792,-38 3.2692,-31.7242 3.495,-38.6186 1.3168,-40.2113 -1.1879,-0.8686 -10.0595,-4.1262 -19.7148,-7.2391 -9.6553,-3.113 -21.3309,-7.1342 -25.9459,-8.9362 -4.6149,-1.802 -8.6849,-2.9821 -9.0446,-2.6225 -0.3596,0.3596 -0.6912,16.1837 -0.737,35.1648 -0.046,18.981 -0.6715,38.4109 -1.3905,43.1776 -3.2062,21.258 -7.7748,44.5377 -8.9761,45.739 -2.3231,2.3232 -8.8694,-1.5517 -11.5101,-6.8131 -2.2907,-4.564 -2.5122,-10.0456 -3.0146,-74.6028 -0.4061,-52.2004 -0.113,-72.6007 1.1689,-81.3334 1.9949,-13.59017 1.7771,-17.43243 -1.1755,-20.73777 -1.7607,-1.97113 -1.8292,-2.61733 -0.3725,-3.5176 0.9814,-0.60657 1.3952,-1.73262 0.9195,-2.50233 -1.1998,-1.94133 10.2534,-9.56534 14.3696,-9.56534 1.8512,0 4.7968,1.431 6.5458,3.17999 1.8712,1.87115 5.6004,3.5653 9.0606,4.11614 3.2344,0.51488 10.3807,2.03729 15.8807,3.38313 11.1594,2.73069 34.1712,7.44267 41.3333,8.46354 2.5667,0.36586 7.6667,1.06543 11.3333,1.55462 3.6667,0.48918 9.6667,1.75474 13.3334,2.81235 3.6666,1.05761 13.5666,3.15409 22,4.65884 8.4333,1.50475 18.084,3.23053 21.446,3.83513 8.7125,1.5666 54.9172,13.0706 65.2206,16.2384 20.5075,6.3052 48.9419,19.9778 58.5467,28.1522 2.5145,2.14 3.3359,3.9643 3.0213,6.7105 -0.2607,2.2759 -1.069,3.527 -2.0385,3.1549 -2.0982,-0.8051 -1.8832,38.9732 0.3482,64.4069 2.6629,30.3534 3.0321,65.9142 0.8013,77.1865 -1.8229,9.2113 -5.3577,17.2459 -6.9061,15.6976 -0.3743,-0.3744 -2.9173,0.1084 -5.651,1.0729 -6.498,2.2927 -8.4785,1.0337 -11.951,-7.5972 -4.5436,-11.2931 -5.3819,-21.9439 -5.1016,-64.8207 l 0.2646,-40.4609 -6.4555,0.8563 c -3.5505,0.471 -7.1506,0.3018 -8.0003,-0.3761 -1.6207,-1.2932 -28.543,-5.0595 -29.3643,-4.1081 -0.261,0.3024 -0.024,7.4497 0.5266,15.8831 1.572,24.0749 0.4265,69.862 -1.9956,79.7708 -2.6413,10.8057 -3.9156,13.0825 -8.71,15.5617 -3.803,1.9667 -3.9744,1.9176 -5.7669,-1.6528 -4.0597,-8.0865 -5.1207,-20.4282 -4.7756,-55.5547 0.188,-19.1355 0.3866,-40.1404 0.4414,-46.6777 l 0.1,-11.8859 -6.6667,-1.7407 c -3.6667,-0.9573 -18.9667,-4.7417 -34,-8.4098 -15.0333,-3.668 -31.7121,-8.1601 -37.064,-9.9824 -8.6315,-2.939 -9.8227,-3.0732 -10.5458,-1.1888 -0.4484,1.1684 -0.4205,26.0056 0.062,55.1938 0.6152,37.221 0.4414,54.1889 -0.5821,56.818 -0.8027,2.0616 -2.2589,6.7485 -3.2362,10.4151 -0.9773,3.6667 -2.1306,7.5777 -2.5629,8.6912 -0.9989,2.5726 3.5158,3.6409 44.5956,10.5527 45.3526,7.6306 103.0908,15.8037 137.0273,19.3968 10.0683,1.066 26.3864,3.1276 36.2624,4.5812 9.8761,1.4537 18.1166,2.4829 18.3123,2.2872 0.1958,-0.1958 -0.4894,-4.5154 -1.5226,-9.5992 -3.3635,-16.5498 -6.2951,-60.1558 -5.9101,-87.9099 0.4337,-31.2628 3.712,-72.0578 7.8218,-97.3333 2.4915,-15.3224 5.5318,-44.6145 4.7603,-45.86279 -1.3395,-2.16747 6.023,-6.80388 10.8045,-6.80388 6.2019,0 13.1347,3.11291 15.7198,7.05837 3.1497,4.807 4.5248,10.4816 6.6903,27.6083 1.0663,8.4333 2.862,21.3333 3.9904,28.6667 4.7683,30.9877 4.0965,64.0584 -2.6408,130 -1.7607,17.2333 -3.5996,37.3333 -4.0864,44.6666 -0.4869,7.3334 -1.1464,13.7808 -1.4657,14.3277 -0.837,1.4336 3.7244,3.1021 19.5698,7.1585 7.7,1.9712 16.4239,4.6178 19.3865,5.8814 2.9626,1.2636 7.2221,2.7007 9.4657,3.1934 l 4.0792,0.896 0.729,-27.2596 0.7291,-27.2595 4.5042,-7.8023 c 3.4425,-5.9632 5.9108,-8.5023 10.4719,-10.7721 5.7704,-2.8717 6.2323,-2.9017 13.9677,-0.9052 10.5112,2.7129 16.4759,10.1827 19.2953,24.1644 1.8236,9.0435 2.5675,38.9777 1.3015,52.3773 -1.3666,14.465 -3.7812,48.7603 -4.6468,66 -0.3682,7.3334 -0.9602,16.9461 -1.3156,21.3616 -0.488,6.0636 -0.107,8.8372 1.5568,11.3334 8.0121,12.0205 39.7207,38.7682 58.4755,49.3269 40.3045,22.6907 81.6551,35.2765 130.5363,39.731 17.597,1.6036 34.8902,0.6515 59.1292,-3.2556 24.1097,-3.8863 24.1233,-3.8839 26.9936,4.8132 2.5045,7.5888 0.2038,14.1344 -8.2002,23.3297 -3.746,4.0987 -6.4296,7.8335 -5.9636,8.2996 1.6674,1.6674 37.51,1.0592 46.838,-0.7949 27.8563,-5.5368 58.152,-20.7179 74.5461,-37.3549 4.6582,-4.7272 6.1183,-5.3869 13.7271,-6.2017 4.6829,-0.5015 8.9372,-0.487 9.4539,0.032 0.5168,0.5192 0.9396,2.8177 0.9396,5.1077 0,3.0155 0.8507,4.5917 3.085,5.7163 4.8517,2.442 10.6196,8.5303 11.5344,12.1751 2.2606,9.0071 -10.1415,29.8518 -28.0789,47.1928 -6.5306,6.3135 -15.342,15.4422 -19.581,20.2859 -7.9197,9.0497 -28.9652,26.6424 -45.5725,38.0957 -19.6353,13.5416 -63.8262,34.0271 -87.7375,40.6724 -36.3914,10.1136 -47.7383,12.6912 -73.6495,16.7306 -30.5623,4.7645 -40.5541,5.5273 -81.3333,6.2088 -22,0.3676 -46,0.7867 -53.3334,0.9313 -7.3333,0.1446 -27.1333,-0.123 -44,-0.5947 z m -194.5674,-557.8954 c 1.1819,-5.8192 2.4511,-11.8679 2.8204,-13.4414 0.5855,-2.495 -0.07,-2.9827 -5.1241,-3.8116 -14.0458,-2.3037 -40.1991,-8.8336 -48.1733,-12.0277 -2.2153,-0.8874 -2.3184,-0.099 -1.5079,11.5406 0.4784,6.8712 1.2484,12.8758 1.7111,13.3436 0.4627,0.4679 9.0871,2.7685 19.1655,5.1126 10.0783,2.3441 18.7003,4.8706 19.16,5.6144 0.809,1.3089 8.8668,5.1777 9.4909,4.5568 0.1697,-0.1688 1.2755,-5.0681 2.4574,-10.8873 z m -66.0898,-11.5804 c 0.01,-2.3833 0.392,-8.3833 0.8595,-13.3333 0.8291,-8.7782 0.7735,-9 -2.2553,-9 -1.708,0 -6.4447,-0.8868 -10.5262,-1.9706 -4.0814,-1.0838 -16.7208,-4.1486 -28.0874,-6.8105 -11.3667,-2.662 -25.4667,-6.2422 -31.3334,-7.9561 -5.8666,-1.7139 -12.9953,-3.5307 -15.8414,-4.0373 l -5.1747,-0.9212 1.0389,9.1812 c 0.5715,5.0496 1.1001,10.8736 1.1748,12.9421 0.075,2.0685 1.0358,4.2439 2.1358,4.8341 1.1,0.5903 11,3.2649 22,5.9437 11,2.6787 29.3,7.18 40.6666,10.0029 26.2717,6.5246 25.3311,6.4829 25.3428,1.125 z m -107.9104,-31.3483 c 0.055,-5.6751 0.3537,-11.6875 0.6648,-13.3609 0.3166,-1.7027 -0.1674,-3.2745 -1.0991,-3.5691 -0.9156,-0.2896 -11.9015,-3.842 -24.4132,-7.8942 -12.5116,-4.0522 -25.2781,-7.93608 -28.37,-8.63079 l -5.6217,-1.2631 0.3701,18.19989 0.3701,18.1998 7.3333,0.3125 c 8.9233,0.3802 31.196,3.9025 38.981,6.1646 11.7702,3.4201 11.6729,3.4875 11.7847,-8.1587 z m 491.901,518.3364 c -14.9044,-2.0235 -19.0538,-2.8854 -35.2165,-7.3151 -38.9109,-10.6643 -75.0239,-30.7252 -114.3617,-63.5285 -13.8199,-11.5242 -29.4581,-29.3046 -39.119,-44.4778 -2.8015,-4.4 -7.7145,-12.0288 -10.9178,-16.9528 -7.2488,-11.1426 -9.4456,-16.9011 -7.0196,-18.4004 0.9493,-0.5867 2.5305,-0.7581 3.5136,-0.3808 0.9832,0.3773 1.7876,0.022 1.7876,-0.79 0,-3.6172 4.3081,-0.1982 23.8347,18.9161 11.4576,11.2156 25.932,24.3209 32.1653,29.1228 24.3723,18.7754 56.9876,38.8033 90.6667,55.6753 26.3828,13.2167 40.0182,20.7948 56.9522,31.6521 6.4429,4.1309 11.972,7.7389 12.2868,8.0176 1.1493,1.0179 -3.9126,9.8016 -5.5508,9.6319 -0.9285,-0.096 -4.9882,-0.6228 -9.0215,-1.1704 z m -198.6667,-24.0083 c -15.7643,-6.0386 -22.0081,-9.2244 -34.6667,-17.6883 -20.2868,-13.5643 -41.4633,-33.2113 -54.2584,-50.3396 -8.1657,-10.9311 -19.5808,-31.516 -22.8376,-41.1834 -1.587,-4.7106 -2.7388,-8.7115 -2.5595,-8.8907 0.1792,-0.1793 3.6251,1.2334 7.6574,3.1394 8.3393,3.9416 18.6111,13.7412 33.8735,32.3161 13.0459,15.8775 23.3201,26.6423 37.2329,39.011 10.5272,9.3588 15.4282,13.3653 41.8917,34.2459 12.2399,9.6577 14.6805,12.4406 9.7883,11.1613 -1.5159,-0.3964 -2.7291,0.092 -3,1.2074 -0.3555,1.4635 -3.2236,0.8123 -13.1216,-2.9791 z m -1393.07985,-3.3959 c -4.49322,-1.8893 -5.79749,-6.5066 -2.71004,-9.594 1.1691,-1.1691 1.14822,-2.0198 -0.0861,-3.5071 -1.33349,-1.6067 -1.06884,-2.2597 1.45651,-3.5936 2.93248,-1.549 17.89832,-12.4024 50.8679,-36.8898 17.87146,-13.2736 47.19623,-39.7893 59.84109,-54.1087 5.07179,-5.7434 14.37757,-17.4434 20.67952,-26 14.07084,-19.1049 21.55856,-28.224 23.17467,-28.224 2.13953,0 6.51291,8.5044 6.51382,12.6666 4.8e-4,2.2 -2.01564,7.9 -4.48028,12.6667 -26.6402,51.5228 -31.78404,59.1587 -54.06817,80.2627 -30.62044,28.9988 -59.88486,47.2102 -90.18893,56.125 -5.7213,1.6831 -7.39281,1.7129 -11,0.1962 z m -145.28159,-0.085 c -3.11214,-1.358 -5.64923,-8.0943 -4.79739,-12.7377 1.81039,-9.8685 9.35029,-16.8658 32.89382,-30.5267 19.34093,-11.2224 39.09427,-25.2464 56.8658,-40.3722 21.18354,-18.03 70.23545,-67.8437 79.814,-81.0535 4.59621,-6.3387 9.62295,-11.856 11.17053,-12.2607 1.99807,-0.5225 3.89461,0.4212 6.54208,3.2553 4.86507,5.2081 6.08461,13.1686 3.24733,21.1969 -2.53926,7.185 -10.37266,20.4521 -15.35139,26 -1.97431,2.2 -6.28538,7.933 -9.58017,12.7401 -12.32868,17.9874 -43.36144,52.1155 -58.44322,64.2727 -31.17937,25.1332 -52.12997,37.8381 -74,44.8754 -12.00226,3.862 -25.17075,6.0027 -28.36139,4.6104 z m 325.69473,-16.7358 c -1.46666,-0.8192 -2.87042,-1.6547 -3.11946,-1.8567 -0.68416,-0.5549 9.07381,-14.5515 18.62842,-26.7202 27.23012,-34.6801 80.87959,-94.0716 86.62353,-95.8946 4.84235,-1.5369 12.6399,9.1163 9.54696,13.0432 -0.72146,0.9161 -1.71299,3.3437 -2.20341,5.3949 -0.91053,3.8083 -12.61454,29.0622 -14.02901,30.2706 -0.4292,0.3667 -3.47405,3.9667 -6.76634,8 -19.53645,23.9338 -59.92558,58.647 -77.53125,66.6357 -6.72736,3.0526 -7.55274,3.136 -11.14944,1.1271 z m -595.33335,-4.6415 c -35.47225,-5.4861 -59.87574,-14.5004 -76.61276,-28.2996 C 167.72755,1459.4781 152,1437.4501 152,1427.6599 c 0,-8.1033 8.41783,-15.3781 20.28559,-17.531 6.34453,-1.151 12.24211,1.7801 26.82282,13.3309 11.49428,9.1058 33.25733,20.9489 47.23611,25.7051 15.73972,5.3554 31.09946,7.1813 54.32216,6.4575 23.13516,-0.721 51.33333,-5.2332 51.33333,-8.2143 0,-0.8925 -2.64562,-3.5226 -5.87915,-5.8448 -6.1952,-4.449 -12.10441,-14.3174 -10.72533,-17.9112 0.43305,-1.1285 1.19752,-4.9191 1.69881,-8.4237 l 0.91146,-6.3718 32.66377,-0.2209 c 28.5953,-0.1934 35.1549,-0.655 52.66378,-3.7063 27.68413,-4.8246 36.79898,-6.8312 58.49326,-12.8771 39.03821,-10.8795 60.39853,-20.2288 103.42442,-45.2685 27.12749,-15.7874 32.90918,-19.6067 41.69177,-27.5413 5.29083,-4.7799 5.43314,-5.1184 3.82761,-9.1035 -5.45209,-13.5327 -8.90354,-37.9465 -10.00998,-70.8056 -0.41978,-12.4667 -1.14778,-31.4089 -1.61777,-42.0938 -0.81988,-18.639 -0.71119,-19.8559 2.67949,-30 4.76767,-14.2636 10.57148,-20.5729 18.92467,-20.5729 4.88993,0 6.81005,0.8112 11.10496,4.6914 6.94754,6.2766 11.92084,17.1354 12.97221,28.3235 0.46439,4.9418 1.05044,9.2166 1.30233,9.4995 0.94834,1.065 81.77221,-0.7036 82.93462,-1.8149 0.21684,-0.2073 -1.38933,-7.1995 -3.56928,-15.5382 -4.0427,-15.4641 -6.18279,-27.5595 -7.40082,-41.828 -0.3756,-4.4 -1.27708,-14.3 -2.00329,-22 -2.40878,-25.5404 -2.60216,-28.4968 -3.48871,-53.3333 -0.78631,-22.0286 -1.22629,-32.1763 -1.76334,-40.6699 -0.15694,-2.4822 -1.12955,-2.674 -13.83548,-2.7288 -15.76593,-0.068 -24.86998,-2.1194 -48.33333,-10.8906 -41.69022,-15.58484 -69.07728,-33.23038 -119.25117,-76.83375 -29.79672,-25.89469 -45.69099,-43.45521 -63.61811,-70.28737 -10.39423,-15.55742 -12.7359,-20.93392 -13.15506,-30.20416 -0.4502,-9.95653 0.88745,-11.65785 7.45985,-9.48804 2.51047,0.8288 5.26695,1.67887 6.12552,1.88905 0.85858,0.21018 3.94543,3.86921 6.85968,8.13118 12.41768,18.16036 39.65097,44.95362 66.24595,65.17556 55.6636,42.32475 71.22353,53.35745 98.90171,70.12581 36.94265,22.3811 70.79217,36.42045 74.21443,30.78102 0.33376,-0.55 1.01096,-8.8 1.50488,-18.33334 1.05643,-20.39039 3.29207,-28.49086 9.60563,-34.80442 4.13954,-4.13954 5.12419,-4.52158 9.52832,-3.69694 11.34197,2.1237 17.17297,10.74383 19.73041,29.16803 0.91614,6.6 3.32232,22.2 5.34706,34.66667 3.43879,21.1732 3.68523,25.3901 3.74025,64 0.0512,35.9381 -0.33714,44.1798 -2.97522,63.14 -1.66877,11.9937 -3.96655,25.7937 -5.10619,30.6667 -1.13963,4.873 -2.26655,9.76 -2.50426,10.86 -1.91184,8.847 -3.45189,14.839 -4.56911,17.7775 -1.77485,4.6682 -0.29142,5.3664 11.15777,5.2514 18.56026,-0.1864 65.43532,-1.9669 65.99396,-2.5067 0.3133,-0.3027 -0.6827,-1.7171 -2.21333,-3.1431 -7.6956,-7.1696 -16.54304,-45.3567 -18.85443,-81.3791 -1.45935,-22.7438 -0.86824,-60.7709 1.14976,-73.9656 1.06467,-6.9613 2.29251,-10.2073 4.88435,-12.9126 l 3.46217,-3.6137 6.14731,2.4146 c 4.28077,1.6815 6.36962,3.3565 6.87949,5.5163 0.66752,2.8276 1.37576,3.0753 8.02028,2.805 9.04429,-0.3681 43.79183,-3.8531 68.62144,-6.8826 24.47457,-2.9861 40.79588,-2.8658 44.32269,0.3267 4.52083,4.0923 5.75904,12.0147 6.456,41.3075 0.6014,25.2766 1.43624,40.9959 4.13371,77.8343 0.925,12.6324 -1.60779,35.838 -4.38438,40.1701 -2.69467,4.2042 -4.86115,3.7636 -10.12086,-2.0583 -4.01529,-4.4444 -4.85991,-6.7098 -6.96068,-18.6694 -4.82521,-27.4698 -5.2179,-63.6707 -1.22325,-112.7683 l 0.85397,-10.4961 -7.12771,0.8682 c -3.92024,0.4775 -8.36261,1.1258 -9.87194,1.4407 -1.50932,0.3149 -6.94422,0.9282 -12.07755,1.3628 -5.13334,0.4346 -13.53334,1.3211 -18.66667,1.97 -7.97521,1.0082 -49.26918,0.7996 -57.33333,-0.2895 -2.60646,-0.352 -2.65705,0.2871 -2.24046,28.3065 0.47549,31.9808 2.54072,85.8907 3.4478,90 0.32374,1.4667 0.63453,9.4583 0.69064,17.7591 l 0.10202,15.0923 53.66666,-0.83 c 29.51667,-0.4565 55.28791,-1.0421 57.26942,-1.3013 1.98151,-0.2591 16.98151,-1.1946 33.33334,-2.0787 16.35185,-0.8841 29.91425,-1.7737 30.13865,-1.9769 0.2244,-0.2032 -0.4696,-3.8858 -1.5423,-8.1836 -2.5397,-10.1753 -3.2871,-17.3804 -4.8907,-47.1475 -1.3398,-24.8679 -1.7883,-99.3462 -0.6505,-108 0.3375,-2.5667 1.2358,-8.8667 1.9963,-14 0.7604,-5.13337 1.4747,-11.93532 1.5873,-15.11548 0.2444,-6.9041 2.2273,-8.55128 13.7767,-11.44431 7.0819,-1.77395 53.5244,-8.7635 84.6485,-12.7395 6.2333,-0.79629 13.1333,-1.70111 15.3333,-2.01072 19.8731,-2.79674 104.4179,-11.56887 117.7846,-12.22099 16.4085,-0.80052 17.2688,-0.70739 24.28,2.62827 6.2356,2.96669 7.558,4.2715 9.3036,9.18044 1.8592,5.22788 2.4703,5.75839 7.0745,6.14051 2.8323,0.23507 5.3614,1.25701 5.7744,2.33333 0.4042,1.05329 1.8855,1.91508 3.2919,1.91508 1.4275,0 3.0626,1.3298 3.7016,3.01044 2.1583,5.67673 4.0877,27.01743 5.4539,60.32293 0.752,18.3333 2.5668,43.2333 4.0329,55.3333 2.6446,21.827 3.724,65.2004 1.8122,72.8177 l -0.8775,3.4963 13.8506,-0.8927 c 16.3251,-1.0523 40.3111,-3.4373 40.9452,-4.0714 0.2447,-0.2447 -0.4696,-5.4485 -1.5872,-11.564 -2.2247,-12.1738 -4.2996,-33.6501 -5.454,-56.4526 -0.4083,-8.0666 -1.3976,-24.8666 -2.1983,-37.3333 -0.8007,-12.4667 -1.2456,-29.9157 -0.9888,-38.7757 0.4365,-15.0538 0.7009,-16.4153 4.0364,-20.78338 2.919,-3.8227 4.2641,-4.57235 7.383,-4.11458 2.0976,0.30786 7.3914,-0.64011 11.7641,-2.10659 4.3726,-1.46648 16.9502,-3.90354 27.9502,-5.41569 11,-1.51214 23.6,-3.33926 28,-4.06024 19.0293,-3.11816 27.5554,-4.20275 41.7408,-5.30976 8.2907,-0.647 16.0907,-0.98026 17.3333,-0.74057 1.2426,0.2397 3.8632,0.48172 5.8236,0.53782 1.9604,0.0561 5.4104,1.65536 7.6667,3.55388 3.2238,2.71265 4.1023,4.51148 4.1023,8.4 0,2.72148 0.5542,5.51814 1.2314,6.21481 1.1736,1.20714 1.71,8.5211 3.5152,47.9333 0.4366,9.5334 1.7347,23.9334 2.8846,32 1.215,8.5235 2.1085,24.1033 2.1333,37.196 0.041,21.8919 -0.044,22.5991 -3.0087,25 -4.4264,3.5843 -7.0366,3.0788 -12.5451,-2.4297 -5.6664,-5.6664 -6.6318,-8.7228 -9.5876,-30.3546 -2.4665,-18.0515 -2.1494,-61.4599 0.6517,-89.1871 0.8765,-8.6765 1.2985,-16.54486 0.9376,-17.4852 -0.4967,-1.29439 -2.3783,-1.43745 -7.7462,-0.5889 -35.7585,5.6527 -63.4848,8.2939 -88.1934,8.4014 -26.1544,0.1138 -26.3875,0.1403 -25.6886,2.9262 0.62,2.4716 1.5538,8.5534 3.9696,25.8553 3.4762,24.8965 5.2366,49.6015 4.9879,70 -0.2375,19.4738 -2.5939,47.7383 -4.3704,52.4201 -2.2489,5.9268 -2.0031,6.0109 14.4954,4.9548 8.6166,-0.5515 17.4666,-1.1893 19.6666,-1.4173 2.2,-0.228 15.1871,-1.3449 28.8603,-2.4821 13.6731,-1.1372 31.9731,-3.0227 40.6666,-4.19 16.3708,-2.1983 40.798,-1.9328 68.4731,0.7442 6.9667,0.6739 16.5492,1.3527 21.2944,1.5086 l 8.6276,0.2834 1.8326,-7.5087 c 1.6904,-6.9261 1.5565,-9.0914 -1.7263,-27.9108 -6.5745,-37.6901 -7.3202,-50.8768 -6.6575,-117.7356 0.3343,-33.7333 0.9614,-76.33331 1.3935,-94.66664 0.7625,-32.34937 0.8809,-33.4802 4.0132,-38.30857 8.1132,-12.50631 22.3238,-6.03327 26.367,12.0104 2.198,9.80938 6.9284,41.60385 8.0785,54.29817 0.3986,4.4 1.3543,14.9 2.1237,23.33334 1.8939,20.7584 2.4515,49.948 1.2479,65.3333 -0.545,6.9667 -1.3423,20.9024 -1.7719,30.9682 -0.8351,19.5705 -0.9116,20.2855 -5.0964,47.6523 -2.6127,17.0853 -2.6319,18.0204 -0.3972,19.3333 1.2915,0.7588 5.4616,3.8735 9.2668,6.9217 5.5295,4.4294 7.3839,6.9727 9.2357,12.6667 6.2694,19.2773 6.4451,67.8173 0.3659,101.1245 -8.56,46.8999 -11.1821,56.969 -16.2615,62.447 l -3.1828,3.4325 -3.2779,-3.0795 c -1.8028,-1.6936 -3.8739,-2.711 -4.6024,-2.2608 -2.0087,1.2415 -5.2738,-2.7055 -6.8254,-8.2508 -2.4049,-8.5953 -7.9045,-41.8702 -8.6421,-52.2884 -1.4969,-21.142 -2.3218,-30.3003 -3.483,-38.6667 -0.6616,-4.7666 -1.2147,-13.0166 -1.2293,-18.3333 -0.014,-5.3167 -0.4764,-9.6556 -1.0264,-9.642 -0.55,0.014 -8.5,2.7237 -17.6667,6.0225 -9.1666,3.2989 -22.6666,7.2109 -30,8.6933 -7.3333,1.4825 -15.1333,3.2571 -17.3333,3.9436 -2.2,0.6866 -10.3,1.8444 -18,2.5729 -18.3506,1.7362 -40.6484,3.9456 -47.3333,4.6902 -2.9334,0.3267 -9.2334,0.9158 -14,1.3091 -4.7667,0.3933 -15.2667,1.2887 -23.3334,1.9898 -8.0666,0.701 -20.6666,1.6554 -28,2.1208 -7.3333,0.4653 -15.4333,1.0743 -18,1.3533 -2.5666,0.2789 -9.4666,0.853 -15.3333,1.2757 -5.8667,0.4227 -13.9667,1.0186 -18,1.3242 -11.1205,0.8426 -49.3239,3.1247 -67.3333,4.0222 -8.8,0.4385 -18.7,1.0002 -22,1.2481 -3.3,0.2479 -24.3,0.836 -46.6667,1.3069 -49.0282,1.0322 -94.4553,2.6756 -113.3333,4.1003 -7.568,0.5711 -37.7332,1.5724 -101.33337,3.3638 -20.16667,0.568 -66.96667,0.7382 -104,0.3781 -63.93341,-0.6215 -72.91389,-0.8613 -88.66667,-2.3675 -3.66667,-0.3506 -19.26667,-1.3043 -34.66667,-2.1194 -30.31185,-1.6042 -91.88302,-7.1588 -95.66667,-8.6304 -2.78672,-1.0838 -2.83155,-0.3851 -0.98661,15.3778 1.9539,16.6939 1.65005,44.1501 -0.65525,59.2081 -1.9918,13.0103 -2.54524,14.5225 -16.7495,45.7647 -7.10622,15.6301 -23.83549,36.4883 -39.60742,49.3829 -10.35327,8.4645 -31.35226,22.7263 -49.17769,33.3998 -21.59007,12.9277 -73.67069,35.2427 -125.39289,53.7272 -35.68601,12.7535 -38.65596,13.6754 -67.76398,21.036 -40.77306,10.3104 -53.47527,12.1281 -83.33334,11.9253 -11.36667,-0.077 -22.16667,-0.3724 -24,-0.656 z m 826.00006,-323.8084 c 21.2666,-0.5346 40.1666,-1.1221 42,-1.3056 1.8333,-0.1835 9.4833,-0.4102 17,-0.5038 12.2085,-0.152 13.6666,-0.4262 13.6666,-2.5702 0,-1.32 -0.5409,-2.97 -1.2021,-3.6666 -4.0023,-4.2173 -8.2695,-41.294 -8.5514,-74.302 -0.2224,-26.0444 1.4688,-78.3872 2.8803,-89.1408 1.7218,-13.11872 2.1253,-12.54096 -8.4601,-12.11496 -5.1333,0.20658 -16.2333,1.04172 -24.6667,1.85586 -8.4333,0.81415 -29.028,1.47951 -45.766,1.47858 l -30.4326,-0.002 0.7552,6.14582 c 0.4153,3.3802 1.3757,13.6458 2.1342,22.8125 0.7585,9.1667 1.632,18.1667 1.9411,20 0.3091,1.8333 0.9251,7.5333 1.3689,12.6667 0.4437,5.1333 1.3702,14.4333 2.0588,20.6666 2.7607,24.9919 1.0001,64.905 -3.9928,90.5154 -1.6652,8.5415 -1.7225,9.8364 -0.4001,9.0391 0.55,-0.3316 18.4,-1.0403 39.6667,-1.5749 z m 124,-5.3457 c 40.7625,-1.7744 84.6666,-4.6366 84.6666,-5.5194 0,-0.2979 -0.8881,-1.8971 -1.9736,-3.5538 -3.3413,-5.0994 -7.29,-23.4922 -8.3502,-38.894 -1.3235,-19.2281 -1.2913,-83.978 0.058,-116 0.7252,-17.21492 0.6184,-25.97427 -0.3333,-27.33334 -0.9789,-1.39792 -1.7016,-1.55237 -2.4006,-0.51304 -0.55,0.81783 -2.2,1.84179 -3.6666,2.27547 -2.8723,0.8493 -55.8915,5.57621 -76.6667,6.8352 -20.8949,1.26623 -32.0434,2.39396 -32.6021,3.29785 -0.2904,0.46985 0.2799,4.73558 1.2672,9.47936 1.7634,8.473 3.9569,32.2924 5.2759,57.2918 1.6981,32.1842 2.3745,42.073 2.9414,43.0026 1.3634,2.2354 0.2785,51.6224 -1.3332,60.6884 -0.9476,5.33 -1.4003,10.0135 -1.0061,10.4077 0.3942,0.3942 4.3333,0.3957 8.7535,0 4.4202,-0.3925 15.8367,-1.0531 25.3701,-1.4681 z m -386.12646,169.4619 c -0.31334,-0.3133 -16.76307,-0.9334 -36.55498,-1.378 -19.7919,-0.4446 -37.78527,-1.0677 -39.98527,-1.3846 -2.2,-0.317 -9.4,-0.9024 -16,-1.301 -31.36737,-1.8944 -42.28378,-3.6493 -46.03508,-7.4006 -2.09303,-2.093 -2.25784,-3.2271 -1.09679,-7.5473 0.75149,-2.7964 2.06766,-5.8169 2.9248,-6.7123 2.00393,-2.0935 23.67906,-3.4918 78.20707,-5.0453 13.56667,-0.3865 30.36667,-0.9948 37.33333,-1.3517 6.96667,-0.3569 24.66667,-0.9714 39.33334,-1.3655 14.66667,-0.3941 29.77105,-0.9707 33.56529,-1.2815 10.67235,-0.874 87.13759,-3.1217 181.10135,-5.3233 46.9334,-1.0996 88.0334,-2.2798 91.3334,-2.6226 3.3,-0.3428 19.5,-0.9528 36,-1.3556 16.5,-0.4028 35.1,-1.0135 41.3333,-1.3572 6.2333,-0.3436 19.7333,-0.9447 30,-1.3356 10.2667,-0.3909 27.9667,-1.293 39.3333,-2.0046 52.7053,-3.2997 87.2219,-4.2635 119.7658,-3.3441 18.8288,0.5319 36.9342,1.155 40.2342,1.3847 3.3,0.2297 18.3,0.5551 33.3334,0.7231 21.1271,0.2361 57.8503,2.0391 78,3.8296 0.7333,0.065 2.1806,0.6548 3.2162,1.3104 4.2957,2.7192 -3.9782,6.6698 -23.8829,11.4033 -17.9541,4.2697 -48.1254,9.8973 -60.6667,11.3156 -5.8666,0.6634 -19.0666,2.4031 -29.3333,3.8659 -10.2667,1.4628 -22.5667,2.9846 -27.3333,3.3817 -4.7667,0.3972 -14.3667,1.3048 -21.3334,2.0169 -6.9666,0.7121 -19.5666,1.6577 -28,2.1014 -8.4333,0.4437 -16.5333,1.0389 -18,1.3227 -1.4666,0.2838 -13.1666,0.9069 -26,1.3847 -12.8333,0.4777 -27.8333,1.0729 -33.3333,1.3226 -5.5,0.2497 -22.9,0.8655 -38.6667,1.3684 -15.7666,0.5028 -31.6666,1.1139 -35.3333,1.3578 -3.6667,0.244 -35.1667,0.7981 -70,1.2314 -34.8333,0.4333 -69.9333,1.0724 -78,1.4201 -19.4682,0.8393 -254.72889,2.1014 -255.45976,1.3705 z M 2073.5784,1035.3386 c -3.4415,-7.5533 0.5462,-11.0891 33.3559,-29.5762 18.5912,-10.47547 38.997,-23.54004 72.3991,-46.35278 7.3333,-5.00846 13.6333,-9.50064 14,-9.98261 0.3667,-0.48197 5.7667,-5.11664 12,-10.29925 20.6198,-17.14407 51.5041,-50.73479 48.9735,-53.2653 -0.4125,-0.41252 -6.5863,-0.0154 -13.7195,0.88245 -11.7076,1.47364 -45.5106,1.15132 -53.254,-0.50778 -1.4667,-0.31425 -6.8667,-0.98738 -12,-1.49584 -5.1333,-0.50847 -11.4333,-1.45577 -14,-2.10513 -2.5667,-0.64935 -7.6667,-1.57672 -11.3333,-2.06083 -3.6667,-0.4841 -13.5667,-2.62829 -22,-4.76486 -21.4423,-5.43235 -44.7248,-11.55336 -53.0067,-13.93555 -3.8537,-1.10846 -12.5537,-3.53556 -19.3334,-5.39356 -6.7796,-1.85801 -15.0266,-4.17425 -18.3266,-5.14722 -3.3,-0.97297 -9.5045,-2.70254 -13.7877,-3.84348 -21.4189,-5.70541 -53.0025,-23.75099 -69.717,-39.83349 l -6.838,-6.57946 -9.7137,1.50713 c -13.9761,2.16846 -55.7539,1.44788 -80.6103,-1.39036 -27.3663,-3.12484 -56.249,-8.34207 -74,-13.36701 -7.7,-2.17971 -18.2,-5.11055 -23.3333,-6.51298 -20.2822,-5.54108 -51.8327,-18.1263 -76,-30.31573 -7.0656,-3.5637 -22.7545,-14.31671 -24.1258,-16.53557 -0.4483,-0.72545 -1.1164,-4.49351 -1.4845,-8.37348 -0.6315,-6.65501 -0.409,-7.31489 3.9293,-11.6531 2.5292,-2.52925 4.9917,-6.16498 5.4722,-8.07942 0.4805,-1.91444 2.9776,-6.07799 5.5491,-9.25232 2.5716,-3.17433 10.9602,-15.07152 18.6415,-26.43818 7.6813,-11.36667 16.4672,-24.21191 19.5244,-28.54497 10.852,-15.38142 23.6985,-38.01715 27.0525,-47.66683 1.8712,-5.38351 4.29,-10.43908 5.3753,-11.2346 1.502,-1.10098 1.6022,-1.81742 0.4196,-3 -1.1826,-1.18258 -0.5812,-1.55361 2.5184,-1.55361 2.4954,0 5.4645,-1.29057 7.6687,-3.33333 4.204,-3.89619 8.8747,-4.29374 11.7486,-1 1.1197,1.28333 2.7652,6.53333 3.6566,11.66667 0.8915,5.13333 2.8022,12.88377 4.2462,17.22319 2.888,8.67901 13.9195,31.9982 18.7429,39.62001 1.6857,2.66376 6.2384,9.86376 10.1169,16 3.8786,6.13624 11.2163,17.1568 16.306,24.49013 18.41,26.5253 30.6421,52.04042 30.6421,63.91672 0,6.29056 -1.5901,10.08329 -4.2275,10.08329 -0.5651,0 -0.7473,-2.55 -0.4048,-5.66667 l 0.6225,-5.66667 -1.7646,5.33334 c -0.9706,2.93333 -2.5957,6.65604 -3.6113,8.27269 -1.0157,1.61665 -1.5386,3.24747 -1.162,3.62404 0.6347,0.63469 21.8626,5.16402 53.881,11.49642 7.3334,1.45034 17.6834,3.77037 23,5.15562 5.3167,1.38526 9.6667,2.2644 9.6667,1.95364 0,-0.31075 -4.3965,-6.10092 -9.77,-12.86704 -5.3735,-6.76612 -12.1235,-15.65188 -15,-19.74614 -2.8765,-4.09425 -12.13,-17.17998 -20.5633,-29.0794 -31.6836,-44.70551 -39.4877,-57.16282 -53.7393,-85.7818 -16.3196,-32.77165 -14.6301,-28.87002 -29.3135,-67.69471 -11.98,-31.67644 -15.7199,-42.79514 -23.0737,-68.59676 -6.116,-21.45908 -6.05,-22.91037 1.1265,-24.76454 3.1166,-0.80525 6.6695,-1.75386 7.8953,-2.10802 4.6916,-1.35556 11.2482,9.83715 29.7598,50.80266 33.8261,74.85579 53.1098,106.21188 109.3398,177.79154 14.5011,18.45958 33.844,41.35856 42.9842,50.88661 18.4483,19.23118 21.9605,21.43692 53.6875,33.7169 42.9857,16.63765 80.9231,25.97351 111.3334,27.39752 l 18.6666,0.8741 0.4249,4.4277 c 0.2451,2.55452 -0.5195,5.86893 -1.8073,7.83439 -2.9727,4.5369 -2.0449,5.00107 15.2555,7.63231 29.5093,4.4881 63.7342,3.24736 91.3496,-3.31165 12.0076,-2.85198 37.2968,-12.88541 43.444,-17.23635 1.8333,-1.29761 8.6236,-5.16737 15.0894,-8.59945 13.2897,-7.05424 18.6144,-7.62647 19.3568,-2.08028 0.4681,3.49629 2.2153,6 4.1872,6 0.6417,0 2.7734,2.36757 4.7371,5.26126 3.0904,4.554 3.4562,6.12233 2.7207,11.66667 -0.8212,6.19026 -0.7362,6.4054 2.5295,6.4054 4.3162,0 4.2572,1.40849 -0.2874,6.86232 -5.1799,6.21635 -6.4092,7.37236 -18.7164,17.60063 -8.2107,6.82379 -12.4033,11.53834 -16.6,18.66667 -5.8559,9.9463 -17.2549,26.99267 -24.265,36.28645 -9.7626,12.94295 -27.2533,32.91788 -31.8559,36.38053 -1.3406,1.00851 -4.3675,3.71685 -6.7266,6.01853 -5.2515,5.12364 -15.8856,13.8601 -22.1694,18.21317 -2.5667,1.77806 -5.2667,3.70211 -6,4.27568 -12.3751,9.67903 -39.9649,25.26333 -62,35.02123 -6.2333,2.7603 -13.7333,6.0872 -16.6667,7.3931 -17.1747,7.6462 -58.1914,21.2817 -64.0172,21.2817 -0.8551,0 -2.2371,-1.4976 -3.0711,-3.3281 z M 1832.0001,762.08083 c 0,-0.32222 -4.6627,-5.27222 -10.3615,-11 -21.5664,-21.67597 -59.975,-86.70315 -67.2364,-113.83356 -1.5682,-5.85921 -3.4461,-10.45481 -4.1732,-10.21245 -0.7271,0.24235 -2.2906,2.20867 -3.4746,4.36959 -9.1475,16.69607 -20.3319,34.12079 -29.9081,46.59561 -3.7059,4.82769 -16.5477,20.36814 -18.1796,22 -0.3666,0.36667 -4.4604,5.01487 -9.0973,10.32934 l -8.4306,9.66267 3.7639,1.35993 c 2.0702,0.74796 5.864,2.19588 8.4307,3.21759 13.14,5.23065 83.8844,26.00174 104.6667,30.73093 5.1333,1.16814 14.1333,3.24175 20,4.60803 11.5685,2.69418 14,3.07146 14,2.17232 z m -988.66674,229.9499 c -13.68312,-2.09046 -20.38228,-7.33114 -15,-11.73433 4.60752,-3.76938 59.59125,-13.47535 82.37389,-14.541 25.60193,-1.19753 35.16954,2.46878 36.63372,14.03806 0.62432,4.93313 -0.95138,6.31713 -9.39547,8.25236 -17.17551,3.9363 -78.12681,6.50347 -94.61214,3.98491 z M 2006.6667,974.31144 c -0.3666,-0.34736 -6.9666,-1.03514 -14.6666,-1.52839 -11.3438,-0.72668 -41.0923,-4.44658 -54,-6.75243 -1.4667,-0.26201 -9.5667,-1.7009 -18,-3.19754 -31.722,-5.62959 -54.8687,-10.8099 -79.3334,-17.75503 -50.8993,-14.44953 -95.2286,-33.4711 -132.2045,-56.72862 -12.8924,-8.1092 -41.8215,-29.2716 -49.1288,-35.93905 -1.4667,-1.33823 -6.5653,-5.72802 -11.3303,-9.75508 -4.765,-4.02707 -11.365,-10.29431 -14.6667,-13.9272 -3.3017,-3.63289 -8.6415,-9.33289 -11.8663,-12.66667 -7.0377,-7.27553 -14.6787,-17.24445 -22.0392,-28.7536 -2.987,-4.67054 -9.0672,-13.77547 -13.5117,-20.23318 -9.686,-14.0735 -13.279,-21.29854 -15.4536,-31.07463 -0.9306,-4.18361 -3.1787,-9.14227 -5.2341,-11.54499 -1.9817,-2.31641 -4.6153,-7.25935 -5.8525,-10.98431 -1.2372,-3.72497 -2.7689,-7.09365 -3.4037,-7.48597 -0.6347,-0.39231 -2.2076,1.55063 -3.4952,4.31765 -1.2876,2.76703 -2.7326,5.33095 -3.211,5.69762 -0.4784,0.36667 -1.6521,2.16667 -2.6083,4 -3.315,6.35626 -20.4919,28.70877 -28.5562,37.16065 -4.4575,4.67169 -15.3046,14.43258 -24.1046,21.69086 -24.1507,19.91962 -24.2635,20.03321 -25.8836,26.04962 -1.794,6.66266 -6.3658,9.93617 -34.1164,24.42841 -10.2666,5.36158 -19.5666,10.24647 -20.6666,10.85533 -1.1,0.60885 -7.7,3.58507 -14.6667,6.61383 -6.9667,3.02876 -22.2168,9.67798 -33.8893,14.77603 -28.313,12.36598 -98.4858,35.37101 -120.7774,39.5949 -4.0333,0.76426 -11.5333,2.33263 -16.6666,3.48527 -5.1334,1.15264 -15.6334,3.27867 -23.3334,4.7245 -7.7,1.44584 -20,3.79719 -27.3333,5.22524 -12.5449,2.44291 -20.4197,3.61569 -58,8.63782 -8.4333,1.12701 -23.4333,2.66597 -33.3333,3.41992 -9.9,0.75395 -21.4821,1.6655 -25.738,2.02568 -32.8598,2.78091 -52.0581,3.68338 -96.9287,4.55642 -53.41685,1.03932 -145.5902,0.77488 -156.00001,-0.44756 -6.65216,-0.78117 -36.56926,-3.34634 -48,-4.11565 -4.03333,-0.27144 -10.03333,-0.85536 -13.33333,-1.29758 -3.3,-0.44222 -12.6,-1.65389 -20.66667,-2.6926 -32.46299,-4.1801 -85.05541,-16.52522 -103.33334,-24.25564 -23.30641,-9.85715 -42.83952,-22.25303 -40.64951,-25.79654 0.50633,-0.81926 1.12587,-4.45817 1.37676,-8.08646 0.54089,-7.82232 4.73423,-14.55244 9.0672,-14.55244 1.62041,0 7.42955,1.44697 12.90921,3.21549 38.99109,12.58412 76.58165,18.66466 139.96301,22.63999 6.96667,0.43696 18.36667,1.21233 25.33334,1.72304 13.51086,0.99047 104.17878,0.86606 125.33333,-0.17196 6.96667,-0.34185 27.06667,-1.24728 44.66667,-2.01207 57.87188,-2.51477 126.85084,-8.13981 163.33334,-13.31938 4.7667,-0.67674 15.8667,-2.19073 24.6667,-3.36442 50.3567,-6.71625 121.7476,-23.79682 169.3333,-40.51367 32.9949,-11.5911 71.8555,-28.29354 91.3333,-39.25538 2.5667,-1.44448 10.0421,-5.61609 16.6119,-9.27024 27.1227,-15.08555 65.1538,-42.50631 82.5341,-59.50773 20.823,-20.36911 30.2966,-33.94221 34.8958,-49.99621 1.2342,-4.30789 3.3846,-9.76583 4.7787,-12.12874 4.6628,-7.90281 13.179,-28.79663 13.222,-32.43875 0.023,-1.97999 0.7801,-4.49998 1.6818,-5.59998 2.1963,-2.67927 9.8374,-8 11.4888,-8 0.7266,0 1.9059,-1.045 2.6207,-2.32223 1.2901,-2.30525 3.4996,-1.46087 3.4996,1.33741 0,0.80279 1.528,1.86829 3.3957,2.36778 3.9787,1.06407 13.3304,6.77603 15.4483,9.4357 0.8094,1.0164 1.5235,3.64801 1.5871,5.84801 0.148,5.12597 8.6564,30.36249 10.4366,30.95591 0.7419,0.24729 4.1248,-3.01663 7.5177,-7.25315 3.3928,-4.23652 12.2484,-14.00276 19.6789,-21.70276 11.2663,-11.67483 32.2372,-37.4589 51.369,-63.15904 8.9074,-11.96545 27.8945,-46.05934 46.4653,-83.43465 12.7888,-25.73862 21.3521,-41.34786 24.8636,-45.32144 2.9459,-3.33361 6.969,-9.35758 8.9402,-13.38661 5.1303,-10.4859 4.5952,-19.51858 -2.9577,-49.93131 -3.3604,-13.5311 -6.2101,-28.23911 -6.3326,-32.68448 -0.1226,-4.44537 -0.6713,-8.08248 -1.2194,-8.08248 -1.8049,0 -7.7617,13.88017 -8.5832,20 -1.7267,12.86389 -4.9119,24.90104 -7.9382,30 -5.2939,8.91925 -21.6767,22.42737 -45.7007,37.6815 -21.7069,13.78291 -28.1859,16.60523 -47.6373,20.75134 -7.749,1.65173 -22.6093,4.91316 -31.3333,6.87684 -86.5737,19.48674 -206.8063,37.41376 -286,42.6434 -12.6858,0.83771 -18.5202,1.33408 -40,3.40302 -74.7646,7.20133 -78.0039,7.37075 -150.6667,7.88018 -52.678,0.36932 -81.2487,-7.01438 -96.5902,-24.96231 -2.9051,-3.39873 -5.7608,-5.70146 -6.3459,-5.11718 -1.2293,1.22744 -1.1093,19.85619 0.2748,42.69223 l 0.9607,15.84902 -4.2125,3.29677 c -2.709,2.12007 -6.9938,8.83657 -12.0049,18.81765 -13.86735,27.6212 -30.44566,53.92409 -50.47405,80.0814 -12.77052,16.67845 -14.91608,19.27887 -27.5502,33.39084 -31.00419,34.63082 -73.60755,70.90595 -116.44005,99.14421 -10.52706,6.9402 -17.53759,12.45406 -17.97856,14.14033 -0.39756,1.52026 -1.68554,2.7641 -2.86219,2.7641 -1.17664,0 -4.68282,1.15081 -7.79149,2.55736 -9.64832,4.36546 -35.3281,13.30364 -46.07183,16.03589 -23.67873,6.02179 -86.91661,17.7395 -104.91364,19.44006 -5.13334,0.48506 -11.13334,1.11857 -13.33334,1.4078 -12.01002,1.57896 -50.18975,1.96986 -62.93762,0.64438 -21.23018,-2.20744 -23.52013,-2.59946 -39.64025,-6.78616 -38.37064,-9.96556 -66.40377,-24.44022 -89.75547,-46.34446 l -9.66666,-9.06748 v -7.98035 c 0,-9.56401 2.2875,-13.46494 8.58907,-14.64712 6.23903,-1.17045 9.02375,-0.0217 17.94476,7.40242 8.35781,6.95544 30.3086,20.06253 45.82375,27.36193 21.43059,10.08243 71.51468,19.31117 104.78369,19.30795 19.66866,-0.002 61.5254,-4.54935 61.5254,-6.68432 0,-0.57492 -2.55,-2.36146 -5.66667,-3.97008 -11.02956,-5.69273 -15.4658,-12.88987 -13.71096,-22.24398 l 0.88655,-4.72569 8.24554,0.83913 c 30.63542,3.11773 67.33108,-0.17096 94.91221,-8.50609 42.9052,-12.96612 106.79723,-55.43494 155.14256,-103.12272 31.6837,-31.25278 50.37098,-52.89986 80.94123,-93.76114 l 20.66749,-27.62492 -4.59505,-4.76621 c -9.83279,-10.19904 -12.98258,-22.46716 -10.26512,-39.98165 1.93557,-12.47503 5.3918,-20.71206 14.40599,-34.33297 6.55,-9.89739 7.11921,-11.34475 6.29189,-16 -0.68417,-3.84992 -2.68709,-6.79683 -8.08261,-11.89198 -7.92801,-7.48667 -8.85577,-9.89294 -3.8143,-9.89294 2.85571,0 3.24144,-0.46732 2.57558,-3.12031 -0.92134,-3.67093 2.42252,-6.3478 11.22325,-8.98455 4.8118,-1.44167 7.1264,-1.33805 15.9036,0.71196 12.8231,2.99497 18.7101,5.92844 24.009,11.96351 5.4728,6.23316 7.2181,13.3219 6.7695,27.49419 -0.3429,10.82959 -0.104,12.07131 3.3171,17.24094 3.7277,5.63289 7.1127,7.62025 20.1766,11.84586 8.4609,2.73674 37.7513,2.59269 76.6666,-0.37704 15.0334,-1.14723 31.8334,-2.3754 37.3334,-2.72925 37.7146,-2.42645 34.4642,-2.14644 54,-4.65191 5.8666,-0.75241 19.3666,-2.29995 30,-3.43898 37.8884,-4.05857 118.1681,-14.22357 127.3333,-16.12291 1.4667,-0.30395 15.2667,-2.66721 30.6667,-5.2517 37.7261,-6.33136 96.5836,-17.67847 130,-25.06263 14.1441,-3.12551 50.9648,-11.73584 56,-13.09533 2.5666,-0.69299 7.1483,-1.79052 10.1815,-2.43895 18.7421,-4.00669 39.6794,-10.009 50.2569,-14.40764 12.021,-4.99891 12.2867,-5.20792 15.6751,-12.33018 3.5822,-7.52952 5.3066,-12.42901 11.4663,-32.57842 3.4017,-11.12763 4.3015,-12.63472 12.3776,-20.73108 14.2249,-14.26058 31.4947,-20.62594 47.1737,-17.38749 9.0509,1.86945 16.3824,5.22628 19.8931,9.10849 2.268,2.50791 2.192,2.95675 -2,11.80854 -4.0904,8.6374 -4.3518,10.05988 -4.2643,23.20154 0.088,13.22796 0.4713,15.11318 6.9508,34.18593 3.7717,11.10227 7.4854,24.11529 8.2526,28.91784 1.4725,9.21766 0.709,27.3552 -1.52,36.10902 -1.5851,6.225 -8.8217,19.42696 -11.1355,20.31484 -0.9022,0.3462 -2.7419,3.14411 -4.0883,6.21758 -2.9807,6.8041 -7.996,13.75582 -10.6624,14.77899 -1.0833,0.41572 -4.4114,-0.22115 -7.3958,-1.41526 -4.6065,-1.84316 -5.6076,-1.88948 -6.627,-0.30669 -0.6605,1.02543 -4.5348,12.25133 -8.6095,24.94644 -17.1797,53.52507 -41.7996,104.25238 -66.4513,136.91799 -16.7252,22.16228 -43.0943,45.61794 -62.22,55.34537 -11.3148,5.75483 -11.6148,6.44176 -7.449,17.05975 1.9409,4.94683 3.5288,9.66434 3.5288,10.48335 0,0.81901 1.4227,1.84619 3.1616,2.28262 1.7389,0.43642 4.864,3.05147 6.9448,5.81121 2.0807,2.75973 4.258,5.2177 4.8384,5.46215 0.5804,0.24444 1.0552,1.02736 1.0552,1.73982 0,1.96952 9.5754,15.65051 20.0018,28.57796 5.1324,6.36345 9.352,11.94518 9.377,12.40384 0.2241,4.10893 40.3764,39.59736 63.75,56.34517 37.164,26.62894 113.0493,59.7137 175.5379,76.53165 48.8241,13.14034 90.9821,22.14016 132,28.17917 23.1523,3.40867 28.6049,3.72855 63.3333,3.71542 40.6213,-0.0154 50.7222,-1.06506 76.6667,-7.96725 6.6,-1.75585 14.6736,-3.36744 17.9414,-3.58133 5.798,-0.37951 6.0168,-0.24667 9.0666,5.50543 3.5926,6.7758 3.4795,11.86067 -0.3106,13.9712 -1.4498,0.80729 -3.2662,2.2513 -4.0365,3.20889 -0.7704,0.9576 -2.2842,1.88646 -3.3641,2.06413 -1.0799,0.17767 -3.1635,0.96328 -4.6301,1.74579 -4.6907,2.50262 -35.6053,12.29003 -47.4102,15.00981 -27.4313,6.32002 -56.7256,9.67474 -90.5898,10.37415 -17.9667,0.37107 -32.9667,0.39048 -33.3334,0.0431 z m -621,-23.68629 c -1.65,-0.66322 -3,-2.30519 -3,-3.64882 0,-1.34363 -0.66,-3.10297 -1.4667,-3.90964 -2.8672,-2.86726 3.4193,-6.67683 15.8237,-9.58906 31.4224,-7.3771 97.2738,-12.28347 102.0165,-7.60092 0.8946,0.88323 2.7096,2.01617 4.0335,2.51766 1.9388,0.73446 2.3278,2.13129 2,7.18202 l -0.407,6.27023 -6.6667,1.55927 c -9.3856,2.19522 -28.3343,4.4937 -44,5.33719 -7.3333,0.39485 -19.2469,1.28919 -26.4746,1.98743 -16.2081,1.5658 -37.8365,1.51135 -41.8587,-0.10536 z M 822.00002,828.00002 c -0.45322,-0.73333 -0.49538,-1.86511 -0.0937,-2.51508 0.4017,-0.64996 -0.46289,-1.49378 -1.92131,-1.87517 -4.67407,-1.22229 -2.71228,-4.12412 7.10181,-10.50481 22.29932,-14.49802 54.89355,-43.00431 94.97335,-83.06184 34.91951,-34.90012 60.09878,-63.60738 85.40933,-97.37643 17.405,-23.22163 21.4552,-29.83893 46.3132,-75.66667 2.1008,-3.87318 3.5232,-5 6.3113,-5 4.4435,0 7.9099,4.80836 7.8964,10.95309 -0.021,9.67991 -15.5879,47.07916 -29.5715,71.04691 -25.3044,43.37171 -63.0095,87.77285 -105.75223,124.53292 -7.33333,6.3069 -13.98864,12.06708 -14.78959,12.80042 -12.99123,11.89463 -58.74025,43.07302 -74.54374,50.80227 -14.42039,7.05279 -19.70162,8.50457 -21.33334,5.86439 z m 147.60001,-34.93333 c -3.07095,-3.07095 -1.01963,-11.77433 3.70823,-15.73333 0.43788,-0.36667 5.53464,-6.06667 11.32615,-12.66667 5.79151,-6.6 14.81817,-16.8 20.05929,-22.66667 33.922,-37.971 100.2624,-129.88153 106.7286,-147.86585 1.525,-4.24161 5.1629,-7.32676 6.7582,-5.73144 0.5363,0.53629 0.2693,1.68087 -0.5934,2.54351 -1.2023,1.20237 -0.9606,2.21537 1.0355,4.34019 2.4986,2.65965 2.5271,3.30978 0.7048,16.076 -2.7625,19.35229 -5.2486,27.62451 -13.0146,43.30426 -18.9118,38.18348 -55.8584,82.83092 -90.9794,109.9426 -6.6,5.09487 -16.50004,12.91773 -22.00004,17.38414 -15.89234,12.90575 -19.98931,14.81728 -23.73333,11.07326 z M 1103.1024,756.5455 c -1.552,-4.04443 1.7907,-9.5042 57.8016,-94.40855 32.2868,-48.94219 32.7296,-49.55576 36.4708,-50.53409 11.0713,-2.89522 -0.6169,35.79885 -20.9971,69.51163 -14.5193,24.01778 -42.9779,56.60233 -62.8852,72.00234 -7.9191,6.12612 -9.1936,6.54672 -10.3901,3.42867 z m -10.5408,-213.08651 c -23.17,-2.32539 -30.76,-4.19105 -31.7018,-7.79245 -0.4021,-1.53778 -0.439,-3.2686 -0.082,-3.84627 1.5008,-2.42844 30.3023,-4.93783 75.2222,-6.55389 20.9,-0.75191 40.4,-1.61309 43.3334,-1.91373 2.9333,-0.30064 9.2333,-0.89436 14,-1.31937 39.395,-3.5126 68.3013,-6.55593 88.6666,-9.33503 13.2,-1.8013 31.8,-4.20547 41.3334,-5.34261 44.9312,-5.35941 145.4923,-19.6229 220.6666,-31.29916 14.3,-2.22111 27.8,-4.31141 30,-4.64511 19.7093,-2.98958 42.8407,-6.47974 49.762,-7.50828 4.6357,-0.6889 12.7357,-2.11993 18,-3.18007 15.69,-3.15973 50.1699,-8.49412 61.0722,-9.4485 18.107,-1.58508 15.1678,3.52233 -8.8341,15.35121 -15.8963,7.83413 -33.9892,14.00218 -62.0001,21.1364 -41.3269,10.52575 -49.0788,11.93886 -148.6666,27.10065 -4.4,0.66988 -15.5,2.38882 -24.6667,3.81987 -52.4687,8.19111 -175.9717,20.75537 -230,23.39843 -10.2667,0.50225 -20.1667,1.11741 -22,1.36702 -1.8333,0.24961 -24.3333,0.74796 -50,1.10744 -33.1623,0.46446 -51.713,0.14714 -64.1051,-1.09655 z"
       id="path1" />
  </g>
</svg>
