<?xml version="1.0" encoding="UTF-8" standalone="no"?>
<!-- Created with Inkscape (http://www.inkscape.org/) -->

<svg
   version="1.1"
   id="svg1"
   width="1187.1541"
   height="1279.1979"
   viewBox="0 0 1187.1541 1279.1979"
   sodipodi:docname="Gemini_Generated_Image_qzfui2qzfui2qzfu.png"
   xmlns:inkscape="http://www.inkscape.org/namespaces/inkscape"
   xmlns:sodipodi="http://sodipodi.sourceforge.net/DTD/sodipodi-0.dtd"
   xmlns="http://www.w3.org/2000/svg"
   xmlns:svg="http://www.w3.org/2000/svg">
  <defs
     id="defs1" />
  <sodipodi:namedview
     id="namedview1"
     pagecolor="#ffffff"
     bordercolor="#000000"
     borderopacity="0.25"
     inkscape:showpageshadow="2"
     inkscape:pageopacity="0.0"
     inkscape:pagecheckerboard="0"
     inkscape:deskcolor="#d1d1d1">
    <inkscape:page
       x="0"
       y="0"
       width="1187.1541"
       height="1279.1979"
       id="page2"
       margin="0"
       bleed="0" />
  </sodipodi:namedview>
  <g
     inkscape:groupmode="layer"
     inkscape:label="Image"
     id="g1"
     transform="translate(-94.99548,-32.715881)">
    <path
       style="fill:#005463;fill-opacity:1;stroke:none"
       d="m 477.51173,1309.5117 c -1.5648,-1.5648 -2.84509,-3.4451 -2.84509,-4.1784 0,-0.7334 -1.28598,-2.6194 -2.85773,-4.1911 -4.20961,-4.2096 -4.00033,-12.7071 0.4797,-19.4769 8.17673,-12.3558 35.09234,-23.971 63.01541,-27.1935 l 14.63739,-1.6893 10.02928,-8.8605 c 17.1377,-15.1406 46.88608,-46.1055 72.61036,-75.5796 4.76408,-5.4586 4.94842,-5.9314 2,-5.1298 -1.78626,0.4856 -13.44775,5.9818 -25.91442,12.2138 -12.46667,6.232 -23.37581,11.3104 -24.24254,11.2855 -0.86673,-0.025 -2.95862,-1.9872 -4.64865,-4.3606 -1.69003,-2.3734 -4.19497,-5.4375 -5.56654,-6.8091 -4.21597,-4.216 -2.59533,-17.8805 3.56153,-30.0293 18.67712,-36.8539 59.53813,-64.8601 107.42655,-73.6303 17.64655,-3.2317 60.76462,-6.9898 71.99368,-6.2748 6.45833,0.4113 8.00576,0.1966 6.22577,-0.8636 -1.30281,-0.776 -4.96623,-3.3592 -8.14091,-5.7404 l -5.77216,-4.3295 0.2483,-10.8615 c 0.22638,-9.9028 0.5439,-11.0822 3.5969,-13.3601 11.22889,-8.3782 61.3547,-5.9137 113.99417,5.6047 l 25.32388,5.5413 25.33334,-0.7955 c 32.59764,-1.0236 36.24345,-1.7176 46.42565,-8.8385 30.61595,-21.4109 67.3492,-55.86533 80.281,-75.3006 9.476,-14.24154 15.1852,-26.69042 16.2104,-35.34635 0.8193,-6.91759 0.7774,-7.02885 -2.3749,-6.30463 -17.1848,3.94821 -23.4375,5.03513 -33.2088,5.77275 -15.2785,1.15335 -27.7902,-0.95906 -53.74914,-9.07472 -33.96785,-10.61951 -42.21537,-12.06171 -64.91755,-11.35173 -23.37161,0.73092 -35.04191,3.22545 -51.75297,11.06221 -15.12133,7.09126 -21.44427,11.93049 -25.462,19.48722 -5.30844,9.98437 -32.59361,32.82928 -56.05263,46.93089 -15.15542,9.11017 -24.29843,12.07852 -33.36359,10.83175 -7.27672,-1.00081 -9.95684,-3.32504 -11.15245,-9.67155 l -0.81635,-4.33333 h 8.4814 c 7.74947,0 9.20899,-0.48587 16.9126,-5.63014 13.58521,-9.07186 34.22413,-28.77148 44.19316,-42.18188 18.80625,-25.29829 44.35488,-41.57412 76.84361,-48.95344 30.89931,-7.01831 44.08012,-7.09399 87.50255,-0.50237 15.08308,2.28964 22.63421,2.71303 39.33336,2.20542 24.2076,-0.73585 31.4088,-2.47157 55.4218,-13.35845 33.9679,-15.40016 59.8091,-32.47972 83.082,-54.91247 19.4885,-18.78492 30.3079,-31.90475 36.2288,-43.93193 3.967,-8.0582 4.234,-9.44729 3.6608,-19.04676 -0.7876,-13.18982 -3.8785,-19.3174 -14.329,-28.40696 -4.4033,-3.82991 -7.6838,-7.48491 -7.2899,-8.12223 1.2029,-1.94638 6.7379,-1.30353 14.8421,1.7238 6.0184,2.24818 9.7134,4.96249 16.7892,12.33333 4.9898,5.19792 11.1898,13.19769 13.7776,17.77728 4.0499,7.16701 4.8978,10.23139 6.0886,22.0055 1.169,11.55828 1.0414,15.02174 -0.8226,22.34014 -4.8667,19.10698 -13.3321,32.29404 -35.3456,55.05993 -14.8807,15.38933 -24.5981,23.49117 -45.4878,37.92541 -16.5248,11.41817 -30.7691,19.52414 -42.804,24.35824 l -7.5213,3.02111 2.0156,4.8149 c 3.0624,7.31571 2.4059,21.75603 -1.5599,34.31006 -9.0342,28.59818 -40.811,61.4978 -92.74643,96.0236 -35.96074,23.906 -59.85749,35.1023 -107.99999,50.6006 -45.86144,14.764 -77.75545,26.0045 -87.18622,30.7271 -25.76517,12.9024 -53.83043,36.2116 -78.04636,64.8202 -6.89438,8.145 -11.96404,13 -13.57479,13 -2.44455,0 -2.4115,-0.3112 0.67255,-6.3333 13.18421,-25.7445 40.2277,-55.6603 64.80149,-71.6843 12.90156,-8.4128 35.86499,-19.5231 54.66667,-26.4492 9.16666,-3.3767 27.46666,-10.1199 40.66666,-14.9849 24.91419,-9.1823 50.14092,-19.9613 55.49804,-23.7136 2.93938,-2.0588 2.36678,-2.168 -11.36662,-2.168 -9.82176,0 -22.39337,-1.3037 -39.18169,-4.0631 -40.62723,-6.6777 -71.6344,-9.3333 -82.83028,-7.0942 -3.99035,0.7981 -3.52352,1.1538 8.79961,6.7043 19.39625,8.7364 23.50847,13.539 23.22107,27.1196 -0.12975,6.1312 -0.72773,7.8382 -3.64773,10.4128 l -3.49254,3.0795 -36.83326,-0.9196 c -60.57921,-1.5125 -94.06667,3.8098 -127.29422,20.2313 -19.61819,9.6955 -38.54819,26.3643 -46.16047,40.6464 -2.36597,4.439 -4.05082,8.3218 -3.74411,8.6285 0.3067,0.3067 3.3998,-1.2448 6.87355,-3.4478 19.97583,-12.6683 44.94838,-20.808 79.492,-25.9101 12.97759,-1.9168 14.09737,-1.9054 15.33333,0.1553 0.73333,1.2227 2.23333,3.1941 3.33333,4.3809 3.11243,3.3581 6.4544,13.9188 5.68249,17.9568 -0.44112,2.3076 -2.46753,4.7558 -5.52296,6.6728 -2.65441,1.6653 -9.02347,5.672 -14.15348,8.9039 -17.02751,10.727 -34.3943,25.9764 -60.5048,53.1277 -14.20765,14.7741 -25.60765,27.0674 -25.33333,27.3187 0.27431,0.2512 19.09875,1.7983 41.83209,3.438 69.44742,5.009 86.692,3.1652 118.66665,-12.6882 24.58773,-12.1909 42.33858,-27.6342 71.78249,-62.4512 12.94958,-15.3126 18.05582,-14.7176 22.85403,2.663 1.34213,4.8616 -3.42212,28.8027 -8.21962,41.3047 -1.31776,3.4341 1.59749,1.8345 10.25958,-5.6294 15.00542,-12.9298 30.52252,-28.7435 41.74254,-42.5406 5.96358,-7.3334 18.95512,-21.5719 28.87008,-31.6412 9.91497,-10.0693 18.21015,-18.8566 18.43375,-19.5274 0.89575,-2.6872 -50.90648,11.1336 -83.96403,22.4016 -27.25425,9.2898 -42.0577,15.2563 -60.2651,24.2897 -29.75596,14.763 -48.43871,26.836 -64.37152,41.5974 -6.18022,5.7259 -9.14827,7.5773 -12,7.4852 -2.08387,-0.067 -8.12293,1.235 -13.42012,2.8938 -5.29719,1.6589 -9.96008,2.6873 -10.36198,2.2854 -1.80949,-1.8095 2.47821,-7.5781 17.34645,-23.3377 15.87089,-16.8223 26.41089,-26.1446 52.31565,-46.2714 23.00522,-17.8739 47.69883,-31.4333 81.66447,-44.8424 36.43477,-14.3838 59.10377,-20.7429 104.66666,-29.3613 40.93998,-7.7439 44.03076,-8.6078 74.46742,-20.8141 15.2904,-6.1321 28.3404,-10.8158 29,-10.4081 0.6596,0.4076 1.1992,1.5792 1.1992,2.6033 0,2.2538 4.9001,0.7286 19.3221,-6.0142 34.1113,-15.9483 66.0404,-41.6583 75.8962,-61.11328 5.3417,-10.54438 12.4539,-30.09327 15.5679,-42.79069 1.6323,-6.65572 3.4229,-12.10132 3.9791,-12.10132 0.5562,0 1.808,1.8 2.7818,4 1.8777,4.24202 3.2217,5.02703 4.0993,2.39432 1.5376,-4.61289 4.8443,13.5771 5.6243,30.93901 0.998,22.21553 -0.1502,28.51149 -8.0849,44.33256 -20.0744,40.0266 -79.608,76.7762 -154.5191,95.3836 -11.7333,2.9144 -27.33333,6.3176 -34.66666,7.5625 -7.33333,1.245 -14.77332,2.9666 -16.5333,3.8258 -3.39332,1.6566 -17.01076,21.9963 -18.39279,27.4725 -2.03894,8.0789 -28.56464,51.0718 -39.70504,64.3539 -18.06472,21.5376 -47.82501,44.403 -78.50658,60.3181 -16.91064,8.7719 -31.03074,11.7927 -25.01214,5.351 0.65091,-0.6966 1.5836,-2.5922 2.07264,-4.2124 0.85535,-2.8338 0.63282,-2.9154 -5.85014,-2.1476 -6.20378,0.7347 -6.7393,0.5765 -6.7393,-1.9915 0,-3.7637 1.77823,-7.6087 11.83111,-25.5818 15.53852,-27.7806 21.26174,-39.2342 23.4985,-47.0264 1.21457,-4.2313 1.98862,-8.3522 1.72011,-9.1578 -0.26851,-0.8055 -5.26455,4.1564 -11.1023,11.0265 -29.25523,34.4286 -54.25861,53.5898 -85.08943,65.208 -25.31152,9.5382 -44.66704,10.9346 -102.85798,7.4204 -14.66667,-0.8857 -34.82209,-1.579 -44.78982,-1.5406 l -18.12314,0.07 -5.87686,4.8142 c -23.07696,18.9044 -60.06767,36.2255 -81.36508,38.0997 -7.81785,0.6879 -9.1453,0.4526 -11.66667,-2.0688 z M 311.0047,1137.9872 c -17.17117,-8.5904 -39.70907,-32.8475 -62.54925,-67.3206 -12.94076,-19.5317 -22.20671,-39.6057 -31.00994,-67.1808 -4.17033,-13.06313 -13.30527,-30.82611 -14.98767,-29.14371 -0.73915,0.73915 -1.91447,6.06455 -2.61181,11.83421 -1.45432,12.03273 -3.2227,18.3131 -5.74613,20.4074 -2.28847,1.8992 -16.46658,-1.2751 -21.32199,-4.7738 -5.25505,-3.78664 -10.88944,-13.40842 -14.33319,-24.47662 -2.80955,-9.02986 -3.10668,-12.4577 -3.06282,-35.33334 0.0526,-27.44892 1.80796,-42.24654 8.46168,-71.33333 5.77013,-25.22415 14.02945,-55.07999 20.91101,-75.58929 8.71804,-25.98263 9.60917,-40.64812 2.69478,-44.34859 -5.7486,-3.07656 -21.62157,3.8269 -33.12484,14.40661 -4.74671,4.36562 -6.97792,2.49166 -4.102,-3.4452 1.14827,-2.3704 5.60761,-8.15112 9.90966,-12.84605 16.92247,-18.46789 31.04657,-16.24573 38.33443,6.0312 5.985,18.29444 5.32151,29.44523 -5.81876,97.79133 -6.93893,42.57064 -8.59307,58.97917 -8.60245,85.33332 -0.005,13.93334 0.34027,26.6355 0.76716,28.22704 0.75608,2.81877 0.9309,2.77561 6.75059,-1.66666 8.22788,-6.28048 12.29343,-6.05075 19.57778,1.10629 8.09399,7.95253 15.785,21.88798 25.46266,46.13619 9.43776,23.647 15.89536,36.9785 23.99991,49.5467 7.00569,10.8642 30.60494,40.2075 38.05465,47.3171 l 5.58844,5.3333 -2.30278,-5.3333 c -12.86932,-29.8059 -13.08542,-44.6456 -0.84102,-57.7532 4.60011,-4.9245 8.68583,-5.3714 20.63945,-2.2579 10.36878,2.7007 19.03161,7.2522 35.59106,18.6998 23.56917,16.2935 41.06563,23.873 64.66666,28.0139 15.72955,2.7598 41.19582,2.7991 53.72861,0.083 5.35074,-1.1597 13.15074,-2.4247 17.33333,-2.8113 12.29941,-1.1369 30.93806,-4.8196 30.93806,-6.1129 0,-0.6572 -0.75,-1.1854 -1.66667,-1.1739 -1.35326,0.017 -32.83411,-8.0621 -34.00435,-8.7267 -0.18573,-0.1055 0.0415,-2.9581 0.5049,-6.3392 1.09294,-7.9739 4.10254,-9.4426 25.2131,-12.3042 72.70398,-9.8552 89.99491,-15.3206 123.01502,-38.8833 15.00209,-10.7052 41.7063,-40.17356 52.60466,-58.04964 2.75,-4.5107 5.04914,-7.34251 5.1092,-6.29291 0.86902,15.18694 -3.46573,32.53645 -11.47013,45.90835 -5.36117,8.9562 -19.20681,23.7081 -29.30574,31.2238 -10.46353,7.7871 -30.71577,18.1034 -45.80298,23.3315 -18.56916,6.4347 -33.92566,9.3887 -69.36644,13.3432 -16.40985,1.8311 -30.07131,3.5645 -30.35881,3.852 -0.60723,0.6072 22.99838,6.9923 30.86157,8.3478 6.22707,1.0734 10,2.8084 10,4.5985 0,0.6983 -4.05,3.3286 -9,5.8451 -4.95,2.5166 -11.06657,6.1241 -13.59237,8.0168 -2.52581,1.8927 -5.67581,3.4413 -7,3.4413 -1.3242,0 -2.40763,0.6278 -2.40763,1.3952 0,0.7674 -4.95,3.7004 -11,6.5179 -33.6338,15.6633 -50.47078,19.1 -76.33333,15.5805 -29.19968,-3.9735 -47.01753,-11.1793 -75.25012,-30.432 -27.59711,-18.8195 -43.60415,-27.3184 -46.32578,-24.5968 -1.55603,1.556 12.4746,27.8086 20.3284,38.0364 6.15649,8.0173 7.88908,11.4462 9.37694,18.5574 1.96656,9.3992 1.11712,12.2747 -3.62602,12.2747 -1.37688,0 -2.50341,0.6 -2.50341,1.3334 0,3.141 -11.78165,1.2633 -20.99528,-3.3461 z m 70.32861,-103.3678 c -45.57914,-5.5654 -87.07189,-21.8174 -116.66666,-45.69639 -10.2041,-8.23333 -33.53864,-31.37843 -39.91378,-39.58973 -12.48876,-16.08578 -21.96865,-39.67121 -24.87536,-61.88846 -3.58987,-27.43891 5.05853,-64.59541 22.70165,-97.5341 2.77588,-5.18242 10.85704,-18.5508 17.95813,-29.70751 7.10109,-11.15672 13.24376,-21.15192 13.65038,-22.21156 0.54473,-1.41955 -6.52892,-5.53216 -26.87631,-15.62582 l -27.61563,-13.69921 h -13.51454 c -11.72885,0 -14.36312,0.4335 -19.93688,3.2808 -11.79453,6.02513 -20.96737,18.76941 -25.52163,35.45847 -1.18981,4.36007 -2.49054,14.8274 -2.8905,23.26073 l -0.72721,15.33333 8.90471,17.33334 c 11.88028,23.12536 15.56369,33.00533 15.66508,42.01825 0.15037,13.36675 -6.30416,21.31914 -17.29861,21.313 -6.67147,-0.004 -20.2782,-8.9104 -31.34055,-20.51487 -7.57568,-7.94693 -14.188485,-18.77462 -12.49842,-20.46469 1.15613,-1.15612 17.5725,4.57874 24.24662,8.47026 2.99776,1.74792 7.34776,3.17804 9.66667,3.17804 4.06226,0 4.21619,-0.20408 4.21619,-5.59001 0,-7.32386 -12.7027,-44.71343 -16.67326,-49.07665 -4.47454,-4.91703 -8.0161,-12.66781 -11.88306,-26.00628 -3.95706,-13.64925 -4.3436,-23.72235 -1.48387,-38.6688 3.79215,-19.81979 11.35951,-31.22979 25.15426,-37.9274 15.39499,-7.47456 33.1986,-7.74192 55.02838,-0.82636 10.51833,3.33214 17.75146,6.82284 57.77291,27.88107 12.98772,6.8338 19.74713,9.71449 20.7811,8.85638 0.84282,-0.69948 3.87566,-6.23007 6.73964,-12.2902 4.43768,-9.39001 5.27678,-12.60334 5.67774,-21.74278 0.55508,-12.65247 -3.15888,-25.61913 -11.93827,-41.6805 -10.58133,-19.35792 -38.52185,-74.00763 -44.64127,-87.31521 -17.9065,-38.94036 -24.22616,-68.66152 -22.86904,-107.55247 2.17612,-62.36138 29.96919,-122.12822 80.1333,-172.32045 22.83292,-22.84571 43.55335,-38.42397 71.29274,-53.60008 39.08956,-21.38573 78.56805,-32.82948 134.02093,-38.84906 4.27841,-0.46443 7.53517,-1.08818 7.23724,-1.38611 -0.83084,-0.83084 -34.69996,-10.26107 -63.68282,-17.7313 -27.76322,-7.15586 -59.91928,-14.03224 -60.92343,-13.02809 -0.33531,0.33531 0.99758,3.03837 2.96199,6.00679 2.22503,3.36226 3.95174,8.30978 4.57976,13.12235 0.55446,4.24886 1.8042,10.52882 2.7772,13.95547 1.58198,5.57131 1.50668,6.81221 -0.71199,11.73235 -5.33955,11.841 -17.02774,18.2397 -41.35019,22.63717 -40.00345,7.23256 -53.02877,9.96745 -67.33333,14.13776 -18.82914,5.48939 -37.03585,12.85362 -52,21.0329 l -11.33333,6.1947 6.83236,0.0174 c 7.61652,0.0194 16.10304,2.60307 21.74395,6.61976 2.06118,1.46769 6.20229,7.52413 9.24524,13.52132 6.80843,13.41836 7.05464,18.5703 1.45962,30.54301 -3.49261,7.4738 -7.6675,12.24069 -30.33228,34.63335 -33.09532,32.69798 -48.2826,49.86649 -61.68496,69.73199 -10.10468,14.97754 -18.59726,30.00738 -18.59726,32.91268 0,0.74474 4.35,-1.55814 9.66666,-5.11753 24.8275,-16.6214 36.942,-18.59186 43.71616,-7.11052 3.29912,5.59159 3.07382,11.13966 -1.36514,33.61669 -1.37584,6.96667 -3.52589,20.58039 -4.77789,30.25271 -2.14129,16.54259 -2.14255,18.5204 -0.0212,33.33333 2.69789,18.83901 5.23018,28.12386 9.18035,33.6605 1.61393,2.26212 4.55994,6.35706 6.54669,9.09987 5.92135,8.17473 7.84773,18.68166 7.42528,40.49923 -0.36681,18.94394 -0.39735,19.11537 -2.7802,15.60575 -1.32513,-1.95172 -3.88677,-7.62191 -5.69255,-12.6004 -1.80577,-4.9785 -4.56505,-11.18163 -6.13174,-13.78474 -21.41529,-35.58236 -26.21466,-46.64811 -29.86744,-68.86434 -3.49859,-21.27842 -1.25829,-43.5053 7.62103,-75.61102 2.19178,-7.92501 3.79163,-14.98937 3.55523,-15.69858 -0.2364,-0.7092 -6.59601,3.3749 -14.13246,9.07578 -21.30882,16.11886 -24.53647,18.2511 -30.7128,20.28941 -5.29283,1.74674 -6.16805,1.69078 -10.58232,-0.67664 -2.64676,-1.41947 -6.88416,-4.53086 -9.41646,-6.91419 -2.5323,-2.38334 -5.45087,-4.33334 -6.48571,-4.33334 -1.034842,0 -2.824484,-2.25 -3.976983,-5 -1.7658,-4.21341 -1.853484,-6.31795 -0.557366,-13.37768 4.606869,-25.09279 21.160419,-55.25718 48.085169,-87.62231 5.49059,-6.6 22.84012,-24.75495 38.55451,-40.34434 15.7144,-15.58938 28.32659,-28.56338 28.02709,-28.83109 -1.06587,-0.95275 -18.12412,1.71074 -23.95165,3.73983 -10.05155,3.49986 -22.5929,1.77236 -22.5929,-3.11204 0,-1.25773 -1.77867,-3.99085 -3.95259,-6.0736 -2.17392,-2.08275 -3.61613,-4.33122 -3.20491,-4.9966 0.41123,-0.66538 0.0426,-2.91195 -0.81912,-4.99238 -1.82753,-4.41204 0.0908,-9.16094 7.2941,-18.05644 18.71165,-23.10753 48.38111,-43.24063 82.33087,-55.86809 12.54399,-4.66567 54.44651,-15.68456 76.35164,-20.07779 14.68218,-2.94461 27.56536,-7.32635 27.00644,-9.18525 -0.45478,-1.51256 -8.67099,-5.92467 -27.00644,-14.50248 -8.66618,-4.05427 -9.31263,-4.64862 -9.04375,-8.31473 0.15928,-2.17159 -0.44072,-4.40329 -1.33333,-4.95932 -1.26572,-0.78846 -1.24214,-1.6252 0.10713,-3.80172 0.95153,-1.53491 1.37099,-3.92202 0.93215,-5.30469 -0.59644,-1.8792 0.25474,-3.05828 3.37118,-4.66985 5.54002,-2.86485 32.85006,-4.11545 48.20432,-2.2074 19.77192,2.45703 59.42811,12.03622 81.7487,19.7469 34.08412,11.77441 56.82416,18.69328 84.86572,25.82119 23.77979,6.04461 50.22557,11.9899 53.33337,11.9899 0.67392,0 -6.6872,-7.65 -16.35803,-17 -25.87569,-25.01726 -46.00008,-51.2268 -57.46707,-74.843764 -4.571,-9.414258 -5.3886,-12.35014 -5.18389,-18.614618 0.13367,-4.090634 0.84396,-7.808908 1.57842,-8.26283 0.73447,-0.453923 0.95087,-1.827344 0.48091,-3.052048 -0.73008,-1.902571 0.14583,-2.226733 6.01685,-2.226733 6.31351,0 7.05573,0.336711 9.14266,4.147638 3.505,6.400457 19.91633,28.957748 27.39909,37.65991 14.25018,16.572405 66.47,60.936365 81.2643,69.039035 1.93849,1.06169 1.65782,-0.1585 -1.48017,-6.43491 -4.53983,-9.08029 -8.68315,-21.36113 -11.60985,-34.41168 -1.15119,-5.13333 -2.43341,-10.47117 -2.84937,-11.86187 -0.61403,-2.05289 -0.22611,-2.38989 2.06217,-1.79149 2.28388,0.59724 2.81847,0.13737 2.81847,-2.42455 0,-1.83008 1.15949,-3.78213 2.75311,-4.63501 2.40044,-1.28468 3.56923,-0.64432 9.12415,4.99891 3.50408,3.55978 8.10152,9.15171 10.21654,12.42651 5.93685,9.19231 24.95375,34.55254 31.2611,41.68863 3.11176,3.52062 9.0299,8.69011 13.15142,11.48777 8.72829,5.92469 32.18094,17.94293 32.11611,16.45781 -0.0243,-0.55736 -5.18632,-7.91338 -11.47109,-16.34671 C 691.27264,154.69285 679.30185,130.053 666.98934,93.333308 661.28401,76.318269 660.91977,74.344776 660.33292,57.268023 l -0.62083,-18.065286 4.79448,-3.656927 c 3.90571,-2.979028 5.28924,-3.392137 7.46348,-2.22852 2.64389,1.414963 6.69661,7.871547 6.69661,10.668681 0,2.100856 11.0704,31.153885 15.79437,41.450569 7.19714,15.68735 33.79151,58.51953 43.3987,69.89676 l 3.37769,4 0.048,-20.18562 c 0.0429,-18.07446 0.32221,-20.51483 2.67026,-23.33333 1.44227,-1.73124 2.65111,-2.54771 2.68632,-1.81438 0.0352,0.73334 0.82024,-0.16135 1.74451,-1.98819 0.92428,-1.82683 2.58093,-3.49492 3.68145,-3.70686 2.52443,-0.48617 9.25596,12.43311 9.28932,17.82827 0.0132,2.12673 0.88936,9.55325 1.94711,16.50337 2.47829,16.28392 8.72989,29.41619 17.94971,37.7056 10.57083,9.50408 36.67793,16.99114 59.2475,16.99114 17.17568,0 35.91261,6.04211 49.77802,16.05194 7.80286,5.63311 10.51121,9.94075 13.80997,21.96484 l 2.85675,10.41297 -3.9721,7.45179 c -2.18466,4.09849 -5.00307,11.03503 -6.26315,15.41455 l -2.29104,7.96275 3.38491,2.91158 c 3.68924,3.17335 14.53867,4.43126 36.86173,4.27384 7.28339,-0.0514 13.5941,0.70686 17.65985,2.1218 4.69563,1.63415 7.00277,1.8398 8.94981,0.79778 1.44281,-0.77217 5.59549,-1.58528 9.22817,-1.8069 4.90482,-0.29923 7.87294,-1.40945 11.53143,-4.31328 13.90577,-11.03737 22.49635,-14.89566 35.96595,-16.15348 9.0804,-0.84794 15.2119,1.18583 27.4154,9.09345 7.8055,5.0578 11.5623,11.89839 13.3093,24.23412 1.4762,10.4237 2.3746,12.91558 4.6567,12.91558 4.8719,0 1.9302,11.73274 -6.5841,26.26017 -7.1372,12.1778 -10.6293,15.77759 -24.0055,24.74615 -12.5868,8.43926 -29.34,21.30819 -30.7864,23.64851 -1.2741,2.06161 -2.96226,1.60314 -3.63859,-0.98817 -0.50838,-1.94782 -1.85582,-2.25787 -8.15551,-1.8766 -5.02526,0.30414 -7.54651,1.02974 -7.54651,2.17183 0,2.34537 -18.22323,19.37144 -20.73351,19.37144 -3.76262,0 -3.58414,-4.02729 0.63644,-14.36079 l 4.20929,-10.30588 -3.35412,-2.66667 c -9.27715,-7.37571 -11.60925,-8.65481 -19.72043,-10.81613 -8.28457,-2.20753 -8.95665,-2.21031 -12.25257,-0.0507 -4.39312,2.87848 -18.00421,19.40225 -26.81738,32.55611 l -6.73315,10.04939 6.34849,6.51775 c 6.57215,6.74738 13.2492,10.41029 18.97673,10.41029 2.39455,0 4.39498,-1.56984 7.22096,-5.66667 2.14988,-3.11666 5.24013,-6.86525 6.86723,-8.33018 1.6271,-1.46494 3.81235,-4.31494 4.8561,-6.33334 1.04375,-2.01839 2.68733,-3.66981 3.65239,-3.66981 1.56911,0 5.47282,10.80753 6.49613,17.98469 0.66423,4.65876 4.1018,3.54084 14.31046,-4.65383 5.47968,-4.39864 10.70644,-7.99753 11.61501,-7.99753 0.90858,0 2.5097,2.88835 3.55806,6.41856 1.04836,3.5302 3.72295,8.23539 5.94353,10.45597 5.0313,5.0313 7.45289,13.5994 6.33794,22.42498 -2.2729,17.99166 -14.99551,44.14708 -24.99905,51.39361 -3.01692,2.18545 -6.27055,3.97354 -7.23029,3.97354 -0.95973,0 -6.0432,3.6 -11.2966,8 -5.25341,4.4 -10.39748,8 -11.43128,8 -2.11955,0 -4.44298,-5.12477 -3.47586,-7.66666 0.34877,-0.91667 -0.0301,-1.66667 -0.84187,-1.66667 -2.59724,0 -1.60825,-2.21832 3.94774,-8.85482 4.93803,-5.89837 10.57628,-15.08725 10.57628,-17.23661 0,-1.73099 -7.21801,1.00932 -12.83138,4.87142 -3.16543,2.17788 -7.26715,5.94187 -9.11492,8.36442 -4.37937,5.74165 -22.32537,14.6227 -35.38703,17.51219 -10.31207,2.28124 -31.54274,3.27409 -34.2488,1.60166 -1.10802,-0.6848 -1.15624,-2.30122 -0.17467,-5.85616 1.15889,-4.19714 0.99762,-5.17865 -1.11037,-6.75805 -2.32566,-1.7425 -2.16308,-2.11264 2.8539,-6.49722 2.92604,-2.5572 8.9486,-6.38119 13.38346,-8.49775 6.23663,-2.97647 8.76735,-5.10083 11.17069,-9.37699 3.68936,-6.56433 3.53718,-6.78841 -9.10468,-13.40626 -5.14052,-2.69099 -8.75778,-3.90108 -9.04908,-3.02719 -1.03435,3.10305 -26.46289,40.29374 -33.37534,48.81335 -15.67526,19.31977 -35.42413,34.32553 -63.45378,48.214 -23.96364,11.87379 -37.09464,15.57833 -58.22466,16.42643 -9.16666,0.36792 -19.96666,0.0506 -23.99999,-0.70527 -17.78701,-3.33317 -35.58758,-13.34416 -44.31118,-24.92049 -5.38424,-7.14495 -12.09238,-21.92166 -14.19012,-31.25804 -1.56785,-6.97798 -0.39922,-5.78578 3.84713,3.92471 8.6503,19.78139 20.79275,33.1165 34.99215,38.42918 25.68736,9.61087 53.59458,5.28892 90.32868,-13.98907 30.88209,-16.20687 48.98307,-31.23256 67.9377,-56.39535 13.46664,-17.87734 25.39563,-35.36103 25.39563,-37.22105 0,-2.16371 -14.32163,-8.22856 -24.38686,-10.32722 -11.18454,-2.33204 -13.70146,-2.01848 -40.94647,5.10113 -44.5342,11.63758 -51.56468,13.14704 -65.02194,13.96033 -10.69419,0.6463 -14.77757,0.38166 -18.66667,-1.20975 -2.73793,-1.12036 -8.75398,-2.73591 -13.36901,-3.59011 -4.61502,-0.8542 -12.51541,-3.70753 -17.55642,-6.34072 -15.52521,-8.10967 -27.31599,-7.44372 -40.24801,2.27321 -7.64862,5.74707 -10.1166,6.45179 -11.34885,3.24062 -0.56904,-1.48291 -1.83928,-1.8392 -4.48516,-1.25807 -3.64226,0.79998 -3.70363,0.70446 -4.6199,-7.19012 -1.17477,-10.1219 -0.33964,-13.72767 5.27878,-22.79195 2.49172,-4.01992 4.32811,-7.51124 4.08087,-7.75848 -0.24724,-0.24724 -9.95821,1.52836 -21.57994,3.94578 -16.63015,3.45922 -24.11206,4.36932 -35.13041,4.27328 -13.41507,-0.11694 -14.66848,-0.38547 -30,-6.42721 -8.79999,-3.46784 -19.27117,-7.45875 -23.26927,-8.86868 -10.90746,-3.84653 -17.51809,-11.49668 -12.40641,-14.35732 1.50665,-0.84316 1.84802,-2.30341 1.24424,-5.32232 -0.6914,-3.45702 -0.27181,-4.52746 2.48193,-6.33179 2.20394,-1.44407 4.69462,-1.89529 7.43573,-1.34707 5.2003,1.04006 32.13382,-3.64421 41.84521,-7.27771 7.93192,-2.96771 9.68943,-4.61514 3.46508,-3.24805 -3.04002,0.6677 -4.30159,0.23409 -5.88149,-2.02152 -1.42658,-2.03674 -2.80811,-2.61866 -4.75208,-2.00167 -2.22891,0.70743 -2.8884,0.17096 -3.53127,-2.87254 -1.33884,-6.33841 -2.61381,-7.63395 -10.75671,-10.93024 -25.10519,-10.16273 -58.12138,-5.70797 -94.1028,12.69698 -18.40464,9.41421 -27.55958,16.30999 -41.53004,31.2817 -22.63847,24.26095 -35.39406,55.34083 -33.89296,82.58257 1.94413,35.28169 17.64805,64.28188 56.29539,103.9599 32.04593,32.90054 43.41353,49.45288 50.82076,73.99999 3.05599,10.12735 3.64034,14.60091 3.74455,28.66667 0.13668,18.44784 -2.08497,28.18789 -10.3288,45.28315 -6.33835,13.14385 -20.98431,27.24366 -35.78366,34.44931 -14.05155,6.84155 -21.04411,8.27339 -40.27937,8.24787 -15.13787,-0.0201 -21.89821,-1.71986 -21.08097,-5.30049 0.5803,-2.54245 -2.31868,-3.9693 -8.11222,-3.99277 -3.29139,-0.0133 -5.31488,-0.73191 -5.82825,-2.06973 -0.43251,-1.12712 -2.66368,-2.99947 -4.95815,-4.16078 -2.29447,-1.16131 -5.28503,-3.08912 -6.64569,-4.28402 -2.0413,-1.79262 -5.82988,-2.17255 -21.66409,-2.17255 -10.55458,0 -19.19131,0.36519 -19.19273,0.81154 -10e-4,0.44635 -6.37588,10.94635 -14.16548,23.33333 -26.76609,42.56335 -34.03892,58.0077 -39.1678,83.17555 -6.28294,30.83092 -1.97674,56.2038 13.45431,79.27514 32.75993,48.98016 115.48049,71.919 201.87638,55.98152 22.64827,-4.17795 61.16757,-15.72043 94.66666,-28.36729 70.80738,-26.73179 146.16748,-71.74693 196.66666,-117.47565 18.00251,-16.30189 22.85477,-20.32381 23.60935,-19.56924 1.10353,1.10353 -2.89396,6.01562 -20.21095,24.8351 -9.10961,9.9 -19.45091,21.70992 -22.98067,26.24427 -10.45145,13.42604 -34.21682,38.85015 -48.8116,52.21849 -18.71413,17.14153 -42.1038,32.35944 -75.76668,49.29572 -54.33846,27.33838 -104.01913,44.12928 -149.13335,50.40328 -17.23186,2.3965 -61.12864,3.4488 -74.70608,1.791 z m -0.49487,-303.35788 c 19.1064,-5.72699 37.16992,-20.89779 43.50139,-36.53503 2.51845,-6.21998 2.97007,-9.72063 2.84597,-22.05986 -0.25549,-25.40237 -4.7071,-33.74957 -34.51916,-64.72671 -30.82079,-32.0253 -42.29835,-47.16875 -54.01962,-71.27329 -12.43653,-25.57543 -15.39395,-40.03136 -14.25067,-69.65753 1.51659,-39.29986 14.06948,-68.52771 40.81332,-95.02876 24.25487,-24.03468 53.28676,-40.00695 88.83207,-48.87213 12.90886,-3.21954 17.12808,-3.64538 35.95823,-3.62924 29.12778,0.025 44.07225,4.06085 59.88136,16.17152 9.75316,7.47146 12.12914,11.30258 12.06021,19.44637 -0.0625,7.38193 -0.72482,11.23139 -2.39217,13.90312 -0.57206,0.91666 -0.68476,1.66666 -0.25043,1.66666 1.55465,0 14.06391,-6.74835 26.27502,-14.17455 6.8343,-4.15629 17.35454,-10.29347 23.37831,-13.63817 l 10.95231,-6.08128 -13.61898,-4.82419 c -7.49043,-2.65331 -18.38108,-7.03992 -24.20145,-9.74802 -17.7996,-8.28182 -47.41752,-29.63911 -47.41752,-34.19249 0,-1.64321 -15.27302,-21.18397 -28.95865,-37.05056 -5.50845,-6.38627 -8.37468,-10.86289 -8.37468,-13.07998 0,-1.8539 -2.1,-6.12101 -4.66666,-9.48247 -4.96637,-6.50426 -6.02138,-11.06161 -2.56073,-11.06161 1.64628,0 1.91418,-0.87308 1.22739,-4 -1.17694,-5.35857 0.24389,-5.22185 15.33188,1.47529 9.44725,4.19338 12.58267,5.07499 13.39196,3.76553 0.78833,-1.27553 2.28227,-0.63369 5.88232,2.52719 10.00083,8.78085 26.08391,14.70603 49.65651,18.294 11.88515,1.80903 20.34962,2.04135 48.40399,1.32852 33.12913,-0.84178 34.32444,-0.78064 46.66667,2.38706 6.96666,1.78803 12.96666,2.96576 13.33333,2.61717 1.15585,-1.09886 -6.9972,-6.90919 -16,-11.40253 -4.76667,-2.37906 -22.30998,-12.0073 -38.98515,-21.39609 -33.17589,-18.67936 -35.07271,-19.33608 -63.68151,-22.04779 -25.5777,-2.42441 -38.52069,-0.52521 -63.56182,9.32678 -9.40766,3.70128 -29.10484,10.80499 -43.77151,15.78601 -14.66666,4.98103 -35.06666,12.3393 -45.33333,16.35171 -64.71751,25.29288 -109.14271,58.98383 -141.95335,107.65381 -23.15896,34.35307 -34.96087,64.58875 -39.62993,101.52908 -3.0923,24.46549 -1.2594,53.62283 4.6395,73.80424 6.6032,22.59094 17.83441,47.35454 35.98063,79.33333 14.19451,25.01478 31.80391,59.76763 37.15828,73.33333 4.77467,12.09702 5.00217,13.38622 5.05866,28.66667 0.0435,11.77026 -0.57585,18.06463 -2.34289,23.80997 -1.32112,4.29549 -2.0704,8.14162 -1.66506,8.54696 1.47971,1.47972 11.5838,-2.58149 15.94124,-6.40738 7.18087,-6.30489 10.68709,-15.89369 10.70749,-29.28289 0.0166,-10.89028 -0.28072,-12.01285 -7.60531,-28.71572 -4.19242,-9.56031 -7.62259,-18.11031 -7.62259,-19 0,-6.18036 20.29209,7.51976 29.46477,19.89302 10.49428,14.15601 13.7702,23.2869 13.82385,38.53083 0.041,11.64451 -0.31034,13.42513 -4.19748,21.27478 -2.33321,4.71166 -3.91227,9.10049 -3.50902,9.75296 1.01753,1.6464 11.05944,0.0481 23.92301,-3.80764 z M 913.00168,479.40257 c 5.27624,-2.52857 9.93988,-4.03642 10.36363,-3.35077 0.42375,0.68565 4.7899,-0.75875 9.70255,-3.20977 11.57982,-5.77741 15.50012,-6.70409 17.60945,-4.1625 0.90703,1.09291 2.70222,1.98711 3.9893,1.98711 2.95443,0 4.94716,2.39304 5.53891,6.6516 0.42211,3.03776 0.81628,2.75598 4.66275,-3.33333 5.10012,-8.07396 16.465,-36.57506 16.465,-41.29129 v -3.39815 l -5.10068,3.37548 c -5.77595,3.82234 -17.27684,6.49259 -37.28693,8.6572 -13.38903,1.44836 -13.89866,1.40291 -21.06697,-1.87885 -4.04031,-1.84971 -9.08631,-4.60231 -11.21333,-6.11688 -2.12702,-1.51458 -6.44688,-3.56185 -9.59969,-4.5495 -3.15282,-0.98766 -6.63715,-2.17632 -7.74297,-2.64147 -1.43131,-0.60208 -3.25601,1.23648 -6.33333,6.38142 -4.21161,7.04133 -5.4548,11.4771 -3.21664,11.4771 0.60836,0 4.76191,3.30831 9.2301,7.35179 9.91842,8.97565 13.1126,16.0085 11.79205,25.96334 -1.08588,8.18577 -0.66751,8.25732 12.2068,2.08747 z M 713.31471,431.27141 c 6.95645,-1.12815 18.35645,-3.49168 25.33333,-5.25229 6.97689,-1.76062 23.78525,-5.40938 37.35191,-8.10836 19.65775,-3.91076 26.56194,-4.76319 34,-4.19785 12.07412,0.91772 37.27546,9.08255 45.8554,14.85643 6.08853,4.09727 6.81548,4.2923 8.52893,2.28817 2.33736,-2.73388 10.28233,-14.48257 10.28233,-15.20508 0,-0.29355 -2.72545,-2.49101 -6.05656,-4.88323 -3.33111,-2.39222 -9.78111,-7.65287 -14.33333,-11.69033 -11.24274,-9.9714 -16.71435,-12.34685 -28.52293,-12.38294 -12.59206,-0.0385 -26.33806,2.92108 -41.00964,8.82955 -28.37822,11.42834 -41.73464,8.75045 -51.24104,-10.27355 -4.68124,-9.36799 -6.43351,-20.39291 -4.27884,-26.92163 1.83407,-5.55726 5.66327,-9.21375 19.19594,-18.3301 14.45931,-9.74059 28.00219,-14.80782 40.0804,-14.99656 12.00763,-0.18764 16.99921,2.25544 30.85269,15.10055 16.69995,15.48441 28.72583,19.48312 51.55021,17.14089 10.64494,-1.09238 15.95831,-2.45424 25.59818,-6.56104 13.25639,-5.64752 27.70429,-8.76561 35.07435,-7.56962 3.63434,0.58978 6.22757,-0.10898 11.55495,-3.11355 10.46774,-5.90364 23.87447,-10.52536 31.76717,-10.95112 8.78909,-0.47412 9.85616,2.50929 1.75322,4.9018 -2.94171,0.86858 -9.16017,4.00268 -13.81882,6.96467 l -8.47026,5.38542 5.15216,2.51584 c 2.83368,1.38371 5.87603,4.04303 6.76077,5.9096 1.00157,2.11303 4.64955,4.84719 9.66667,7.24516 4.43192,2.11826 8.05804,4.60063 8.05804,5.51638 0,2.40991 4.5154,3.47606 8.18012,1.93144 1.73427,-0.73097 5.70077,-1.97199 8.81444,-2.75782 6.1245,-1.54571 11.2128,-5.90373 10.1443,-8.68834 -0.3659,-0.95346 1.6103,-3.73764 4.3916,-6.18708 11.9123,-10.49101 20.4695,-18.95653 20.4695,-20.25018 0,-0.76491 -1.65,-3.11298 -3.6666,-5.21795 -3.0518,-3.1854 -3.6696,-5.01384 -3.684,-10.90342 -0.021,-8.67709 -2.3527,-13.321 -8.0439,-16.02163 -9.1639,-4.34855 -19.8806,-1.4008 -41.17049,11.32438 -8.54105,5.10508 -16.11027,9.28196 -16.82048,9.28196 -0.71022,0 -1.13902,-1.88802 -0.9529,-4.19561 0.33051,-4.09758 0.15216,-4.23866 -7.63329,-6.03836 -4.38443,-1.01352 -8.55443,-2.4255 -9.26666,-3.13773 -1.9611,-1.96109 -12.23624,-1.55027 -17.63396,0.70504 -6.41672,2.68107 -11.55016,2.51887 -17.57614,-0.55536 -2.7549,-1.40544 -7.38099,-2.9545 -10.28022,-3.44236 -12.60078,-2.12036 -19.10147,-4.6989 -22.36758,-8.87221 l -3.271,-4.17956 -5.904,2.85808 c -6.99201,3.38477 -9.64788,3.64119 -8.56806,0.82722 1.19984,-3.12672 -4.39478,0.0725 -8.494,4.85725 -2.14849,2.50777 -6.6509,5.03971 -12.66667,7.12314 l -9.33333,3.23239 -9.8876,-2.65749 c -5.43818,-1.46162 -11.56712,-3.85341 -13.61986,-5.31509 -4.37203,-3.11316 -7.06651,-10.97885 -5.05101,-14.74485 1.26527,-2.36418 0.78054,-2.44688 -9.7216,-1.65857 -12.07531,0.9064 -22.07987,-1.55768 -30.4113,-7.49018 -5.2463,-3.7357 -15.58902,-17.66673 -13.60675,-18.32748 1.06134,-0.35378 1.10721,-1.52686 0.1574,-4.02507 -1.60829,-4.23011 -0.62037,-9.0525 2.06565,-10.08322 1.07137,-0.41112 5.42172,1.10621 9.66745,3.37186 4.24572,2.26565 9.52432,4.6515 11.73023,5.30189 7.60965,2.24365 21.44688,1.36278 36.86315,-2.34669 25.386,-6.10838 35.66324,-4.92289 48.58827,5.60468 3.95356,3.22022 7.77339,5.85495 8.48852,5.85495 2.05084,0 6.73744,-5.6052 6.73744,-8.058 0,-1.22202 -3.15,-5.19329 -6.99999,-8.82505 -7.90389,-7.45585 -11.82338,-8.82205 -31.96262,-11.14104 -13.5302,-1.55798 -22.33135,-3.99273 -47.37071,-13.10463 -8.25,-3.0022 -15,-5.12105 -15,-4.70855 0,0.4125 1.14716,2.20837 2.54924,3.99083 2.36244,3.00336 2.39855,3.54292 0.49272,7.36323 -1.95278,3.91444 -2.38078,4.09124 -8.48452,3.50475 -3.53539,-0.33971 -6.99767,-0.048 -7.69395,0.6483 -1.56223,1.56223 -24.65001,-4.06633 -43.45989,-10.59508 -17.55615,-6.09358 -26.8421,-11.87145 -41.30057,-25.69786 -6.54333,-6.25729 -11.5194,-10.72636 -11.05792,-9.93127 0.46148,0.7951 -0.41928,3.98896 -1.95725,7.09747 -2.38478,4.82007 -3.25927,5.53565 -5.94208,4.8623 -2.26374,-0.56816 -3.14578,-0.22581 -3.14578,1.22099 0,1.18156 4.51172,4.27897 10.94252,7.51231 19.37589,9.74201 27.23688,15.57563 41.75501,30.98632 10.60148,11.25326 14.65732,16.5915 16.65796,21.925 2.73469,7.29042 3.45708,13.61665 1.55487,13.61665 -0.5993,0 -0.73987,2.55 -0.31238,5.66666 1.07412,7.83103 -1.5954,21.80386 -4.05518,21.22566 -1.03187,-0.24255 -2.40536,-1.44255 -3.05219,-2.66667 -2.78543,-5.27138 -16.39008,-16.523 -25.25008,-20.88289 -13.57777,-6.68144 -26.00729,-8.6761 -54.06429,-8.6761 -29.97281,0 -53.62211,-2.78239 -75.50956,-8.88385 -4.08826,-1.13967 7.94099,10.79506 17.01611,16.88239 10.42757,6.99452 25.67119,12.6818 50.31722,18.77297 11.36666,2.80923 23.22034,6.00955 26.3415,7.11183 6.94325,2.4521 15.06068,8.81535 19.59826,15.36307 3.41761,4.93162 4.53288,8.94844 2.06023,7.42026 -2.1342,-1.31901 -1.53165,0.9304 1.81829,6.7879 4.2427,7.41854 5.46159,12.67272 3.25903,14.04844 -0.95919,0.59911 -1.74398,3.35603 -1.74398,6.12648 0,3.5886 -0.57516,5.03718 -2,5.03718 -1.1,0 -2.72104,1.65 -3.6023,3.66666 -2.10615,4.81965 -5.58607,4.66442 -7.47251,-0.33333 -1.28745,-3.41086 -2.2032,-3.9971 -6.21751,-3.98029 -12.94245,0.0542 -32.72453,8.08581 -57.48525,23.33933 -15.93285,9.81522 -27.95304,15.68563 -42.5668,20.78873 l -12.5291,4.37513 4.6034,1.87912 c 14.73988,6.01686 32.26223,6.66683 58.44652,2.16801 17.24912,-2.96363 23.42256,-5.35558 27.44989,-10.63568 4.56662,-5.98715 17.82056,-14.92365 26.83006,-18.09023 3.92901,-1.38093 10.40589,-2.51079 14.39309,-2.51079 h 7.24945 l 0.89988,5.32635 c 0.49493,2.92949 1.48649,5.68889 2.20346,6.13201 0.71698,0.44311 -2.77731,3.1904 -7.76507,6.10508 -12.26419,7.16678 -32.43721,23.66508 -32.43721,26.52845 0,0.4785 2.86733,1.20959 6.37184,1.62465 3.50451,0.41506 10.85451,2.28929 16.33333,4.16497 19.43739,6.6544 24.84557,7.15366 43.94291,4.05659 z m 181.97049,-45.7539 c 3.95812,-5.64866 8.43816,-11.39391 9.95566,-12.76723 1.5175,-1.37331 2.75909,-2.88958 2.75909,-3.36947 0,-0.47989 -5.12771,0.0217 -11.3949,1.11457 -10.28295,1.7932 -12.00692,1.77922 -17.66667,-0.14327 -3.44947,-1.17171 -10.47177,-2.47223 -15.6051,-2.89005 -18.79486,-1.52977 -41.41215,-8.76814 -49.41876,-15.81583 -5.78372,-5.09104 -6.30372,-5.27045 -13.63051,-4.70269 -4.18957,0.32464 -11.21739,2.06617 -15.61739,3.87005 -8.30006,3.4028 -27.88552,17.22757 -29.17807,20.59591 -0.97901,2.55126 1.01815,2.47111 18.5114,-0.74286 17.9252,-3.29332 34.8515,-3.49686 41.70949,-0.50156 2.72645,1.1908 10.35718,2.62534 16.95718,3.18787 15.0193,1.28011 23.4693,4.46447 40.15145,15.13096 7.25003,4.63564 13.65183,8.17541 14.22621,7.86616 0.57438,-0.30925 4.2828,-5.1839 8.24092,-10.83256 z M 749.96635,201.3877 c 0.46162,-0.74692 4.47319,-0.93506 9.64342,-0.45225 l 8.85298,0.8267 -3.67882,-4.82318 c -2.02335,-2.65274 -5.65137,-8.51508 -8.06227,-13.02741 -2.49585,-4.67133 -4.77724,-7.56706 -5.29793,-6.72457 -1.73314,2.80427 -9.52887,1.5972 -14.89039,-2.30558 -4.63198,-3.37174 -24.18835,-29.35921 -38.55579,-51.23485 -2.77667,-4.22773 -5.33032,-7.40495 -5.67477,-7.0605 -1.10779,1.10779 15.50432,34.25001 25.27699,50.42923 5.20977,8.62508 10.49098,18.82508 11.73601,22.66666 2.18497,6.74182 2.5376,7.08627 10.1406,9.90545 9.24306,3.4273 9.4794,3.46779 10.50997,1.8003 z m 445.28375,740.52212 c -1.4493,-9.66429 0.3138,-29.21555 3.8393,-42.57654 3.4944,-13.24263 10.9972,-28.96024 19.8229,-41.52664 32.3398,-46.04712 34.3398,-49.40886 34.3906,-57.80669 0.034,-5.53432 -5.1265,-16.64281 -14.5546,-31.33333 -16.3091,-25.41217 -14.8934,-44.10831 4.9092,-64.83553 11.0217,-11.53622 10.8255,-9.26417 2.326,-26.93089 -8.9886,-18.68338 -19.331,-26.9197 -47.9836,-38.21244 -23.7829,-9.37346 -36.3027,-18.17364 -45.3131,-31.85063 -7.3427,-11.14542 -8.6869,-14.69929 -8.6869,-22.96679 0,-14.33395 6.9981,-22.26751 31.1496,-35.31347 l 7.8162,-4.22211 -5.8162,-2.13755 c -7.4433,-2.73552 -25.3127,-5.78196 -39.8162,-6.78803 -24.098,-1.6716 -63.7802,5.317 -101.2996,17.84025 -29.3008,9.78006 -30.0027,10.11498 -23.9242,11.415 13.8652,2.96539 34.5571,15.45264 34.5571,20.85471 0,2.08848 -0.5716,2.54558 -2.3333,1.86586 -14.1322,-5.45263 -22.7443,-6.71824 -45.66669,-6.71109 -21.10292,0.007 -24.73245,0.3616 -37.97009,3.71407 -30.65676,7.76388 -70.63113,24.70282 -97.26629,41.21607 -13.72529,8.5094 -37.40273,25.89855 -49.43028,36.3025 -27.22145,23.54684 -73.03724,68.77033 -116.93852,115.42674 -48.37715,51.41318 -85.01002,79.96048 -126.69255,98.72911 -34.18621,15.39322 -70.89487,22.59107 -95.53988,18.73349 -16.08647,-2.51795 -43.97743,-17.03135 -53.95639,-28.07687 -9.75862,-10.80162 -15.5224,-26.76486 -15.74026,-43.59384 -0.16166,-12.48824 2.41268,-19.62548 9.96837,-27.63685 3.92543,-4.16216 5.2434,-4.86262 6.76825,-3.5971 1.29302,1.07311 2.16765,1.12812 2.75766,0.17347 1.65959,-2.68529 4.53292,-1.36883 4.95145,2.26859 0.3363,2.92277 1.02051,3.58373 3.37248,3.25789 2.30156,-0.31886 3.39546,0.65597 4.97308,4.43173 1.59105,3.80792 2.56693,4.6677 4.57474,4.03044 2.4289,-0.7709 2.52058,-0.14728 1.8968,12.90161 l -0.65547,13.71166 5.13013,9.94313 c 6.7995,13.17868 9.83118,15.25089 23.20052,15.85802 13.49517,0.61285 24.49258,-1.33496 45.26294,-8.01678 48.93813,-15.74337 92.11611,-45.89314 144.65762,-101.0097 55.20509,-57.91068 98.79259,-99.96883 126.6757,-122.23104 25.07467,-20.01992 62.55619,-43.75558 82.13415,-52.01252 27.91816,-11.77439 52.62651,-17.23907 83.19917,-18.40094 20.69466,-0.78648 29.43782,-2.89072 45.14341,-10.86479 61.65005,-31.30108 127.30915,-41.67335 175.46465,-27.71843 17.6753,5.12211 41.3388,18.90446 41.4343,24.13269 0.023,1.2762 0.9234,3.48505 2,4.90855 2.2414,2.96341 2.5969,11.72603 0.6251,15.41032 -0.8247,1.54092 -2.7303,2.4622 -5,2.41729 -7.8259,-0.15487 -45.3023,15.58036 -49.6171,20.83281 -1.7357,2.11282 -1.6626,2.58881 0.6666,4.33685 4.062,3.04847 16.9601,9.39619 26.2228,12.90533 14.6739,5.55916 31.5902,13.88025 41.1844,20.25846 15.3704,10.21819 31.5389,31.581 43.2514,57.14647 5.4053,11.79842 7.6417,22.17798 6.471,30.03376 -1.0763,7.22311 -4.288,12.82911 -6.2346,10.88255 -0.8776,-0.87765 -2.7661,-0.22561 -5.5943,1.93153 -2.3481,1.79105 -4.9839,3.25644 -5.8571,3.25644 -3.8313,0 -17.4939,11.07942 -17.4939,14.18638 0,0.91479 4.2361,8.14709 9.4136,16.07177 21.4079,32.76676 27.573,53.71535 21.3098,72.40851 -3.731,11.13541 -7.0283,16.08133 -19.7426,29.61371 -5.7116,6.07913 -13.0131,14.81346 -16.2256,19.40963 -4.2954,6.14544 -6.4483,8.16391 -8.1362,7.62821 -3.0559,-0.96992 -21.6776,20.10926 -26.1464,29.59703 -1.7914,3.80338 -4.6322,12.35498 -6.3129,19.00355 -1.6806,6.64858 -3.4091,12.44171 -3.841,12.87363 -0.4319,0.43191 -1.2128,-2.06523 -1.7352,-5.54922 z M 793.29714,866.89283 c -6.21854,-3.97784 -10.96095,-10.89288 -7.47045,-10.89288 1.40938,0 1.51673,-1.56051 0.52743,-7.66667 -1.67524,-10.33995 -0.21653,-23.56149 3.49706,-31.69678 1.68132,-3.68323 6.76843,-10.87789 11.30469,-15.98813 11.71681,-13.19933 12.24411,-16.01878 6.26636,-33.50608 -5.46527,-15.9881 -5.99891,-24.25522 -2.32529,-36.02354 5.92594,-18.98358 18.38386,-29.86394 40.91283,-35.73199 12.48387,-3.25164 16.95235,-7.0962 27.96832,-24.06322 16.29302,-25.09484 22.43741,-30.49182 42.68852,-37.49587 8.63696,-2.98718 13.07695,-3.70235 23.33333,-3.75844 11.12484,-0.0608 13.7216,0.39584 21.33334,3.75178 14.4413,6.36703 15.86847,6.25103 28.40426,-2.30868 10.94956,-7.47662 27.75126,-14.21075 35.30356,-14.14975 4.6412,0.0375 13.8653,4.22247 20.0949,9.11709 11.6018,9.11552 10.6661,8.95415 44.7019,7.70941 3.9049,-0.1428 5.5375,0.46287 6.6667,2.47316 0.8224,1.46425 3.0818,4.56279 5.0209,6.88564 1.939,2.32285 4.2104,6.29871 5.0475,8.83524 1.4906,4.51643 1.6468,4.59782 7.5483,3.93265 13.1928,-1.48702 36.6428,11.90677 43.7416,24.98361 3.3672,6.20283 3.6035,7.30566 1.8416,8.594 -1.1117,0.81291 -2.4388,3.37905 -2.9492,5.70253 -1.5367,6.99691 -11.0675,16.19374 -29.049,28.03117 -9.3718,6.16962 -18.4811,13.12744 -20.2428,15.46185 -1.7618,2.3344 -4.9417,8.75051 -7.0666,14.25803 -5.3401,13.84103 -13.294,25.11616 -28.2815,40.0909 -13.9793,13.96738 -33.1784,27.5138 -49.4488,34.88987 -36.27401,16.44457 -78.85082,26.35428 -113.14126,26.33352 -9.25285,-0.006 -30.095,-2.88178 -39.91263,-5.50787 -4.74866,-1.2702 -8.27943,-4.20278 -8.27943,-6.87671 0,-0.31089 10.95,-0.89962 24.33333,-1.3083 30.4347,-0.92935 49.24891,-4.12868 76.14208,-12.94786 22.08931,-7.24383 49.55861,-20.38545 66.97931,-32.04365 16.2347,-10.86454 36.6018,-32.21348 50.2224,-52.64357 6.3558,-9.53333 12.8162,-18.83333 14.3564,-20.66667 2.7144,-3.23106 2.7745,-3.24129 1.9602,-0.33333 -1.2236,4.36953 0.2631,3.74987 7.9976,-3.33333 3.8035,-3.48334 13.0743,-10.83334 20.6017,-16.33334 22.9654,-16.78004 24.7272,-20.97278 12.0736,-28.73364 -4.0333,-2.47378 -10.3333,-5.25268 -14,-6.17535 -3.6666,-0.92266 -8.4666,-2.96903 -10.6666,-4.54748 -2.2,-1.57845 -4.6986,-2.61362 -5.5524,-2.30037 -0.8538,0.31325 -3.3401,-2.01331 -5.525,-5.17014 -2.185,-3.15682 -5.3864,-7.0118 -7.1143,-8.56662 -3.0326,-2.7288 -3.5351,-2.76604 -14.475,-1.07268 -6.2333,0.96484 -13.9033,1.78696 -17.0443,1.82694 -5.9085,0.0752 -15.9467,-4.16555 -20.9557,-8.85295 -8.2985,-7.76574 -15.937,-12.4077 -20.4173,-12.4077 -5.7636,0 -16.9011,6.06263 -26.91603,14.65155 -4.03333,3.45904 -8.64388,6.97751 -10.24567,7.81881 -4.33731,2.27807 -11.88987,1.85333 -17.47411,-0.98271 -9.10969,-4.62648 -18.78612,-5.83475 -29.2518,-3.6526 -21.29677,4.44051 -32.34987,13.86132 -45.22925,38.54994 -4.13559,7.92755 -8.73349,15.95738 -10.21755,17.84407 -3.59538,4.57078 -16.50976,10.53559 -28.66612,13.24012 -7.78063,1.73103 -11.58521,3.49908 -17.99587,8.36296 -14.56698,11.05224 -19.20559,26.16726 -15.18418,49.47796 2.74637,15.91975 2.02156,18.96806 -7.61429,32.02322 -9.9651,13.50125 -10.51649,15.04467 -10.39172,29.08814 0.23126,26.03087 2.48038,28.1299 20.8128,19.42387 7.16112,-3.4008 12.67319,-5.02367 18.70824,-5.50811 l 8.55591,-0.68679 -0.39112,4.92938 c -0.21512,2.71116 -0.9409,5.47915 -1.61285,6.1511 -2.65494,2.65494 -30.97112,11.70272 -39.13574,12.50492 -8.02085,0.78808 -9.11646,0.56381 -14.70281,-3.00963 z m 50.83358,-55.07584 c -5.01922,-5.01922 -5.43702,-5.95035 -4.6366,-10.33333 0.71753,-3.92908 6.97873,-23.21926 10.46967,-32.25609 0.61688,-1.59688 -0.56922,-2.50323 -4.90853,-3.75079 -3.14709,-0.90479 -7.5986,-2.50055 -9.89225,-3.54613 -4.68644,-2.13635 -9.34753,-8.27956 -7.60452,-10.02257 1.26119,-1.26119 15.24744,1.40713 24.11073,4.59989 l 5.66927,2.0422 2.55429,-4.94177 c 10.16772,-19.67143 36.45814,-44.4114 59.3966,-55.89374 5.15748,-2.58168 9.59269,-4.88909 9.85602,-5.12757 0.26333,-0.23848 -0.71803,-2.11814 -2.18081,-4.17703 -4.00565,-5.63802 -6.96464,-13.52892 -6.96464,-18.57293 0,-5.23216 0.36978,-5.37153 5.17465,-1.95016 2.42083,1.72379 4.34428,5.08192 5.91865,10.33334 3.61984,12.07425 2.86793,11.74003 16.34938,7.26714 11.86271,-3.93581 14.90965,-4.59791 19.82398,-4.3077 3.76945,0.2226 1.0554,2.08896 -5.93333,4.08016 -12.3569,3.52066 -37.03107,17.8559 -52.53486,30.52179 -24.64744,20.13584 -44.86758,56.45094 -48.57403,87.23834 -1.11644,9.27366 -4.02973,14.31324 -8.27423,14.31324 -1.26673,0 -4.78548,-2.48233 -7.81944,-5.51629 z M 484.59723,786.22918 c -8.90063,-3.1942 -15.86707,-7.70683 -17.97343,-11.6426 -2.28231,-4.26454 -1.88913,-11.29106 0.8341,-14.90607 l 2.54207,-3.37453 9.57693,6.61815 c 6.06698,4.1926 10.66114,6.45768 12.53521,6.18032 1.99657,-0.29549 6.25194,-5.02604 13.08974,-14.5514 5.5723,-7.76247 13.73145,-18.02273 18.13145,-22.80059 7.799,-8.46875 26.25551,-25.08584 27.86272,-25.08584 2.49049,0 0.25635,8.34364 -3.60813,13.47493 -6.14799,8.16336 -18.25459,28.25393 -18.25459,30.29299 0,3.44368 -12.23371,26.34762 -16.37671,30.66045 -8.59434,8.94665 -14.67065,10.04671 -28.35936,5.13419 z m 88.29296,-57.21826 c -3.94142,-2.3225 -5.87549,-4.84017 -8.45861,-11.01096 -4.03548,-9.64031 -5.14537,-14 -3.56415,-14 0.64809,0 4.26484,2.7 8.03724,6 3.77239,3.3 7.68087,6 8.6855,6 1.00463,0 5.38904,-3.6 9.74313,-8 4.35409,-4.4 8.3853,-8 8.95826,-8 0.57296,0 1.03187,3.45 1.0198,7.66666 -0.0483,16.89356 -12.90492,28.13032 -24.42117,21.3443 z m -89.86432,0.0399 c -5.56873,-2.68744 -10.19227,-16.09445 -7.18601,-20.83748 0.88655,-1.39872 1.87031,-1.04867 4.53142,1.61244 3.88952,3.88952 8.86706,5.48838 13.48109,4.33033 7.3541,-1.84576 27.31854,-19.30229 36.88422,-32.25087 7.06615,-9.5651 7.85575,-15.68705 4.70432,-36.47349 -1.15918,-7.64583 -2.10761,-14.9941 -2.10761,-16.32949 0,-3.69519 8.9054,-12.75429 14.28235,-14.52884 7.7034,-2.54236 19.57083,-0.81111 27.27681,3.97919 7.62394,4.7393 8.17446,4.84481 10.52172,2.01654 0.9574,-1.1536 4.13656,-3.31972 7.06481,-4.8136 10.72145,-5.46967 20.59985,-1.37359 28.33947,11.75096 2.26435,3.83979 4.41175,5.73947 7.09443,6.27601 4.99547,0.99909 15.49994,13.75922 17.53945,21.30575 1.12114,4.14841 1.12121,7.25822 2.6e-4,12.13187 -1.65467,7.19408 -6.17255,15.44646 -8.4564,15.44646 -0.79911,0 -2.62514,1.05 -4.05784,2.33333 -2.54753,2.28193 -2.57922,2.23052 -1.43832,-2.33333 1.69468,-6.77916 1.39326,-17.05699 -0.71576,-24.40629 -2.05963,-7.17722 -2.68261,-6.96225 -6.00755,2.07295 -1.28186,3.48334 -2.88103,6.33334 -3.55371,6.33334 -0.67268,0 -1.53589,0.15 -1.91825,0.33333 -0.38235,0.18333 -2.68911,-5.36667 -5.12614,-12.33333 -2.43702,-6.96667 -6.63173,-17.01667 -9.32157,-22.33333 -5.31418,-10.50387 -6.98112,-11.39475 -14.26911,-7.62598 l -3.94626,2.04069 5.24269,6.95931 c 7.95031,10.55349 12.11558,19.7578 12.11558,26.7727 0,4.64526 -0.60869,6.41855 -2.56206,7.46396 -2.22236,1.18937 -3.92872,-0.21012 -12.8692,-10.55482 -5.66892,-6.5593 -11.10435,-12.23192 -12.07874,-12.60583 -2.01597,-0.7736 -7.23256,7.41602 -10.56974,16.59365 -1.72676,4.74879 -2.00099,8.86211 -1.35271,20.28965 0.44722,7.88333 0.55949,14.33333 0.24949,14.33333 -1.78757,0 -7.46517,-12.55272 -8.20702,-18.14506 -0.9997,-7.5361 3.5277,-23.23514 9.36941,-32.48901 l 3.31501,-5.25132 -4.98055,-1.3832 c -2.7393,-0.76076 -6.63055,-1.38655 -8.64722,-1.39064 l -3.66666,-0.007 -0.0581,11.66666 c -0.0849,17.06419 -1.35047,21.97682 -6.9215,26.86825 -3.11214,2.7325 -7.8406,10.32416 -13.87107,22.2704 -9.89077,19.59341 -14.40671,25.30637 -23.47345,29.69551 -6.43618,3.1157 -19.39016,3.75512 -24.65001,1.21673 z M 1048.3129,681.3601 c -3.1278,-1.41971 -6.0753,-3.5933 -6.5499,-4.83019 -1.3388,-3.48892 3.3214,-6.18396 9.3538,-5.40938 5.7018,0.73214 20.0965,9.58287 18.8543,11.5928 -1.406,2.27498 -15.6215,1.38678 -21.6582,-1.35323 z m -807.73991,-8.45675 c -0.5579,-1.45388 -2.36393,-2.23672 -5.1601,-2.23672 -2.36599,0 -4.63352,-0.33173 -5.03897,-0.73718 -0.40545,-0.40545 0.0945,-3.50081 1.11111,-6.87858 3.38695,-11.25397 1.67737,-23.52688 -6.69335,-48.05091 -1.81472,-5.31666 -2.78623,-9.66666 -2.15891,-9.66666 0.62732,0 3.63144,2.82976 6.67583,6.28836 6.3859,7.25477 13.66492,21.85515 16.04547,32.18426 2.15304,9.34199 1.12102,26.29037 -1.77737,29.18876 -1.97164,1.97163 -2.21491,1.96424 -3.00371,-0.0913 z"
       id="path1" />
  </g>
</svg>
