<?xml version="1.0" encoding="UTF-8" standalone="no"?>
<!-- Created with Inkscape (http://www.inkscape.org/) -->

<svg
   version="1.1"
   id="svg1"
   width="2543.4783"
   height="2368.5918"
   viewBox="0 0 2543.4782 2368.5918"
   sodipodi:docname="Gemini_Generated_Image_8trwh88trwh88trw.png"
   xmlns:inkscape="http://www.inkscape.org/namespaces/inkscape"
   xmlns:sodipodi="http://sodipodi.sourceforge.net/DTD/sodipodi-0.dtd"
   xmlns="http://www.w3.org/2000/svg"
   xmlns:svg="http://www.w3.org/2000/svg">
  <defs
     id="defs1" />
  <sodipodi:namedview
     id="namedview1"
     pagecolor="#ffffff"
     bordercolor="#000000"
     borderopacity="0.25"
     inkscape:showpageshadow="2"
     inkscape:pageopacity="0.0"
     inkscape:pagecheckerboard="0"
     inkscape:deskcolor="#d1d1d1">
    <inkscape:page
       x="0"
       y="0"
       width="2543.4783"
       height="2368.5918"
       id="page2"
       margin="0"
       bleed="0" />
  </sodipodi:namedview>
  <g
     inkscape:groupmode="layer"
     inkscape:label="Image"
     id="g1"
     transform="translate(-118.03442,-165.82801)">
    <path
       style="fill:#005463;fill-opacity:1;stroke:none"
       d="m 1958.0001,2533.2487 c -14.4594,-1.0114 -54.1187,-6.7868 -63.2913,-9.2168 -2.5898,-0.6861 -11.3087,-2.4442 -19.3754,-3.9068 -8.0667,-1.4627 -20.9667,-4.1528 -28.6667,-5.9781 -7.7,-1.8254 -22.1,-5.2013 -32,-7.5021 -29.1515,-6.7749 -52.6922,-20.8556 -67.4262,-40.3306 -9.137,-12.0768 -10.918,-17.0741 -14.6967,-41.236 -3.9261,-25.1047 -7.3286,-37.6895 -11.8874,-43.9678 -9.0944,-12.5248 -11.2977,-17.563 -11.3105,-25.8635 -0.012,-8.0321 -0.046,-8.1022 -5.0125,-10.4433 -9.1789,-4.3268 -72.0071,-47.325 -108.8191,-74.4733 -20.0572,-14.7919 -49.5977,-45.4809 -67.0565,-69.6637 -6.3532,-8.8 -14.7677,-20.2 -18.6988,-25.3333 -12.4092,-16.2041 -46.2628,-67.6745 -56.1263,-85.3333 -8.6908,-15.5593 -11.1972,-21.6902 -25.4291,-62.2015 -23.6679,-67.3709 -27.2395,-82.514 -24.5405,-104.0506 1.4585,-11.638 1.8501,-12.6857 6.2601,-16.7479 5.6864,-5.238 11.2887,-5.6576 20.1186,-1.5071 7.7614,3.6483 14.3526,11.2492 22.5381,25.9906 5.9016,10.6282 23.5238,41.336 42.7625,74.5165 6.5999,11.3825 20.2366,33.8171 34.8497,57.3333 15.4649,24.8869 21.9152,33.6366 44.9223,60.9363 5.7463,6.8184 13.8463,16.5223 18,21.5643 18.4638,22.4121 23.0017,27.2375 36.6251,38.9456 7.9523,6.8343 17.8641,14.665 22.0263,17.4016 4.1622,2.7366 11.7676,8.0387 16.9009,11.7826 13.7586,10.0344 57.9631,37.8888 73.5278,46.3317 48.7754,26.4578 109.686,46.1401 166.0433,53.6543 8.3026,1.107 23.7956,3.1745 34.4289,4.5945 64.1579,8.568 83.8123,9.3651 116.2539,4.7146 41.2217,-5.9091 51.9945,-8.7447 88.4128,-23.2717 18.8337,-7.5126 38.7333,-17.6739 58.8397,-30.0451 7.9715,-4.9047 20.0793,-12.2982 26.9063,-16.4299 37.8358,-22.8981 100.5687,-76.7516 120.5797,-103.5121 7.9071,-10.5742 25.0076,-37.9084 25.0076,-39.9732 0,-0.2358 2.4021,-5.5798 5.338,-11.8755 2.9359,-6.2958 7.4721,-17.3054 10.0804,-24.4658 2.6083,-7.1604 5.3797,-14.5189 6.1587,-16.3522 2.6553,-6.2493 21.0896,-62.9455 21.0896,-64.8626 0,-1.0507 1.2,-4.2625 2.6667,-7.1374 3.0311,-5.9416 3.6116,-12.6747 1,-11.5985 -0.9167,0.3777 -7.6667,3.2195 -15,6.315 -17.3546,7.3257 -57.724,21.818 -74.6667,26.8049 -19.5934,5.767 -48.7926,11.467 -74.6002,14.5626 -18.801,2.2552 -32.9959,2.8182 -82.0665,3.2547 -32.6333,0.2904 -63.5333,1.1018 -68.6666,1.8033 -5.1334,0.7015 -14.1334,1.3741 -20,1.4948 -5.8667,0.1206 -16.0667,0.6928 -22.6667,1.2716 -6.6,0.5788 -39.3,1.1471 -72.6667,1.2629 -53.0876,0.1843 -63.5709,-0.1244 -83.9139,-2.4707 -22.8861,-2.6397 -68.9159,-7.3106 -112.0861,-11.3741 -12.1,-1.139 -27.7,-2.9413 -34.6666,-4.0052 -6.9667,-1.0639 -19.8667,-2.8893 -28.6667,-4.0565 -8.8,-1.1671 -20.4005,-3.2628 -25.7788,-4.657 -5.3784,-1.3943 -16.1784,-3.4352 -24,-4.5355 -15.0458,-2.1164 -57.2099,-10.9548 -69.5546,-14.5799 -10.3041,-3.0259 -37.7984,-13.6202 -47.3333,-18.2387 -13.8554,-6.7114 -42.1628,-24.2098 -55.7143,-34.4402 -19.8379,-14.9761 -32.4229,-29.2807 -42.8914,-48.7518 -2.7417,-5.0994 -6.8895,-11.4968 -9.2175,-14.2166 -2.328,-2.7197 -5.2731,-7.8474 -6.5447,-11.395 -2.4545,-6.8478 -3.1357,-19.1168 -1.0614,-19.1168 0.6806,0 1.6406,-3.45 2.1333,-7.6666 0.4927,-4.2167 1.4798,-10.3667 2.1935,-13.6667 0.7138,-3.3 1.5794,-8.4 1.9237,-11.3333 0.3714,-3.1647 2.6296,-8.2715 5.5535,-12.5591 5.3626,-7.8635 25.8356,-26.7793 37.5919,-34.7327 13.4749,-9.1159 67.3929,-37.3749 71.3112,-37.3749 0.8525,0 5.4137,-1.5495 10.1361,-3.4434 19.3076,-7.7432 44.3924,-15.7118 63.2528,-20.0935 30.8887,-7.176 81.7972,-17.5014 104.6267,-21.2206 12.791,-2.0837 21.5049,-4.155 22.9384,-5.4523 1.2714,-1.1506 4.2016,-6.6319 6.5116,-12.1807 2.31,-5.5488 4.7073,-11.0309 5.3274,-12.1824 0.6201,-1.1516 6.6439,-13.1938 13.3862,-26.7605 12.0749,-24.2969 20.3021,-38.8725 28.5986,-50.6666 8.3912,-11.9288 31.7484,-52.4971 36.724,-63.7847 11.9089,-27.0165 12.1057,-37.2082 1.7549,-90.882 -6.1379,-31.828 -14.376,-52.1979 -29.1188,-72 -3.0029,-4.0333 -7.5399,-10.6333 -10.0823,-14.6667 -2.5425,-4.0333 -7.2191,-10.7748 -10.3924,-14.9812 -10.7433,-14.2402 -25.2373,-44.9478 -30.2713,-64.1339 -13.2717,-50.5819 -5.1364,-102.1679 23.4568,-148.741 15.5752,-25.3692 33.9027,-47.0351 62.326,-73.679 34.8134,-32.63394 57.2135,-47.7982 70.6059,-47.7982 5.7141,0 7.1852,0.63449 12.1959,5.26033 l 5.6979,5.26033 -3.0736,4.40633 c -2.7394,3.92718 -9.2682,10.97901 -39.2611,42.40631 -25.5588,26.7812 -63.2249,88.6895 -70.1709,115.3334 -2.0285,7.781 -2.8257,15.1754 -2.947,27.3333 -0.1865,18.6996 1.6216,27.5231 9.4942,46.3295 5.9088,14.1154 11.9907,23.4191 25.1086,38.4095 52.1293,59.5704 57.6715,67.4139 72.9648,103.261 10.3986,24.3739 15.0853,40.0432 23.7288,79.3333 5.562,25.2826 3.9375,68.8297 -3.7551,100.6667 -3.9127,16.1932 -24.4994,52.7763 -33.9542,60.3374 -2.9774,2.3811 -6.6899,6.1791 -8.25,8.44 -1.5602,2.2609 -6.249,7.9609 -10.4196,12.6666 -23.2843,26.2721 -29.136,34.2089 -26.447,35.8709 0.8573,0.5298 9.4647,1.3738 19.1277,1.8754 88.0908,4.5734 109.2354,6.7024 140.2245,14.1187 33.49,8.0148 34.4321,8.1809 36.1547,6.3718 0.8803,-0.9244 9.103,-16.3808 18.2726,-34.3475 9.1696,-17.9666 20.3599,-39.5666 24.8673,-48 12.2562,-22.9312 64.9596,-128.2461 76.3999,-152.6666 24.5995,-52.5098 35.3628,-76.0103 40.1969,-87.765 2.4657,-5.9959 8.4233,-20.5697 13.239,-32.3861 10.0335,-24.6197 23.651,-55.7245 28.2445,-64.5156 1.7243,-3.3 8.1571,-16.5 14.2951,-29.3333 6.138,-12.8334 13.4737,-26.9334 16.3015,-31.3334 2.8278,-4.4 7.5235,-12.5 10.4348,-18 2.9113,-5.5 7.9751,-14.1641 11.2529,-19.2537 7.8444,-12.1802 37.6365,-70.4933 42.9562,-84.0796 6.163,-15.74 8.507,-19.62 14.2279,-23.5503 2.8423,-1.9527 6.0898,-5.2045 7.2168,-7.2261 1.127,-2.0216 3.5793,-4.8182 5.4496,-6.2146 3.2013,-2.3901 3.8513,-2.4212 11.093,-0.5301 5.1324,1.3403 10.7027,1.7564 16.7379,1.2505 4.975,-0.4171 10.6601,-0.3531 12.6335,0.1422 5.3059,1.3317 22.0588,17.4628 27.0211,26.0181 3.12,5.3792 4.319,9.1077 4.3232,13.4436 0.01,7.7783 -2.2675,21.8008 -4.7127,29.0466 -1.0604,3.1423 -1.928,7.555 -1.928,9.806 0,6.0544 -18.3057,39.2626 -25.7427,46.6997 -1.0098,1.0098 -2.5804,3.2268 -3.4901,4.9265 -0.9096,1.6998 -3.6428,5.292 -6.0737,7.9826 -2.4308,2.6907 -7.9513,11.7876 -12.2678,20.2154 -4.3164,8.4278 -13.9062,27.0232 -21.3106,41.3232 -33.8883,65.4478 -41.1704,80.364 -50.4474,103.3334 -5.6311,13.9424 -33.6138,72.6672 -35.8791,75.2962 -0.9654,1.1204 -4.433,7.7371 -7.7057,14.7038 -3.2727,6.9666 -10.7718,21.0666 -16.6647,31.3333 -5.8929,10.2667 -13.2792,23.4667 -16.414,29.3333 -3.1348,5.8667 -9.4301,16.3667 -13.9897,23.3334 -10.9995,16.8066 -18.1031,28.5129 -32.3633,53.3333 -14.2047,24.7236 -23.5399,40.0834 -35.2506,58 -4.7932,7.3333 -12.4866,19.3333 -17.0964,26.6667 -4.6098,7.3333 -14.6699,23.2333 -22.3557,35.3333 -35.2123,55.4355 -54.0278,88.634 -81.9909,144.6667 -15.1681,30.394 -27.0309,52.5814 -40.0997,75 -9.5857,16.4436 -14.1912,24.5984 -14.1912,25.1281 0,0.9904 9.7022,0.5536 21.6018,-0.9725 l 11.7825,-1.511 4.1644,-6.1556 c 6.6,-9.7556 30.3446,-48.6331 40.4049,-66.1557 13.9994,-24.3835 41.7649,-69.8453 47.2309,-77.3333 2.6766,-3.6667 7.211,-10.5667 10.0766,-15.3333 2.8655,-4.7667 10.7186,-16.7667 17.4512,-26.6667 6.7326,-9.9 26.1509,-38.7 43.1517,-64 17.0007,-25.3 39.7362,-59.013 50.5232,-74.9177 10.7871,-15.9047 25.9128,-38.6779 33.6128,-50.6071 12.9076,-19.9972 24.5327,-37.5264 46.7672,-70.5196 4.7114,-6.9911 10.0797,-15.0911 11.9296,-18 1.8499,-2.9089 10.9116,-16.989 20.1372,-31.289 9.2255,-14.3 23.2538,-37.1 31.1739,-50.6666 24.5503,-42.0533 59.6715,-93.2617 88.5729,-129.1434 8.4806,-10.5288 17.5657,-22.2288 20.1892,-26 6.9644,-10.011 18.5558,-25.7272 35.6132,-48.2861 14.3728,-19.0084 21.5079,-31.4189 32.8812,-57.1919 1.9306,-4.3751 4.236,-8.4159 5.1229,-8.9796 2.9273,-1.8604 8.4949,-1.1075 10.8215,1.4634 1.2588,1.3909 5.1018,3.2298 8.54,4.0863 8.0456,2.0042 13.0562,4.9933 25.1777,15.0199 19.2853,15.9522 23.7297,34.4351 14.9123,62.0154 -6.4091,20.0474 -20.0491,42.0172 -43.3971,69.8992 -23.6158,28.2016 -26.3496,31.579 -38.4799,47.5384 -19.2805,25.3667 -30.8242,43.1025 -46.1655,70.9284 -37.0983,67.2885 -67.0289,111.4746 -111.7963,165.043 -21.4781,25.7006 -30.0962,36.4298 -36.5909,45.5541 -2.8917,4.0624 -5.6195,7.6862 -6.0617,8.0529 -0.4423,0.3666 -5.537,7.5666 -11.3217,16 -5.7847,8.4333 -13.6129,19.5333 -17.396,24.6666 -3.7831,5.1334 -15.8224,21.8243 -26.754,37.0911 -10.9316,15.2667 -23.007,32.0667 -26.8341,37.3333 -3.8271,5.2666 -10.9996,15.5757 -15.9388,22.909 -8.4913,12.6071 -34.8288,47.8413 -73.7532,98.6667 -36.3481,47.4613 -62.0163,82.098 -62.0163,83.685 0,1.0724 1.8635,1.5681 5.3334,1.4187 2.9333,-0.1263 20.3333,-0.8452 38.6666,-1.5976 34.6267,-1.421 40.7144,-2.32 64.6667,-9.5497 6.9667,-2.1028 20.4544,-6.0006 29.9728,-8.6617 9.5184,-2.6612 22.1184,-6.5525 28,-8.6474 5.8817,-2.0949 15.1939,-5.4117 20.6939,-7.3707 5.5,-1.959 10.6,-4.0465 11.3333,-4.6388 0.7333,-0.5924 5.336,-2.5835 10.2282,-4.4247 10.1055,-3.8035 41.0005,-18.7839 45.4753,-22.0502 1.6298,-1.1896 5.0632,-3.329 7.6298,-4.7542 2.5667,-1.4251 7.588,-4.6827 11.1586,-7.2389 19.217,-13.7582 33.6328,-21.7667 44.117,-24.5088 5.8985,-1.5427 12.2244,-3.814 14.0578,-5.0474 4.805,-3.2326 16.6048,-5.7092 23.4989,-4.9322 3.603,0.4061 9.192,2.6509 14.2187,5.7108 10.6804,6.5014 27.5328,23.7315 27.8438,28.4679 0.1254,1.9102 0.2892,4.6732 0.3639,6.1399 0.094,1.8478 1.0822,2.6769 3.2177,2.6999 3.8023,0.041 6.0363,3.7367 5.0973,8.4322 -0.3887,1.944 -0.2345,5.6345 0.3426,8.2012 1.0058,4.4726 1.1017,4.537 2.3065,1.5482 1.2242,-3.0368 1.2935,-2.9999 2.646,1.407 1.6999,5.5386 0.1206,11.9171 -6.6963,27.0448 -2.6436,5.8667 -4.821,12.4667 -4.8387,14.6667 -0.042,5.2199 -2.804,15.456 -7.0481,26.1191 -1.8711,4.7012 -4.2684,12.768 -5.3274,17.9263 -1.0589,5.1583 -2.8201,11.1583 -3.9137,13.3333 -1.0937,2.175 -2.7086,6.8997 -3.5889,10.4992 -0.8803,3.5996 -2.4679,7.7831 -3.5281,9.2967 -1.0601,1.5136 -1.9363,3.9685 -1.947,5.4554 -0.011,1.4868 -0.9794,5.4033 -2.1527,8.7033 -2.062,5.7996 -3.5018,11.2721 -7.6479,29.0689 -5.0229,21.5604 -26.5044,82.421 -37.5073,106.2644 -1.6921,3.6667 -5.4411,11.7667 -8.3313,18 -10.8568,23.4157 -30.3026,49.8652 -56.3655,76.6667 -25.277,25.9932 -45.2718,44.6697 -54.0792,50.5135 -10.0031,6.6372 -18.4168,13.2027 -29.9234,23.3504 -6.4626,5.6993 -7.9969,8.0949 -12.583,19.6468 -2.8727,7.2358 -5.7131,13.8204 -6.3121,14.6325 -1.0366,1.4053 -3.7258,8.422 -13.8381,36.1059 -3.9888,10.9199 -13.4367,47.2383 -15.8447,60.9078 -2.0922,11.877 -11.6453,26.1459 -20.6077,30.7805 -2.0224,1.0459 -6.149,1.8675 -9.1701,1.8258 -4.6027,-0.063 -6.6376,0.8819 -12.5553,5.8332 -17.4568,14.6063 -36.1101,23.0582 -77.0623,34.9176 -16.4071,4.7514 -48.0968,10.2822 -65.8673,11.4959 -21.6918,1.4814 -105.1573,1.4192 -126.7993,-0.095 z m 240.6666,-84.5033 c 0,-4.7234 0.5815,-8.9473 1.2923,-9.3866 0.7107,-0.4392 1.1838,-5.2678 1.0515,-10.7302 -0.1527,-6.2993 0.3499,-10.5222 1.3744,-11.5467 0.8883,-0.8883 1.6223,-2.8452 1.6309,-4.3485 0.01,-1.5033 1.4991,-8.693 3.3119,-15.977 1.8129,-7.284 3.0777,-13.4621 2.8106,-13.7292 -0.267,-0.267 -4.3074,1.6111 -8.9786,4.1737 -10.1213,5.5526 -35.9464,15.6766 -51.7901,20.3029 -27.4848,8.0254 -74.0342,15.8663 -102.7029,17.2994 -55.5312,2.7759 -180.6267,-14.8986 -237.7935,-33.5975 -7.953,-2.6014 -14.6821,-4.5078 -14.9534,-4.2364 -0.5522,0.5521 10.2855,34.1461 11.8054,36.5936 3.1163,5.0181 56.8742,17.2675 109.6082,24.9756 32.1121,4.6938 44.6035,5.2199 132.6667,5.5884 48.7666,0.204 95.5666,0.9116 104,1.5724 8.4333,0.6608 22.3833,1.2988 31,1.4178 l 15.6666,0.2163 z m -217.3612,-523.7453 c 8.1032,-24.0592 16.4093,-44.7413 30.3882,-75.6667 5.138,-11.3667 13.3659,-29.6667 18.2842,-40.6667 4.9184,-11 12.7254,-27.2 17.349,-36 9.129,-17.3751 27.3403,-55.6989 27.339,-57.532 -10e-4,-1.4085 -178.7363,-1.398 -190.6658,0.011 -4.7667,0.5631 -13.6425,1.9729 -19.724,3.1328 -10.2839,1.9615 -11.4107,2.5105 -16.1092,7.8483 -5.415,6.1517 -9.0362,15.4175 -10.3137,26.3904 -2.8009,24.0573 13.2358,52.7685 51.3833,91.9934 12.2076,12.5524 22.9234,24.5008 23.8129,26.552 0.8895,2.0512 1.6173,6.3576 1.6173,9.5699 0,4.7215 -0.6731,6.3699 -3.5131,8.6039 -4.0788,3.2084 -8.1384,3.5247 -11.8569,0.924 -1.4465,-1.0117 -6.53,-2.8237 -11.2966,-4.0267 -8.4591,-2.1349 -28.4791,-11.5809 -40.4067,-19.065 -18.4087,-11.5508 -47.3398,-41.1385 -58.6254,-59.9559 -8.5587,-14.2706 -19.0252,-43.2645 -21.1225,-58.5128 -0.9027,-6.5634 -2.0928,-12.459 -2.6446,-13.1013 -2.0864,-2.4288 -64.4137,9.2369 -91.5225,17.1301 -17.6769,5.147 -61.5544,20.261 -71.6784,24.6904 -25.8025,11.2888 -40.1639,19.2693 -55.3333,30.7481 -15.1414,11.4577 -24.1836,20.0463 -26.2095,24.8951 -2.8325,6.7791 0.2469,12.045 16.5323,28.2702 20.6131,20.5368 31.7418,26.8081 73.3129,41.3135 17.108,5.9695 26.0466,8.6428 51.6976,15.4613 13.8135,3.6719 73.5411,12.8323 95.3334,14.6212 5.5,0.4514 14.8,1.3916 20.6667,2.0893 5.8666,0.6977 23.5606,2.1891 39.32,3.3144 47.528,3.3937 76.7944,5.9054 85.3466,7.3248 3.3,0.5477 20.7018,1.0663 38.6707,1.1526 l 32.6707,0.1568 z M 449.33335,2498.5065 c -39.85416,-4.0061 -81.08816,-13.1544 -103.33334,-22.9257 -25.07015,-11.0123 -49.47453,-33.8973 -59.98168,-56.2474 -10.21577,-21.7303 -10.96339,-23.8181 -15.99466,-44.6667 l -4.98738,-20.6666 0.84791,-21.3334 c 1.17636,-29.597 3.83327,-45.1133 10.48782,-61.2485 7.45306,-18.0714 20.01859,-38.7279 30.96132,-50.8974 0.73334,-0.8155 3.44942,-3.8163 6.03574,-6.6684 2.58632,-2.8521 7.48427,-8.7857 10.88433,-13.1857 11.65249,-15.0794 34.06526,-34.8547 55.07993,-48.5982 15.15518,-9.9115 42.78841,-23.1065 60.33334,-28.8095 8.25,-2.6817 15,-5.4474 15,-6.146 0,-0.6987 0.55504,-0.9273 1.23342,-0.508 0.67838,0.4192 2.62838,0.2155 4.33333,-0.4529 8.37563,-3.2831 75.40971,-21.058 103.09992,-27.3381 5.13333,-1.1642 20.43333,-4.812 34,-8.106 13.56667,-3.2941 32.16667,-7.5248 41.33334,-9.4015 9.16666,-1.8768 26.56666,-5.8121 38.66666,-8.7452 12.1,-2.9332 26.8,-6.4961 32.66667,-7.9177 27.72675,-6.7185 56.20754,-12.5816 74.66667,-15.3708 14.61576,-2.2085 42.20924,-7.2035 62,-11.2234 6.96667,-1.4151 15.06667,-2.9492 18,-3.4092 22.16841,-3.4766 88.68744,-26.5668 115.76651,-40.1851 27.3374,-13.7483 47.266,-27.9832 50.2822,-35.9166 3.0963,-8.1437 -8.3056,-19.292 -31.79047,-31.0832 -11.91385,-5.9816 -27.92275,-9.8486 -58.25824,-14.0723 -8.8,-1.2253 -17.5,-2.6001 -19.33333,-3.0551 -1.83333,-0.4551 -24.03333,-0.865 -49.33333,-0.911 -32.43182,-0.059 -46.78657,-0.5413 -48.66667,-1.6354 -5.13879,-2.9907 -10.10696,-9.4074 -10.85562,-14.0208 -1.00365,-6.1848 3.46124,-14.9711 9.08581,-17.8797 23.4241,-12.1131 90.02433,-21.804 138.75195,-20.1897 21.41457,0.7095 28.32488,1.5336 60.3512,7.1974 19.2657,3.4072 43.2229,12.7363 55.3333,21.5472 16.2095,11.7932 25.0218,23.5541 32.8157,43.7955 13.419,34.85 14.1394,37.4395 14.2173,51.102 0.061,10.7438 -0.4812,14.0835 -3.5738,22 -2.0053,5.1333 -4.3539,11.8659 -5.2192,14.9612 -0.8653,3.0953 -2.6445,6.877 -3.9538,8.4037 -1.3093,1.5267 -3.5522,5.7482 -4.9841,9.3811 -3.2863,8.3374 -10.1621,18.3816 -16.8169,24.5663 -5.5361,5.1451 -53.7168,37.6699 -65.8185,44.4314 -27.75055,15.505 -63.20707,27.648 -112.00001,38.3574 -9.43828,2.0716 -42.31763,6.4523 -59.33333,7.9054 -5.86667,0.5009 -12.26942,1.1048 -14.22834,1.3418 -1.95892,0.237 -8.55892,0.8033 -14.66667,1.2585 -25.66873,1.9128 -61.49698,8.0792 -109.69883,18.8802 -21.30672,4.7744 -51.6395,11.3128 -67.40617,14.5299 -43.66799,8.9101 -103.32333,21.5953 -116,24.6664 -90.64702,21.9606 -134.13966,47.5222 -166.87127,98.0739 -11.8546,18.3086 -16.50803,34.854 -15.48959,55.0736 0.72779,14.4491 2.48587,19.663 10.6449,31.5692 12.10412,17.6633 33.48705,28.2546 73.71596,36.513 34.06397,6.9928 77.63679,6.2722 126,-2.0838 40.71169,-7.0341 72.83848,-16.1059 124.66667,-35.203 15.4,-5.6745 34.3,-12.4676 42,-15.0958 7.7,-2.6282 29.9,-10.2138 49.33334,-16.857 55.2929,-18.9015 88.01163,-28.7773 132.66667,-40.044 72.74532,-18.354 106.88657,-23.5077 177.12567,-26.7374 75.0175,-3.4494 126.8419,1.6498 171.6823,16.8925 55.0212,18.7035 102.2284,26.8803 159.192,27.5738 46.4863,0.5659 88.3664,-4.6749 129.7904,-16.2417 16.7592,-4.6797 27.8576,-6.7833 35.7879,-6.7833 10.9723,0 6.1754,5.6739 -13.5783,16.0607 -5.8666,3.0848 -13.6666,8.1477 -17.3333,11.2508 -15.5825,13.1875 -32.3697,21.8453 -61.7822,31.8634 -43.8676,14.9416 -94.1891,21.7715 -137.2248,18.6248 -39.1111,-2.8597 -51.7305,-5.8374 -92.3263,-21.7856 -44.3458,-17.4214 -70.0813,-24.5099 -96.7033,-26.6357 -17.2376,-1.3764 -54.4554,-1.817 -66.6301,-0.7888 -2.9333,0.2477 -11.6333,0.8458 -19.3333,1.3291 -59.5959,3.7407 -143.32052,22.2866 -205.33334,45.4835 -31.87338,11.9228 -76.05328,30.0163 -92.66667,37.9509 -13.39837,6.3991 -35.43788,16.0544 -46,20.1523 -5.5,2.1339 -12.7,5.042 -16,6.4626 -35.2138,15.1588 -93.93987,35.7582 -116.66667,40.9233 -46.78668,10.6333 -107.39724,15.0969 -148.66667,10.9485 z M 1116,2004.0001 c 0,-0.7334 0.6,-1.3334 1.3334,-1.3334 0.7333,0 1.3333,0.6 1.3333,1.3334 0,0.7333 -0.6,1.3333 -1.3333,1.3333 -0.7334,0 -1.3334,-0.6 -1.3334,-1.3333 z m -888.64068,-74.1265 c -4.38571,-1.7733 -8.58571,-3.017 -9.33334,-2.7638 -2.26544,0.7672 -10.48104,-3.2114 -13.61566,-6.5937 -4.52253,-4.8799 -11.07937,-14.7916 -12.52134,-18.9281 -2.27833,-6.5356 1.3536,-13.0972 15.05504,-27.199 11.29621,-11.6264 13.6285,-13.3655 22.90448,-17.0798 5.68018,-2.2745 16.18046,-5.2506 23.33394,-6.6137 12.42617,-2.3678 31.00003,-8.9534 61.48424,-21.8001 38.36415,-16.1674 51.20027,-21.5556 64.66666,-27.145 8.06667,-3.3482 16.46667,-6.9434 18.66667,-7.9892 2.2,-1.0459 13.6,-5.7125 25.33334,-10.3702 11.73333,-4.6576 37.23333,-14.7807 56.66666,-22.4956 43.79864,-17.3879 54.33494,-21.3909 106.00001,-40.2713 22.73333,-8.3077 47.33333,-17.5879 54.66667,-20.6226 7.33333,-3.0347 22.03333,-8.731 32.66666,-12.6583 17.85814,-6.5959 64.53035,-24.2906 94.66667,-35.8908 28.80728,-11.0887 40.7528,-15.918 42.2537,-17.0823 1.14968,-0.8918 -0.40405,-3.6845 -5.63805,-10.1339 -17.07399,-21.0387 -20.78756,-37.5993 -19.04833,-84.9453 0.53792,-14.6433 1.57824,-43.7242 2.31184,-64.6242 1.40203,-39.9438 2.7777,-51.1315 9.40175,-76.4601 12.09534,-46.2494 48.61965,-127.2025 73.21063,-162.2653 5.59632,-7.9795 13.60491,-19.7806 17.79687,-26.2247 26.44128,-40.6471 79.04192,-96.3757 124.37827,-131.7746 41.9996,-32.7936 45.7839,-35.5482 68.6667,-49.9835 57.7967,-36.46025 119.1663,-64.47239 165.1939,-75.40263 13.1077,-3.11272 54.7666,-10.13474 86.1394,-14.51966 20.37,-2.84708 32.5226,-3.42536 76.6667,-3.64818 43.9217,-0.2217 49.8109,0.34149 73.1905,6.99925 7.6214,2.17035 14.9276,3.94608 16.2359,3.94608 4.7575,0 45.8441,19.91605 59.2462,28.71861 5.0515,3.31781 9.9665,5.73228 10.9224,5.36549 2.7462,-1.05384 12.2544,-16.69571 26.392,-43.41743 13.3007,-25.13995 18.033,-33.5882 31.3687,-56 8.5952,-14.44487 12.1817,-20.96628 43.9973,-80.00001 4.9402,-9.16666 12.1226,-22.36666 15.9609,-29.33333 14.2598,-25.8825 26.9999,-49.47715 44.2764,-82 10.4235,-19.62207 78.4868,-156.48621 96.4773,-194.00001 6.5062,-13.56667 14.7854,-30.36667 18.3982,-37.33333 3.6128,-6.96667 10.4494,-20.16667 15.1924,-29.33334 28.3724,-54.83449 39.1294,-71.41298 51.7688,-79.78498 6.9491,-4.6029 12.0215,-5.25818 17.7543,-2.29361 7.8181,4.04287 16.152,19.50111 16.152,29.95961 0,2.85216 -2.0426,10.19572 -4.5392,16.31903 -2.4966,6.12331 -6.0397,15.93329 -7.8735,21.79995 -7.893,25.25095 -35.0701,86.29514 -57.5797,129.33334 -4.6026,8.8 -15.6927,30.4 -24.6448,48 -8.952,17.6 -16.7423,32.6 -17.3116,33.33334 -0.5693,0.73333 -7.5103,13.93333 -15.4243,29.33333 -7.9141,15.4 -21.1114,40.6 -29.3274,56 -8.2159,15.4 -20.0794,38.5 -26.3633,51.33334 -13.9826,28.5561 -35.0242,68.99849 -48.9068,94 -5.7007,10.26667 -13.6364,24.96667 -17.6347,32.66667 -7.8335,15.08555 -24.2189,44.52406 -30.7986,55.33333 -2.2319,3.66667 -6.5498,11.16667 -9.5954,16.66667 -3.0455,5.5 -8.5525,15.1 -12.2378,21.33333 -3.6852,6.23334 -10.7537,18.23334 -15.7077,26.66664 -4.9539,8.4334 -15.1282,25.5334 -22.6094,38 -7.4812,12.4667 -18.051,30.1667 -23.4885,39.3334 -5.4374,9.1666 -13.4695,22.3666 -17.8491,29.3333 -10.3304,16.4328 -25.0549,41.5307 -45.7613,78 -9.1601,16.1333 -20.0082,35.0333 -24.1068,42 -8.9347,15.1866 -15.3079,26.6118 -25.2879,45.3333 -4.1046,7.7 -10.4981,19.1323 -14.2076,25.4051 -3.7095,6.2728 -13.0446,22.649 -20.7446,36.3916 -7.7,13.7426 -20.7931,36.7687 -29.0958,51.1692 -16.0135,27.7744 -20.688,36.4153 -19.9972,36.9653 0.4909,0.3909 23.7771,-6.0311 47.093,-12.9874 61.1949,-18.2576 63.6952,-18.8908 74.6667,-18.9087 14.4295,-0.024 20.4543,0.8217 21.2848,2.986 0.383,0.998 1.3006,1.4412 2.0391,0.9848 0.7385,-0.4565 1.3427,-0.2695 1.3427,0.4155 0,0.6849 1.7532,1.5959 3.8959,2.0245 8.2028,1.6405 14.5152,12.1165 15.348,25.4711 0.2772,4.4457 1.2148,11.683 2.0835,16.083 2.2945,11.6208 0.9044,44.5758 -2.6433,62.6667 -5.8371,29.7655 -11.1653,45.4679 -24.3486,71.7559 -14.4666,28.8469 -37.3208,51.9078 -79.0021,79.7163 -27.9075,18.619 -42.5264,25.911 -74.8766,37.349 l -15.7901,5.5829 -22.6667,0.1072 c -50.531,0.2388 -62.8625,-1.0159 -77.7615,-7.9121 -13.3629,-6.1853 -18.1781,-8.7904 -20.909,-11.3123 -2.6207,-2.42 -4.23,-2.8635 -17.0074,-4.6874 -11.1296,-1.5887 -20.9887,-11.3041 -20.9887,-20.6827 0,-4.8775 9.5131,-30.9914 13.327,-36.5835 2.0006,-2.9333 10.69,-19.4333 19.3098,-36.6666 8.6198,-17.2334 18.0028,-35.338 20.8511,-40.2327 5.7252,-9.8383 6.4109,-12.5265 2.8454,-11.1552 -5.1255,1.9714 -42.0214,14.67 -58.3333,20.0768 -9.5334,3.16 -30.2334,10.3431 -46,15.9625 -15.7667,5.6194 -36.7667,13.0981 -46.6667,16.6192 -19.5666,6.9593 -72.6011,27.3704 -83.3333,32.0721 -3.6667,1.6064 -18.0667,7.3143 -32.00004,12.6843 -13.93333,5.37 -32.23333,12.5517 -40.66667,15.9593 -8.43333,3.4076 -22.53333,9.1086 -31.33333,12.6689 -8.8,3.5603 -34,13.6608 -56,22.4457 -22,8.7848 -45.4,18.4846 -52,21.5551 -13.51913,6.2893 -56.59491,25.344 -57.29372,25.344 -0.25017,0 -6.66143,2.9393 -14.24724,6.5317 -7.58581,3.5925 -24.29238,11.1509 -37.12571,16.7964 -30.3572,13.3545 -55.31517,24.5251 -76,34.0158 -62.84907,28.8367 -102.19022,47.109 -103.33334,47.9939 -0.73333,0.5677 -8.53333,4.3321 -17.33334,8.3653 -8.8,4.0333 -19.9,9.1407 -24.66666,11.3499 -20.28355,9.4009 -57.03728,24.9288 -79.33334,33.5172 -8.06667,3.1073 -21.15261,8.3229 -29.07988,11.5904 -20.90004,8.6147 -60.85878,21.5691 -75.93203,24.6168 -7.15655,1.4471 -14.54642,3.2144 -16.42194,3.9275 -15.42026,5.8627 -37.23394,6.6763 -49.20684,1.8353 z M 1340.6667,1628.7324 c 11.2941,-2.7336 25.1979,-11.3015 56,-34.5088 35.388,-26.6624 49.8727,-39.9669 67.1638,-61.6915 11.8856,-14.9332 20.0192,-37.7412 20.9495,-58.7465 l 0.6206,-14.0122 -4.3669,0.9539 c -8.6056,1.8798 -36.6912,10.0753 -54.367,15.8645 -16.8318,5.5129 -45.3318,14.3377 -69.9842,21.6701 -5.858,1.7424 -11.7582,3.9031 -13.1114,4.8016 -1.3533,0.8986 -7.2581,10.9269 -13.1219,22.2852 -26.4693,51.272 -49.49,97.0518 -50.9942,101.4086 l -1.6424,4.7572 26.7604,-0.2615 c 19.8473,-0.194 29.1715,-0.8451 36.0937,-2.5206 z m -443.79164,-26.6932 c 13.0854,-4.8438 29.79163,-11.1484 37.12497,-14.01 7.33333,-2.8617 26.83333,-10.2916 43.33333,-16.511 48.00884,-18.096 81.36164,-30.9075 90.35294,-34.7062 14.0283,-5.9267 61.5501,-22.9348 74.9804,-26.8355 12.8367,-3.7282 44.1778,-15.2876 50.9628,-18.7963 2.0371,-1.0534 3.7039,-2.3849 3.7039,-2.9589 0,-0.574 -5.55,-1.172 -12.3334,-1.3289 -14.0233,-0.3244 -26.7154,-1.1433 -45,-2.9034 -6.9666,-0.6705 -18.0666,-1.6924 -24.6666,-2.2708 -12.2495,-1.0734 -78.3261,-0.9326 -106,0.2259 -66.92057,2.8013 -116.05606,3.3899 -132.15117,1.583 l -10.15114,-1.1395 -1.64253,13.0493 c -2.52549,20.0642 -2.22403,67.1861 0.49835,77.8965 1.21159,4.7666 2.57331,15.4461 3.02603,23.732 0.61662,11.2856 1.24306,14.9043 2.49682,14.4232 0.92052,-0.3533 12.37991,-4.6055 25.4653,-9.4494 z M 882.66669,1455.453 c 2.56667,-0.3287 11.26667,-1.5081 19.33334,-2.6209 15.52525,-2.1418 32.91174,-4.1452 82.66667,-9.5252 33.4548,-3.6175 71.1767,-8.4054 99.3333,-12.6079 9.9,-1.4777 21.9,-2.7368 26.6667,-2.7981 4.7667,-0.061 7.7667,-0.4474 6.6667,-0.8581 -14.2,-5.3021 -110.2015,-53.6486 -120.00004,-60.4323 -10.86751,-7.5237 -83.75478,-45.2771 -87.4127,-45.2771 -2.27469,0 -2.39902,0.2221 -9.55145,17.0663 -9.17895,21.6167 -16.80154,45.2803 -22.20517,68.9337 -6.61816,28.9698 -7.2279,32.0608 -8.2365,41.7535 l -0.87618,8.4202 4.47433,-0.7283 c 2.46089,-0.4006 6.57434,-0.9972 9.141,-1.3258 z m 293.27181,-71.8172 c -17.356,-16.1367 -44.2236,-40.085 -51.2718,-45.7007 -13.55,-10.7961 -17.6462,-14.6245 -50.6667,-47.3545 -29.2879,-29.0304 -42.7631,-43.7632 -67.5242,-73.8263 -4.8717,-5.9149 -12.4298,-14.2446 -16.79588,-18.5105 l -7.93832,-7.7563 -5.95352,6.6217 c -11.55879,12.8562 -27.61156,37.7427 -39.7444,61.6155 -6.75173,13.2848 -11.96613,24.464 -11.58755,24.8426 0.37857,0.3785 5.38082,2.0904 11.11611,3.8041 18.04801,5.3927 55.17185,19.9437 70.42776,27.6048 34.3382,17.2435 115.4815,52.2738 147.7779,63.797 12.5889,4.4916 23.7888,8.6869 24.8888,9.3228 3.9717,2.2962 3.2241,1.074 -2.7282,-4.4602 z m 42.3337,-35.3024 c -0.3035,-0.55 -3.2372,-5.5 -6.5192,-11 -3.282,-5.5 -11.5591,-20.8 -18.3936,-34 -6.8345,-13.2 -14.6547,-27.9 -17.3783,-32.6667 -2.7235,-4.7667 -6.7615,-11.9667 -8.9733,-16 -2.2118,-4.0333 -6.8744,-12.4333 -10.3613,-18.6667 -3.487,-6.2333 -8.7414,-15.8333 -11.6765,-21.3333 -2.9352,-5.5 -8.2938,-15.31 -11.9082,-21.8001 -11.9931,-21.5351 -19.4083,-38.3536 -35.6535,-80.8666 -3.8396,-10.0479 -7.9537,-19.8474 -8.8619,-21.108 -0.9266,-1.2862 -11.7135,6.5747 -39.5555,28.8259 -16.1057,12.8717 -38.7371,34.4238 -45.6109,43.4358 -1.8866,2.4735 -3.1107,5.3258 -2.7202,6.3385 0.3905,1.0126 4.6861,4.5151 9.5459,7.7833 4.8597,3.2682 13.6891,10.398 19.6208,15.844 5.9318,5.446 18.3776,15.7948 27.6573,22.9973 9.2798,7.2026 17.9922,14.6016 19.361,16.4423 1.3687,1.8407 9.9886,9.7331 19.1552,17.5387 9.1667,7.8056 19.6667,16.7481 23.3334,19.8722 3.6666,3.1242 14.1666,11.5873 23.3333,18.807 9.1667,7.2197 23.8667,19.1615 32.6667,26.5374 21.5762,18.0843 41.6826,34.019 42.9251,34.019 0.3111,0 0.3172,-0.45 0.014,-1 z m 64.4741,-15.5059 c -0.875,-6.6884 -2.1211,-16.0608 -2.769,-20.8275 -0.6478,-4.7666 -1.5671,-12.2456 -2.0427,-16.6199 -0.4756,-4.3743 -1.0621,-8.9782 -1.3034,-10.231 -0.2412,-1.2527 -1.1049,-10.5737 -1.9192,-20.7134 -0.8143,-10.1396 -1.7183,-20.5357 -2.009,-23.1023 -0.2906,-2.5667 -0.9044,-9.4667 -1.3639,-15.3334 -0.4595,-5.8666 -1.9923,-20.8666 -3.4062,-33.3333 -1.4139,-12.4667 -3.7837,-34.9667 -5.2662,-50 -1.4826,-15.0333 -3.2652,-32.4333 -3.9614,-38.6667 -0.6962,-6.2333 -1.6119,-14.9333 -2.035,-19.3333 -0.423,-4.4 -1.3205,-12.8 -1.9945,-18.6667 -0.9587,-8.3457 -2.0159,-29.0448 -2.6449,-51.7838 -0.043,-1.5671 -9.6282,0.2229 -20.9453,3.9116 -10.942,3.5664 -57.4715,22.0356 -72.4189,28.7457 -17.4577,7.837 -41.3333,21.7375 -41.3333,24.0646 0,0.7296 2.013,4.7171 4.4733,8.861 2.4603,4.1438 8.5614,14.4343 13.558,22.8676 9.1575,15.4564 25.065,41.5346 36.5994,60 10.5545,16.8967 18.5868,30.269 34.4384,57.3333 8.3755,14.3 16.2833,27.5 17.573,29.3334 3.314,4.7112 24.3162,40.1007 36.0031,60.6666 12.6924,22.3354 23.2105,38.4329 23.8528,36.5058 0.2782,-0.8346 -0.2101,-6.9898 -1.0851,-13.6783 z m 55.4974,-16.1608 c 2.6063,-9.5333 5.8882,-21.5333 7.2932,-26.6667 1.4049,-5.1333 4.018,-15.9333 5.8068,-24 1.7888,-8.0666 4.7763,-21.2666 6.6388,-29.3333 1.8624,-8.0667 5.4981,-24.2667 8.0792,-36 2.5811,-11.7333 5.2394,-23.7333 5.9073,-26.6667 0.6679,-2.9333 2.4938,-11.6333 4.0574,-19.3333 1.5636,-7.7 6.082,-25.4 10.0408,-39.3333 3.9588,-13.9334 10.4713,-37.0334 14.4721,-51.3334 11.4236,-40.8307 16.5446,-58.1552 18.7516,-63.4372 2.5151,-6.01952 2.6678,-9.12488 0.3758,-7.64146 -0.9167,0.59328 -20.5667,1.48578 -43.6667,1.98334 -23.1,0.49756 -44.7,1.26613 -48,1.70792 -3.3,0.4418 -11.1,1.41883 -17.3333,2.1712 -10.9889,1.3264 -30.8825,5.0109 -31.7717,5.8845 -0.2411,0.2369 0.5117,3.6335 1.673,7.5479 3.9877,13.4415 13.9638,59.1457 19.4367,89.0467 7.878,43.0412 14.5894,93.2787 20.6718,154.7371 1.0524,10.6334 3.7307,30.023 5.9518,43.088 2.2211,13.0651 4.0384,26.9151 4.0384,30.7778 0,6.9465 1.6091,11.3279 2.4192,6.5872 0.2305,-1.3491 2.5515,-10.253 5.1578,-19.7863 z m 83.7909,-80 c 10.0483,-17.6 22.4999,-39.2 27.6702,-48 5.1704,-8.8 12.2226,-20.8 15.6716,-26.6667 3.449,-5.8666 11.2407,-19.6666 17.3148,-30.6666 9.6197,-17.4211 18.8436,-33.4735 50.3989,-87.7094 8.9113,-15.3164 8.9748,-15.9132 1.8256,-17.1697 -3.1631,-0.5559 -13.9631,-4.8804 -24,-9.6101 -10.0369,-4.7297 -21.249,-9.529 -24.9157,-10.6651 -9.2238,-2.8579 -33.405,-8.84574 -35.7225,-8.84574 -1.273,0 -2.171,2.10355 -2.7039,6.33334 -6.415,50.9203 -22.1348,141.0893 -38.2737,219.5391 -5.1149,24.8631 -9.2999,46.1417 -9.2999,47.2857 0,4.0063 3.526,-1.4064 22.0346,-33.8248 z m 1119.4988,620.7334 c 0.573,-1.7189 2.4018,-2.0276 2.5667,-0.4334 0.055,0.5317 -0.62,1.2067 -1.5,1.5 -0.88,0.2934 -1.36,-0.1866 -1.0667,-1.0666 z M 192.10792,1788.2667 c -10.69744,-10.8049 -15.49357,-22.4054 -32.17452,-77.8212 -18.30061,-60.7966 -24.17488,-86.7106 -33.80126,-149.1121 -7.70124,-49.9222 -8.13525,-56.0695 -8.09558,-114.6667 0.0373,-55.1144 0.18505,-57.6098 6.66999,-112.6667 5.10206,-43.3162 14.72309,-98.9195 29.29971,-169.3333 14.13273,-68.2695 16.40102,-79.4597 23.24343,-114.6667 3.56305,-18.3333 8.69454,-42.3333 11.40331,-53.3333 5.00894,-20.3407 19.01389,-64.97374 23.42889,-74.66667 1.3361,-2.93334 5.1891,-12.46592 8.56223,-21.18353 12.15521,-31.41425 45.92738,-93.35559 67.68999,-124.14981 9.73436,-13.77417 10.7512,-15.14267 25.10478,-33.78695 4.70862,-6.11616 12.27031,-16.31616 16.80377,-22.66667 4.53346,-6.35051 9.03346,-12.47095 10,-13.60098 5.91515,-6.91567 12.87945,-15.75029 15.75735,-19.9891 4.00875,-5.90442 18.19453,-23.85944 27.14508,-34.35768 3.56313,-4.17924 9.83008,-12.09862 13.92656,-17.59862 4.09647,-5.5 9.88119,-12.70805 12.85492,-16.01789 2.97372,-3.30984 8.48361,-9.60984 12.2442,-14 3.76058,-4.39016 11.26058,-13.0228 16.66666,-19.18363 5.40609,-6.16083 11.57717,-13.36083 13.71352,-16 2.13634,-2.63917 7.29023,-8.39849 11.45307,-12.79849 4.16285,-4.4 8.91707,-9.8 10.56494,-12 5.07111,-6.77022 43.67217,-48.50846 59.3021,-64.12169 3.73759,-3.7336 9.24066,-9.4336 12.22904,-12.66667 7.82816,-8.46914 37.92035,-37.40528 51.92004,-49.92545 30.07651,-26.89792 69.14774,-53.88347 113.97988,-78.72311 15.99768,-8.86365 99.86702,-49.89642 101.9863,-49.89642 0.33074,0 3.76912,-1.44145 7.64086,-3.20323 10.55853,-4.8045 21.29283,-9.10617 55.03951,-22.05657 42.58828,-16.34339 88.60104,-31.20976 130.00001,-42.002 9.1667,-2.38965 23.8667,-6.30716 32.6667,-8.70558 8.8,-2.39842 24.7,-6.62479 35.3333,-9.39193 10.6333,-2.76714 28.6333,-7.48217 40,-10.47784 46.7268,-12.31479 79.829,-19.16215 104.2112,-21.55665 46.9169,-4.60759 46.0674,-4.55787 101.1221,-5.91864 55.2945,-1.3667 139.0127,4.65628 195,14.02898 4.2167,0.7059 11.4167,1.9053 16,2.66533 4.5834,0.76003 11.0334,1.98645 14.3334,2.72539 3.3,0.73893 19.8,4.34712 36.6666,8.01819 46.123,10.03878 51.1718,11.37837 86,22.81865 20.1969,6.63421 33.8249,13.28826 56.6667,27.6683 20.8482,13.12498 31.9801,18.5559 54,26.34497 9.1667,3.24251 20.2667,7.25578 24.6667,8.91839 4.4,1.6626 10.2475,3.75866 12.9945,4.65791 2.747,0.89925 9.5197,4.21409 15.0504,7.36632 8.6447,4.92708 13.2553,8.43903 27.2633,20.76668 4.5793,4.03 9.2568,13.2595 10.1563,20.04011 0.9224,6.95346 -1.4112,31.58918 -3.4695,36.62656 -0.5992,1.46666 -2.0969,5.96666 -3.3281,10 -3.3687,11.03573 -9.4775,21.63377 -17.1324,29.72298 -3.7773,3.9916 -11.0678,11.93688 -16.2012,17.65618 -5.1333,5.7193 -9.9624,11.0487 -10.7313,11.84312 -2.5051,2.58838 -25.2626,33.23541 -30.7753,41.44439 -12.362,18.40854 -14.7903,22.67853 -31.8462,56 -7.1319,13.93333 -13.4115,25.93333 -13.9546,26.66667 -2.2232,3.00191 -47.0577,91.98382 -54.7528,108.66667 -18.542,40.19849 -24.5706,53.73976 -34.132,76.66667 -12.1852,29.21826 -23.7032,52.31623 -36.236,72.66666 -5.1937,8.43334 -14.122,23.12161 -19.8408,32.64061 -12.1294,20.18982 -21.4835,30.68983 -26.0843,29.27971 -8.5295,-2.61423 -8.2911,-6.39037 1.5795,-25.02195 15.8752,-29.96599 46.4491,-103.17636 62.7391,-150.2317 9.4775,-27.37659 19.3267,-52.41986 34.085,-86.66667 4.8983,-11.36667 9.7041,-22.81846 10.6795,-25.44842 0.9753,-2.62996 3.3549,-8.32996 5.288,-12.66666 1.933,-4.33671 4.4291,-9.98492 5.547,-12.55159 1.1178,-2.56667 3.1308,-7.06667 4.4734,-10 10.8979,-23.8111 22.9538,-51.03442 26.2866,-59.358 4.9403,-12.33806 24.7316,-48.59694 34.9038,-63.94596 15.0851,-22.76225 24.4096,-36.22594 32.7198,-47.24429 4.6679,-6.18907 10.4174,-15.34761 12.7766,-20.35231 2.3593,-5.00469 5.1907,-10.13449 6.2922,-11.39955 1.8141,-2.0835 1.6125,-2.66453 -2.14,-6.16988 -4.2454,-3.96586 -29.3216,-14.58973 -51.253,-21.71406 -15.9993,-5.19731 -46.4208,-19.3641 -60.5744,-28.2085 -14.6754,-9.17047 -37.6297,-18.71759 -58.3831,-24.28263 -7.3334,-1.96643 -17.5334,-4.71324 -22.6667,-6.10401 -5.1333,-1.39076 -14.1333,-3.14503 -20,-3.89837 -10.7891,-1.38542 -29.5244,-4.69913 -52.6667,-9.31514 -22.4165,-4.47125 -73.331,-9.53432 -122,-12.13198 -28.4135,-1.51655 -133.0115,-0.93861 -150,0.8288 -59.6921,6.21015 -66.0499,7.15297 -90,13.34642 -43.851,11.3398 -51.8626,13.50205 -105.7536,28.54174 -37.8526,10.56374 -79.24708,23.74206 -119.5797,38.06932 -11.73334,4.16801 -22.83334,8.04802 -24.66667,8.62226 -1.83334,0.57424 -15.33334,5.9662 -30,11.98214 -78.51957,32.20695 -135.89632,61.32625 -179.33334,91.01352 -39.97409,27.32051 -68.28594,50.46013 -96.66667,79.00683 -19.35647,19.46966 -65.42127,68.4938 -75.21496,80.04698 -2.4866,2.93334 -8.54788,9.83334 -13.4695,15.33334 -4.92162,5.5 -14.30819,16 -20.85905,23.33333 -6.55086,7.33334 -19.38347,22.25353 -28.51691,33.156 -9.13344,10.90246 -18.19471,21.70246 -20.13616,24 -7.46861,8.83843 -21.01623,26.06084 -34.15932,43.42499 -7.52907,9.94712 -14.42907,18.98568 -15.33333,20.08568 -12.4539,15.14971 -50.97547,67.74835 -59.56595,81.33334 -3.01421,4.76667 -8.78274,13.44707 -12.81896,19.28978 -20.20062,29.24181 -44.90981,81.67209 -60.5117,128.39938 C 270.63265,1017.313 264.70365,1040.8896 254.0087,1094 c -7.97264,39.5917 -10.85126,52.9848 -13.32584,62 -1.10711,4.0334 -8.05636,31.6334 -15.44279,61.3334 -16.99065,68.3174 -32.15768,144.0638 -35.90872,179.3333 -6.40473,60.2211 -8.17051,104.8531 -5.38056,136 0.65688,7.3333 1.55636,18.4333 1.99886,24.6667 0.44249,6.2333 1.08501,13.7333 1.42783,16.6666 0.34281,2.9334 0.96191,9.2334 1.37577,14 0.41387,4.7667 1.90044,15.8667 3.3035,24.6667 3.32894,20.8792 5.00337,32.6259 7.31725,51.3333 7.75867,62.7276 11.43006,88.8784 13.94575,99.3334 0.70582,2.9333 1.29762,8.7624 1.31511,12.9536 0.0277,6.6457 -0.49739,8.223 -4.10631,12.3333 -5.85534,6.6689 -11.57672,6.5591 -18.42063,-0.3536 z m 24.50393,-5.6887 c -0.48338,-0.7821 -0.59291,-1.708 -0.24341,-2.0575 0.34951,-0.3495 0.99076,0.2904 1.425,1.422 0.90158,2.3495 0.13314,2.7628 -1.18159,0.6355 z M 2027.0791,1554.8767 c -2.157,-1.405 -2.8188,-4.6824 -1.473,-7.2952 0.8212,-1.5945 0.7249,-3.0461 -0.2829,-4.2604 -0.8407,-1.013 -1.3739,-4.7564 -1.1848,-8.3188 0.1891,-3.5623 0.049,-7.0451 -0.311,-7.7396 -1.0524,-2.0295 -0.2351,-7.061 3.4538,-21.2627 1.9048,-7.3333 4.0301,-19.5689 4.7228,-27.1902 0.6927,-7.6213 2.4979,-22.1323 4.0116,-32.2468 1.5136,-10.1144 2.8746,-25.1788 3.0243,-33.4764 0.2527,-13.9974 -0.01,-15.7536 -3.6214,-24.326 -3.8936,-9.239 -15.1118,-27.0221 -21.9845,-34.8497 -5.4964,-6.26 -15.9722,-23.5874 -19.0665,-31.5368 -3.8591,-9.9141 -5.9737,-32.0484 -4.6215,-48.3741 1.4727,-17.7802 6.7985,-33.4448 17.1842,-50.5435 10.4817,-17.2566 30.3137,-40.898 36.1115,-43.0479 8.9339,-3.3128 17.375,-1.1041 20.8914,5.4663 2.2767,4.2541 1.2496,6.7642 -6.8711,16.7918 -12.0701,14.9045 -17.0599,27.5751 -19.8166,50.32 -1.4224,11.7362 -1.3398,14.4665 0.6875,22.7394 3.2311,13.1847 9.8447,23.5252 26.0508,40.731 32.0642,34.0421 41.883,51.2194 46.0725,80.6007 3.8469,26.9787 2.7328,40.0552 -5.455,64.0307 -6.9958,20.4849 -10.6422,25.2482 -38.6389,50.4747 -5.5809,5.0287 -20.7607,23.4192 -27.168,32.9144 -6.6196,9.8098 -9.1591,12.0641 -11.7152,10.3991 z"
       id="path1" />
  </g>
</svg>
