<?xml version="1.0" encoding="UTF-8" standalone="no"?>
<!-- Created with Inkscape (http://www.inkscape.org/) -->

<svg
   version="1.1"
   id="svg1"
   width="1130.8051"
   height="1148.8861"
   viewBox="0 0 1130.8051 1148.8861"
   sodipodi:docname="Gemini_Generated_Image_90gi8690gi8690gi.png"
   xmlns:inkscape="http://www.inkscape.org/namespaces/inkscape"
   xmlns:sodipodi="http://sodipodi.sourceforge.net/DTD/sodipodi-0.dtd"
   xmlns="http://www.w3.org/2000/svg"
   xmlns:svg="http://www.w3.org/2000/svg">
  <defs
     id="defs1" />
  <sodipodi:namedview
     id="namedview1"
     pagecolor="#ffffff"
     bordercolor="#000000"
     borderopacity="0.25"
     inkscape:showpageshadow="2"
     inkscape:pageopacity="0.0"
     inkscape:pagecheckerboard="0"
     inkscape:deskcolor="#d1d1d1">
    <inkscape:page
       x="0"
       y="0"
       width="1130.8051"
       height="1148.8861"
       id="page2"
       margin="0"
       bleed="0" />
  </sodipodi:namedview>
  <g
     inkscape:groupmode="layer"
     inkscape:label="Image"
     id="g1"
     transform="translate(-158.35284,-122.88347)">
    <path
       style="fill:#005463;fill-opacity:1;stroke:none"
       d="m 923.07106,1270.5861 c -32.34858,-4.2115 -61.14045,-18.1654 -82.40444,-39.937 -4.4,-4.5051 -10.11086,-9.2853 -12.6908,-10.6228 l -4.6908,-2.4318 -11.3092,4.568 c -20.89497,8.4397 -32.306,11.1708 -46.6744,11.1708 -42.9296,0 -86.39759,-21.644 -125.69672,-62.5881 -13.19352,-13.7458 -23.7993,-29.6174 -28.70027,-42.9502 -6.27394,-17.0679 -6.9015,-41.8947 -1.43769,-56.8764 1.52151,-4.1719 3.06121,-8.5485 3.42155,-9.7258 0.91864,-3.0013 -20.60889,-17.2303 -27.45825,-18.149 -5.30193,-0.7111 -43.6043,3.4756 -65.43007,7.1519 -13.6017,2.2911 -40.05925,9.3619 -52,13.8971 -13.34547,5.0686 -37.00298,17.3673 -50.93551,26.4794 -14.38895,9.4106 -27.73951,20.5932 -27.71922,23.218 0.0114,1.4712 16.86147,12.6134 33.07494,21.871 20.20883,11.5387 41.42812,12.797 63.73871,3.7795 16.52564,-6.6793 26.2092,-14.9657 40.50775,-34.6631 6.23333,-8.5869 14.0384,-19.3247 17.34459,-23.8618 7.25756,-9.9595 10.38824,-10.9112 16.02891,-4.8729 3.57314,3.8251 3.95983,5.1093 3.95983,13.1512 0,37.7989 -32.89782,77.8142 -75.33333,91.6318 -9.02769,2.9395 -13.85321,3.5761 -31.40507,4.1429 -18.38494,0.5937 -21.92319,0.3447 -31.1787,-2.1945 -13.9753,-3.8341 -26.7865,-9.4096 -40.10328,-17.4534 -6.05914,-3.6598 -11.37318,-6.6543 -11.80899,-6.6543 -0.4358,0 -2.24473,2.8661 -4.01984,6.3691 -4.25376,8.3944 -23.01894,31.7094 -30.35149,37.7105 -9.16121,7.4977 -21.2148,14.4061 -31.92516,18.2977 -8.75463,3.1809 -11.76375,3.5861 -26.54079,3.5744 -22.0769,-0.018 -34.78873,-3.9922 -53.33333,-16.6762 -16.56143,-11.3275 -23.96162,-23.1631 -24.28126,-38.8346 -0.17506,-8.5829 0.35622,-11.1179 3.88259,-18.5256 6.41501,-13.4757 17.01079,-25.0698 32.07783,-35.1004 15.54847,-10.351 26.22803,-15.3414 41.65417,-19.4644 10.21514,-2.7302 13.3066,-2.9545 31.33333,-2.2731 22.8508,0.8638 36.25143,3.325 53.08932,9.7506 6.49335,2.4779 12.27962,4.5053 12.85838,4.5053 0.57876,0 1.39682,-1.7226 1.81791,-3.828 0.42109,-2.1055 4.3679,-8.6087 8.77069,-14.4516 16.69351,-22.154 54.21347,-45.7537 93.08905,-58.5523 21.50209,-7.0789 45.86328,-12.1487 64.12769,-13.3456 7.52095,-0.4929 14.00688,-1.434 14.41319,-2.0914 0.78723,-1.2738 0.32845,-1.9937 -8.55778,-13.4279 -3.14868,-4.05145 -8.1701,-13.2771 -11.15872,-20.5014 -10.029,-24.24282 -10.6855,-27.15958 -11.35934,-50.46842 -0.57827,-20.0026 -0.39365,-22.16504 2.95969,-34.66667 5.61508,-20.93368 5.73467,-19.23377 -1.97272,-28.04144 -10.66614,-12.18879 -15.16038,-22.5546 -15.80606,-36.45611 -1.30958,-28.19491 4.3396,-41.63327 27.72868,-65.96143 7.7,-8.00916 20.3,-19.61491 28,-25.79055 28.21372,-22.62831 66.48062,-36.52533 95.98556,-34.85815 5.14128,0.29051 9.34777,0.34361 9.34777,0.11799 0,-0.22561 -2.02908,-4.44522 -4.50906,-9.37691 -25.54739,-50.80349 -13.43414,-112.52858 30.54229,-155.63338 12.83909,-12.5846 25.65112,-21.17356 37.96677,-25.45225 8.29017,-2.88017 32.7093,-3.49197 53.7018,-1.34546 11.31415,1.15689 11.81493,1.09053 15.11634,-2.00288 1.878,-1.75967 6.58408,-7.71867 10.45796,-13.24222 8.73444,-12.45394 14.79504,-17.84977 25.99407,-23.14288 8.12418,-3.83981 9.70108,-4.11646 22.72982,-3.98768 33.32773,0.3294 59.28531,11.12628 84.52034,35.15566 17.42588,16.59333 25.9754,30.151 31.30074,49.63613 3.98446,14.57894 4.63684,22.58873 3.01155,36.97542 -0.78251,6.92661 -1.19573,12.82085 -0.91827,13.09831 0.27747,0.27747 2.51024,-0.58976 4.96172,-1.92717 3.66261,-1.99813 7.42856,-2.42017 21.12387,-2.3673 14.8657,0.0574 17.5559,0.43893 24.8958,3.53091 14.8936,6.27402 25.0303,14.23018 43.1042,33.83193 16.6496,18.05694 25.9244,35.26704 28.6918,53.23948 2.0081,13.04082 1.6899,12.50345 7.3568,12.42524 4.343,-0.0599 5.7979,-0.84623 8.7662,-4.73789 4.0667,-5.3317 13.8219,-10.10555 27.0231,-13.22413 11.5497,-2.72847 35.5005,-1.71818 49.4955,2.08781 13.2486,3.60303 13.3333,3.59148 13.3333,-1.81963 0,-6.23691 -12.0086,-29.03892 -19.3445,-36.7314 -12.3092,-12.90755 -23.3847,-34.85003 -27.5929,-54.66667 -1.4795,-6.96666 -3.6874,-14.76666 -4.9065,-17.33333 l -2.2166,-4.66666 -20.2452,0.45972 c -27.2412,0.61858 -33.3153,-1.31408 -52.7422,-16.78155 -16.9486,-13.49428 -27.7912,-15.43801 -44.1641,-7.91723 -15.3089,7.03199 -24.8054,16.78974 -34.5535,35.50413 -5.3279,10.22848 -7.3706,11.86035 -12.13095,9.69137 -6.62124,-3.01684 -3.69723,-14.85039 8.02725,-32.48657 9.5387,-14.34825 26.7801,-27.19554 46.2594,-34.46987 9.4383,-3.52464 10.5947,-4.62944 6.2796,-5.99902 -1.465,-0.46496 -2.965,-2.30539 -3.3334,-4.08985 -0.3683,-1.78445 -0.9877,-4.77045 -1.3763,-6.63553 -0.3886,-1.86509 -2.7667,-17.54077 -5.2847,-34.83485 -3.7822,-25.97728 -5.7694,-35.29718 -11.4304,-53.60893 -7.9461,-25.70318 -13.2857,-36.98882 -27.703,-58.55162 -15.48874,-23.16522 -29.24487,-47.0176 -30.60361,-53.06491 -1.29785,-5.77629 -0.41195,-9.6658 2.8107,-12.34036 5.07377,-4.21086 18.08933,3.62912 28.34001,17.07076 2.8191,3.69654 5.845,6.72099 6.7243,6.72099 0.8793,0 3.4524,-3.28451 5.718,-7.2989 10.1008,-17.89766 40.7932,-40.91476 65.5152,-49.13169 9.1609,-3.04484 26.1462,-6.3564 36.9132,-7.19683 28.4364,-2.21963 63.1772,12.32791 84.3729,35.33076 10.834,11.75778 21.7593,32.17983 27.6207,51.62999 3.2785,10.87929 3.6174,13.99237 3.6289,33.33333 0.011,19.11712 -0.3624,22.68865 -3.5988,34.37967 -1.9864,7.17549 -5.4762,17.52532 -7.7551,22.99962 -5.1623,12.40038 -20.6495,35.81228 -31.0327,46.91191 -11.8188,12.63441 -34.201,30.1047 -52.8624,41.26143 -18.0892,10.81469 -24.9325,15.76212 -23.1445,16.73246 0.6295,0.34161 7.1445,-0.20689 14.4779,-1.2189 25.4012,-3.5054 36.8552,-0.14179 52.6832,15.47102 9.5612,9.43121 12.0309,14.33396 17.4175,34.57717 3.1457,11.82183 7.6815,22.32608 12.3207,28.53289 7.1225,9.52933 19.4989,31.49861 22.357,39.68605 2.5856,7.40653 3.053,11.61569 3.2149,28.94873 l 0.1895,20.28206 6.6037,7.05127 c 11.5975,12.38363 16.1135,18.73894 23.0125,32.3846 6.4363,12.73076 11.8783,27.69471 14.7893,40.66666 2.9055,12.94731 0.5163,32.68195 -5.3502,44.19198 -2.8183,5.52965 -22.8975,26.79728 -31.0975,32.93809 l -3.8594,2.89022 4.139,8.98985 c 6.9241,15.03888 8.6862,24.26812 7.826,40.98986 -0.9405,18.28576 -3.2163,26.77625 -12.1508,45.33333 -11.2833,23.43532 -26.4088,42.62792 -45.2728,57.44632 l -5.1773,4.067 7.9573,2.9014 c 32.1197,11.7115 57.7307,48.9508 57.7307,83.9427 0,20.3446 -3.7303,31.2618 -20.3792,59.6426 -8.269,14.0959 -11.3119,23.1878 -13.1394,39.2593 -1.1573,10.1774 -1.1362,15.231 0.089,21.461 1.8904,9.6083 0.3128,13.281 -7.2548,16.8898 -7.3515,3.5057 -10.7668,1.4945 -40.208,-23.6774 -15.9734,-13.6571 -25.7941,-20.9611 -38.4413,-28.5902 -23.3164,-14.0649 -30.0335,-21.7467 -32.0704,-36.6759 -1.3876,-10.1705 -1.6834,-10.1657 -8.7821,0.1419 -9.7385,14.1406 -13.1134,18.2694 -32.5806,39.8581 -39.6027,43.9185 -72.78631,63.8475 -117.48899,70.5602 -10.69058,1.6053 -17.16563,1.611 -29.34015,0.026 z m 34.92888,-40.5377 c 30.88691,-7.3824 59.75566,-25.8601 92.52756,-59.2229 34.6035,-35.2275 53.7433,-68.5974 55.7634,-97.2224 0.7384,-10.4635 -1.6759,-33.6041 -3.5058,-33.6024 -0.4318,3e-4 -5.1452,4.7678 -10.4741,10.5944 -22.8702,25.0058 -61.4389,47.823 -91.3949,54.069 -33.25468,6.9338 -61.80782,5.3718 -86.65675,-4.7406 -11.38764,-4.6342 -17.83004,-9.0475 -27.89568,-19.1094 -14.94609,-14.9406 -21.41589,-32.4441 -18.4156,-49.8218 1.54025,-8.9211 4.1532,-14.6752 7.5951,-16.7253 3.38771,-2.0178 1.77637,-4.8958 -4.54322,-8.1145 -3.55117,-1.8087 -11.86401,-8.82777 -18.92339,-15.97821 -9.90727,-10.03508 -14.68498,-13.77401 -22.4214,-17.54645 -11.58027,-5.64678 -18.49699,-11.5506 -24.50946,-20.92022 -3.95882,-6.1693 -4.4258,-7.9741 -4.9064,-18.96262 -0.42561,-9.73117 0.0524,-14.12493 2.40575,-22.11139 1.6153,-5.48185 3.48096,-10.537 4.14591,-11.23366 1.54697,-1.62077 1.57618,-6.06667 0.0399,-6.06667 -1.36411,0 -5.89387,10.15402 -10.30746,23.10548 -3.9061,11.46226 -7.02081,16.50319 -14.39967,23.30478 -11.22344,10.34541 -23.83175,14.38306 -41.30552,13.22755 -22.45027,-1.48458 -52.8007,-15.20534 -69.72969,-31.52325 -13.48333,-12.99662 -19.2153,-26.05614 -20.13295,-45.87019 -0.98654,-21.30155 4.88047,-39.44225 17.33081,-53.58658 12.62742,-14.34551 40.39858,-27.32445 58.46636,-27.32445 17.58614,0 40.24174,8.15837 56.91393,20.49492 4.58333,3.39143 8.33333,5.54753 8.33333,4.79133 0,-2.86729 -7.3466,-15.79909 -16.63763,-29.28625 -5.30437,-7.7 -11.57239,-18.39515 -13.92892,-23.76701 -5.38308,-12.271 -8.61485,-28.92483 -7.74006,-39.88571 1.2407,-15.54569 15.82235,-39.75237 30.30661,-50.31137 14.33359,-10.44915 26.28092,-14.04602 46.57821,-14.02288 13.10654,0.0149 21.70003,3.13701 29.15532,10.5923 4.73016,4.73016 8.92021,11.85205 7.69424,13.07802 -0.42287,0.42287 -3.61712,-0.51421 -7.09832,-2.08241 -3.4812,-1.56819 -8.92016,-3.50403 -12.08658,-4.30185 -17.36673,-4.37578 -47.63412,13.63692 -57.87738,34.44395 -4.03755,8.20141 -4.35864,9.8212 -4.27439,21.56226 0.10311,14.36924 3.10192,23.93214 15.27005,48.6947 9.4646,19.26077 13.73122,34.88641 12.65482,46.34574 -0.73897,7.86705 -0.48617,9.51852 1.9892,12.99485 11.42123,16.03964 58.51318,20.41057 64.01427,5.94161 0.73313,-1.92829 1.01645,-4.01812 0.62959,-4.64406 -0.38685,-0.62595 -5.34114,-3.94263 -11.00953,-7.37041 -20.91003,-12.64467 -34.90455,-26.10136 -41.79463,-40.18841 -10.6103,-21.69318 1.62905,-62.14596 24.46421,-80.85765 8.11676,-6.65108 27.46383,-18.21612 32.02425,-19.14306 2.01667,-0.4099 3.66667,-0.9179 3.66667,-1.12889 0,-0.21099 -2.10207,-3.57544 -4.67125,-7.47656 -8.36714,-12.70484 -12.81229,-25.45691 -14.1188,-40.50339 -0.93441,-10.76116 -0.75972,-15.13806 0.85102,-21.3221 5.97757,-22.94945 20.90548,-34.51595 44.66626,-34.60848 8.97,-0.0349 11.15291,0.50022 20.1374,4.93682 9.43449,4.65881 12.61593,7.32115 23.97578,20.06384 l 4.49292,5.03985 4.90404,-3.51786 4.90405,-3.51785 -0.71249,-12.18866 c -2.37062,-40.55477 -16.10749,-63.67487 -47.10882,-79.28743 -11.10715,-5.59366 -16.45737,-7.43991 -25.98678,-8.96747 -15.21108,-2.43833 -18.55576,-2.41688 -27.28345,0.17496 -6.20174,1.84172 -8.98743,4.02001 -22.00162,17.20429 -16.75656,16.97557 -18.51368,17.88269 -36.71493,18.95442 -8.70699,0.51268 -15.96803,-0.16113 -31.33333,-2.90768 -26.97017,-4.82093 -34.78554,-3.38351 -53.18293,9.78155 -22.1264,15.83352 -35.90103,34.70028 -44.8616,61.44579 -3.74392,11.17485 -4.14594,13.96563 -4.14594,28.78071 0,15.41111 0.3002,17.29377 4.95076,31.04808 2.72292,8.05319 6.81578,18.10988 9.09524,22.34821 3.70905,6.89643 5.24743,8.31178 14.64262,13.47155 23.18434,12.73266 34.70186,23.73662 34.70186,33.15451 0,5.68847 -3.77578,9.94318 -8.82392,9.94318 -6.35514,0 -18.05419,-6.66628 -29.94873,-17.0652 -6.14806,-5.37501 -13.39326,-10.69822 -16.10043,-11.82935 -2.70718,-1.13113 -10.63822,-2.35878 -17.62453,-2.72812 -10.19948,-0.5392 -15.0669,-0.0958 -24.70239,2.25023 -30.72013,7.47973 -61.63189,29.19122 -84.20257,59.14135 -12.95665,17.19282 -16.434,24.50793 -16.45106,34.60725 -0.0167,9.88116 2.14901,14.8994 10.32762,23.9305 14.19503,15.67465 16.77688,27.45349 11.54439,52.66745 -5.27806,25.43348 -3.65977,46.32484 5.30825,68.52743 3.63085,8.98909 17.75385,34.09654 19.95531,35.47594 0.83493,0.5232 5.18987,0.7667 9.67764,0.5411 10.28289,-0.517 17.44545,2.5463 27.5525,11.7836 4.03066,3.6838 7.85686,6.6978 8.50267,6.6978 0.6458,0 6.56167,-5.4504 13.14638,-12.112 19.92208,-20.15463 34.05263,-29.56237 58.63887,-39.04017 21.29944,-8.21076 52.53361,-12.449 65.99999,-8.95571 2.56667,0.66582 8.86667,1.57472 14,2.01979 11.0811,0.96076 21.98451,5.78219 26.07861,11.53183 4.3483,6.10662 7.92139,17.73854 7.92139,25.78746 0,8.5469 -4.9644,25.034 -10.59347,35.1816 -18.23988,32.8813 -51.22311,53.0094 -94.57598,57.7154 -26.94865,2.9252 -47.28947,-0.2429 -69.29192,-10.7926 -6.12043,-2.9346 -11.29764,-5.3356 -11.50491,-5.3356 -0.20727,0 -1.13354,1.8268 -2.05839,4.0596 -2.37085,5.7237 -0.94486,22.8279 2.66059,31.9126 6.14843,15.4922 23.91058,35.0503 48.69742,53.6212 17.91742,13.4242 25.313,17.3769 44.53895,23.8051 12.04757,4.028 19.34094,5.6495 27.90775,6.2045 14.63331,0.9481 22.48294,-0.7219 39.43985,-8.3908 16.17407,-7.3148 25.74268,-8.672 37.3496,-5.2978 9.40393,2.7338 15.13651,6.2248 30.76384,18.7345 20.09669,16.0874 34.08488,24.1906 47.03078,27.2444 8.09516,1.9095 34.81721,1.5963 43.63588,-0.5115 z M 299.07559,1198.011 c 20.36337,-5.3039 42.65663,-22.3694 56.25728,-43.0649 2.17845,-3.3149 3.24938,-6.1785 2.54659,-6.8095 -2.27828,-2.0456 -21.19878,-9.1926 -28.68087,-10.8339 -11.05841,-2.4258 -30.15111,-1.0282 -44.53194,3.2598 -22.15968,6.6075 -43.51808,18.9676 -49.0013,28.3571 -2.26586,3.88 -2.30759,4.5933 -0.47594,8.1354 8.45009,16.3406 40.82906,26.9617 63.88618,20.956 z m 910.76331,-12.0111 c 1.2311,-5.2062 6.937,-19.1372 12.9036,-31.5043 17.1597,-35.5675 17.9416,-44.8706 5.8088,-69.1072 -7.4749,-14.9318 -18.4514,-25.6872 -33.5415,-32.866 -5.6888,-2.7063 -13.1707,-6.9656 -16.6266,-9.4651 -6.2825,-4.5438 -6.2847,-4.5443 -14.213,-2.9845 -10.4555,2.057 -26.163,-0.892 -33.1543,-6.2245 l -4.7253,-3.6042 0.9214,5.2112 c 1.7732,10.0279 3.5456,14.0256 5.9084,13.3262 7.788,-2.3051 9.7506,-2.2521 15.178,0.41 7.3198,3.5902 13.9623,12.6562 23.0615,31.4751 10.8078,22.3528 18.4878,47.1674 26.0841,84.2795 3.7089,18.1198 7.1068,33.5331 7.5509,34.2518 0.9892,1.6004 1.9881,-1.1212 4.844,-13.198 z m -24.3208,-5.531 c -1.4214,-3.6061 -5.3644,-16.7369 -8.7622,-29.1795 -6.3203,-23.1444 -15.0322,-50.9021 -16.7251,-53.2895 -0.5201,-0.7333 -2.5899,-5.5333 -4.5997,-10.6666 -4.9568,-12.6603 -10.7272,-22.504 -15.5914,-26.5969 -6.9331,-5.8338 -7.4509,-5.0235 -7.4113,11.5969 0.041,17.1552 -4.1511,37.1787 -11.0968,53.0038 -4.7717,10.8718 -4.7853,11.1262 -1.1173,20.9298 3.7859,10.1186 7.6044,13.6616 20.4523,18.9766 14.509,6.0021 30.4986,13.8049 39.3333,19.1944 4.0334,2.4604 7.5064,4.0492 7.718,3.5306 0.2115,-0.5186 -0.7784,-3.8934 -2.1998,-7.4996 z M 978.96708,1062.1263 c 13.72644,-3.482 44.56692,-16.9253 52.91812,-23.0668 9.2866,-6.8295 17.2422,-14.8588 28.5621,-28.8271 15.2667,-18.83844 15.426,-19.46158 8.6084,-33.66979 -11.58,-24.13332 -7.9173,-49.52831 8.2942,-57.50771 20.0384,-9.86301 40.7186,6.83606 47.404,38.27838 2.5976,12.21721 1.6567,32.80767 -2.1538,47.12952 -1.3956,5.2454 -2.5515,9.9871 -2.5688,10.5371 -0.017,0.55 2.0925,1 4.6884,1 2.5959,0 7.2459,1.3369 10.3333,2.9708 4.5163,2.3901 7.8327,2.9765 16.9667,3 16.2965,0.042 25.5231,-4.6787 42.7673,-21.8812 12.7963,-12.76539 15.1756,-16.07522 24.9855,-34.75622 12.1538,-23.14463 14.417,-42.73349 7.1221,-61.6443 -2.1876,-5.67103 -6.3913,-13.92561 -9.3414,-18.3435 -3.9405,-5.90096 -5.6091,-9.99455 -6.2877,-15.42613 -2.2776,-18.22956 2.7623,-30.57734 19.5735,-47.95488 6.4254,-6.6419 12.3152,-13.74011 13.0884,-15.77381 3.7582,-9.88475 -0.2979,-31.16067 -10.1079,-53.02019 -1.9344,-4.31045 -3.8851,-7.81212 -4.335,-7.78149 -0.4498,0.0306 -3.9076,6.48064 -7.6839,14.33334 -9.0848,18.89145 -20.9158,36.56163 -30.6005,45.70343 -4.3268,4.08418 -8.8025,7.98418 -9.9461,8.66666 -1.1436,0.68248 -5.186,5.77151 -8.9832,11.30895 -3.8514,5.61656 -10.7664,13.28034 -15.6398,17.33333 -9.0661,7.53989 -20.1085,14.56884 -22.917,14.58771 -1.7534,0.0118 -25.8326,11.80897 -37.7141,18.47736 -4.0333,2.26368 -10.0333,4.50367 -13.3333,4.97775 -3.8092,0.54723 -7.4605,2.19596 -10,4.51539 -6.691,6.11125 -19.554,13.1659 -27.9468,15.32723 -4.3707,1.12557 -13.2707,2.04648 -19.7778,2.04648 -6.507,0 -11.6022,0.45 -11.3226,1 9.2439,18.18301 10.5397,26.22987 7.0609,43.84662 -3.8674,19.58456 -10.2219,29.10216 -28.94789,43.35703 -20.4645,15.57834 -45.02262,25.60584 -65.73247,26.83974 -11.60534,0.6915 -27.5964,-0.9803 -35.26826,-3.6871 -6.13997,-2.1663 -7.99088,-1.863 -5.76482,0.9448 0.7408,0.9344 2.40926,4.9989 3.7077,9.0322 2.73405,8.4928 7.51447,18.0811 11.07264,22.209 5.63919,6.542 21.99415,14.8936 35.58608,18.1719 1.46666,0.3537 9.03973,0.7127 16.82903,0.7978 10.94921,0.1196 17.03067,-0.5729 26.80477,-3.0523 z m -254.20593,-12.0509 c 16.64285,-2.1951 29.36356,-6.8031 42.61592,-15.4373 10.63149,-6.9267 15.83724,-12.7383 20.79211,-23.2118 5.13694,-10.8584 4.94917,-16.24142 -0.9587,-27.48412 l -4.78947,-9.11437 -7.13951,-0.89203 c -12.86817,-1.60777 -31.26829,3.20436 -50.35363,13.16885 -16.46017,8.59388 -22.73195,12.72968 -36.04831,23.77127 -8.77666,7.2775 -26.21293,25.7504 -26.21293,27.7714 0,2.9434 20.09696,10.5198 31.97035,12.0525 11.54194,1.49 14.56911,1.4272 30.12417,-0.6244 z m 206.57213,-71.33328 c 24.29856,-8.46998 42.81606,-21.31607 58.74751,-40.75475 4.18324,-5.10416 18.55971,-33.79129 17.47701,-34.874 -1.2528,-1.25276 -31.52406,-3.14265 -37.49818,-2.34108 -25.4052,3.40875 -53.19545,25.94869 -68.90261,55.88507 -8.49812,16.19665 -11.06041,16.61899 -10.16752,1.67592 0.50739,-8.49141 1.64696,-13.28054 4.99691,-21 5.93115,-13.66744 15.98798,-27.82551 27.02113,-38.04052 9.84149,-9.11171 17.02933,-13.09442 33.81775,-18.73809 10.05686,-3.38075 11.65286,-3.52584 37.17466,-3.37946 29.44116,0.16887 39.19466,-0.92049 48.11086,-5.37342 12.1792,-6.0826 23.7132,-21.18462 29.8891,-39.13517 6.1354,-17.83267 11.3522,-24.77457 36.072,-48 13.6833,-12.8561 18.63,-21.28032 19.6013,-33.38115 0.5919,-7.37341 0.1796,-9.47036 -3.3407,-16.99317 -3.4342,-7.33864 -10.8692,-15.62568 -14.0191,-15.62568 -0.4226,0 -1.1851,1.95 -1.6946,4.33334 -3.5976,16.82955 -7.4719,25.03091 -19.1853,40.6126 -6.4998,8.6464 -14.9879,19.32073 -18.8625,23.72073 -3.8746,4.4 -10.6204,12.5 -14.9907,18 -12.0188,15.12548 -22.1898,24.25703 -39.2593,35.24685 -8.5705,5.51791 -10.4029,6.1851 -16,5.8257 -5.38949,-0.34607 -6.28748,-0.79889 -6.09323,-3.07256 0.12531,-1.46666 1.87711,-3.86666 3.89289,-5.33333 2.01574,-1.46667 10.01324,-8.32489 17.77214,-15.2405 27.696,-24.68577 37.3478,-38.5254 47.0233,-67.42616 7.2945,-21.78867 7.9863,-32.62794 3.2244,-50.51895 -6.06,-22.76856 -14.6321,-35.63205 -32.2219,-48.35324 -7.3673,-5.32811 -18.8053,-11.09494 -22.0453,-11.11478 -1.1696,-0.007 -5.9696,2.52194 -10.6666,5.62023 -17.58536,11.59976 -28.54023,14.05285 -39.87342,8.92869 -8.2728,-3.74043 -13.73587,-9.37134 -21.44306,-22.10183 -7.01024,-11.57929 -13.24097,-17.98404 -20.40904,-20.97906 -20.50445,-8.5673 -32.3371,0.93966 -33.83345,27.18353 -0.78505,13.76861 1.14314,22.44185 8.65791,38.94424 l 4.67919,10.2755 6.17423,0.76621 c 11.09338,1.37668 27.34443,6.05808 33.48857,9.64697 8.51252,4.9723 20.54313,16.80617 23.2993,22.91827 1.62822,3.61074 4.21332,6.23161 8.52807,8.6461 12.16228,6.80586 16.22662,12.7844 19.02842,27.99035 1.93287,10.49004 0.48133,20.03137 -5.80346,38.14777 -4.73523,13.64963 -9.10483,21.6498 -15.47537,28.33333 -5.42386,5.69034 -9.53851,6.3528 -13.68763,2.20368 -2.66075,-2.66075 -2.75082,-3.64647 -1.85791,-20.33333 0.86191,-16.1077 -0.39773,-28.87035 -2.84943,-28.87035 -0.40381,0 -3.23347,2.57156 -6.28814,5.71458 -10.0303,10.32042 -26.39899,12.84216 -44.2082,6.81067 -9.42961,-3.19356 -13.51013,-6.43286 -18.02943,-14.31257 -6.80014,-11.85654 -5.03453,-24.15689 4.69359,-32.69828 6.81666,-5.98511 15.17939,-9.36888 27.43937,-11.10267 9.1482,-1.29372 11.19186,-1.14716 19.59524,1.40529 10.74659,3.26417 10.96789,3.29571 10.96789,1.56271 0,-2.8528 -8.35731,-10.52866 -15.6197,-14.34606 -14.79749,-7.77815 -24.44159,-6.60049 -42.39446,5.17685 -22.04051,14.45889 -32.78337,35.47921 -24.81259,48.55026 2.67845,4.39231 12.34689,11.30346 24.10485,17.23051 35.66651,17.97908 46.78555,48.20905 28.69279,78.0087 -12.74381,20.98968 -47.67173,31.75287 -84.09277,25.91356 l -5.45523,-0.87462 -1.65204,13.93971 c -2.41124,20.34582 0.83466,29.62388 11.58334,33.10974 7.4682,2.42198 25.6801,11.75799 30.97915,15.88092 14.1539,11.01242 23.57055,16.12822 35.33333,19.19557 5.34639,1.39416 22.86821,-0.37099 30.66667,-3.08937 z M 765.71509,932.46917 c 11.28775,-5.83712 23.86883,-20.79824 30.82221,-36.65302 l 3.29676,-7.51713 -7.70548,-5.98384 c -4.23802,-3.29112 -14.37895,-13.47516 -22.53541,-22.63121 -8.15646,-9.15604 -16.20166,-17.54469 -17.87824,-18.64144 -7.09424,-4.64078 -20.81087,-8.09362 -29.38788,-7.3977 -9.53867,0.77395 -24.83571,7.1128 -30.77782,12.75384 -7.75627,7.36327 -9.54927,12.80587 -9.54927,28.98648 0,14.4547 0.0837,14.85759 4.66667,22.47589 6.15333,10.22864 15.90115,18.97788 28.08579,25.20867 20.54022,10.50353 41.39094,14.3492 50.96267,9.39946 z M 1129.5943,829.62695 c 10.1929,-6.51369 24.4189,-21.42216 29.6993,-31.12395 4.4355,-8.1494 6.4679,-21.21425 4.7277,-30.39037 -0.7019,-3.70129 -3.3397,-11.09081 -5.8617,-16.42115 l -4.5855,-9.69152 0.7272,10.18108 c 0.5265,7.37137 0.063,12.89084 -1.6777,20 -4.8836,19.9391 -10.3733,28.71414 -29.0814,46.48558 -11.8862,11.29109 -20.1784,21.66714 -22.5743,28.24727 -0.5011,1.3764 3.1572,-0.4323 9.4402,-4.66726 5.6422,-3.803 14.2759,-9.48185 19.1862,-12.61968 z m 63.2349,-44.57101 c 3.5288,-6.0192 8.1307,-15.7692 10.2264,-21.66666 3.9766,-11.19023 10.2685,-33.4912 10.2743,-36.41622 0,-2.48014 -17.7723,-13.56525 -28.6233,-17.84824 -8.3043,-3.2778 -11.1221,-3.70265 -24.7067,-3.72522 -13.2143,-0.0219 -20.8337,1.18863 -18.628,2.95964 0.3454,0.27736 2.728,1.93172 5.2947,3.67636 6.9872,4.74943 22.4239,19.85779 26.8922,26.32025 7.8726,11.38612 13.7851,34.47479 12.4567,48.6441 -0.464,4.95 -0.5644,9 -0.223,9 0.3414,0 3.5079,-4.9248 7.0367,-10.94401 z M 931.89764,772.5481 c 2.25627,-1.89853 4.1023,-3.93983 4.1023,-4.53624 0,-3.61178 -25.25263,-6.80675 -31.93205,-4.04005 -4.71524,1.95312 -5.12171,3.99454 -1.45588,7.31206 3.20364,2.89926 9.19477,4.39972 18.28563,4.5796 5.59527,0.11071 7.6723,-0.5153 11,-3.31537 z M 1113.7862,537.66663 c 0.3479,-1.28333 0.9838,-3.91983 1.4131,-5.85888 0.879,-3.96999 4.8282,-7.92689 38.8842,-38.96055 32.9,-29.98018 43.1909,-44.02317 49.9135,-68.1122 13.7321,-49.20647 6.3854,-88.01389 -21.9698,-116.05043 -11.3057,-11.17863 -32.8383,-18.44027 -54.1241,-18.25278 -17.6288,0.15528 -28.6598,3.07036 -48.8144,12.89984 -16.0645,7.83474 -19.1624,9.93541 -29.8613,20.24923 -6.5656,6.3292 -13.1971,13.54589 -14.7367,16.03709 l -2.7994,4.52944 7.821,11.86727 c 4.3015,6.527 8.2249,11.89383 8.7186,11.9263 0.4937,0.0325 3.6518,-4.08385 7.018,-9.14735 16.9412,-25.4832 42.893,-38.10334 72.8938,-35.44766 14.9425,1.32271 23.4948,5.7627 35.4925,18.42612 15.4619,16.31973 23.0314,34.17824 23.0314,54.33707 0,12.62916 -4.7826,32.27476 -10.9024,44.78374 -6.0212,12.30762 -23.224,29.41493 -38.5228,38.30908 -6.1828,3.59443 -18.7415,11.16282 -27.9081,16.81866 -22.7809,14.05579 -21.6935,13.57877 -25.2601,11.08056 -4.9756,-3.48504 -2.7382,-8.65937 9.6355,-22.28349 6.0698,-6.68308 13.6976,-15.45105 16.9508,-19.48438 3.2531,-4.03334 10.6715,-12.25613 16.4852,-18.27287 12.8157,-13.2631 18.677,-21.17457 23.5056,-31.72713 5.1569,-11.27016 7.1225,-20.8652 6.3852,-31.16972 -0.7943,-11.10109 -4.8495,-20.46553 -12.0994,-27.94031 -8.8655,-9.14062 -14.3174,-11.38576 -27.6028,-11.36722 -9.8765,0.0138 -12.506,0.55606 -20.4558,4.21843 -10.3522,4.76917 -25.0456,18.44005 -33.3957,31.0718 l -4.9444,7.47964 6.8019,15.85215 c 11.7722,27.43553 18.5446,59.1475 16.783,78.58724 -1.7566,19.38512 -9.0257,38.18634 -15.9349,41.21493 l -4.1875,1.83552 6,0.1162 c 8.0553,0.15601 14.6082,2.08121 27.3334,8.03034 16.5842,7.75327 17.4865,7.96864 18.4529,4.40432 z M 329.334,1090.502 c -8.62875,-3.4408 -13.31568,-12.4775 -10.65414,-20.5421 0.85434,-2.5887 6.50864,-11.3227 12.5651,-19.4089 6.05647,-8.0861 13.88024,-20.2181 17.38616,-26.9599 20.16129,-38.76967 48.36566,-62.25691 87.12428,-72.55292 24.50085,-6.50851 54.48482,-4.03402 74.24457,6.1272 3.66667,1.88553 9.51667,6.2661 13,9.73458 5.88616,5.86107 6.33333,6.78152 6.33333,13.03649 0,3.70159 -0.49059,6.73016 -1.09021,6.73016 -0.59961,0 -7.04961,-2.12999 -14.33333,-4.73331 -23.14899,-8.27383 -40.05201,-7.71931 -65.24312,2.14036 -15.65032,6.12546 -27.58011,13.79331 -39.08747,25.12334 -9.58682,9.4392 -13.38041,15.163 -27.00334,40.7428 -7.73506,14.5242 -11.81069,20.5394 -18.57585,27.416 -12.59929,12.8069 -24.34574,17.2614 -34.66598,13.1462 z M 316.85257,890.32403 c -15.17331,-1.16477 -30.02336,-4.68292 -46.321,-10.97399 -27.18167,-10.49244 -31.86492,-15.65051 -31.86492,-35.09561 0,-4.63638 0.55653,-9.46968 1.23674,-10.74065 1.03596,-1.93571 -0.40343,-3.27436 -8.86617,-8.24568 -22.77148,-13.37681 -44.66963,-46.93211 -55.74967,-85.42718 -6.12044,-21.26404 -13.7273,-68.1505 -15.9331,-98.20686 -1.88126,-25.63416 -1.24224,-32.85524 3.0274,-34.21037 3.39365,-1.0771 8.73639,0.25224 10.46297,2.60333 0.83132,1.13201 4.05654,15.08901 7.16716,31.01557 7.42026,37.9922 17.60607,82.27719 21.99409,95.62403 4.84159,14.72646 15.52054,35.8384 22.70986,44.89667 3.3158,4.17779 10.0198,10.20971 14.97677,13.47534 23.19117,15.27826 36.98474,19.36933 72.97395,21.64349 7.33333,0.4634 16.33333,1.66976 20,2.68081 3.66666,1.01105 9.54092,2.55275 13.0539,3.42602 3.96309,0.98515 6.94471,2.62939 7.85609,4.33232 3.15457,5.89438 -12.29227,13.92274 -34.12657,17.73699 -18.62653,3.25388 -39.03035,1.044 -62.95342,-6.8183 -2.51865,-0.82775 -2.77117,-0.50856 -2.25243,2.84719 1.69578,10.97013 1.2223,10.65638 23.75576,15.742 8.06667,1.82058 16.76667,3.97237 19.33334,4.78176 2.56666,0.80938 13.06666,1.79543 23.33333,2.1912 18.87776,0.72774 26.59511,-0.25816 60.85508,-7.77429 l 6.18842,-1.35765 0.58506,-9.56844 c 0.36586,-5.98339 -0.0794,-11.50463 -1.18842,-14.73608 -5.32392,-15.51303 0.023,-26.77502 21.48196,-45.2463 22.29546,-19.19133 31.49073,-36.90134 39.97738,-76.99601 8.05106,-38.0368 17.18845,-69.53041 22.42968,-77.30788 1.65727,-2.45923 4.99358,-5.62791 7.41402,-7.04152 l 4.4008,-2.57021 3.42241,3.16478 3.42242,3.16479 -0.73714,21.33333 c -1.16203,33.6301 -9.8848,99.77402 -15.05714,114.17686 -8.09462,22.54013 -21.51687,40.17417 -42.69216,56.08856 -13.31242,10.005 -15.54233,13.81828 -16.4903,28.19928 -1.06462,16.15073 -3.61368,21.26067 -14.11916,28.30382 -7.42279,4.97643 -25.81895,11.86321 -39.22625,14.68472 -6.33102,1.33234 -28.46085,1.43391 -44.48074,0.20416 z M 599.0667,691.38959 c -7.85211,-2.43356 -26.85792,-13.32263 -35.20672,-20.17113 -14.92277,-12.24111 -31.23019,-33.8593 -38.5928,-51.16118 -4.99535,-11.73891 -10.09552,-30.6568 -11.3019,-41.92176 -0.89501,-8.35753 -1.0708,-8.68542 -5.11276,-9.53656 -8.16163,-1.71866 -22.73247,-8.97657 -34.81257,-17.34055 -17.23511,-11.93319 -30.58329,-26.32296 -38.27198,-41.25844 -15.66424,-30.42818 -20.50245,-49.65703 -23.78788,-94.54181 -2.18302,-29.82392 -5.79456,-45.85945 -14.8685,-66.01742 -9.02424,-20.04759 -9.53047,-20.77752 -25.31932,-36.5078 -10.40038,-10.3618 -15.81079,-16.7351 -15.84648,-18.66667 -0.0298,-1.61312 -1.8298,-5.01029 -4,-7.54925 -5.1075,-5.9754 -4.97341,-8.34752 0.87532,-15.48513 8.50854,-10.38355 20.60921,-14.7161 55.34998,-19.81761 28.6557,-4.20795 27.22009,-4.91756 63.9824,31.62601 9.42827,9.37217 22.24749,23.87127 28.48715,32.22023 12.18199,16.30005 21.53385,25.47566 33.08861,32.46497 11.63106,7.03546 13.56974,6.61853 20.42279,-4.39218 9.86424,-15.84876 22.93107,-29.87172 39.31742,-42.1944 18.64591,-14.02188 25.43787,-18.3204 30.56901,-19.34663 3.77398,-0.75479 3.96149,-0.57693 3.96149,3.75783 0,3.70892 -1.24916,5.77335 -6.75683,11.16666 -4.29511,4.20594 -8.34366,10.03252 -11.11229,15.99258 -2.39551,5.15682 -9.18499,16.58474 -15.08775,25.39538 -14.03924,20.95542 -21.54248,36.06752 -28.28736,56.97292 -10.45549,32.40623 -15.0918,55.3224 -19.51777,96.47168 -4.56776,42.46761 3.26475,108.90446 15.03789,127.55433 5.6298,8.91818 14.86748,17.0963 33.72411,29.856 23.22597,15.71628 28.19019,20.74157 28.93266,29.28859 0.45902,5.28394 0.0135,7.0419 -2.52088,9.94611 -3.81226,4.36866 -14.73508,5.86366 -23.34504,3.19523 z M 538.71789,571.80091 c -0.80188,-5.39052 -1.80936,-21.50094 -2.23884,-35.80094 -0.66323,-22.083 -0.34289,-29.41483 2.1263,-48.66667 4.2166,-32.87605 13.46086,-74.28408 20.7681,-93.02697 1.07792,-2.76484 1.95985,-5.5309 1.95985,-6.1468 0,-0.6159 -3.15,-1.50088 -7,-1.96664 -3.85,-0.46576 -8.6074,-1.2115 -10.572,-1.65721 -4.09351,-0.9287 -3.57749,-2.23318 -10.33661,26.13096 -3.77551,15.84365 -13.41961,62.12184 -13.42308,64.41202 -9e-4,0.59328 -0.60164,0.70787 -1.33497,0.25465 -2.07727,-1.28383 -1.57525,-26.7735 0.80288,-40.76505 2.86172,-16.83677 8.74481,-34.86693 14.48975,-44.40734 2.58905,-4.29954 4.70736,-7.96315 4.70736,-8.14134 0,-0.17819 -2.85,-1.39397 -6.33333,-2.70172 -3.48333,-1.30776 -10.84001,-5.5296 -16.34817,-9.38187 -13.78494,-9.64083 -22.60016,-21.14701 -40.41826,-52.75646 -1.90787,-3.38458 -7.17358,-10.58458 -11.70156,-16 -4.52799,-5.41542 -10.66816,-13.29621 -13.64483,-17.51288 -2.97667,-4.21667 -5.74401,-7.66028 -6.14965,-7.65247 -0.40564,0.008 -2.83187,2.16925 -5.39162,4.80321 -9.89206,10.1788 -23.35666,14.49374 -45.01523,14.4258 l -16.33599,-0.0512 8.70158,4.59353 c 13.15048,6.94208 25.97688,22.71041 37.8984,46.59099 13.40718,26.85659 17.82892,43.49831 27.35585,102.95684 6.19255,38.64835 16.42931,63.05585 34.57054,82.42656 5.66485,6.04877 16.93011,12.69917 28.85734,17.03581 12.1326,4.41131 14.10256,5.99758 15.26456,12.29144 1.00579,5.44779 8.55936,22.15498 9.56288,21.15145 0.35019,-0.35019 -0.0194,-5.04714 -0.82125,-10.43766 z M 409.33331,272.78664 c 9.61278,-1.71779 21.87002,-6.41896 23.46512,-8.99989 0.42045,-0.6803 0.0419,-2.10754 -0.84123,-3.17164 -1.6911,-2.03765 -6.25422,-1.88675 -25.95722,0.85842 -18.04209,2.51375 -35.49677,9.24659 -31.1358,12.01009 2.73265,1.73164 23.19372,1.31791 34.46913,-0.69698 z m -99.33333,365.08804 c -56.39278,-5.78607 -94.36174,-13.23669 -116.66666,-22.89342 -19.46559,-8.42746 -25.12817,-12.84413 -30.65466,-23.90986 -2.82606,-5.65864 -2.95867,-6.75912 -1.48047,-12.28592 0.89299,-3.33881 3.06914,-7.96572 4.83588,-10.28204 3.43828,-4.50782 24.6501,-16.15153 37.44066,-20.55213 14.62288,-5.031 40.14629,-9.134 75.19192,-12.08741 l 35.33333,-2.97766 40.66667,3.66519 c 45.7568,4.12394 56.51292,5.83668 73.08498,11.63761 18.92128,6.62325 34.80051,15.47305 31.38283,17.49025 -0.62397,0.36828 -5.93449,-0.79623 -11.80115,-2.58781 -18.99422,-5.80048 -41.47693,-9.51782 -62.66667,-10.36141 -11,-0.43793 -24.66822,-1.11667 -30.37382,-1.5083 -16.41577,-1.12679 -51.40507,-0.79265 -61.62617,0.58851 -13.15227,1.77725 -38.1858,5.28234 -50,7.0008 -26.19479,3.8102 -61.28691,17.18122 -61.32422,23.36613 -0.0116,1.91718 11.57251,7.4294 23.08721,10.98593 11.46313,3.5406 29.95595,6.21057 69.57034,10.04449 63.60505,6.15576 107.06488,3.71472 160.90919,-9.03791 10.49994,-2.48684 23.99955,-4.93001 29.99913,-5.42927 10.2411,-0.85223 11.00129,-0.73406 12.4281,1.93196 1.91978,3.58714 -0.23952,7.16679 -8.2765,13.72061 -18.02663,14.69997 -47.31917,26.0199 -80.39326,31.0675 -11.68093,1.78269 -67.98166,3.51047 -78.66666,2.41416 z M 758.66662,338.67072 c -23.12144,-1.88735 -38.63491,-3.92254 -52,-6.8218 -30.72387,-6.66488 -47.29414,-12.72441 -61.99999,-22.67257 -9.86876,-6.67599 -12.93333,-10.65113 -12.93333,-16.77618 0,-8.78918 4.92667,-9.20464 16.51572,-1.39276 12.94865,8.72836 19.51536,11.35268 38.93314,15.55922 69.44647,15.04445 136.61478,13.86772 200.15112,-3.50648 13.74438,-3.75844 47.50412,-16.00994 71.06273,-25.78886 4.40262,-1.82747 9.03284,-1.56599 10.84058,0.61219 3.78413,4.5596 -6.20492,16.79856 -21.91003,26.845 -21.95414,14.04389 -74.48087,29.18453 -113.06166,32.58961 -22.36695,1.97407 -59.78366,2.64354 -75.59828,1.35263 z m -35.59439,-32.71941 c -17.96048,-2.31042 -51.99855,-11.68204 -62.97634,-17.33913 -5.09592,-2.62603 -13.08654,-8.63245 -19.09593,-14.3541 -8.95783,-8.52891 -10.3316,-10.4433 -10.32031,-14.38166 0.0565,-19.70064 35.3912,-49.24305 76.06253,-63.59386 12.01973,-4.24114 34.78185,-9.6159 40.72336,-9.6159 3.02231,0 3.38548,-0.41838 2.60416,-3 -0.49937,-1.65 -1.24877,-7.03325 -1.66533,-11.96277 -1.39571,-16.51637 7.52288,-32.22743 23.87121,-42.05171 9.47447,-5.69354 25.21932,-8.27064 35.89721,-5.87563 16.94058,3.79972 29.28923,13.02429 35.45024,26.48171 2.98809,6.52684 3.29137,8.64187 2.80062,19.53061 -0.42848,9.50701 -1.31342,13.86836 -3.99618,19.69485 l -3.44582,7.48372 14.98026,-0.66107 c 17.45435,-0.77026 29.09373,1.30701 48.03804,8.5733 23.77466,9.11902 37.55447,19.12649 47.05942,34.17652 7.24415,11.4703 10.23983,25.74556 6.48136,30.88557 -3.16018,4.3218 -7.87894,1.68956 -14.03463,-7.82886 -3.0605,-4.73239 -8.40141,-11.10793 -11.86868,-14.16786 -11.82091,-10.43215 -39.99319,-22.63574 -67.77987,-29.36068 -8.87832,-2.14873 -19.07831,-5.05058 -22.66666,-6.44854 -3.58835,-1.39796 -8.54808,-3.30378 -11.02161,-4.23515 -3.09727,-1.16623 -5.10252,-3.14178 -6.44129,-6.34592 -2.31605,-5.54308 -1.55144,-10.80665 2.98539,-20.55142 5.78181,-12.41887 3.60889,-21.3664 -6.34372,-26.12189 -9.24136,-4.41565 -12.10784,-4.63059 -22.57717,-1.69294 -7.86197,2.20604 -10.77827,3.7953 -14.79254,8.06132 -7.26454,7.72014 -6.78692,12.13604 2.56421,23.70789 6.09899,7.54737 7.80798,12.67679 5.91388,17.75001 -0.81295,2.17741 -2.12942,5.70713 -2.9255,7.84382 -2.05743,5.52219 -11.86941,9.36172 -29.86084,11.68486 -35.32681,4.56157 -62.2372,14.06737 -84.69174,29.91642 l -10,7.05828 5.98042,1.73397 c 3.28923,0.95368 10.20246,3.49161 15.36273,5.63983 45.57716,18.97382 141.0711,22.55546 211.99017,7.95101 7.33333,-1.51016 14.38333,-3.03897 15.66667,-3.39736 4.23944,-1.1839 2.42456,1.46251 -4.00258,5.83643 -18.44571,12.55304 -67.59298,26.35199 -105.66408,29.66704 -20.76995,1.80855 -61.63645,1.44787 -78.26106,-0.69071 z"
       id="path1"
       inkscape:export-filename="teapot.svg"
       inkscape:export-xdpi="96"
       inkscape:export-ydpi="96" />
  </g>
</svg>
