<?xml version="1.0" encoding="UTF-8" standalone="no"?>
<!-- Created with Inkscape (http://www.inkscape.org/) -->

<svg
   version="1.1"
   id="svg1"
   width="3385.752"
   height="3103.647"
   viewBox="0 0 3385.752 3103.647"
   sodipodi:docname="teapot.png"
   xmlns:inkscape="http://www.inkscape.org/namespaces/inkscape"
   xmlns:sodipodi="http://sodipodi.sourceforge.net/DTD/sodipodi-0.dtd"
   xmlns="http://www.w3.org/2000/svg"
   xmlns:svg="http://www.w3.org/2000/svg">
  <defs
     id="defs1" />
  <sodipodi:namedview
     id="namedview1"
     pagecolor="#ffffff"
     bordercolor="#000000"
     borderopacity="0.25"
     inkscape:showpageshadow="2"
     inkscape:pageopacity="0.0"
     inkscape:pagecheckerboard="0"
     inkscape:deskcolor="#d1d1d1">
    <inkscape:page
       x="0"
       y="0"
       width="3385.752"
       height="3103.647"
       id="page2"
       margin="0"
       bleed="0" />
  </sodipodi:namedview>
  <g
     inkscape:groupmode="layer"
     inkscape:label="Image"
     id="g1"
     transform="translate(-382.41939,-492.76624)">
    <g
       id="g3">
      <path
         style="display:inline;fill:#af151d;fill-opacity:1;stroke:none"
         d="m 1430.8689,3454.2501 c -91.6491,-0.2105 -112.8346,-0.5038 -113.7232,-1.5745 -3.0744,-3.7045 -2.6359,-167.3707 0.4527,-168.9679 2.5756,-1.3319 17.0186,-1.4558 121.4125,-1.0418 75.1555,0.2981 128.3635,0.079 145.4891,-0.5988 78.0587,-3.0898 105.3349,-2.6971 105.68,1.5215 0.64,7.8233 -1.0057,57.0557 -2.0834,62.3259 -1.409,6.8904 -5.6337,12.5106 -22.6149,30.0855 -7.1742,7.425 -20.2009,21.15 -28.9482,30.5 -48.4018,51.7364 -43.7305,48.5543 -70.8354,48.2543 -12.209,-0.1351 -72.8821,-0.362 -134.8292,-0.5042 z M 1335.7277,3246.75 c -1.7529,-1.3243 -1.6972,-0.3948 -7.7477,-129.246 -1.0847,-23.0978 -2.6775,-54.1031 -3.5396,-68.9007 -1.96,-33.6406 -11.6292,-29.1426 65.5596,-30.4978 35.475,-0.6229 80.025,-1.9952 99,-3.0496 18.975,-1.0544 50.925,-2.4187 71,-3.0318 20.075,-0.6131 47.2998,-1.5511 60.4996,-2.0844 13.1997,-0.5334 36.3747,-1.4184 51.5,-1.9667 15.1252,-0.5484 32.4504,-1.4401 38.5004,-1.9816 17.2353,-1.5427 16.5,-1.6756 16.5,2.9827 0,4.0093 -5.6217,60.4988 -12.9895,130.5259 -2.199,20.9 -4.9209,47 -6.0487,58 -4.7133,45.9731 -4.9812,46.7258 -16.9618,47.6696 -32.7633,2.5811 -352.0676,4.0015 -355.2723,1.5804 z M 970.18953,3130.7284 c -0.6977,-0.8407 -3.02137,-9.336 -5.16372,-18.8785 -2.14234,-9.5424 -5.69924,-24.5499 -7.90422,-33.3499 C 951.80395,3057.2774 945,3023.8182 945,3018.8906 c 0,-5.6052 -0.19235,-5.5759 41.51548,-6.3433 53.37602,-0.9823 140.48642,-3.3208 188.48452,-5.06 118.6222,-4.2984 103.3912,-7.6169 102.6222,22.3592 -0.3338,13.0094 -0.8887,39.1785 -1.2332,58.1535 -0.4346,23.9415 -0.9726,34.7248 -1.7577,35.2347 -0.6222,0.4041 -5.8563,0.7464 -11.6313,0.7607 -5.775,0.014 -26.7,0.6857 -46.5,1.4921 -19.8,0.8063 -59.85,1.9334 -89,2.5047 -29.15,0.5712 -64.025,1.4584 -77.5,1.9714 -57.92767,2.2056 -78.45147,2.4023 -79.81047,0.7648 z M 2480,2848.2918 c -10.725,-0.1397 -42,-0.9389 -69.5,-1.776 -27.5,-0.8372 -60.6142,-1.5207 -73.5871,-1.519 -32.6736,0 -83.5921,-1.1805 -84.8778,-1.9751 -1.3389,-0.8275 -2.6579,-32.0631 -4.0338,-95.5217 -1.3789,-63.5971 -5.6458,-200.3277 -7.1197,-228.1485 -1.5034,-28.3758 -3.7516,-25.3477 18.837,-25.3701 20.4007,-0.02 77.3067,-1.3384 127.29,-2.9486 119.1942,-3.8398 199.0587,-4.8616 200.9596,-2.5711 1.6487,1.9865 0.8827,57.5118 -1.4432,104.615 -0.799,16.1828 -1.934,44.2733 -2.522,62.4233 -0.5881,18.15 -1.5216,42.9 -2.0745,55 -0.553,12.1 -1.2377,47.2 -1.5217,78 -0.284,30.8 -0.7253,57.0125 -0.9806,58.25 -0.4893,2.3714 -16.5799,2.6209 -99.4262,1.5418 z m -539.3277,-406.8935 c -1.8822,-6.419 -1.7476,-58.9566 0.2494,-97.3983 1.1572,-22.275 2.7804,-63 3.607,-90.5 3.5993,-119.7368 4.4658,-143.4421 6.1368,-167.8961 2.2329,-32.6766 -1.9265,-30.8061 61.3345,-27.5833 10.725,0.5464 58.2,1.4415 105.5,1.9891 47.3,0.5476 91.625,1.5056 98.5,2.1288 7.9822,0.7237 46.6545,1.2226 107,1.3804 51.975,0.1359 95.0019,0.2998 95.6153,0.3641 0.8041,0.084 1.291,22.2269 1.7452,79.367 0.3466,43.5875 1.058,92.975 1.581,109.75 1.6955,54.377 2.5285,171.7287 1.2302,173.2931 -0.9286,1.1189 -8.7814,1.5258 -40.4121,2.0942 -21.5928,0.388 -48.2596,1.1193 -59.2596,1.6252 -11,0.5058 -40.7,1.5919 -66,2.4135 -25.3,0.8216 -51.625,1.7508 -58.5,2.0648 -6.875,0.314 -26.225,1.0101 -43,1.547 -16.775,0.5369 -43.1,1.6328 -58.5,2.4354 -26.9667,1.4054 -68.7897,2.7634 -128.1356,4.1609 -27.0755,0.6375 -28.1565,0.5909 -28.6921,-1.2358 z M 2714.5,2420.9692 c -11,-0.3841 -31.925,-0.7686 -46.5,-0.8544 -14.575,-0.086 -37.075,-0.6322 -50,-1.214 -12.925,-0.5818 -52.6005,-1.36 -88.1677,-1.7293 -35.5673,-0.3693 -64.8967,-0.9009 -65.1765,-1.1814 -1.0246,-1.0266 -1.1783,-148.8678 -0.1558,-149.8609 1.0573,-1.0269 128.7584,-3.1607 186,-3.1079 17.6,0.016 40.1,-0.4552 50,-1.0475 31.8116,-1.9033 48.6495,-2.4994 49.8393,-1.7644 0.8653,0.5346 1.1607,21.1464 1.1607,81.0038 0,91.4143 4.7325,81.213 -37,79.756 z m 584,-4.0177 c -11,-0.3743 -33.275,-0.7442 -49.5,-0.822 -16.225,-0.078 -40.3,-0.6207 -53.5,-1.2067 -13.2,-0.5859 -52.2151,-1.5957 -86.7003,-2.244 -75.0258,-1.4105 -65.1592,5.9516 -63.3212,-47.2484 2.5816,-74.7257 3.0072,-84.457 8.3817,-191.6573 3.2017,-63.8612 -4.0554,-55.3138 48.1398,-56.6991 23.925,-0.6349 52.275,-1.5799 63,-2.0999 43.545,-2.1112 65.6259,-2.9369 109.7406,-4.1035 54.8909,-1.4516 47.3106,-7.0937 48.8587,36.3665 1.6754,47.0328 3.0335,75.8759 5.4273,115.2629 1.8093,29.7702 2.8759,59.1174 4.5694,125.7315 0.8705,34.2412 5.912,30.1156 -35.096,28.72 z m -729,-173.6157 c -2.2,-0.2582 -4.3128,-0.7769 -4.6951,-1.1526 -0.3823,-0.3758 -1.1904,-25.8832 -1.7958,-56.6832 -0.6055,-30.8 -1.478,-69.05 -1.939,-85 -1.0477,-36.251 -15.0854,-30.6381 88.9299,-35.5585 22.861,-1.0815 39.1905,-2.0881 66.2602,-4.0848 20.65,-1.5231 18.7467,-3.472 19.8227,20.2969 0.4817,10.6405 1.3271,29.4714 1.8786,41.8464 2.4563,55.1173 3.4759,115.1106 1.9725,116.062 -0.7887,0.499 -4.809,0.9272 -8.934,0.9515 -4.125,0.024 -17.175,0.7203 -29,1.5467 -20.7737,1.4518 -123.5261,2.8288 -132.5,1.7756 z m 247,-235.3164 c -12.1,-0.4132 -38.318,-1.1097 -58.2623,-1.5477 -24.0108,-0.5274 -36.5551,-1.1639 -37.129,-1.8841 -1.3519,-1.6966 -2.0543,-347.6875 -0.7067,-348.1169 0.6039,-0.1924 19.323,-1.3012 41.598,-2.464 22.275,-1.1628 66.15,-3.6443 97.5,-5.5144 31.35,-1.87 62.85,-3.6672 70,-3.9938 12.8003,-0.5845 51.6114,-3.0454 62.649,-3.9723 8.3036,-0.6974 8.9977,6.4645 11.869,122.4738 1.1827,47.7848 2.7055,90.0899 3.9954,111 4.3494,70.5076 5.9169,132.411 3.3793,133.4557 -2.5295,1.0412 -166.9827,1.517 -194.8927,0.5637 z M 1990,1874.4189 c -3.025,-0.2029 -15.5998,-0.861 -27.944,-1.4625 -26.7772,-1.3048 -26.5026,-1.2107 -25.6796,-8.8048 0.3369,-3.1084 1.5176,-21.1766 2.6239,-40.1516 1.1062,-18.975 2.6576,-45.075 3.4474,-58 0.7898,-12.925 1.7227,-32.725 2.0731,-44 1.3212,-42.5213 3.1998,-72.207 4.6281,-73.1328 2.334,-1.5131 237.9659,-0.1899 239.445,1.3446 0.9779,1.0144 1.0584,10.8531 0.3789,46.2882 -0.8066,42.0629 -1.5363,57.6639 -3.9758,85 -0.5399,6.05 -1.8811,24.725 -2.9805,41.5 -1.0993,16.775 -2.284,34.6982 -2.6325,39.8293 -0.3744,5.5111 -1.0942,9.4743 -1.7589,9.6835 -0.6188,0.1949 -3.2768,0.5869 -5.9068,0.8713 -5.6705,0.6131 -173.7368,1.5702 -181.7183,1.0348 z m 969,-263.4496 c -17.325,-0.368 -61.875,-1.1902 -99,-1.8269 -81.5573,-1.3988 -159.2452,-2.9384 -210.5,-4.1716 -20.9,-0.5029 -53.1324,-0.927 -71.6276,-0.9425 -42.4345,-0.036 -37.3991,13.777 -31.9082,-87.5283 1.0732,-19.8 2.4207,-48.825 2.9943,-64.5 1.1904,-32.5264 1.6926,-38.4842 3.3547,-39.7985 0.6893,-0.5451 26.1269,-1.1893 60.6868,-1.537 32.725,-0.3292 71.875,-1.0617 87,-1.6277 15.125,-0.566 47.75,-1.4803 72.5,-2.0318 24.75,-0.5514 55.8,-1.483 69,-2.0701 63.7944,-2.8374 96.5996,-1.8249 99.3106,3.0651 6.0409,10.8962 49.1527,69.0921 81.0609,109.4227 9.0043,11.381 18.5067,23.9293 21.1165,27.885 2.6098,3.9558 14.2551,19.7881 25.8785,35.1829 11.6234,15.3949 21.1335,28.7824 21.1335,29.75 0,1.9319 -58.9363,2.2597 -131,0.7287 z M 818,1466.4423 c -31.19124,-2.6458 -102.80377,-5.9652 -182.31877,-8.4509 -33.18879,-1.0375 -35.65289,-1.4033 -35.06275,-5.206 0.19507,-1.257 1.24223,-7.4604 2.32702,-13.7854 1.08479,-6.325 3.33682,-20.275 5.00452,-31 1.6677,-10.725 4.11361,-25.575 5.43536,-33 1.32175,-7.425 3.84764,-21.825 5.61309,-32 5.23842,-30.1911 3.71697,-27.0587 21.85651,-45 13.70377,-13.554 27.67492,-28.4237 53.70602,-57.1601 5.2,-5.7405 7.811,-7.8467 10.41846,-8.4044 5.98129,-1.2793 127.18908,1.9109 191.52054,5.0408 50.60686,2.4622 70.86204,3.3497 129.75,5.6857 46.8384,1.858 56.75,2.4952 56.75,3.6479 0,3.5749 -25.646,65.4805 -34.2407,82.652 -5.3309,10.6507 -8.7756,16.5912 -24.0872,41.5381 -7.6415,12.4503 -13.0984,17.2074 -32.11257,27.9946 -3.26726,1.8536 -10.91726,6.5008 -17,10.3272 -21.24649,13.3653 -80.66813,44.4609 -88.94386,46.5448 -2.65644,0.6689 -7.89975,2.7621 -11.65178,4.6516 -15.18598,7.6475 -24.82673,8.6501 -56.96389,5.9241 z m 532,0.2018 c -2.475,-0.7513 -9.225,-3.6219 -15,-6.3791 -5.775,-2.7572 -16.575,-7.8294 -24,-11.2715 -20.7957,-9.6404 -37.427,-18.014 -50.0202,-25.1842 -6.3139,-3.595 -18.4548,-10.4761 -26.9798,-15.2914 -30.3463,-17.1407 -42.5735,-27.8123 -51.0074,-44.5179 -1.2495,-2.475 -5.6278,-10.3024 -9.7296,-17.3942 -4.1017,-7.0918 -8.2617,-14.7418 -9.2444,-17 -0.9826,-2.2582 -3.6388,-8.0699 -5.9026,-12.915 -2.2638,-4.8451 -4.116,-8.9417 -4.116,-9.1036 0,-0.162 -5.0969,-10.8229 -11.3264,-23.6908 -12.8867,-26.6196 -14.0928,-29.4092 -13.2819,-30.7212 0.6401,-1.0356 32.5837,-1.8587 106.6083,-2.7469 48.7946,-0.5854 62.6343,-1.1498 95.5,-3.8944 10.45,-0.8726 27.1,-2.2615 37,-3.0865 9.9,-0.8249 28.125,-2.6002 40.5,-3.9451 25.0657,-2.7242 65.5851,-6.092 85.6325,-7.1173 13.1324,-0.6717 13.1324,-0.6717 20,6.6319 13.5179,14.3762 48.0264,49.7254 61.4852,62.9831 17.6414,17.3779 17.9969,18.1703 23.3305,52 4.4525,28.241 5.3664,33.8873 8.9828,55.5 6.954,41.5585 7.677,49.0417 4.819,49.8762 -0.9625,0.281 -22.9,0.5149 -48.75,0.5198 -60.3425,0.011 -119.4605,2.2166 -153.5,5.7262 -21.1554,2.1812 -55.2968,2.7532 -61,1.0219 z m -309,-242.6213 c -82.78665,-3.3227 -95.54819,-4.1424 -97.6798,-6.274 -0.85764,-0.8577 -4.89172,-13.1895 -8.96461,-27.4041 -4.07289,-14.2146 -10.07026,-34.3947 -13.32748,-44.8447 -17.4208,-55.8904 -17.14357,-52.8812 -9.98264,-108.3557 7.1998,-55.77581 13.03489,-83.06843 24.54729,-114.81579 1.45755,-4.01944 10.33995,-12.082 22.40724,-20.33909 1.925,-1.31719 13.175,-9.57303 25,-18.34631 11.825,-8.77329 23.7815,-17.63548 26.57,-19.69376 2.7885,-2.05828 12.9135,-8.44099 22.5,-14.1838 20.353,-12.19248 45.8424,-28.77898 59.5389,-38.74316 10.9668,-7.9783 12.3329,-8.26241 20.5295,-4.26927 25.5792,12.4614 120.471,75.22281 144.9177,95.84842 25.3356,21.37561 26.4098,24.8426 46.4458,149.89846 5.064,31.607 4.5882,37.368 -6.0285,73 -3.6052,12.1 -9.26,32.0546 -12.5662,44.3435 -9.5867,35.6337 -14.6118,48.6348 -19.1698,49.5971 -14.3128,3.0219 -179.6306,6.3926 -224.7374,4.5822 z m -445.14317,-0.903 c -2.56586,-0.3802 -7.03975,-2.2007 -10,-4.0692 -2.94625,-1.8596 -11.43183,-6.9252 -18.85683,-11.2569 -7.425,-4.3317 -20.475,-12.5286 -29,-18.2153 -18.06294,-12.049 -38.79057,-25.3463 -47.1114,-30.223 -16.27456,-9.5383 -20.04661,-14.0386 -29.73336,-35.4745 -15.29989,-33.8572 -24.17192,-58.2682 -36.6646,-100.8809 -4.59541,-15.675 -13.13952,-44.7 -18.98691,-64.5 -13.98631,-47.3594 -14.42743,-49.00542 -13.52457,-50.46628 1.08381,-1.75364 17.53158,-4.94941 70.02084,-13.60493 44.38824,-7.31965 49.31101,-8.20299 69,-12.38137 19.00655,-4.03356 39.97587,-1.89312 91.25696,9.31503 23.71333,5.18285 20.6052,2.01279 23.41799,23.88467 2.35052,18.27725 8.10513,54.55649 15.34695,96.75288 3.53977,20.6254 5.80381,35.6466 7.53618,50 1.16991,9.6932 6.81045,19.0414 21.69347,35.9531 22.73376,25.8325 35.80676,41.5336 64.15078,77.0469 3.73122,4.675 11.12961,13.8132 16.44086,20.3072 13.00965,15.9066 13.50513,14.9319 -8.34319,16.4131 -24.20946,1.6413 -64.1468,5.0634 -79.5,6.812 -29.86472,3.4014 -78.03423,5.9371 -87.14317,4.5875 z M 1576.5,1222.9663 c -7.15,-0.4398 -23.35,-1.9475 -36,-3.3505 -12.65,-1.403 -28.85,-3.0176 -36,-3.5881 -70.7457,-5.6441 -75.7738,-6.357 -73,-10.3502 2.8025,-4.0346 23.2378,-28.5868 33.414,-40.1457 6.3723,-7.2381 16.761,-19.6027 23.086,-27.4769 11.0244,-13.7245 26.9483,-32.5134 41.9988,-49.5549 12.855,-14.5557 14.477,-19.9877 20.9912,-70.3002 6.5555,-50.63084 16.7401,-114.31866 19.1148,-119.5305 1.8615,-4.08557 1.745,-4.05557 49.3952,-12.71116 8.8,-1.59851 19.73,-3.65407 24.289,-4.56792 10.4935,-2.10346 27.5482,-1.46457 41.711,1.56254 5.5,1.17556 18.775,3.44603 29.5,5.04549 10.725,1.59945 29.85,4.69105 42.5,6.8702 12.65,2.17916 30.2,5.14181 39,6.58367 24.9929,4.09504 23.0284,3.4014 22.832,8.06168 -0.4895,11.61442 -36.2857,134.1485 -53.0181,181.4862 -14.3595,40.6243 -22.1428,56.3545 -30.235,61.1055 -1.9684,1.1557 -3.9388,2.7297 -4.3786,3.4979 -0.4398,0.7682 -2.2398,2.126 -4,3.0174 -1.7602,0.8914 -7.2503,4.117 -12.2003,7.1679 -4.95,3.0509 -11.7,7.2075 -15,9.2368 -3.3,2.0294 -13.2,8.189 -22,13.6881 -8.8,5.4991 -20.3826,12.3412 -25.7391,15.2047 -5.3565,2.8635 -11.9628,6.9642 -14.6808,9.1126 -13.3748,10.5722 -23.8232,12.2579 -61.5801,9.9354 z M 2635.3618,775.88157 c -0.79,-0.99099 -0.8671,-10.85232 -0.2726,-34.88157 0.4559,-18.425 1.5701,-67.025 2.4761,-108 1.9819,-89.63412 -5.7247,-77.58488 48.3423,-75.58233 39.0252,1.44543 129.4304,3.16742 196.8729,3.74992 15.0251,0.12977 23.59,0.57897 24.1532,1.26674 2.7341,3.33875 6.9489,207.32089 4.3163,208.89653 -0.4125,0.24689 -24.825,0.72979 -54.25,1.07311 -29.425,0.34332 -58.225,0.85136 -64,1.12897 -55.014,2.64459 -156.2003,4.15215 -157.6382,2.34863 z M 1406.0845,764.14731 c -4.1187,-3.60229 -10.005,-14.10706 -26.419,-47.14731 -20.7074,-41.68275 -20.6112,-41.56199 -42.1655,-52.92159 -29.5572,-15.57727 -52.2247,-29.58782 -54.9166,-33.9434 -1.812,-2.93197 22.2386,-42.58829 38.0294,-62.70549 4.2867,-5.46124 10.3528,-13.30452 13.4802,-17.42952 3.1274,-4.125 12.8234,-14.9438 21.5466,-24.04178 8.7232,-9.09798 17.7466,-18.66048 20.052,-21.25 5.4065,-6.07295 5.9576,-5.98579 12.9104,2.04178 3.2154,3.7125 10.3789,11.475 15.9188,17.25 20.815,21.69826 41.5225,47.4801 51.4037,64 34.3256,57.38725 35.3756,68.00282 13.5511,137 -0.7829,2.475 -2.5494,8.49252 -3.9256,13.37228 -3.0661,10.87167 -1.963,10.08535 -23.9504,17.07268 -9.9548,3.1635 -19.7949,6.38204 -21.867,7.15231 -7.7695,2.8882 -11.6184,3.32531 -13.6481,1.55004 z m -607.25896,-0.18513 c -0.92095,-0.53735 -11.19864,-4.1329 -22.83931,-7.9901 -30.63394,-10.15073 -31.5061,-10.7651 -34.03037,-23.97208 -0.6833,-3.575 -1.59949,-7.20485 -2.03599,-8.06633 -0.43651,-0.86148 -2.20917,-7.61148 -3.93926,-15 -13.06546,-55.79745 -13.27978,-59.89847 -4.10395,-78.53 12.32147,-25.01877 28.78401,-51.07958 41.63117,-65.90367 3.33657,-3.85 8.69949,-10.31647 11.91761,-14.36992 3.21811,-4.05346 9.27639,-11.05586 13.46284,-15.56089 4.18644,-4.50502 12.70997,-13.92767 18.94116,-20.93921 8.05543,-9.06423 11.87292,-12.65892 13.21008,-12.43912 2.82244,0.46396 34.95054,31.69542 41.18702,40.03757 21.92516,29.32793 30.17181,40.63614 35.96835,49.32159 C 915.71993,601.82543 929,624.87479 929,626.66011 c 0,2.42588 -25.32673,19.30269 -48,31.98545 -20.20497,11.30206 -27.55653,17.59611 -33.41051,28.60444 -3.9967,7.51576 -8.8031,16.49449 -14.85484,27.75 -9.31777,17.32996 -25.76052,45.66452 -27.70966,47.75 -2.28958,2.44974 -3.62943,2.71172 -6.19945,1.21218 z M 1214,665.29819 c -1.925,-0.20995 -8.45,-1.26108 -14.5,-2.33583 -6.05,-1.07475 -24.275,-3.73291 -40.5,-5.90701 -50.3014,-6.74025 -44.5774,-0.94836 -44.1985,-44.72252 0.3878,-44.79503 0.136,-43.321 10.1039,-59.1399 8.2824,-13.14408 11.2021,-16.92416 29.4312,-38.10286 18.9492,-22.01537 18.2722,-21.40473 23.0319,-20.775 8.6511,1.14461 58.0782,28.20121 78.2371,42.82734 11.9236,8.65113 11.7984,8.45809 10.0541,15.49797 -0.7986,3.22279 -1.7469,7.88431 -2.1075,10.35893 -0.6459,4.43272 -1.8016,9.39362 -11.6482,50.00069 -13.2229,54.53022 -13.5318,54.95639 -37.904,52.29819 z"
         id="path3"
         sodipodi:nodetypes="ssssssssssssssssssssssssssssssssssssssssscsssssssssssssssssssssssssssssssssssssssssssssssssssssssssssssssssssssssssssssssssssssssssssssssssssssssssssssssssssssssssssssssssssssssssssssssssssssssssscssssssssssssssssssssssssssssssssssssssssssscssssssssssssssssssssssssssssssssssssssssssssssssssssssssssssssssssssssssssssssss" />
      <path
         style="display:inline;fill:#020001;fill-opacity:1;stroke:none"
         d="m 1140.5451,3594.75 c -0.2156,-0.6875 -0.674,-6.2 -1.0185,-12.25 -0.3446,-6.05 -1.9541,-26.9106 -3.5766,-46.3569 -3.0374,-36.4047 -3.4982,-46.0855 -2.2,-46.2219 23.4551,-2.4638 431.3418,-0.1807 430.892,2.4119 -0.3022,1.7418 -1.4784,14.1919 -2.6138,27.6669 -3.4149,40.5282 -6.0931,69.4044 -6.5942,71.099 -1.1552,3.906 -413.6702,7.5361 -414.8889,3.651 z M 1115.5,3462.9952 c -4.0971,-1.3108 -8.7234,-5.2108 -64.05,-53.9952 -53.99226,-47.6078 -52.20095,-45.712 -54.80161,-58 -0.57419,-2.713 -4.32051,-45.0061 -7.66218,-86.5 -4.57441,-56.8011 -6.03084,-73.6145 -7.63288,-88.1163 -0.91846,-8.3139 -1.42165,-15.7633 -1.11821,-16.554 0.46734,-1.2179 12.22991,-1.6265 76.90828,-2.6716 41.9961,-0.6786 90.7566,-1.8847 108.3566,-2.6802 115.1794,-5.2057 121.9438,-3.9913 122.6703,22.0221 0.3686,13.2 1.1722,35.475 1.7857,49.5 0.6135,14.025 1.7654,44.4 2.5597,67.5 3.5936,104.5086 4.5441,130.221 5.4665,147.8711 0.5423,10.3791 0.7811,19.2029 0.5305,19.6084 -0.2506,0.4054 -28.256,1.0287 -62.2342,1.3849 -33.9782,0.3563 -74.3785,0.8599 -89.7785,1.1191 -16.5546,0.2787 -29.2263,0.079 -31,-0.4883 z M 2671,3101.8903 c -31.625,-0.4327 -94.175,-1.2622 -139,-1.8433 -77.4616,-1.0042 -119.5787,-1.7178 -238.5,-4.0412 -28.6,-0.5588 -77.9609,-1.0137 -109.691,-1.0109 -45.0723,0 -57.8625,-0.2683 -58.4753,-1.2449 -1.0106,-1.6105 -0.6144,-215.8722 0.401,-216.8757 0.9172,-0.9067 214.8948,0.7787 216.3925,1.7043 0.5728,0.354 92.2411,1.0399 203.7072,1.5241 111.4661,0.4842 216.1656,1.3176 232.6656,1.852 106.2223,3.4407 306.1431,3.3698 354.2411,-0.1255 19.8961,-1.4459 17.2757,-7.1118 19.3866,41.9192 0.9887,22.9634 2.962,63.1266 4.3853,89.2516 3.6422,66.8547 4.0042,77.5623 2.6504,78.399 -1.5199,0.9394 -39.9511,2.3013 -115.1634,4.0811 -34.375,0.8134 -77.125,1.9326 -95,2.487 -17.875,0.5544 -51.85,1.4884 -75.5,2.0755 -23.65,0.5871 -49.525,1.4834 -57.5,1.9918 -16.4253,1.0471 -61.1854,1.0027 -145,-0.1441 z M 960.20205,2986.1275 c -1.65997,-1.0293 -3.08361,-6.4093 -9.16299,-34.6275 -2.72533,-12.65 -7.01129,-31.775 -9.52434,-42.5 -6.88209,-29.3708 -10.8607,-47.9874 -10.3621,-48.486 1.06871,-1.0687 166.29618,-2.6054 375.84738,-3.4956 124.575,-0.5292 246.075,-1.4246 270,-1.9898 68.0431,-1.6074 165.2092,-3.1528 165.7261,-2.6358 0.8822,0.8822 -6.6087,40.6373 -13.8696,73.6072 -1.6352,7.425 -4.7882,22.2693 -7.0066,32.9874 -2.2185,10.718 -4.4581,20.2805 -4.9769,21.25 -0.8662,1.6184 -3.2518,1.7651 -29.1582,1.7933 -15.5181,0.017 -41.7148,0.4585 -58.2148,0.9815 -82.941,2.6289 -665.70788,5.3415 -669.29795,3.1153 z M 2628.618,2840.9117 c -0.2757,-1.3265 -0.7392,-21.5367 -1.03,-44.9117 -0.2908,-23.375 -0.9804,-49.25 -1.5324,-57.5 -0.5521,-8.25 -1.69,-36.15 -2.5288,-62 -0.8387,-25.85 -1.9532,-58.925 -2.4765,-73.5 -1.8997,-52.9057 -3.3331,-134.1172 -2.384,-135.0663 0.5381,-0.5381 25.4314,-1.3664 58.3858,-1.9429 65.1752,-1.14 124.8791,-2.5787 164.4479,-3.9627 42.3177,-1.4801 133.8583,-3.878 192.5,-5.0425 29.425,-0.5844 75.325,-1.7108 102,-2.5033 85.6214,-2.5436 178.1543,-4.6613 178.7253,-4.0903 0.6043,0.6043 2.6234,33.2832 4.2082,68.108 0.5507,12.1 1.4765,49.45 2.0575,83 4.2493,245.3942 4.2027,224.7526 0.509,225.6389 -4.9542,1.1887 -95.2222,3.7346 -207.5,5.8523 -28.875,0.5446 -71.85,1.4361 -95.5,1.9811 -43.6437,1.0059 -99.4573,2.2338 -183.5,4.0371 -25.575,0.5488 -64.05,1.4494 -85.5,2.0015 -100.246,2.5799 -120.3286,2.5634 -120.882,-0.099 z m -464.118,-3.4578 c -14.85,-0.697 -46.575,-2.0025 -70.5,-2.9012 -87.4504,-3.2849 -142.7641,-6.1709 -145.0223,-7.5665 -2.3765,-1.4687 -8.8201,-355.4772 -6.5123,-357.7849 0.2954,-0.2954 39.799,-0.6943 87.7858,-0.8864 47.9868,-0.1921 102.3309,-0.7915 120.7647,-1.3321 71.4733,-2.0959 63.9823,-7.7456 63.9969,48.2672 0.01,29.7691 -0.5699,60.721 -1.4601,78.25 -0.81,15.95 -1.9722,42.725 -2.5826,59.5 -0.6103,16.775 -1.4993,38.6 -1.9755,48.5 -0.4761,9.9 -0.8947,44.8875 -0.9302,77.75 -0.064,59.75 -0.064,59.75 -8.3144,59.6105 -4.5375,-0.077 -20.4,-0.7097 -35.25,-1.4066 z m -664.1845,-203.6448 c -4.2985,-3.4049 -10.2905,-8.5118 -13.3155,-11.3485 -3.025,-2.8367 -12.6899,-10.7383 -21.4775,-17.5591 -16.5463,-12.8429 -32.3228,-25.9018 -70.6134,-58.4499 -20.4174,-17.3554 -56.3545,-46.5688 -82.3609,-66.9516 -5.614,-4.4 -13.7714,-10.9332 -18.1277,-14.5183 -4.3563,-3.585 -12.1955,-9.7368 -17.4205,-13.6706 -5.225,-3.9338 -12.65,-9.89 -16.5,-13.2359 -3.85,-3.346 -16.9,-14.0439 -29,-23.7731 -47.4846,-38.181 -67.5,-55.3275 -67.5,-57.8252 0,-2.5366 71.2227,-77.5751 73.5662,-77.5076 1.273,0.037 26.5372,21.8355 56.9338,49.1245 29.7189,26.6805 47.0029,40.7407 67.5,54.9101 3.7222,2.5731 66.4042,49.3432 74,55.215 46.6844,36.0887 62.3785,48.4087 97.094,76.2197 6.8233,5.4663 15.556,12.8382 19.406,16.3822 3.85,3.5439 11.5997,10.0394 17.2217,14.4344 11.2435,8.7897 12.3155,10.4274 9.606,14.6743 -2.5398,3.9808 -28.291,32.8868 -43.2573,48.5566 -6.8362,7.1577 -15.7437,17.1764 -19.7943,22.2639 -8.7352,10.9712 -6.5105,10.5448 -15.9606,3.0591 z M 3534.5,2587.0021 c -17.05,-0.4384 -50.35,-1.3461 -74,-2.0171 -23.65,-0.6709 -55.825,-1.5045 -71.5,-1.8524 -28.5,-0.6326 -28.5,-0.6326 -28.7575,-63.4111 -0.204,-49.7202 0,-62.8642 1,-63.1905 0.6916,-0.2266 14.0825,-1.1238 29.7575,-1.9936 15.675,-0.8699 34.8,-2.0055 42.5,-2.5238 7.7,-0.5182 25.025,-1.6294 38.5,-2.4693 59.498,-3.7085 53.2576,-1.9493 66.5975,-18.7746 9.8588,-12.4346 22.0745,-25.9327 46.254,-51.1094 16.1016,-16.7656 16.111,-16.7851 16.2792,-33.8782 0.072,-7.3051 0.4094,-16.6571 0.75,-20.7821 0.7798,-9.4435 -2.0519,-9.1071 38.7881,-4.6078 31.4331,3.4629 54.6531,5.8922 87.8312,9.189 24.293,2.4138 21.8896,-0.1133 21.1074,22.1942 -2.4346,69.4365 -2.7326,74.6756 -4.4328,77.9384 -2.4432,4.6888 -18.089,22.2188 -38.1875,42.7862 -9.6743,9.9 -25.1965,26.1 -34.4938,36 -80.3927,85.6048 -70.9384,80.2263 -137.9933,78.5021 z M 733,2501.4371 c -38.64308,-5.5141 -97.46174,-12.5045 -138,-16.4009 -5.225,-0.5022 -23.60283,-1.2341 -40.83961,-1.6264 -37.98925,-0.8646 -35.86924,3.5146 -16.51931,-34.1236 19.05286,-37.0604 19.26117,-37.4742 44.18799,-87.7862 30.05796,-60.6686 25.90848,-55.2322 58.80505,-77.0422 39.6509,-26.288 47.75181,-31.4972 60.86588,-39.1387 6.6,-3.8458 18.525,-10.8154 26.5,-15.488 35.01646,-20.5164 56.16143,-30.2096 73.56638,-33.7244 8.492,-1.7148 85.10487,-13.6472 99.93362,-15.5646 2.75,-0.3555 19.175,-2.9573 36.5,-5.7817 38.15424,-6.22 61.41916,-6.9886 91.5,-3.023 8.8,1.1601 18.6154,2.4047 21.812,2.7657 7.2372,0.8173 7.5399,1.5617 4.36,10.7238 -9.0703,26.1335 -24.5982,68.1124 -31.0649,83.9822 -4.193,10.2899 -9.6529,24.2269 -12.1331,30.9709 -7.8663,21.3899 -14.21818,32.4867 -47.25659,82.5577 -15.77291,23.9044 -21.29413,30.2608 -28.94037,33.3177 -3.17737,1.2703 -35.02704,16.8478 -70.77704,34.6168 -67.87895,33.7381 -70.76071,35.1886 -92.21534,46.4136 -15.47673,8.0973 -14.65459,8.0085 -40.28466,4.3513 z m 2039.2358,-60.2518 c -1.0155,-0.6594 -1.0627,-15.3701 -0.2399,-74.7531 0.5634,-40.6627 1.0161,-109.9322 1.0061,-153.9322 -0.045,-197.4627 -4.4081,-181.0367 47.998,-180.7114 69.7174,0.4326 178.8112,3.7406 181.6721,5.5088 0.6288,0.3885 1.281,11.1404 1.6937,27.9173 0.3691,15.0069 1.3262,48.2103 2.1269,73.7853 0.8007,25.575 1.9406,62.475 2.5332,82 0.5926,19.525 1.4917,48.55 1.9979,64.5 1.9905,62.7098 1.2805,142.3932 -1.2738,142.97 -6.356,1.4355 -146.9033,9.831 -192.25,11.484 -15.4,0.5614 -31.6,1.2528 -36,1.5364 -4.4,0.2837 -8.5689,0.1463 -9.2642,-0.3051 z M 1906.5,2412.475 c -61.0713,-19.4671 -100.8771,-32.823 -118.9488,-39.9105 -26.0918,-10.2329 -24.3606,-8.8533 -47.1406,-37.5645 -7.6366,-9.625 -18.8506,-23.35 -24.92,-30.5 -6.0694,-7.15 -15.7232,-18.85 -21.453,-26 -5.7297,-7.15 -12.7613,-15.7 -15.6257,-19 -12.7111,-14.644 -35.8126,-43.4174 -38.2997,-47.7031 -4.1469,-7.1457 -12.6306,-48.0393 -23.6336,-113.9202 -3.0659,-18.3572 -7.1,-41.7017 -8.9647,-51.8767 -6.0439,-32.9794 -11.3464,-63.997 -14.9908,-87.6899 -7.9458,-51.6574 -8.6998,-54.2073 -27.2973,-92.3101 -6.577,-13.475 -14.2461,-29.675 -17.0425,-36 -13.4033,-30.3162 -35.0248,-71.5582 -47.1832,-90 -18.7471,-28.4354 -19.3368,-29.2713 -38.2501,-54.2173 -20.9419,-27.6217 -20.21,-24.9798 -7.5,-27.0723 5.6375,-0.9282 24.65,-4.1684 42.25,-7.2006 17.6,-3.0321 41.45,-7.0569 53,-8.9438 11.55,-1.887 28.65,-4.7726 38,-6.4125 9.35,-1.6398 26.9,-4.607 39,-6.5937 12.1,-1.9867 23.7828,-4.0245 25.9619,-4.5284 5.5459,-1.2827 9.2196,2.9795 24.4492,28.3657 18.5623,30.9414 34.2922,56.4927 43.0372,69.9087 4.3717,6.7068 12.9842,20.0692 19.1389,29.6942 6.1547,9.625 13.5474,21.1 16.4283,25.5 2.8809,4.4 16.7862,26 30.9005,48 34.0035,53.0011 28.8393,48.1062 70.084,66.4299 44.3898,19.7211 56.9381,27.1085 57.8716,34.0701 2.0009,14.9215 -1.9414,484.0988 -4.084,486.0374 -0.4332,0.3919 -2.5876,0.1388 -4.7876,-0.5624 z M 1125,2298.7476 c 0,-2.8972 -4.2237,-22.9719 -8.994,-42.7476 -4.962,-20.5703 -14.6957,-66.2988 -21.4987,-101 -0.9165,-4.675 -4.3028,-19.525 -7.5251,-33 -23.6122,-98.7403 -23.8601,-100.545 -14.318,-104.2046 11.1814,-4.2884 81.0715,-23.7954 85.2543,-23.7954 1.0319,0 7.6756,17.0187 9.1738,23.5 0.6357,2.75 5.177,19.85 10.0918,38 4.9148,18.15 13.0224,48.975 18.0169,68.5 10.0093,39.1291 12.841,49.9664 18.29,70 12.4114,45.6307 18.55,71.3466 17.3099,72.5151 -0.1655,0.1559 -5.0259,1.4205 -10.8009,2.8103 -11.6173,2.7956 -45.9992,13.533 -73,22.7976 -18.5488,6.3645 -22,7.4037 -22,6.6246 z m 2478.9581,-7.4976 c -0.4606,-8.2333 0.3854,-136.8384 1.0574,-160.75 0.51,-18.15 1.2392,-65.5188 1.6204,-105.2641 0.4956,-51.6636 1.0148,-72.531 1.8213,-73.2004 2.0924,-1.7366 42.7009,-3.2418 100.9261,-3.741 57.8832,-0.4963 57.8832,-0.4963 57,28.3546 -1.2315,40.2255 -1.0254,122.2136 0.4111,163.5087 2.2259,63.9888 1.6643,139.7003 -1.0444,140.7914 -1.2375,0.4985 -17.1,1.6376 -35.25,2.5312 -18.15,0.8936 -37.05,2.0179 -42,2.4982 -4.95,0.4804 -14.4,1.1645 -21,1.5202 -6.6,0.3557 -23.25,1.5118 -37,2.5692 -29.1604,2.2425 -26.4893,2.1236 -26.5419,1.182 z m -1149.4713,-59.8536 c 0.4401,-9.293 1.0731,-48.8464 1.4067,-87.8964 0.6065,-71 0.6065,-71 42.5179,-71.2611 46.2179,-0.2879 43.7653,-5.6985 39.5554,87.2611 -0.5978,13.2 -1.3973,37.5 -1.7768,54 -0.7932,34.4883 3.8094,30.4631 -37.19,32.5244 -51.3397,2.5813 -45.4204,4.5265 -44.5132,-14.628 z M 1230.5855,2169.25 c -0.3247,-2.0625 -1.2494,-10.725 -2.0549,-19.25 -1.9764,-20.9181 -6.3337,-58.9925 -7.6676,-67 -2.729,-16.3834 -1.5658,-41.7445 2.3391,-51 21.2227,-50.302 24.42,-57.3838 37.5804,-83.2374 21.7837,-42.7942 29.0536,-50.0251 78.7175,-78.295 10.45,-5.9484 25.3,-14.6975 33,-19.4424 7.7,-4.7449 20.525,-12.3982 28.5,-17.0073 7.975,-4.6091 18.325,-10.6891 23,-13.5111 14.0842,-8.5017 21.84,-12.5747 22.3556,-11.7404 5.1993,8.4127 7.843,146.7315 3.1295,163.7336 -0.9149,3.3 -4.2999,12.3 -7.5223,20 -6.6798,15.9619 -14.708,37.3609 -19.5086,52 -7.0374,21.4597 -8.0671,22.7475 -27.2457,34.0739 -8.0897,4.7775 -22.3585,13.2049 -31.7085,18.7275 -9.35,5.5226 -21.275,12.6201 -26.5,15.7721 -5.225,3.1521 -19.85,11.6725 -32.5,18.9342 -12.65,7.2618 -33.8676,19.4558 -47.1502,27.0978 -27.2446,15.6748 -25.9698,15.1917 -26.7643,10.1445 z M 731.5,2132.9617 c -4.4,-1.5537 -17.9,-5.3611 -30,-8.4611 -63.40133,-16.243 -71.93129,-20.1172 -126.5,-57.4561 -1.375,-0.9408 -5.425,-3.6913 -9,-6.1121 -3.575,-2.4209 -17.80155,-13.4646 -31.61455,-24.5415 -13.81301,-11.077 -25.96301,-20.6184 -27,-21.2031 -3.43492,-1.937 29.66293,-12.8116 75.11455,-24.6796 7.7,-2.0106 18.275,-4.9406 23.5,-6.511 5.225,-1.5705 23.45,-6.7477 40.5,-11.5049 17.05,-4.7572 44.95,-13.1495 62,-18.6495 44.65972,-14.4064 47.49128,-15.293 63.5,-19.8826 19.14111,-5.4877 38.28456,-9.9602 42.63202,-9.9602 4.63447,0 5.16002,0.3173 24.86798,15.0117 15.40908,11.4891 59.41516,41.8341 73.76076,50.8627 3.16841,1.9941 11.94341,7.8535 19.5,13.0209 7.55658,5.1675 25.43924,17.2615 39.73924,26.8757 38.7546,26.0556 37.9063,23.0982 9.25,32.2471 -47.64396,15.211 -69.44966,22.2648 -74.25,24.0186 -2.75,1.0047 -6.125,2.1116 -7.5,2.4599 -3.82339,0.9684 -23.93743,7.1839 -39,12.0514 -7.425,2.3994 -18.45,5.6872 -24.5,7.3062 -6.05,1.619 -21.575,6.1669 -34.5,10.1063 -12.925,3.9394 -28.34927,8.486 -34.27616,10.1036 -5.92689,1.6176 -13.99284,4.0649 -17.92433,5.4385 -8.57085,2.9945 -8.26103,3.0036 -18.29951,-0.5409 z M 3231,2075.3903 c -99.1894,-3.333 -188.694,-7.0832 -190.1224,-7.966 -1.4981,-0.9258 -1.1269,-424.129 0.3724,-424.6179 2.55,-0.8314 44.0819,0.9724 131.25,5.7004 24.2,1.3126 51.2,2.6538 60,2.9805 13.6874,0.5081 27.6477,1.2674 72.3469,3.9347 9.0257,0.5386 7.843,-1.7475 9.1055,17.5999 0.5914,9.063 2.4149,31.7804 4.0524,50.4831 3.9065,44.62 4.8057,63.6694 3.8939,82.495 -0.4129,8.525 -1.2418,37.325 -1.8419,64 -0.6002,26.675 -1.7399,64.475 -2.5329,84 -0.7929,19.525 -1.6974,52.375 -2.01,73 -0.8539,56.3528 2.1089,50.0246 -23.3435,49.8588 -11.9187,-0.078 -39.4454,-0.7385 -61.1704,-1.4685 z m -1282.4846,-37.3654 c -0.3315,-0.5364 -1.7173,-12.5739 -3.0795,-26.75 -1.3623,-14.1762 -3.3416,-34.5499 -4.3986,-45.2749 -3.9297,-39.8758 -5.3732,-57.6824 -4.7975,-59.1824 0.5016,-1.3072 4.4517,-1.6481 25.926,-2.2376 22.603,-0.6205 64.3526,-2.5921 86.3342,-4.0771 4.4,-0.2973 22.85,-1.4368 41,-2.5323 18.15,-1.0956 34.8,-2.2175 37,-2.4932 5.1786,-0.6489 41.6235,-3.4774 44.8069,-3.4774 2.0451,0 2.5325,0.6037 3.0274,3.75 0.8331,5.2954 10.1506,73.5498 12.6615,92.75 1.1508,8.8 2.7726,20.0024 3.6041,24.8942 1.9363,11.3924 3.9967,10.418 -26.7118,12.6332 -14.5135,1.047 -35.1631,2.5963 -45.8881,3.443 -10.725,0.8467 -28.05,1.9852 -38.5,2.53 -10.45,0.5447 -22.15,1.2279 -26,1.5182 -3.85,0.2903 -22.3,1.1991 -41,2.0196 -18.7,0.8205 -38.725,1.9199 -44.5,2.4432 -13.6229,1.2342 -18.7417,1.2456 -19.4846,0.043 z m 709.9846,-0.5545 c -24.2422,-1.4231 -71.1843,-2.9343 -140,-4.5072 -24.75,-0.5657 -55.35,-1.4487 -68,-1.9623 -27.5774,-1.1197 -86.3511,-2.5591 -164.5,-4.0287 -31.625,-0.5947 -58.4423,-1.2727 -59.594,-1.5066 -2.5756,-0.5232 -3.4027,-13.2222 -3.4115,-52.3737 0,-13.5256 -0.4533,-47.9919 -1.0007,-76.5919 -1.6877,-88.1845 -3.9886,-226.3335 -3.9913,-239.6365 0,-12.6365 0,-12.6365 3.2475,-13.2114 2.6356,-0.4662 274.8723,-2.355 432.75,-3.0024 36.5,-0.1497 36.5,-0.1497 37.1214,26.3503 3.5694,152.2266 0.729,371.506 -4.8139,371.6309 -3.1941,0.072 -15.7075,-0.4502 -27.8075,-1.1605 z M 1014.2947,2013.75 c -11.7411,-9.798 -40.58003,-30.1383 -66.2947,-46.7579 -11.275,-7.2872 -24.1,-15.5952 -28.5,-18.4623 -4.4,-2.8671 -11.29312,-7.1967 -15.31804,-9.6213 -54.57183,-32.8747 -86.57577,-56.5581 -88.04141,-65.1522 -1.12019,-6.5683 -7.27446,-62.6996 -9.12828,-83.2563 -0.59519,-6.6 -1.97326,-20.1 -3.06237,-30 -2.15095,-19.5522 -4.07995,-39.9968 -9.43526,-100 -1.91442,-21.45 -4.21092,-46.5391 -5.10333,-55.7535 -1.87488,-19.3587 -1.67595,-20.8744 2.33918,-17.823 5.87307,4.4634 37.32965,26.1121 48.36976,33.2885 6.39114,4.1544 19.21614,13.0865 28.5,19.849 28.11633,20.4804 47.31849,34.1873 58.59873,41.8291 18.91235,12.8122 30.39977,31.1408 51.46232,82.1099 1.9319,4.675 8.16309,19.075 13.84709,32 15.81121,35.9536 18.19821,43.654 19.46461,62.7942 0.5716,8.6382 1.4739,19.5308 2.0051,24.2058 0.5312,4.675 1.6562,23.8 2.5001,42.5 0.8438,18.7 1.9769,40.9673 2.518,49.4829 1.2323,19.3939 1.2745,42.0171 0.078,42.0171 -0.4979,0 -2.6579,-1.4625 -4.7999,-3.25 z M 1133,1967.9477 c -10.175,-0.3808 -28.4,-0.7567 -40.5,-0.8354 -12.1,-0.079 -22.633,-0.5437 -23.4067,-1.0335 -1.4058,-0.8899 -0.2722,-52.2599 3.0029,-136.0788 1.4727,-37.6885 1.5541,-127.2907 0.1459,-160.5 -0.6763,-15.95 -1.345,-31.7 -1.4859,-35 -0.227,-5.3155 87.435,-10.7821 92.3705,-5.7602 2.5276,2.5719 3.9936,102.3039 2.1057,143.2602 -0.6971,15.125 -1.7713,54.95 -2.3869,88.5 -0.6156,33.55 -1.3184,71.6875 -1.5617,84.75 -0.4424,23.75 -0.4424,23.75 -5.1131,23.57 -2.5689,-0.099 -12.9957,-0.4915 -23.1707,-0.8723 z m -534.5,-17.6123 c -4.95,-3.0749 -18.225,-10.0597 -29.5,-15.5218 -11.275,-5.4621 -26.8,-13.0381 -34.5,-16.8356 -7.7,-3.7974 -19.4,-9.1931 -26,-11.9904 -33.8555,-14.3489 -39.16912,-19.0918 -49.28077,-43.9876 -2.79234,-6.875 -7.76214,-18.35 -11.044,-25.5 -8.90798,-19.4073 -29.96259,-71.5215 -37.16883,-92 -3.48374,-9.9 -9.91515,-27.45 -14.29202,-39 -17.85833,-47.1258 -17.98485,-47.9853 -5.91116,-40.1591 3.68323,2.3875 14.34678,8.7523 23.69678,14.144 20.49527,11.8188 62.55412,36.6517 75,44.2825 25.11713,15.3998 37.67384,22.8665 52.13288,31.0005 41.52971,23.3626 89.00206,54.857 156.36712,103.7383 11.275,8.1813 28.6,20.672 38.5,27.7571 25.26051,18.0781 25.13298,16.8224 2.5,24.6156 -7.975,2.746 -21.7,7.7573 -30.5,11.1362 -33.66459,12.9261 -94.79603,34.0015 -98.46941,33.948 -1.39182,-0.02 -6.58059,-2.5527 -11.53059,-5.6277 z m 2995.6807,-28.0166 c -4.2583,-2.0985 -34.6223,-33.6222 -36.7946,-38.2001 -1.4209,-2.9942 -1.7564,-10.1323 -2.4463,-52.0444 -0.4398,-26.7159 -1.0798,-62.0743 -1.4222,-78.5743 -0.3425,-16.5 -0.2615,-30.4915 0.1799,-31.0921 0.8839,-1.2028 40.6721,-7.5871 42.6218,-6.8389 0.6684,0.2565 35.6275,35.1798 77.6869,77.6073 76.4716,77.141 76.4716,77.141 77.2986,98.6165 1.0047,26.0929 4.8177,23.1025 -30.894,24.2294 -16.4509,0.5191 -34.6358,1.3775 -40.4108,1.9076 -5.775,0.5301 -16.125,1.2412 -23,1.5801 -6.875,0.3389 -22.7525,1.4879 -35.2834,2.5532 -26.9142,2.2881 -23.4763,2.2562 -27.5359,0.2557 z m -241.1935,-57.5244 c -0.01,-1.2619 -0.2276,-14.4444 -0.4901,-29.2944 -0.8167,-46.2031 -1.0279,-114.2841 -0.3568,-114.9647 1.5801,-1.6022 65.5553,-2.6192 100.8597,-1.6033 20.075,0.5777 46.4377,0.7598 58.5837,0.4047 20.9795,-0.6134 22.1197,-0.5521 22.8018,1.2255 2.4439,6.3687 1.3191,140.1344 -1.1992,142.6134 -3.4966,3.442 -180.1801,5.0293 -180.1991,1.6188 z M 771,1852.7566 c -12.54918,-7.9228 -52.656,-32.143 -67.74603,-40.9113 -8.38532,-4.8724 -21.21032,-12.5253 -28.5,-17.0063 -17.7779,-10.9282 -58.86736,-35.8068 -82.25397,-49.8028 -10.45,-6.2539 -24.93051,-15.2329 -32.17891,-19.9535 -13.67484,-8.9057 -32.12834,-20.1091 -55.32109,-33.5864 -7.425,-4.3146 -20.475,-11.9595 -29,-16.9887 -8.525,-5.0292 -24.275,-14.3213 -35,-20.6491 -10.725,-6.3278 -24.9,-14.552 -31.5,-18.2758 -20.01747,-11.2943 -20.00885,-11.6867 0.27976,-12.7392 23.05116,-1.1957 50.75979,-3.6509 112.22024,-9.9436 89.31963,-9.1449 98.87802,-9.4172 113.0731,-3.2215 29.07374,12.6897 43.64895,20.1419 77.4269,39.5876 38.07513,21.9195 53.44461,35.2213 54.57605,47.234 0.46623,4.95 2.20215,21.825 3.8576,37.5 4.99103,47.2588 5.96424,58.537 7.03272,81.5 0.56302,12.1 1.31524,26.3875 1.6716,31.75 0.7651,11.513 0.82023,11.4779 -8.63797,5.5066 z m 1221.3776,-237.8519 c -0.8104,-1.0141 -0.949,-11.8306 -0.4984,-38.9047 0.7362,-44.2387 -0.2538,-158.2412 -1.7933,-206.5 -0.5965,-18.7 -1.536,-56.5 -2.0877,-84 -0.5517,-27.5 -1.442,-61.475 -1.9785,-75.5 -0.5364,-14.025 -1.4404,-50.25 -2.0089,-80.5 -0.5685,-30.25 -1.4987,-68.05 -2.0673,-84 -1.2374,-34.7157 -1.7191,-96.05189 -0.7618,-97.01261 3.5165,-3.52909 136.7374,-3.96724 140.2449,-0.46124 1.1884,1.18786 2.276,79.32725 2.4911,178.97385 0.069,32.175 0.546,71.1 1.0591,86.5 0.5131,15.4 1.4065,55.45 1.9853,89 0.5788,33.55 1.4969,86.65 2.0401,118 3.4047,196.4592 3.6047,193.1268 -11.6347,193.8344 -34.6097,1.6073 -123.8361,2.0144 -124.9899,0.5703 z m 1193.4864,-0.6544 c -54.1536,-0.3285 -47.7953,6.6083 -43.7685,-47.7503 1.9359,-26.1321 2.1144,-108.6767 0.4607,-213 -0.8806,-55.55 -1.8325,-134.525 -2.1154,-175.5 -0.283,-40.975 -1.1546,-98.125 -1.937,-127 -3.6096,-133.21994 -8.0878,-115.78926 30.0614,-117.00932 17.0141,-0.54413 43.9589,-1.44306 59.8772,-1.99762 16.0587,-0.55945 29.3236,-0.62707 29.7987,-0.15192 0.471,0.47101 1.0604,120.73696 1.3097,267.25766 0.2493,146.5206 0.6545,300.0387 0.9005,341.1512 0.4473,74.75 0.4473,74.75 -14.752,74.5106 -8.3596,-0.1317 -35.2855,-0.3613 -59.8353,-0.5103 z m -699.364,-5.421 c -12.1,-0.369 -85.7875,-0.9882 -163.75,-1.3761 -101.3971,-0.5046 -141.75,-1.0163 -141.75,-1.7978 0,-0.6008 4.4494,-7.8566 9.8876,-16.1239 5.4382,-8.2673 16.3236,-25.3815 24.1899,-38.0315 7.8662,-12.65 19.5499,-30.875 25.9638,-40.5 6.4139,-9.625 16.5076,-24.925 22.4305,-34 20.0978,-30.7938 38.018,-57.2591 40.8221,-60.2878 3.0603,-3.3055 20.3162,-3.4397 91.7061,-0.7132 14.575,0.5566 46.2245,0.9566 70.3322,0.8888 52.411,-0.1474 45.6371,-7.8896 44.7201,51.1122 -0.4231,27.225 -0.4955,67.57 -0.1608,89.6555 0.6681,44.0889 0.5022,51.0397 -1.2298,51.5214 -0.6389,0.1777 -11.0617,0.021 -23.1617,-0.3476 z m -1334,-23.4345 c -1.1,-0.1831 -25.4,-1.0311 -54,-1.8845 -28.6,-0.8535 -53.181,-1.7907 -54.6244,-2.0829 -3.5762,-0.7238 -4.9985,-2.4556 -17.598,-21.4274 -6.0269,-9.075 -14.396,-21.675 -18.5981,-28 -8.10572,-12.2008 -21.15573,-28.3737 -35.50388,-44 -18.0794,-19.6899 -19.89401,-14.0012 19.25016,-60.3478 23.24622,-27.5235 23.32582,-27.6155 36.07422,-41.7115 6.6,-7.2976 16.5137,-18.2572 22.0305,-24.3545 12.1232,-13.3993 32.3003,-36.5088 42.2506,-48.3913 4.0046,-4.7822 7.8296,-8.8064 8.5,-8.9427 1.2606,-0.2563 82.1092,79.4068 101.2322,99.7478 14.6532,15.5865 30.9655,33.9481 43.5313,49 5.7395,6.875 13.9902,16.4765 18.335,21.3368 8.5384,9.5512 7.1206,11.3328 -64.3796,80.8996 -9.075,8.8296 -19.6584,19.3636 -23.5187,23.4087 -7.2693,7.6175 -11.0661,8.7326 -22.9813,6.7497 z M 2555.1112,1386.75 c -0.4616,-1.2375 -2.5041,-11.25 -4.5388,-22.25 -4.5457,-24.5743 -18.6241,-95.9564 -22.681,-115 -9.6195,-45.1553 -11.6044,-55.5593 -10.7056,-56.1148 1.1089,-0.6854 11.5326,-1.5762 51.8142,-4.4282 78.7941,-5.5786 85.6473,-5.7921 112,-3.4879 21.6884,1.8963 69.9699,7.3943 71.1073,8.0972 1.4654,0.9057 1.1306,3.7517 -4.5969,39.0764 -5.6157,34.6347 -7.3456,44.9748 -14.5315,86.8573 -2.2647,13.2 -4.5545,26.7 -5.0883,30 -5.2801,32.6412 -5.8898,34.1554 -14.0524,34.9005 -13.1717,1.2022 -53.957,2.6939 -98.8382,3.6148 -64.013,1.3135 -58.8865,1.4218 -59.8888,-1.2653 z M 907.5,1208.9074 c -4.4,-1.6474 -20.15,-7.4509 -35,-12.8967 -84.77639,-31.0889 -84.63641,-31.0276 -94.3285,-41.2831 -43.87713,-46.4273 -81.8009,-92.151 -84.6481,-102.0581 -3.3456,-11.6412 -4.26957,-92.35722 -2.42875,-212.1695 1.28728,-83.78402 -0.21056,-75.61362 13.01772,-71.00858 5.71319,1.98888 20.51263,6.09175 32.88763,9.11749 12.375,3.02573 34.425,8.4208 49,11.98904 28.94171,7.08547 42.00298,10.15023 57.90058,13.58604 15.55659,3.36211 18.72277,5.80723 62.32845,48.13404 29.36526,28.50403 27.95601,26.37718 23.43294,35.3652 -1.88673,3.74922 -6.35947,13.34177 -9.93943,21.31677 -11.39142,25.37643 -16.26988,35.05281 -27.22474,54 -10.6963,18.5 -10.6963,18.5 -10.01689,56 1.49552,82.5446 1.13654,79.7266 15.47783,121.5 5.70998,16.632 20.04126,66.7246 20.04126,70.0509 0,2.0011 -1.31627,1.7951 -10.5,-1.6435 z m 386.4908,1.3426 c -0.01,-1.7451 4.2609,-15.3373 21.0694,-67.0674 14.1002,-43.395 13.344,-37.4572 13.3958,-105.1826 0.044,-57.5 0.044,-57.5 -6.206,-68.17244 -3.4375,-5.86984 -6.25,-10.87002 -6.25,-11.11151 0,-0.24149 -1.8422,-3.76389 -4.0938,-7.82756 -2.2515,-4.06367 -6.4806,-12.78849 -9.3979,-19.38849 -2.9173,-6.6 -9.1751,-20.03066 -13.9062,-29.84591 -10.4005,-21.57693 -10.4053,-18.69722 0.049,-29.89099 51.9487,-55.62236 60.3537,-62.4049 83.5571,-67.42811 45.7356,-9.90112 130.7065,-31.63844 140.3565,-35.90611 2.945,-1.30244 5.5694,-2.02067 5.8318,-1.59607 2.5571,4.13758 3.1942,221.74904 0.7882,269.25959 -1.067,21.0703 -1.3535,22.0259 -9.4581,31.5496 -2.8747,3.3781 -9.8223,11.5427 -15.4389,18.1435 -5.6167,6.6009 -13.7167,15.762 -18,20.358 -4.2834,4.5961 -10.7053,11.7315 -14.2711,15.8565 -3.5658,4.125 -10.9962,12.45 -16.5121,18.5 -5.5159,6.05 -11.4415,12.8 -13.168,15 -4.2707,5.4417 -11.5774,9.6219 -26.3691,15.0858 -6.8572,2.5329 -23.2676,8.5779 -36.4676,13.4332 -22.1951,8.1639 -41.1509,15.3606 -64.2123,24.3786 -10.5418,4.1223 -11.2843,4.244 -11.2969,1.8524 z m 706.8124,-287.14872 c -1.0372,-2.6087 -0.2547,-132.98312 0.8045,-134.04234 1.3464,-1.3464 81.2676,-5.41708 148.3923,-7.55815 10.175,-0.32455 27.4623,-1.03524 38.4161,-1.57932 23.9274,-1.18846 21.3875,-3.56597 22.5761,21.13268 0.5412,11.24522 1.8807,33.94585 2.9767,50.44585 2.4047,36.20211 3.7724,70.31591 2.8769,71.75601 -1.9987,3.2142 -214.7638,3.06182 -216.0426,-0.15473 z m 1025.8196,-42.20579 c 0.2655,-15.61752 0.9073,-36.27049 1.4263,-45.89549 0.519,-9.625 1.4411,-26.725 2.0491,-38 0.6081,-11.275 1.3972,-20.76664 1.7537,-21.09253 0.8438,-0.77143 179.0306,0.94247 214.5596,2.06376 0.5466,0.0172 0.588,13.94013 0.1034,34.77877 -0.4444,19.1125 -1.0796,47.125 -1.4115,62.25 -0.6034,27.5 -0.6034,27.5 -35.1034,27.1405 -36.2904,-0.37816 -69.1591,0.65361 -123,3.86106 -68.4569,4.07816 -60.9266,7.2094 -60.3772,-25.10607 z m -1484.4903,6.35206 c -0.5441,-1.01671 -1.7062,-14.65084 -2.5824,-30.29806 -0.8762,-15.64722 -2.4717,-39.92449 -3.5457,-53.94949 -1.0739,-14.025 -2.2341,-31.35 -2.5781,-38.5 -1.1108,-23.08803 -1.3617,-23.30658 -30.4263,-26.50553 -15.9352,-1.75389 -15.5412,0.78799 -4.9048,-31.64508 14.1155,-43.0416 23.5545,-56.30577 45.8352,-64.40997 3.5367,-1.28641 8.0193,-3.14904 9.9614,-4.13918 1.9421,-0.99013 4.0723,-1.80024 4.7339,-1.80024 0.6615,0 5.4038,-1.62056 10.5385,-3.60124 31.7157,-12.23417 79.5894,-27.11258 81.29,-25.26368 8.2009,8.91563 30.7037,147.62548 29.3449,180.8858 -0.4628,11.33057 -1.1532,13.08571 -19.0696,48.47912 -7.4851,14.78663 -6.1768,13.86318 -31.8519,22.48099 -8.4577,2.83881 -16.7956,5.80441 -18.5287,6.59024 -1.7332,0.78582 -3.5627,1.42877 -4.0656,1.42877 -1.7995,0 -22.9851,7.13764 -33.7833,11.3819 -27.5291,10.82038 -29.0792,11.27292 -30.3675,8.86565 z M 661,885.39079 c -3.025,-1.38527 -10.03249,-3.79552 -15.5722,-5.35611 -5.53972,-1.56059 -16.33972,-5.10217 -24,-7.87017 C 613.76751,869.3965 599.175,864.16494 589,860.53881 553.90798,848.03284 557.73388,850.22356 552.25757,839.5 528.71562,793.40079 528.79586,794.21765 540.0273,715 c 4.51006,-31.8104 4.10528,-29.47802 12.56143,-72.3807 6.23473,-31.63223 7.5025,-36.6193 9.30907,-36.6193 6.0624,0 67.63093,20.53049 103.73366,34.59078 23.49057,9.14845 35.1286,25.10663 48.94484,67.11363 8.55477,26.00997 8.27052,29.24247 -2.5763,29.2986 -7.89097,0.0408 -26.33179,2.56901 -28.94679,3.96851 -2.70153,1.44582 -3.79092,5.97728 -4.45436,18.52848 -0.31979,6.05 -1.9284,29 -3.57469,51 -1.64629,22 -3.56271,48.31912 -4.25871,58.48694 -1.43947,21.02917 -1.05938,20.3907 -9.76545,16.40385 z M 942.45625,857.75 c -32.98157,-35.94306 -54.51318,-56.22596 -65.66172,-61.85372 -6.87144,-3.46869 -29.04867,-12.09749 -35.59603,-13.84984 -6.51355,-1.7433 -6.93126,0.66767 8.43851,-48.70519 3.18292,-10.22458 5.18631,-11.86229 42.36299,-34.63053 8.55286,-5.23806 35.31293,-23.15722 40.8938,-27.38343 5.42357,-4.1071 5.78724,-4.11114 6.9449,-0.0773 1.35173,4.71009 11.09612,26.64388 17.947,40.39717 3.24732,6.51906 8.75168,18.60283 12.2319,26.85283 3.48022,8.25 9.42753,22.2 13.21623,31 8.72082,20.25578 20.39717,49.18169 21.29187,52.74643 0.5916,2.35708 0.2475,2.96486 -2.5421,4.48984 -1.7745,0.97005 -5.75919,3.66985 -8.85495,5.99954 -3.09576,2.3297 -10.80365,7.78886 -17.12865,12.13147 -6.325,4.34261 -14.64036,10.19899 -18.47859,13.01419 -8.63959,6.33682 -9.13378,6.3325 -15.06516,-0.13147 z m 309.66795,-3.29137 c -4.0514,-3.04776 -9.0991,-6.42552 -11.2173,-7.50614 -2.1182,-1.08062 -5.3263,-3.2496 -7.1291,-4.81996 -1.8028,-1.57035 -4.8528,-3.65882 -6.7778,-4.64103 -4.9872,-2.54469 -18,-11.41578 -18,-12.271 0,-0.3952 2.2118,-7.46899 4.9151,-15.71953 4.8271,-14.73251 8.6254,-28.16127 17.5369,-62.00097 2.4622,-9.35 7.6006,-27.125 11.4186,-39.5 3.818,-12.375 7.9446,-27.225 9.1703,-33 3.6232,-17.07102 3.9354,-17.37777 11.8251,-11.61563 2.5487,1.86141 8.009,5.39214 12.134,7.84606 9.2127,5.48055 61.8822,38.64358 71.5,45.01957 13.8781,9.20025 12.9815,7.78085 19.1069,30.25 2.9987,11 6.3606,22.43727 7.4708,25.41615 2.5541,6.85316 2.5186,6.88832 -11.5777,11.4476 -33.2697,10.76073 -32.1589,10.05445 -60,38.14866 -41.3054,41.68089 -39.9464,40.79209 -50.3758,32.94622 z m -81.2879,-58.36576 c -5.8651,-3.83812 -13.2901,-8.42385 -16.5,-10.19052 -3.21,-1.76667 -8.6378,-4.94243 -12.0618,-7.05724 -3.424,-2.11481 -6.4038,-3.84511 -6.6218,-3.84511 -0.6444,0 -19.7066,-10.90452 -22.5451,-12.89693 C 1110.0458,759.95395 1101.2685,756 1099.5595,756 c -0.6524,0 -5.4327,3.22498 -10.6229,7.16661 -5.1901,3.94164 -12.3616,9.17337 -15.9366,11.62606 -3.575,2.4527 -9.2,6.41786 -12.5,8.81146 -29.0222,21.05083 -26.3537,20.40633 -28.5525,6.89587 -1.607,-9.87427 -13.0056,-56.92396 -20.0598,-82.80066 -6.848,-25.12013 -7.0136,-23.69934 2.7619,-23.69934 4.1423,0 21.1032,-0.75904 37.6909,-1.68676 32.0853,-1.79446 167.6869,-2.61706 169.2785,-1.02689 0.4329,0.43249 -1.5368,7.85749 -4.377,16.5 -2.8402,8.64251 -8.7978,27.63865 -13.2391,42.21365 -21.3171,69.95666 -18.7125,65.55168 -33.1666,56.09287 z M 2139.9426,766.75 c -2.1247,-9.25257 -5.0659,-149.02666 -3.1757,-150.91686 0.542,-0.54202 16.5103,-1.59679 35.8551,-2.36839 19.1829,-0.76513 42.528,-1.86879 51.878,-2.45258 9.35,-0.58379 27.35,-1.16285 40,-1.2868 27.6222,-0.27066 24.5492,-4.77194 27.4947,40.27463 2.0582,31.47637 6.2208,83.73948 7.5692,95.03433 0.8705,7.29104 0.4663,7.54767 -14.0639,8.92893 -6.6,0.6274 -18.975,1.99274 -27.5,3.03408 -8.525,1.04134 -18.875,2.17154 -23,2.51155 -4.125,0.34002 -12.45,1.24827 -18.5,2.01833 -6.05,0.77007 -19.55,1.88154 -30,2.46993 -10.45,0.5884 -22.5882,1.50475 -26.9738,2.03633 -7.261,0.88013 -19.4437,1.32587 -19.5836,0.71652 z M 2533.5,762.96841 c -79.8202,-0.85261 -189.1408,-2.94959 -198,-3.79803 -8.4149,-0.80588 -13.5069,-183.68713 -5.1703,-185.695 1.1937,-0.2875 25.3453,-0.95637 53.6703,-1.48639 28.325,-0.53002 56.675,-1.40667 63,-1.94811 18.0044,-1.54123 157.035,-5.62516 159.4856,-4.68477 2.7801,1.06681 4.0327,193.99616 1.2816,197.39389 -0.6448,0.79641 -3.2356,1.18105 -7.1396,1.05999 -3.3702,-0.1045 -33.5776,-0.48322 -67.1276,-0.84158 z M 3026,745.93894 c -25.575,-0.98092 -57.3,-2.15596 -70.5,-2.61121 -24,-0.82773 -24,-0.82773 -24,-64.17065 0,-34.83861 0.2607,-63.76597 0.5794,-64.28302 0.8938,-1.45012 167.5072,-0.68849 168.9675,0.7724 2.7276,2.72868 2.2373,99.39836 -0.6447,127.10354 -0.6466,6.21567 1.7899,6.11125 -74.4022,3.18894 z M 961.38711,666.38405 C 944.21409,625.28323 925.97117,556.25173 931.75,554.23679 c 3.15863,-1.10134 13.20197,-7.40484 53.75,-33.73515 36.7286,-23.85011 42.5097,-27.4037 45.118,-27.73368 2.5536,-0.32307 44.5076,44.99259 48.416,52.29548 1.7293,3.23138 1.3624,96.95691 -0.3865,98.71265 -0.6991,0.70186 -4.8433,1.94663 -9.2093,2.76617 -9.3523,1.7555 -11.2011,2.15379 -39.9382,8.60393 -12.1,2.71588 -27.0398,6.00534 -33.19947,7.30991 -6.15971,1.30457 -15.24439,3.53563 -20.18817,4.95792 -11.97645,3.44553 -12.88173,3.38221 -14.72525,-1.02997 z"
         id="path2" />
    </g>
  </g>
</svg>
