<svg width="2677" height="416" viewBox="0 0 2677 416" fill="none" xmlns="http://www.w3.org/2000/svg">
<path d="M1661.86 169.4V39.8H1680.94V169.4H1661.86ZM1671.22 169.4V153.74H1751.86V169.4H1671.22ZM1671.22 110.18V94.52H1745.38V110.18H1671.22ZM1671.22 55.46V39.8H1750.24V55.46H1671.22Z" fill="black"/>
<path d="M1816.07 171.02C1800.47 171.02 1787.99 167.3 1778.63 159.86C1769.27 152.42 1763.81 141.8 1762.25 128H1780.79C1781.87 137 1785.47 143.84 1791.59 148.52C1797.71 153.2 1805.99 155.54 1816.43 155.54C1825.19 155.54 1831.79 153.92 1836.23 150.68C1840.79 147.44 1843.07 142.82 1843.07 136.82C1843.07 131.42 1841.57 127.16 1838.57 124.04C1835.57 120.8 1830.83 118.16 1824.35 116.12L1801.85 108.92C1790.33 105.2 1781.87 100.52 1776.47 94.88C1771.07 89.24 1768.37 82.1 1768.37 73.46C1768.37 66.14 1770.17 59.84 1773.77 54.56C1777.49 49.28 1782.65 45.2 1789.25 42.32C1795.97 39.32 1803.77 37.82 1812.65 37.82C1826.33 37.82 1837.25 41.3 1845.41 48.26C1853.69 55.1 1858.43 64.64 1859.63 76.88H1841.09C1839.65 68.72 1836.53 62.78 1831.73 59.06C1826.93 55.22 1820.33 53.3 1811.93 53.3C1804.01 53.3 1797.83 54.86 1793.39 57.98C1788.95 61.1 1786.73 65.48 1786.73 71.12C1786.73 75.68 1788.17 79.52 1791.05 82.64C1794.05 85.64 1798.97 88.22 1805.81 90.38L1829.39 97.94C1840.31 101.42 1848.35 106.16 1853.51 112.16C1858.79 118.16 1861.43 125.72 1861.43 134.84C1861.43 146.36 1857.47 155.3 1849.55 161.66C1841.63 167.9 1830.47 171.02 1816.07 171.02Z" fill="black"/>
<path d="M1913.37 169.4V55.46H1869.63V39.8H1976.19V55.46H1932.45V169.4H1913.37Z" fill="black"/>
<path d="M1971.05 169.4V147.08H1993.19V169.4H1971.05Z" fill="black"/>
<path d="M2047.71 169.4V153.74C2060.31 143.42 2070.81 134.42 2079.21 126.74C2087.73 119.06 2094.51 112.22 2099.55 106.22C2104.59 100.22 2108.19 94.76 2110.35 89.84C2112.51 84.92 2113.59 80 2113.59 75.08C2113.59 68.36 2111.61 63.14 2107.65 59.42C2103.81 55.58 2098.47 53.66 2091.63 53.66C2084.55 53.66 2078.79 55.76 2074.35 59.96C2069.91 64.04 2067.15 69.86 2066.07 77.42H2046.63C2047.83 65.54 2052.45 56 2060.49 48.8C2068.65 41.6 2079.39 38 2092.71 38C2105.43 38 2115.45 41.36 2122.77 48.08C2130.21 54.8 2133.93 64.04 2133.93 75.8C2133.93 81.8 2132.79 87.8 2130.51 93.8C2128.35 99.68 2124.75 105.86 2119.71 112.34C2114.67 118.7 2107.89 125.78 2099.37 133.58C2090.97 141.26 2080.53 150.02 2068.05 159.86L2063.55 153.74H2136.27V169.4H2047.71Z" fill="black"/>
<path d="M2202.62 171.2C2192.18 171.2 2183 168.38 2175.08 162.74C2167.16 156.98 2160.98 149.06 2156.54 138.98C2152.1 128.78 2149.88 117.14 2149.88 104.06C2149.88 90.98 2152.1 79.52 2156.54 69.68C2160.98 59.72 2167.16 51.98 2175.08 46.46C2183 40.82 2192.18 38 2202.62 38C2213.06 38 2222.18 40.82 2229.98 46.46C2237.9 51.98 2244.08 59.72 2248.52 69.68C2252.96 79.52 2255.18 90.98 2255.18 104.06C2255.18 117.26 2252.96 128.9 2248.52 138.98C2244.08 149.06 2237.9 156.98 2229.98 162.74C2222.06 168.38 2212.94 171.2 2202.62 171.2ZM2202.62 154.82C2209.46 154.82 2215.28 152.72 2220.08 148.52C2224.88 144.2 2228.48 138.26 2230.88 130.7C2233.4 123.02 2234.66 114.08 2234.66 103.88C2234.66 93.8 2233.4 85.04 2230.88 77.6C2228.48 70.16 2224.88 64.46 2220.08 60.5C2215.4 56.42 2209.58 54.38 2202.62 54.38C2195.54 54.38 2189.6 56.42 2184.8 60.5C2180.12 64.58 2176.52 70.34 2174 77.78C2171.6 85.1 2170.4 93.8 2170.4 103.88C2170.4 114.08 2171.66 123.02 2174.18 130.7C2176.7 138.38 2180.3 144.32 2184.98 148.52C2189.78 152.72 2195.66 154.82 2202.62 154.82Z" fill="black"/>
<path d="M2287.32 92.54L2291.64 71.12L2274.36 85.34L2266.26 71.66L2287.32 64.46L2266.26 57.08L2274.36 43.4L2291.64 57.62L2287.32 36.2H2303.7L2299.56 57.62L2316.66 43.4L2324.76 57.08L2303.7 64.46L2324.76 71.66L2316.66 85.34L2299.56 71.12L2303.7 92.54H2287.32Z" fill="black"/>
<path d="M2359.74 92.54L2364.06 71.12L2346.78 85.34L2338.68 71.66L2359.74 64.46L2338.68 57.08L2346.78 43.4L2364.06 57.62L2359.74 36.2H2376.12L2371.98 57.62L2389.08 43.4L2397.18 57.08L2376.12 64.46L2397.18 71.66L2389.08 85.34L2371.98 71.12L2376.12 92.54H2359.74Z" fill="black"/>
<path d="M1386.02 413.4V269.4H1442.82C1453.22 269.4 1462.09 271.133 1469.42 274.6C1476.76 277.933 1482.42 282.667 1486.42 288.8C1490.42 294.8 1492.42 301.933 1492.42 310.2C1492.42 318.467 1490.42 325.667 1486.42 331.8C1482.42 337.933 1476.76 342.733 1469.42 346.2C1462.09 349.667 1453.22 351.4 1442.82 351.4H1402.02V334.2H1442.22C1451.82 334.2 1459.09 332.133 1464.02 328C1469.09 323.733 1471.62 317.867 1471.62 310.4C1471.62 302.933 1469.16 297.133 1464.22 293C1459.29 288.867 1451.96 286.8 1442.22 286.8H1407.22V413.4H1386.02ZM1469.22 413.4L1399.02 340.8H1424.82L1499.62 413.4H1469.22Z" fill="black"/>
<path d="M1518.25 413.4V269.4H1539.45V413.4H1518.25ZM1528.65 413.4V396H1618.25V413.4H1528.65ZM1528.65 347.6V330.2H1611.05V347.6H1528.65ZM1528.65 286.8V269.4H1616.45V286.8H1528.65Z" fill="black"/>
<path d="M1689.6 415.2C1672.26 415.2 1658.4 411.067 1648 402.8C1637.6 394.533 1631.53 382.733 1629.8 367.4H1650.4C1651.6 377.4 1655.6 385 1662.4 390.2C1669.2 395.4 1678.4 398 1690 398C1699.73 398 1707.06 396.2 1712 392.6C1717.06 389 1719.6 383.867 1719.6 377.2C1719.6 371.2 1717.93 366.467 1714.6 363C1711.26 359.4 1706 356.467 1698.8 354.2L1673.8 346.2C1661 342.067 1651.6 336.867 1645.6 330.6C1639.6 324.333 1636.6 316.4 1636.6 306.8C1636.6 298.667 1638.6 291.667 1642.6 285.8C1646.73 279.933 1652.46 275.4 1659.8 272.2C1667.26 268.867 1675.93 267.2 1685.8 267.2C1701 267.2 1713.13 271.067 1722.2 278.8C1731.4 286.4 1736.66 297 1738 310.6H1717.4C1715.8 301.533 1712.33 294.933 1707 290.8C1701.66 286.533 1694.33 284.4 1685 284.4C1676.2 284.4 1669.33 286.133 1664.4 289.6C1659.46 293.067 1657 297.933 1657 304.2C1657 309.267 1658.6 313.533 1661.8 317C1665.13 320.333 1670.6 323.2 1678.2 325.6L1704.4 334C1716.53 337.867 1725.46 343.133 1731.2 349.8C1737.06 356.467 1740 364.867 1740 375C1740 387.8 1735.6 397.733 1726.8 404.8C1718 411.733 1705.6 415.2 1689.6 415.2Z" fill="black"/>
<path d="M1797.71 413.4V286.8H1749.11V269.4H1867.51V286.8H1818.91V413.4H1797.71Z" fill="black"/>
<path d="M1856.14 413.4L1910.34 269.4H1928.74L1876.94 413.4H1856.14ZM1967.54 413.4L1915.74 269.4H1935.14L1989.54 413.4H1967.54ZM1883.54 356H1960.74V373.6H1883.54V356Z" fill="black"/>
<path d="M2057.84 415.4C2039.44 415.4 2025.31 410 2015.44 399.2C2005.58 388.4 2000.64 373 2000.64 353V269.4H2021.84V355.4C2021.84 369.133 2024.98 379.6 2031.24 386.8C2037.51 393.867 2046.38 397.4 2057.84 397.4C2069.58 397.4 2078.58 393.867 2084.84 386.8C2091.11 379.733 2094.24 369.267 2094.24 355.4V269.4H2115.44V353.4C2115.44 373.133 2110.44 388.4 2100.44 399.2C2090.58 410 2076.38 415.4 2057.84 415.4Z" fill="black"/>
<path d="M2141.49 413.4V269.4H2198.29C2208.69 269.4 2217.56 271.133 2224.89 274.6C2232.23 277.933 2237.89 282.667 2241.89 288.8C2245.89 294.8 2247.89 301.933 2247.89 310.2C2247.89 318.467 2245.89 325.667 2241.89 331.8C2237.89 337.933 2232.23 342.733 2224.89 346.2C2217.56 349.667 2208.69 351.4 2198.29 351.4H2157.49V334.2H2197.69C2207.29 334.2 2214.56 332.133 2219.49 328C2224.56 323.733 2227.09 317.867 2227.09 310.4C2227.09 302.933 2224.63 297.133 2219.69 293C2214.76 288.867 2207.43 286.8 2197.69 286.8H2162.69V413.4H2141.49ZM2224.69 413.4L2154.49 340.8H2180.29L2255.09 413.4H2224.69Z" fill="black"/>
<path d="M2265.32 413.4L2319.52 269.4H2337.92L2286.12 413.4H2265.32ZM2376.72 413.4L2324.92 269.4H2344.32L2398.72 413.4H2376.72ZM2292.72 356H2369.92V373.6H2292.72V356Z" fill="black"/>
<path d="M2420.01 413.4V269.4H2444.61L2521.01 392.6L2516.21 393.6V269.4H2536.61V413.4H2512.01L2435.61 290.2L2440.41 289.2V413.4H2420.01Z" fill="black"/>
<path d="M2606.5 413.4V286.8H2557.9V269.4H2676.3V286.8H2627.7V413.4H2606.5Z" fill="black"/>
<path d="M823.088 0.600004L842.888 4.6C840.088 16.2 836.688 27.6 832.688 38.8C828.821 50 824.487 60.4667 819.688 70.2C814.887 79.9333 809.821 88.4667 804.487 95.8C803.421 94.7333 801.754 93.4667 799.487 92C797.354 90.5333 795.154 89.1333 792.888 87.8C790.754 86.3333 788.954 85.2 787.487 84.4C792.821 77.7333 797.688 69.9333 802.088 61C806.621 51.9333 810.621 42.2667 814.088 32C817.688 21.6 820.688 11.1333 823.088 0.600004ZM818.688 40.4H882.688V59.2H809.287L818.688 40.4ZM900.487 0.600004L919.487 4.4C916.821 16 913.554 27.4 909.688 38.6C905.954 49.6667 901.688 60.0667 896.888 69.8C892.221 79.5333 887.221 88.0667 881.888 95.4C880.821 94.3333 879.221 93.0667 877.088 91.6C875.088 90.1333 873.088 88.7333 871.088 87.4C869.088 85.9333 867.287 84.7333 865.688 83.8C871.154 77.2667 876.087 69.5333 880.487 60.6C884.887 51.6667 888.754 42.0667 892.088 31.8C895.554 21.5333 898.354 11.1333 900.487 0.600004ZM902.088 40.4H976.088V59.2H892.688L902.088 40.4ZM830.888 48.8H849.888V186.2H830.888V48.8ZM928.287 47.8H947.487V162.6C947.487 168.067 946.821 172.333 945.487 175.4C944.287 178.467 941.821 180.8 938.088 182.4C934.488 184 929.754 184.933 923.888 185.2C918.154 185.6 911.287 185.8 903.287 185.8C902.887 183 902.088 179.667 900.888 175.8C899.688 172.067 898.354 168.8 896.888 166C900.888 166.133 904.688 166.267 908.288 166.4C912.021 166.4 915.221 166.4 917.888 166.4C920.688 166.4 922.621 166.4 923.688 166.4C925.421 166.267 926.621 165.933 927.287 165.4C927.954 164.733 928.287 163.667 928.287 162.2V47.8Z" fill="#AF151D"/>
<path d="M464.757 413.4V397H507.757C515.89 397 522.224 394.8 526.757 390.4C531.424 386 533.757 380 533.757 372.4C533.757 364.4 531.29 358 526.357 353.2C521.557 348.4 514.957 346 506.557 346H464.757V330H504.557C512.69 330 518.957 328.067 523.357 324.2C527.89 320.2 530.157 314.533 530.157 307.2C530.157 300.267 528.024 295 523.757 291.4C519.624 287.667 513.49 285.8 505.357 285.8H464.757V269.4H508.557C521.624 269.4 532.024 272.6 539.757 279C547.49 285.267 551.357 293.867 551.357 304.8C551.357 311.733 549.757 317.867 546.557 323.2C543.49 328.4 539.224 332.467 533.757 335.4C528.29 338.2 522.09 339.6 515.157 339.6L516.157 335.4C523.624 335.4 530.29 337.133 536.157 340.6C542.024 343.933 546.69 348.533 550.157 354.4C553.624 360.267 555.357 367.067 555.357 374.8C555.357 382.4 553.49 389.133 549.757 395C546.157 400.867 541.024 405.4 534.357 408.6C527.69 411.8 519.957 413.4 511.157 413.4H464.757ZM449.157 413.4V269.4H470.357V413.4H449.157Z" fill="#AF151D"/>
<path d="M564.976 413.4L619.176 269.4H637.576L585.776 413.4H564.976ZM676.376 413.4L624.576 269.4H643.976L698.376 413.4H676.376ZM592.376 356H669.576V373.6H592.376V356Z" fill="#AF151D"/>
<path d="M719.665 413.4V269.4H752.465L800.465 408.2H789.665L837.265 269.4H870.465V413.4H849.465V278H852.665L806.265 413.4H782.665L736.265 279.2H739.465V413.4H719.665Z" fill="#AF151D"/>
<path d="M915.734 413.4V397H958.734C966.867 397 973.2 394.8 977.734 390.4C982.4 386 984.734 380 984.734 372.4C984.734 364.4 982.267 358 977.334 353.2C972.534 348.4 965.934 346 957.534 346H915.734V330H955.534C963.667 330 969.934 328.067 974.334 324.2C978.867 320.2 981.134 314.533 981.134 307.2C981.134 300.267 979 295 974.734 291.4C970.6 287.667 964.467 285.8 956.334 285.8H915.734V269.4H959.534C972.6 269.4 983 272.6 990.734 279C998.467 285.267 1002.33 293.867 1002.33 304.8C1002.33 311.733 1000.73 317.867 997.534 323.2C994.467 328.4 990.2 332.467 984.734 335.4C979.267 338.2 973.067 339.6 966.134 339.6L967.134 335.4C974.6 335.4 981.267 337.133 987.134 340.6C993 343.933 997.667 348.533 1001.13 354.4C1004.6 360.267 1006.33 367.067 1006.33 374.8C1006.33 382.4 1004.47 389.133 1000.73 395C997.134 400.867 992 405.4 985.334 408.6C978.667 411.8 970.934 413.4 962.134 413.4H915.734ZM900.134 413.4V269.4H921.334V413.4H900.134Z" fill="#AF151D"/>
<path d="M1093.83 415.4C1083.56 415.4 1074.16 413.6 1065.63 410C1057.09 406.267 1049.69 401.067 1043.43 394.4C1037.16 387.733 1032.23 379.867 1028.63 370.8C1025.16 361.733 1023.43 351.733 1023.43 340.8C1023.43 326.4 1026.43 313.667 1032.43 302.6C1038.43 291.533 1046.69 282.933 1057.23 276.8C1067.89 270.533 1080.03 267.4 1093.63 267.4C1107.49 267.4 1119.69 270.533 1130.23 276.8C1140.76 282.933 1149.03 291.533 1155.03 302.6C1161.16 313.667 1164.23 326.467 1164.23 341C1164.23 351.8 1162.43 361.8 1158.83 371C1155.36 380.067 1150.49 387.933 1144.23 394.6C1137.96 401.133 1130.49 406.267 1121.83 410C1113.29 413.6 1103.96 415.4 1093.83 415.4ZM1093.63 397.4C1103.23 397.4 1111.69 395 1119.03 390.2C1126.36 385.267 1132.09 378.533 1136.23 370C1140.49 361.467 1142.63 351.667 1142.63 340.6C1142.63 329.667 1140.56 320.067 1136.43 311.8C1132.29 303.4 1126.56 296.933 1119.23 292.4C1111.89 287.733 1103.36 285.4 1093.63 285.4C1083.89 285.4 1075.36 287.733 1068.03 292.4C1060.83 296.933 1055.16 303.333 1051.03 311.6C1047.03 319.867 1045.03 329.533 1045.03 340.6C1045.03 351.8 1047.09 361.667 1051.23 370.2C1055.36 378.733 1061.03 385.4 1068.23 390.2C1075.56 395 1084.03 397.4 1093.63 397.4Z" fill="#AF151D"/>
<path d="M1252.81 415.4C1242.54 415.4 1233.14 413.6 1224.61 410C1216.08 406.267 1208.68 401.067 1202.41 394.4C1196.14 387.733 1191.21 379.867 1187.61 370.8C1184.14 361.733 1182.41 351.733 1182.41 340.8C1182.41 326.4 1185.41 313.667 1191.41 302.6C1197.41 291.533 1205.68 282.933 1216.21 276.8C1226.88 270.533 1239.01 267.4 1252.61 267.4C1266.48 267.4 1278.68 270.533 1289.21 276.8C1299.74 282.933 1308.01 291.533 1314.01 302.6C1320.14 313.667 1323.21 326.467 1323.21 341C1323.21 351.8 1321.41 361.8 1317.81 371C1314.34 380.067 1309.48 387.933 1303.21 394.6C1296.94 401.133 1289.48 406.267 1280.81 410C1272.28 413.6 1262.94 415.4 1252.81 415.4ZM1252.61 397.4C1262.21 397.4 1270.68 395 1278.01 390.2C1285.34 385.267 1291.08 378.533 1295.21 370C1299.48 361.467 1301.61 351.667 1301.61 340.6C1301.61 329.667 1299.54 320.067 1295.41 311.8C1291.28 303.4 1285.54 296.933 1278.21 292.4C1270.88 287.733 1262.34 285.4 1252.61 285.4C1242.88 285.4 1234.34 287.733 1227.01 292.4C1219.81 296.933 1214.14 303.333 1210.01 311.6C1206.01 319.867 1204.01 329.533 1204.01 340.6C1204.01 351.8 1206.08 361.667 1210.21 370.2C1214.34 378.733 1220.01 385.4 1227.21 390.2C1234.54 395 1243.01 397.4 1252.61 397.4Z" fill="#AF151D"/>
<path d="M103.487 133.8C103.087 132.6 102.488 130.867 101.688 128.6C101.021 126.333 100.287 124 99.4875 121.6C98.6875 119.2 97.8875 117.2 97.0875 115.6C99.6208 115.067 102.154 113.667 104.688 111.4C107.221 109.133 110.221 106.267 113.688 102.8C115.554 101.067 118.154 98.2 121.488 94.2C124.954 90.0667 128.821 85.2 133.087 79.6C137.354 73.8667 141.687 67.8 146.087 61.4C150.487 54.8667 154.487 48.2 158.087 41.4L174.887 52.2C166.487 65.4 157.154 78.2667 146.887 90.8C136.621 103.333 126.287 114.333 115.887 123.8V124.4C115.887 124.4 115.288 124.733 114.088 125.4C112.888 125.933 111.421 126.733 109.688 127.8C107.954 128.733 106.487 129.733 105.287 130.8C104.087 131.867 103.487 132.867 103.487 133.8ZM103.487 133.8L102.488 118.4L111.488 112.4L170.087 104.2C169.954 106.6 169.954 109.467 170.087 112.8C170.221 116.133 170.487 118.8 170.887 120.8C157.287 122.933 146.287 124.667 137.887 126C129.621 127.333 123.154 128.467 118.488 129.4C113.954 130.333 110.621 131.133 108.488 131.8C106.354 132.467 104.687 133.133 103.487 133.8ZM101.887 85.4C101.487 84.0667 100.888 82.2667 100.088 80C99.4208 77.7333 98.6875 75.4667 97.8875 73.2C97.0875 70.8 96.2875 68.7333 95.4875 67C97.4875 66.6 99.4208 65.3333 101.287 63.2C103.287 61.0667 105.487 58.4 107.887 55.2C109.087 53.6 110.821 50.9333 113.088 47.2C115.354 43.4667 117.821 39.0667 120.488 34C123.288 28.9333 126.087 23.4667 128.887 17.6C131.687 11.7333 134.154 5.86667 136.288 0L155.288 7.80001C151.554 15.9333 147.421 24.0667 142.887 32.2C138.354 40.2 133.621 47.8667 128.688 55.2C123.888 62.5333 118.954 69.1333 113.887 75V75.4C113.887 75.4 113.288 75.7333 112.088 76.4C110.888 77.0667 109.487 77.9333 107.887 79C106.287 80.0667 104.888 81.2 103.688 82.4C102.488 83.4667 101.887 84.4667 101.887 85.4ZM101.887 85.4L101.488 71.2L110.287 65.6L153.088 62C152.554 64.5333 152.087 67.4 151.688 70.6C151.421 73.6667 151.288 76.2 151.288 78.2C141.688 79.1333 133.888 80 127.888 80.8C121.888 81.4667 117.154 82.0667 113.688 82.6C110.354 83 107.821 83.4667 106.088 84C104.354 84.4 102.954 84.8667 101.887 85.4ZM96.6875 157C102.688 155.933 109.554 154.667 117.287 153.2C125.021 151.733 133.221 150.133 141.887 148.4C150.554 146.533 159.154 144.733 167.688 143L169.688 160.8C157.554 163.467 145.354 166.2 133.087 169C120.954 171.8 109.954 174.333 100.088 176.6L96.6875 157ZM174.488 18.4H277.688V37.4H174.488V18.4ZM171.488 154.6H282.087V173.6H171.488V154.6ZM216.288 24.8H236.688V165.6H216.288V24.8Z" fill="#AF151D"/>
<path d="M0 413.4V269.4H56.8C67.2 269.4 76.0667 271.133 83.4 274.6C90.7333 277.933 96.4 282.667 100.4 288.8C104.4 294.8 106.4 301.933 106.4 310.2C106.4 318.467 104.4 325.667 100.4 331.8C96.4 337.933 90.7333 342.733 83.4 346.2C76.0667 349.667 67.2 351.4 56.8 351.4H16V334.2H56.2C65.8 334.2 73.0667 332.133 78 328C83.0667 323.733 85.6 317.867 85.6 310.4C85.6 302.933 83.1333 297.133 78.2 293C73.2667 288.867 65.9333 286.8 56.2 286.8H21.2V413.4H0ZM83.2 413.4L13 340.8H38.8L113.6 413.4H83.2Z" fill="#AF151D"/>
<path d="M132.231 413.4V269.4H153.431V413.4H132.231ZM142.631 413.4V396H232.231V413.4H142.631ZM142.631 347.6V330.2H225.031V347.6H142.631ZM142.631 286.8V269.4H230.431V286.8H142.631Z" fill="#AF151D"/>
<path d="M271.789 413.4V395.8H309.589C321.056 395.8 330.856 393.467 338.989 388.8C347.256 384.133 353.589 377.667 357.989 369.4C362.389 361.133 364.589 351.533 364.589 340.6C364.589 329.8 362.389 320.4 357.989 312.4C353.722 304.4 347.456 298.2 339.189 293.8C331.056 289.267 321.189 287 309.589 287H271.989V269.4H309.589C325.056 269.4 338.522 272.333 349.989 278.2C361.456 284.067 370.322 292.4 376.589 303.2C382.989 313.867 386.189 326.467 386.189 341C386.189 355.533 382.989 368.267 376.589 379.2C370.189 390 361.256 398.4 349.789 404.4C338.456 410.4 325.122 413.4 309.789 413.4H271.789ZM258.989 413.4V269.4H280.189V413.4H258.989Z" fill="#AF151D"/>
</svg>
