<svg width="2686" height="416" viewBox="0 0 2686 416" fill="none" xmlns="http://www.w3.org/2000/svg">
<path d="M7.99998 133.8C7.59998 132.6 6.99998 130.867 6.19998 128.6C5.53331 126.333 4.79998 124 3.99998 121.6C3.19998 119.2 2.39998 117.2 1.59998 115.6C4.13331 115.067 6.66664 113.667 9.19998 111.4C11.7333 109.133 14.7333 106.267 18.2 102.8C20.0666 101.067 22.6666 98.2 26 94.2C29.4666 90.0667 33.3333 85.2 37.6 79.6C41.8666 73.8667 46.2 67.8 50.6 61.4C55 54.8667 59 48.2 62.6 41.4L79.4 52.2C71 65.4 61.6666 78.2667 51.4 90.8C41.1333 103.333 30.8 114.333 20.4 123.8V124.4C20.4 124.4 19.8 124.733 18.6 125.4C17.4 125.933 15.9333 126.733 14.2 127.8C12.4666 128.733 11 129.733 9.79998 130.8C8.59998 131.867 7.99998 132.867 7.99998 133.8ZM7.99998 133.8L6.99998 118.4L16 112.4L74.6 104.2C74.4666 106.6 74.4666 109.467 74.6 112.8C74.7333 116.133 75 118.8 75.4 120.8C61.8 122.933 50.8 124.667 42.4 126C34.1333 127.333 27.6666 128.467 23 129.4C18.4666 130.333 15.1333 131.133 13 131.8C10.8666 132.467 9.19998 133.133 7.99998 133.8ZM6.39998 85.4C5.99998 84.0667 5.39998 82.2667 4.59998 80C3.93331 77.7334 3.19998 75.4667 2.39998 73.2C1.59998 70.8 0.799976 68.7334 -2.4274e-05 67C1.99998 66.6 3.93331 65.3334 5.79998 63.2C7.79998 61.0667 9.99998 58.4 12.4 55.2C13.6 53.6 15.3333 50.9334 17.6 47.2C19.8666 43.4667 22.3333 39.0667 25 34C27.8 28.9334 30.6 23.4667 33.4 17.6C36.2 11.7333 38.6666 5.86668 40.8 1.19209e-05L59.8 7.80002C56.0666 15.9334 51.9333 24.0667 47.4 32.2C42.8666 40.2 38.1333 47.8667 33.2 55.2C28.4 62.5334 23.4666 69.1334 18.4 75V75.4C18.4 75.4 17.8 75.7334 16.6 76.4C15.4 77.0667 14 77.9334 12.4 79C10.8 80.0667 9.39998 81.2 8.19998 82.4C6.99998 83.4667 6.39998 84.4667 6.39998 85.4ZM6.39998 85.4L5.99998 71.2L14.8 65.6L57.6 62C57.0666 64.5334 56.6 67.4 56.2 70.6C55.9333 73.6667 55.8 76.2 55.8 78.2C46.2 79.1334 38.4 80 32.4 80.8C26.4 81.4667 21.6666 82.0667 18.2 82.6C14.8666 83 12.3333 83.4667 10.6 84C8.86664 84.4 7.46664 84.8667 6.39998 85.4ZM1.19998 157C7.19998 155.933 14.0666 154.667 21.8 153.2C29.5333 151.733 37.7333 150.133 46.4 148.4C55.0666 146.533 63.6666 144.733 72.2 143L74.2 160.8C62.0666 163.467 49.8666 166.2 37.6 169C25.4666 171.8 14.4666 174.333 4.59998 176.6L1.19998 157ZM79 18.4H182.2V37.4H79V18.4ZM76 154.6H186.6V173.6H76V154.6ZM120.8 24.8H141.2V165.6H120.8V24.8ZM471.319 0.600016L491.119 4.60001C488.319 16.2 484.919 27.6 480.919 38.8C477.052 50 472.719 60.4667 467.919 70.2C463.119 79.9334 458.052 88.4667 452.719 95.8C451.652 94.7334 449.985 93.4667 447.719 92C445.585 90.5334 443.385 89.1334 441.119 87.8C438.985 86.3334 437.185 85.2 435.719 84.4C441.052 77.7334 445.919 69.9334 450.319 61C454.852 51.9334 458.852 42.2667 462.319 32C465.919 21.6 468.919 11.1333 471.319 0.600016ZM466.919 40.4H530.919V59.2H457.519L466.919 40.4ZM548.719 0.600016L567.719 4.40001C565.052 16 561.785 27.4 557.919 38.6C554.185 49.6667 549.919 60.0667 545.119 69.8C540.452 79.5334 535.452 88.0667 530.119 95.4C529.052 94.3334 527.452 93.0667 525.319 91.6C523.319 90.1334 521.319 88.7334 519.319 87.4C517.319 85.9334 515.519 84.7334 513.919 83.8C519.385 77.2667 524.319 69.5334 528.719 60.6C533.119 51.6667 536.985 42.0667 540.319 31.8C543.785 21.5334 546.585 11.1333 548.719 0.600016ZM550.319 40.4H624.319V59.2H540.919L550.319 40.4ZM479.119 48.8H498.119V186.2H479.119V48.8ZM576.519 47.8H595.719V162.6C595.719 168.067 595.052 172.333 593.719 175.4C592.519 178.467 590.052 180.8 586.319 182.4C582.719 184 577.985 184.933 572.119 185.2C566.385 185.6 559.519 185.8 551.519 185.8C551.119 183 550.319 179.667 549.119 175.8C547.919 172.067 546.585 168.8 545.119 166C549.119 166.133 552.919 166.267 556.519 166.4C560.252 166.4 563.452 166.4 566.119 166.4C568.919 166.4 570.852 166.4 571.919 166.4C573.652 166.267 574.852 165.933 575.519 165.4C576.185 164.733 576.519 163.667 576.519 162.2V47.8ZM9.19998 413.4V269.4H66C76.4 269.4 85.2666 271.133 92.6 274.6C99.9333 277.933 105.6 282.667 109.6 288.8C113.6 294.8 115.6 301.933 115.6 310.2C115.6 318.467 113.6 325.667 109.6 331.8C105.6 337.933 99.9333 342.733 92.6 346.2C85.2666 349.667 76.4 351.4 66 351.4H25.2V334.2H65.4C75 334.2 82.2666 332.133 87.2 328C92.2667 323.733 94.8 317.867 94.8 310.4C94.8 302.933 92.3333 297.133 87.4 293C82.4666 288.867 75.1333 286.8 65.4 286.8H30.4V413.4H9.19998ZM92.4 413.4L22.2 340.8H48L122.8 413.4H92.4ZM141.431 413.4V269.4H162.631V413.4H141.431ZM151.831 413.4V396H241.431V413.4H151.831ZM151.831 347.6V330.2H234.231V347.6H151.831ZM151.831 286.8V269.4H239.631V286.8H151.831ZM280.989 413.4V395.8H318.789C330.256 395.8 340.056 393.467 348.189 388.8C356.456 384.133 362.789 377.667 367.189 369.4C371.589 361.133 373.789 351.533 373.789 340.6C373.789 329.8 371.589 320.4 367.189 312.4C362.922 304.4 356.656 298.2 348.389 293.8C340.256 289.267 330.389 287 318.789 287H281.189V269.4H318.789C334.256 269.4 347.722 272.333 359.189 278.2C370.656 284.067 379.522 292.4 385.789 303.2C392.189 313.867 395.389 326.467 395.389 341C395.389 355.533 392.189 368.267 385.789 379.2C379.389 390 370.456 398.4 358.989 404.4C347.656 410.4 334.322 413.4 318.989 413.4H280.989ZM268.189 413.4V269.4H289.389V413.4H268.189ZM473.828 413.4V397H516.828C524.961 397 531.295 394.8 535.828 390.4C540.495 386 542.828 380 542.828 372.4C542.828 364.4 540.361 358 535.428 353.2C530.628 348.4 524.028 346 515.628 346H473.828V330H513.628C521.761 330 528.028 328.067 532.428 324.2C536.961 320.2 539.228 314.533 539.228 307.2C539.228 300.267 537.095 295 532.828 291.4C528.695 287.667 522.561 285.8 514.428 285.8H473.828V269.4H517.628C530.695 269.4 541.095 272.6 548.828 279C556.561 285.267 560.428 293.867 560.428 304.8C560.428 311.733 558.828 317.867 555.628 323.2C552.561 328.4 548.295 332.467 542.828 335.4C537.361 338.2 531.161 339.6 524.228 339.6L525.228 335.4C532.695 335.4 539.361 337.133 545.228 340.6C551.095 343.933 555.761 348.533 559.228 354.4C562.695 360.267 564.428 367.067 564.428 374.8C564.428 382.4 562.561 389.133 558.828 395C555.228 400.867 550.095 405.4 543.428 408.6C536.761 411.8 529.028 413.4 520.228 413.4H473.828ZM458.228 413.4V269.4H479.428V413.4H458.228ZM574.047 413.4L628.247 269.4H646.647L594.847 413.4H574.047ZM685.447 413.4L633.647 269.4H653.047L707.447 413.4H685.447ZM601.447 356H678.647V373.6H601.447V356ZM728.736 413.4V269.4H761.536L809.536 408.2H798.736L846.336 269.4H879.536V413.4H858.536V278H861.736L815.336 413.4H791.736L745.336 279.2H748.536V413.4H728.736ZM924.805 413.4V397H967.805C975.938 397 982.271 394.8 986.805 390.4C991.471 386 993.805 380 993.805 372.4C993.805 364.4 991.338 358 986.405 353.2C981.605 348.4 975.005 346 966.605 346H924.805V330H964.605C972.738 330 979.005 328.067 983.405 324.2C987.938 320.2 990.205 314.533 990.205 307.2C990.205 300.267 988.071 295 983.805 291.4C979.671 287.667 973.538 285.8 965.405 285.8H924.805V269.4H968.605C981.671 269.4 992.071 272.6 999.805 279C1007.54 285.267 1011.4 293.867 1011.4 304.8C1011.4 311.733 1009.8 317.867 1006.6 323.2C1003.54 328.4 999.271 332.467 993.805 335.4C988.338 338.2 982.138 339.6 975.205 339.6L976.205 335.4C983.671 335.4 990.338 337.133 996.205 340.6C1002.07 343.933 1006.74 348.533 1010.2 354.4C1013.67 360.267 1015.4 367.067 1015.4 374.8C1015.4 382.4 1013.54 389.133 1009.8 395C1006.2 400.867 1001.07 405.4 994.405 408.6C987.738 411.8 980.005 413.4 971.205 413.4H924.805ZM909.205 413.4V269.4H930.405V413.4H909.205ZM1102.9 415.4C1092.63 415.4 1083.23 413.6 1074.7 410C1066.16 406.267 1058.76 401.067 1052.5 394.4C1046.23 387.733 1041.3 379.867 1037.7 370.8C1034.23 361.733 1032.5 351.733 1032.5 340.8C1032.5 326.4 1035.5 313.667 1041.5 302.6C1047.5 291.533 1055.76 282.933 1066.3 276.8C1076.96 270.533 1089.1 267.4 1102.7 267.4C1116.56 267.4 1128.76 270.533 1139.3 276.8C1149.83 282.933 1158.1 291.533 1164.1 302.6C1170.23 313.667 1173.3 326.467 1173.3 341C1173.3 351.8 1171.5 361.8 1167.9 371C1164.43 380.067 1159.56 387.933 1153.3 394.6C1147.03 401.133 1139.56 406.267 1130.9 410C1122.36 413.6 1113.03 415.4 1102.9 415.4ZM1102.7 397.4C1112.3 397.4 1120.76 395 1128.1 390.2C1135.43 385.267 1141.16 378.533 1145.3 370C1149.56 361.467 1151.7 351.667 1151.7 340.6C1151.7 329.667 1149.63 320.067 1145.5 311.8C1141.36 303.4 1135.63 296.933 1128.3 292.4C1120.96 287.733 1112.43 285.4 1102.7 285.4C1092.96 285.4 1084.43 287.733 1077.1 292.4C1069.9 296.933 1064.23 303.333 1060.1 311.6C1056.1 319.867 1054.1 329.533 1054.1 340.6C1054.1 351.8 1056.16 361.667 1060.3 370.2C1064.43 378.733 1070.1 385.4 1077.3 390.2C1084.63 395 1093.1 397.4 1102.7 397.4ZM1261.88 415.4C1251.61 415.4 1242.21 413.6 1233.68 410C1225.15 406.267 1217.75 401.067 1211.48 394.4C1205.21 387.733 1200.28 379.867 1196.68 370.8C1193.21 361.733 1191.48 351.733 1191.48 340.8C1191.48 326.4 1194.48 313.667 1200.48 302.6C1206.48 291.533 1214.75 282.933 1225.28 276.8C1235.95 270.533 1248.08 267.4 1261.68 267.4C1275.55 267.4 1287.75 270.533 1298.28 276.8C1308.81 282.933 1317.08 291.533 1323.08 302.6C1329.21 313.667 1332.28 326.467 1332.28 341C1332.28 351.8 1330.48 361.8 1326.88 371C1323.41 380.067 1318.55 387.933 1312.28 394.6C1306.01 401.133 1298.55 406.267 1289.88 410C1281.35 413.6 1272.01 415.4 1261.88 415.4ZM1261.68 397.4C1271.28 397.4 1279.75 395 1287.08 390.2C1294.41 385.267 1300.15 378.533 1304.28 370C1308.55 361.467 1310.68 351.667 1310.68 340.6C1310.68 329.667 1308.61 320.067 1304.48 311.8C1300.35 303.4 1294.61 296.933 1287.28 292.4C1279.95 287.733 1271.41 285.4 1261.68 285.4C1251.95 285.4 1243.41 287.733 1236.08 292.4C1228.88 296.933 1223.21 303.333 1219.08 311.6C1215.08 319.867 1213.08 329.533 1213.08 340.6C1213.08 351.8 1215.15 361.667 1219.28 370.2C1223.41 378.733 1229.08 385.4 1236.28 390.2C1243.61 395 1252.08 397.4 1261.68 397.4Z" fill="#AF151D"/>
<path d="M1394.94 413.4V269.4H1451.74C1462.14 269.4 1471.01 271.133 1478.34 274.6C1485.68 277.933 1491.34 282.667 1495.34 288.8C1499.34 294.8 1501.34 301.933 1501.34 310.2C1501.34 318.467 1499.34 325.667 1495.34 331.8C1491.34 337.933 1485.68 342.733 1478.34 346.2C1471.01 349.667 1462.14 351.4 1451.74 351.4H1410.94V334.2H1451.14C1460.74 334.2 1468.01 332.133 1472.94 328C1478.01 323.733 1480.54 317.867 1480.54 310.4C1480.54 302.933 1478.08 297.133 1473.14 293C1468.21 288.867 1460.88 286.8 1451.14 286.8H1416.14V413.4H1394.94ZM1478.14 413.4L1407.94 340.8H1433.74L1508.54 413.4H1478.14ZM1527.17 413.4V269.4H1548.37V413.4H1527.17ZM1537.57 413.4V396H1627.17V413.4H1537.57ZM1537.57 347.6V330.2H1619.97V347.6H1537.57ZM1537.57 286.8V269.4H1625.37V286.8H1537.57ZM1698.51 415.2C1681.18 415.2 1667.31 411.067 1656.91 402.8C1646.51 394.533 1640.45 382.733 1638.71 367.4H1659.31C1660.51 377.4 1664.51 385 1671.31 390.2C1678.11 395.4 1687.31 398 1698.91 398C1708.65 398 1715.98 396.2 1720.91 392.6C1725.98 389 1728.51 383.867 1728.51 377.2C1728.51 371.2 1726.85 366.467 1723.51 363C1720.18 359.4 1714.91 356.467 1707.71 354.2L1682.71 346.2C1669.91 342.067 1660.51 336.867 1654.51 330.6C1648.51 324.333 1645.51 316.4 1645.51 306.8C1645.51 298.667 1647.51 291.667 1651.51 285.8C1655.65 279.933 1661.38 275.4 1668.71 272.2C1676.18 268.867 1684.85 267.2 1694.71 267.2C1709.91 267.2 1722.05 271.067 1731.11 278.8C1740.31 286.4 1745.58 297 1746.91 310.6H1726.31C1724.71 301.533 1721.25 294.933 1715.91 290.8C1710.58 286.533 1703.25 284.4 1693.91 284.4C1685.11 284.4 1678.25 286.133 1673.31 289.6C1668.38 293.067 1665.91 297.933 1665.91 304.2C1665.91 309.267 1667.51 313.533 1670.71 317C1674.05 320.333 1679.51 323.2 1687.11 325.6L1713.31 334C1725.45 337.867 1734.38 343.133 1740.11 349.8C1745.98 356.467 1748.91 364.867 1748.91 375C1748.91 387.8 1744.51 397.733 1735.71 404.8C1726.91 411.733 1714.51 415.2 1698.51 415.2ZM1806.63 413.4V286.8H1758.03V269.4H1876.43V286.8H1827.83V413.4H1806.63ZM1865.06 413.4L1919.26 269.4H1937.66L1885.86 413.4H1865.06ZM1976.46 413.4L1924.66 269.4H1944.06L1998.46 413.4H1976.46ZM1892.46 356H1969.66V373.6H1892.46V356ZM2066.76 415.4C2048.36 415.4 2034.23 410 2024.36 399.2C2014.5 388.4 2009.56 373 2009.56 353V269.4H2030.76V355.4C2030.76 369.133 2033.9 379.6 2040.16 386.8C2046.43 393.867 2055.3 397.4 2066.76 397.4C2078.5 397.4 2087.5 393.867 2093.76 386.8C2100.03 379.733 2103.16 369.267 2103.16 355.4V269.4H2124.36V353.4C2124.36 373.133 2119.36 388.4 2109.36 399.2C2099.5 410 2085.3 415.4 2066.76 415.4ZM2150.41 413.4V269.4H2207.21C2217.61 269.4 2226.48 271.133 2233.81 274.6C2241.14 277.933 2246.81 282.667 2250.81 288.8C2254.81 294.8 2256.81 301.933 2256.81 310.2C2256.81 318.467 2254.81 325.667 2250.81 331.8C2246.81 337.933 2241.14 342.733 2233.81 346.2C2226.48 349.667 2217.61 351.4 2207.21 351.4H2166.41V334.2H2206.61C2216.21 334.2 2223.48 332.133 2228.41 328C2233.48 323.733 2236.01 317.867 2236.01 310.4C2236.01 302.933 2233.54 297.133 2228.61 293C2223.68 288.867 2216.34 286.8 2206.61 286.8H2171.61V413.4H2150.41ZM2233.61 413.4L2163.41 340.8H2189.21L2264.01 413.4H2233.61ZM2274.24 413.4L2328.44 269.4H2346.84L2295.04 413.4H2274.24ZM2385.64 413.4L2333.84 269.4H2353.24L2407.64 413.4H2385.64ZM2301.64 356H2378.84V373.6H2301.64V356ZM2428.93 413.4V269.4H2453.53L2529.93 392.6L2525.13 393.6V269.4H2545.53V413.4H2520.93L2444.53 290.2L2449.33 289.2V413.4H2428.93ZM2615.42 413.4V286.8H2566.82V269.4H2685.22V286.8H2636.62V413.4H2615.42Z" fill="#020001"/>
</svg>
